<?xml version="1.0" encoding="UTF-8" standalone="no"?>
<svg width="374" height="352" viewBox="0 0 374 352" xmlns="http://www.w3.org/2000/svg" xmlns:xlink="http://www.w3.org/1999/xlink"><defs><path d="M0 135.259c0 74.423 60.332 134.754 134.755 134.754s134.754-60.331 134.754-134.754C269.509 60.835 209.178.504 134.755.504 60.332.504 0 60.835 0 135.259z" id="a"/><path d="M0 135.259c0 74.423 60.332 134.754 134.755 134.754s134.754-60.331 134.754-134.754C269.509 60.835 209.178.504 134.755.504 60.332.504 0 60.835 0 135.259z" id="c"/></defs><g fill="none" fill-rule="evenodd"><path d="M102.4824 199.9504c4.625 17.043 10.652 66.69 4.502 72.699h-38.911c-.004-.069-.008-11.475-.012-11.543-14.423-1.596-25.64-13.824-25.64-28.672v-28.177c0-15.932 12.916-28.848 28.848-28.848h2.684c14.468 0 26.45 10.652 28.529 24.541" fill="#498DC9"/><path d="M102.4824 199.9504c4.625 17.043 10.652 66.69 4.502 72.699h-38.911c-.004-.069-.008-11.475-.012-11.543-14.423-1.596-25.64-13.824-25.64-28.672v-28.177c0-15.932 12.916-28.848 28.848-28.848h2.684c14.468 0 26.45 10.652 28.529 24.541z" stroke="#222" stroke-width="1.889"/><g transform="translate(0 81.238)"><mask id="b" fill="#fff"><use xlink:href="#a"/></mask><path d="M76.6396 176.5639s17.887.612 25.231 3.149l12.9 17.882 13.619 24.865 30.512 98.648h-116.48s17.084-114.849 25.652-129.696l8.566-14.848z" fill="#FFF" mask="url(#b)"/></g><g transform="translate(0 81.238)"><mask id="d" fill="#fff"><use xlink:href="#c"/></mask><path d="M76.6396 176.5639s17.887.612 25.231 3.149l12.9 17.882 13.619 24.865 30.512 98.648h-116.48s17.084-114.849 25.652-129.696l8.566-14.848z" stroke="#498DC9" stroke-width="1.783" mask="url(#d)"/></g><g><path d="M119.4482 197.8298c-11.448-10.91 15.231-52.488 33.92-85.552 18.619-33.068 29.173-57.558 55.369-79.33 26.132-21.844 67.837-40.974 99.953-29.517 32.183 11.529 54.706 53.642 62.392 98.3 7.684 44.659.535 91.795-25.55 103.485-26.015 11.693-70.892-12.124-118.046-14.184-47.227-1.995-96.66 17.703-108.038 6.798" fill="#5FBFFD"/><path d="M280.4463 6.4372c.003.252.21.453.462.45.252-.003.454-.211.45-.462-.003-.253-.21-.454-.462-.451-.252.004-.454.211-.45.463M295.2588 7.7756c.004.252.21.454.463.45.251-.003.453-.21.449-.462-.003-.252-.21-.454-.462-.45-.252.003-.453.21-.45.462M263.252 13.7765c.003.252.21.454.462.45.252-.003.454-.21.45-.462-.003-.252-.21-.454-.462-.45-.252.003-.453.21-.45.462M269.3838 12.5417c.009.636.531 1.146 1.168 1.137.637-.009 1.145-.532 1.138-1.168-.009-.636-.533-1.146-1.168-1.137-.637.008-1.147.531-1.138 1.168M231.8613 39.1652c-.502-.392-1.227-.302-1.618.2-.392.502-.302 1.227.2 1.618s1.227.302 1.618-.2.302-1.226-.2-1.618M224.0264 24.5295c-.198-.155-.485-.119-.64.08-.155.198-.12.485.079.64.199.155.486.119.641-.079.154-.199.119-.486-.08-.641M198.6318 108.0251c-.199-.155-.485-.12-.641.079-.155.199-.119.485.079.641.2.155.486.119.641-.08.155-.199.119-.485-.079-.64M239.5068 29.0475c-.199-.155-.485-.119-.641.08-.155.198-.119.485.079.64.2.155.486.119.641-.079.155-.199.119-.486-.079-.641M210.584 89.572c-.502-.392-1.227-.302-1.617.2-.392.502-.302 1.226.2 1.618.502.391 1.226.302 1.617-.2.392-.502.302-1.226-.2-1.618M198.7158 66.6745c-.502-.392-1.226-.302-1.617.2-.392.502-.302 1.227.2 1.618s1.227.302 1.617-.2c.392-.502.303-1.226-.2-1.618M313.7822 58.3195c.267-.578.014-1.263-.564-1.529-.579-.266-1.263-.013-1.53.565-.266.578-.013 1.263.565 1.529.579.266 1.263.013 1.529-.565M319.9346 21.071c.267-.578.014-1.263-.564-1.529-.579-.266-1.263-.013-1.53.565-.266.578-.013 1.263.565 1.529.579.267 1.263.014 1.529-.565M354.4531 132.1447c.266-.578.013-1.263-.565-1.529-.579-.266-1.263-.013-1.53.565-.265.578-.012 1.263.566 1.529s1.262.013 1.529-.565M316.4346 54.57c.105-.229.005-.5-.224-.605-.229-.105-.5-.005-.605.223-.106.229-.005.5.224.606.228.105.5.005.605-.224M366.9092 121.1706c.105-.229.005-.5-.224-.605-.229-.105-.5-.006-.605.223-.106.229-.006.5.224.606.228.105.5.005.605-.224M326.0029 9.2707c.105-.229.005-.5-.224-.605-.228-.105-.5-.005-.605.224-.106.229-.005.5.224.605.229.105.5.005.605-.224M279.8184 115.5461c.105-.229.005-.5-.224-.605-.228-.105-.5-.006-.605.223-.106.229-.005.5.224.606.228.105.5.005.605-.224M366.0508 137.2736c.105-.229.006-.5-.224-.605-.228-.106-.5-.006-.605.223-.105.229-.005.5.224.606.229.105.5.005.605-.224M333.6309 45.9904c.105-.229.005-.5-.224-.605-.229-.106-.5-.006-.605.223-.106.229-.005.5.224.606.228.105.5.005.605-.224M370.0977 116.0822c.267-.578.014-1.263-.564-1.529-.579-.266-1.264-.013-1.53.565s-.013 1.263.565 1.529 1.263.013 1.529-.565M300.5156 122.9611c.267-.578.014-1.263-.564-1.529-.579-.266-1.263-.013-1.53.565-.266.578-.013 1.263.566 1.529.578.267 1.262.014 1.528-.565M320.0918 106.1706c.267-.578.014-1.263-.564-1.529-.58-.266-1.264-.013-1.53.565s-.013 1.263.565 1.529 1.262.013 1.529-.565M331.4951 59.1877l7.253 17.333 12.869 9.325-12.541 9.761-6.653 17.567-7.248-17.328-12.874-9.325 12.546-9.762zM305.916 101.7018l2.057 5.526 3.918 3.087-4.056 2.903-2.308 5.425-2.054-5.525-3.92-3.086 4.057-2.904z" fill="#FCF36A"/><path d="M343.6035 145.2643c-29.684 10.386-62.166-5.256-72.552-34.939-7.377-21.083-1.624-43.578 12.965-58.564M212.8623 325.3874c-59.393 43.391-142.715 30.418-186.105-28.975-30.819-42.184-33.205-96.439-10.719-139.885" stroke="#C1DCF3" stroke-width="1.889"/><path d="M206.5059 325.3874l-.079-118.878M163.082 342.1286l31.996-134.321M239.4424 298.6725l-21.021-91.026" stroke="#222" stroke-width="1.889" stroke-linecap="round" stroke-linejoin="round"/><path stroke="#222" stroke-width="1.889" d="M188.3672 222.4084l37.789-.262-.039-5.654-37.789.262z"/><path d="M217.5791 210.6183c-7.937 1.885-19.236 1.475-25.236-.916-6-2.39-4.429-5.856 3.508-7.741 7.938-1.885 19.237-1.475 25.237.915 6 2.391 4.428 5.857-3.509 7.742" fill="#222"/><path d="M217.5791 210.6183c-7.937 1.885-19.236 1.475-25.236-.916-6-2.39-4.429-5.856 3.508-7.741 7.938-1.885 19.237-1.475 25.237.915 6 2.391 4.428 5.857-3.509 7.742z" stroke="#FFF" stroke-width="1.889"/><path fill="#75899D" d="M100.3057 195.9948l21.198-11.583 3.323 5.987-20.827 12.24z"/><path fill="#75899D" d="M121.4629 172.6022l-16.981 7.434 13.148 26.501 17.125-8.52z"/><path stroke="#222" stroke-width="1.889" d="M121.4629 172.6022l-16.981 7.434 13.148 26.501 17.125-8.52z"/><path fill="#3E4B56" d="M128.3896 146.0217l3.268 5.421 31.64-16.225-3.271-6.533z"/><path fill="#FFF" d="M162.1367 126.4328l-3.235 1.475 4.24 8.669 3.074-1.507z"/><path d="M148.332 142.9811l3.354 5.794" stroke="#222" stroke-width="1.867"/><path fill="#222" d="M208.832 201.5407l-12.527-28.893-5.188 2.249 12.528 28.893z"/><path fill="#3E4B56" d="M114.7705 167.236l19.365 37.147 122.477-58.257-19.565-39.52z"/><path stroke="#222" stroke-width="1.867" d="M227.5674 160.259l5.071-2.5-18.819-39.664-5.071 2.5 10.527 22.188"/><path d="M114.7705 167.236l19.365 37.147M134.1357 204.3835l62.593-30.059" stroke="#222" stroke-width="1.889"/><path d="M237.0479 106.6056l-122.277 60.63" fill="#FFF"/><path d="M237.0479 106.6056l-122.277 60.63" stroke="#222" stroke-width="1.889"/><path fill="#FFF" d="M234.543 105.7795l21.633 44.261 17.574-7.989-21.767-46.122z"/><path stroke="#222" stroke-width="1.889" d="M234.543 105.7795l21.633 44.261 17.574-7.989-21.767-46.122z"/><path d="M78.4756 233.6393l-10.326 30.618s21.644 9.591 34.396 2.625c0 0-4.605-13.294-7.521-30.774l-16.549-2.469z" fill="#C1DCF3"/><path d="M57.332 220.6994c6.785 15.763 25.063 23.042 40.826 16.258 15.764-6.784 14.737-23.646 7.953-39.409-6.784-15.764-16.758-24.459-32.52-17.675-15.764 6.784-23.043 25.063-16.259 40.826" fill="#C1DCF3"/><path d="M90.5781 214.759c1.896 3.945 6.632 5.606 10.577 3.71 3.945-1.896 5.607-6.632 3.711-10.577-1.896-3.946-6.633-5.607-10.578-3.71-3.945 1.896-5.606 6.632-3.71 10.577" fill="#A2C6E0"/><path d="M102.3379 220.9294s-3.78 3.719-8.582.439" stroke="#222" stroke-width="1.889" stroke-linecap="round" stroke-linejoin="round"/><path d="M82.8076 218.7053s-4.311-.655-7.187-2.636c-5.172-3.559-5.171-12.767 1.069-12.67 0 0 18.412-11.947 16.3-29.227 0 0-3.76-4.64-12.561-5.569-8.133-2.174-18.439-2.409-30.246 2.565-12.804 5.393-24.256 13.204-24.715 32.229-.487 20.251 9.391 31.77 9.391 31.77 14.098 27.404-24.506 29.514 7.563 44.998l42.926-2.675c2.535-6.023-2.684-29.534-5.959-41.725 2.817-5.516 5.961-13.35 3.419-17.06" fill="#498DC9"/><path d="M82.8076 218.7053s-4.311-.655-7.187-2.636c-5.172-3.559-5.171-12.767 1.069-12.67 0 0 18.412-11.947 16.3-29.227 0 0-3.76-4.64-12.561-5.569-8.133-2.174-18.439-2.409-30.246 2.565-12.804 5.393-24.256 13.204-24.715 32.229-.487 20.251 9.391 31.77 9.391 31.77 14.098 27.404-24.506 29.514 7.563 44.998l42.926-2.675c2.535-6.023-2.684-29.534-5.959-41.725 2.817-5.516 5.961-13.35 3.419-17.06z" stroke="#222" stroke-width="1.889"/><path d="M105.1436 194.5671s11.476 8.968 9.193 10.995c0 0-2.069 2.019-4.232 2.034M93.0303 199.6921s4.348-1.891 6.631-2.49" stroke="#222" stroke-width="1.889" stroke-linecap="round" stroke-linejoin="round"/><path d="M193.04 165.0334l-5.22-12.846c-.386-.95.466-1.937 1.462-1.692 2.218.547 16.194 13.942 14.41 22.857" fill="#C1DCF3"/><path d="M209.2344 175.694c3.373-7.69 5.774-19.108 5.774-19.108-1.541-11.175-5.072-16.014-8.964-15.318-2.352.42-3.897 2.742-3.315 5.059 2.399 9.54-6.169 27.026-6.169 27.026" fill="#C1DCF3"/><path d="M193.04 165.0334c5.221 12.846-.906 22.277-.906 22.277l13.657 4.887c2.437-9.039 3.443-16.503 3.443-16.503l-16.194-10.661z" fill="#C1DCF3"/><path d="M127.1494 301.6554s24.764-14.396 32.101-22.001c38.685-40.102 52.465-94.712 52.465-94.712l-22.731 2.368s-16.225 32.14-39.297 59.636c-12.391 14.766-34.619 14.859-51.641 30.695" fill="#FFF"/><path d="M127.1494 301.6554s24.764-14.396 32.101-22.001c38.685-40.102 52.465-94.712 52.465-94.712l-22.731 2.368s-16.225 32.14-39.297 59.636c-12.391 14.766-34.619 14.859-51.641 30.695" stroke="#498DC9" stroke-width="1.783"/><path d="M91.7471 307.3932s4.996 7.085 20.819 1.695c0 0 13.904-5.995 27.596-15.399M103.1758 266.2521s-10.919 3.857-26.536.141" stroke="#498DC9" stroke-width="1.889" stroke-linecap="round" stroke-linejoin="round"/></g></g></svg>
