<?xml version="1.0" encoding="utf-8"?>
<!-- Generator: Adobe Illustrator 23.0.2, SVG Export Plug-In . SVG Version: 6.00 Build 0)  -->
<svg version="1.1" id="Livello_1" xmlns="http://www.w3.org/2000/svg" xmlns:xlink="http://www.w3.org/1999/xlink" x="0px" y="0px"
	 viewBox="0 0 1366 944" style="enable-background:new 0 0 1366 944;" xml:space="preserve">
<style type="text/css">
	.st0{fill:#F0F7FD;}
	.st1{fill:#C1DCF3;}
	.st2{fill:#FFFFFF;stroke:#222222;stroke-width:2.1397;stroke-miterlimit:10;}
	.st3{fill:#222222;}
	.st4{fill:none;stroke:#5FBFFD;stroke-width:2.3008;stroke-linecap:round;stroke-linejoin:round;stroke-miterlimit:10;}
	.st5{fill:none;stroke:#F0F7FD;stroke-width:3;stroke-linecap:round;stroke-linejoin:round;stroke-miterlimit:10;}
	.st6{fill:#E4F0F9;}
	.st7{fill:#FCF36A;}
	.st8{fill:#FFFFFF;}
	.st9{fill:none;stroke:#5FBFFD;stroke-width:3;stroke-linecap:round;stroke-miterlimit:10;}
	.st10{fill:none;stroke:#75899D;stroke-width:2.7883;stroke-miterlimit:10;}
	.st11{fill:#5FBFFD;}
	.st12{fill:none;stroke:#3E4B56;stroke-width:2;stroke-miterlimit:10;}
	.st13{fill:none;stroke:#C1DCF3;stroke-width:2;stroke-miterlimit:10;}
	.st14{clip-path:url(#SVGID_2_);fill:#FCF36A;}
	.st15{clip-path:url(#SVGID_2_);fill:none;stroke:#FCF36A;stroke-width:1.3188;stroke-miterlimit:10;}
	.st16{fill:url(#);stroke:#FCF36A;stroke-width:2.096;stroke-miterlimit:10;}
	.st17{fill-rule:evenodd;clip-rule:evenodd;fill:#5FBFFD;stroke:#222222;stroke-width:2;stroke-miterlimit:10;}
	.st18{fill:none;stroke:#C1DCF3;stroke-width:2.9237;stroke-linecap:round;stroke-linejoin:round;stroke-miterlimit:10;}
	.st19{fill:#75899D;}
	.st20{fill:#498DC9;}
	.st21{fill:none;stroke:#75899D;stroke-width:2.264;stroke-miterlimit:10;}
	.st22{fill:none;stroke:#75899D;stroke-width:2.264;stroke-linecap:round;stroke-linejoin:round;stroke-miterlimit:10;}
	.st23{fill:#A2C6E0;}
	.st24{fill:none;stroke:#222222;stroke-width:2.2415;stroke-linecap:round;stroke-linejoin:round;stroke-miterlimit:10;}
	
		.st25{fill-rule:evenodd;clip-rule:evenodd;fill:#222222;stroke:#222222;stroke-width:2.338;stroke-linecap:round;stroke-linejoin:round;stroke-miterlimit:10;}
	.st26{fill:none;stroke:#FFFFFF;stroke-width:2.2291;stroke-linecap:round;stroke-linejoin:round;stroke-miterlimit:10;}
	.st27{fill:#FFFFFF;stroke:#3E4B56;stroke-width:2.2644;stroke-miterlimit:10;}
	.st28{fill:#3E4B56;}
	.st29{fill:none;stroke:#222222;stroke-width:2.2374;stroke-miterlimit:10;}
	.st30{fill:none;stroke:#FCF36A;stroke-width:2.2644;stroke-miterlimit:10;}
	.st31{fill:none;stroke:#5FBFFD;stroke-width:2.2644;stroke-miterlimit:10;}
	.st32{fill:none;stroke:#222222;stroke-width:3.5226;stroke-miterlimit:10;}
	.st33{fill:none;stroke:#222222;stroke-width:2.2644;stroke-miterlimit:10;}
	.st34{fill:#5FBFFD;stroke:#FFFFFF;stroke-width:2.2644;stroke-miterlimit:10;}
	.st35{fill:#5FBFFD;stroke:#000000;stroke-width:2.2644;stroke-miterlimit:10;}
	.st36{fill:none;stroke:#222222;stroke-width:2.2644;stroke-linecap:round;stroke-linejoin:round;stroke-miterlimit:10;}
	.st37{fill:none;stroke:#5FBFFD;stroke-width:2.2374;stroke-linecap:round;stroke-linejoin:round;stroke-miterlimit:10;}
	.st38{fill:#75899D;stroke:#3E4B56;stroke-width:2.2644;stroke-miterlimit:10;}
	.st39{fill:none;stroke:#5FBFFD;stroke-width:2.2644;stroke-linecap:round;stroke-miterlimit:10;}
	.st40{fill:none;}
	.st41{fill:#FFFFFF;stroke:#5FBFFD;stroke-width:2.7883;stroke-miterlimit:10;}
	.st42{fill:none;stroke:#75899D;stroke-width:2.3834;stroke-linecap:round;stroke-miterlimit:10;}
	.st43{fill:url(#);stroke:#5FBFFD;stroke-width:2.3834;stroke-linecap:round;stroke-miterlimit:10;}
	.st44{fill:none;stroke:#C1DCF3;stroke-width:2.3834;stroke-miterlimit:10;}
	.st45{fill:none;stroke:#222222;stroke-width:2.0962;stroke-linecap:round;stroke-linejoin:round;stroke-miterlimit:10;}
	.st46{fill:#FFFFFF;stroke:#222222;stroke-width:2.1381;stroke-miterlimit:10;}
	.st47{fill:#FCF36A;stroke:#FFFFFF;stroke-width:2.0962;stroke-miterlimit:10;}
	.st48{fill:none;stroke:#000000;stroke-width:0.6987;stroke-miterlimit:10;}
	.st49{fill:none;stroke:#5FBFFD;stroke-width:2.0962;stroke-linecap:round;stroke-miterlimit:10;}
	.st50{fill:none;stroke:#222222;stroke-width:2.0962;stroke-miterlimit:10;}
	.st51{fill:none;stroke:#FFFFFF;stroke-width:2.0962;stroke-miterlimit:10;}
	.st52{fill:#FFFFFF;stroke:#FCF36A;stroke-width:3.2137;stroke-linecap:round;stroke-miterlimit:10;}
	.st53{fill:#FFFFFF;stroke:#222222;stroke-width:2.0736;stroke-miterlimit:10;}
	.st54{fill:#FFFFFF;stroke:#5FBFFD;stroke-width:2.0736;stroke-miterlimit:10;}
	.st55{fill:none;stroke:#FFFFFF;stroke-width:2.0736;stroke-miterlimit:10;}
	.st56{fill:none;stroke:#5FBFFD;stroke-width:2.0736;stroke-linecap:round;stroke-linejoin:round;stroke-miterlimit:10;}
	.st57{fill:url(#);stroke:url(#);stroke-width:0.9982;stroke-miterlimit:10;}
	.st58{fill:none;stroke:#222222;stroke-width:2;stroke-miterlimit:10;}
	.st59{fill:none;stroke:#FCF36A;stroke-width:3;stroke-miterlimit:10;}
	.st60{fill:none;stroke:#FCF36A;stroke-width:2;stroke-miterlimit:10;}
	.st61{fill:none;stroke:#C1DCF3;stroke-width:3;stroke-linecap:round;stroke-linejoin:round;stroke-miterlimit:10;}
	.st62{fill:#FFFFFF;stroke:#222222;stroke-width:3;stroke-miterlimit:10;}
	.st63{fill:none;stroke:#222222;stroke-width:3;stroke-linecap:round;stroke-linejoin:round;stroke-miterlimit:10;}
	.st64{fill:#5FBFFD;stroke:#222222;stroke-width:3;stroke-miterlimit:10;}
	.st65{fill:#FFFFFF;stroke:#5FBFFD;stroke-width:3;stroke-miterlimit:10;}
	.st66{fill:none;stroke:#FFFFFF;stroke-width:3;stroke-miterlimit:10;}
	.st67{fill:none;stroke:#222222;stroke-width:3;stroke-miterlimit:10;}
	.st68{fill:#FCF36A;stroke:#FFFFFF;stroke-width:3;stroke-miterlimit:10;}
	.st69{fill:none;stroke:#222222;stroke-width:2.2322;stroke-linecap:round;stroke-linejoin:round;stroke-miterlimit:10;}
	.st70{fill:#5FBFFD;stroke:#222222;stroke-width:2.2322;stroke-miterlimit:10;}
	.st71{fill:none;stroke:#222222;stroke-width:2.2322;stroke-miterlimit:10;}
	.st72{fill:none;stroke:#FFFFFF;stroke-width:2.2322;stroke-miterlimit:10;}
	.st73{fill:none;stroke:#5FBFFD;stroke-width:3;stroke-linecap:round;stroke-linejoin:round;stroke-miterlimit:10;}
	.st74{fill:none;stroke:#FCF36A;stroke-width:3;stroke-linecap:round;stroke-miterlimit:10;}
	.st75{fill:none;stroke:#FFFFFF;stroke-width:3;stroke-linecap:round;stroke-miterlimit:10;}
	.st76{fill:#FFFFFF;stroke:#222222;stroke-width:2.2322;stroke-miterlimit:10;}
	.st77{fill:#FFFFFF;stroke:#222222;stroke-width:2.2564;stroke-linecap:round;stroke-linejoin:round;stroke-miterlimit:10;}
	.st78{fill:#FCF36A;stroke:#FFFFFF;stroke-width:2.4305;stroke-miterlimit:10;}
	.st79{fill:none;stroke:#222222;stroke-width:2.4305;stroke-linecap:round;stroke-linejoin:round;stroke-miterlimit:10;}
	.st80{fill:#F0F7FD;stroke:#FFFFFF;stroke-width:3;stroke-miterlimit:10;}
	.st81{fill:none;stroke:#222222;stroke-width:1.9114;stroke-linecap:round;stroke-linejoin:round;stroke-miterlimit:10;}
	
		.st82{fill-rule:evenodd;clip-rule:evenodd;fill:#5FBFFD;stroke:#222222;stroke-width:1.9937;stroke-linecap:round;stroke-linejoin:round;stroke-miterlimit:10;}
	.st83{fill:none;stroke:#222222;stroke-width:1.9008;stroke-linecap:round;stroke-linejoin:round;stroke-miterlimit:10;}
	.st84{fill:#FFFFFF;stroke:#222222;stroke-width:1.7488;stroke-miterlimit:10;}
	.st85{fill:none;stroke:#5FBFFD;stroke-width:1.8815;stroke-linecap:round;stroke-linejoin:round;stroke-miterlimit:10;}
	.st86{fill:none;stroke:#5FBFFD;stroke-width:1.7488;stroke-linecap:round;stroke-miterlimit:10;}
	.st87{fill:none;stroke:#FCF36A;stroke-width:2.1565;stroke-linecap:round;stroke-miterlimit:10;}
	.st88{fill:none;stroke:#FCF36A;stroke-width:1.7488;stroke-linecap:round;stroke-miterlimit:10;}
	.st89{fill:#FFFFFF;stroke:#222222;stroke-width:1.7488;stroke-linecap:round;stroke-linejoin:round;stroke-miterlimit:10;}
	.st90{fill:none;stroke:#FFFFFF;stroke-width:1.7488;stroke-linecap:round;stroke-linejoin:round;stroke-miterlimit:10;}
	.st91{fill:#FFFFFF;stroke:#75899D;stroke-width:1.7488;stroke-miterlimit:10;}
	.st92{fill:url(#);}
</style>
<polygon class="st0" points="250.4,586.3 399.4,702.8 425.8,515.5 "/>
<path class="st1" d="M330.7,577.2c0.4,2.5-1,5-2.9,6.6c-1.9,1.6-4.3,2.6-6.7,3.5c-3.5,1.4-7.1,2.7-10.6,4.1
	c6.2,2.5,12.1,6,16.7,10.8c4.6,4.8,13.5,14.4,8.3,17.8c-7.2,4.5-20.5-3.3-22.4-4.1c-10.7-4.5-19.2-10.9-29.5-16.2
	c6.9-8.6,1-12,12.1-13.9C298.3,585.5,330.9,578.6,330.7,577.2z"/>
<path class="st1" d="M310.4,597c-45.3-25.9-63.3-74.7-63.3-74.7s-12.5-71.2-21.2-84.1l-19.2-24.9c0,0-20.5-4.3-11.2,41.4
	c0,0,7.2,39.5,23.3,83.6c0,0,35.2,46.1,67.3,62.6"/>
<path class="st2" d="M199.1,871c0,0-1.7,35.9,1.7,43.2l8.1,12.5L184,914.2l-3.5-6.5c0,0,7.1-25.3-1.4-47.7L199.1,871z"/>
<path class="st3" d="M175,926.2c1.5,2.3,3.9,3.9,6.5,4.8c6.4,2.4,14,3.2,20.7,4.9c7.2,1.8,14.5,4.2,21.8,5.4
	c4.3,0.7,6.8-4.7,3.5-7.5c-0.5-0.5-1.1-0.9-1.6-1.3c-7.5-5.8-23.9-15.6-32-20.5c-4.1-2.5-11.1-6.6-15.5-2.6c-4,3.7-6.6,11-3.8,16.1
	C174.7,925.8,174.9,926,175,926.2z"/>
<path class="st4" d="M218.9,929.3c0,0-9.5,1.3-9.5-2.8c0,0,11.2-5.2,2.4-8.1c0,0-11.8,4.8-13.4,2.3"/>
<path class="st2" d="M244.9,854.8c0,0-7.3,58.3-4,65.6l7.8,12.5l-24.4-12.7l-3.4-6.5c0,0,8.3-5.5,0.2-27.8L244.9,854.8z"/>
<path class="st3" d="M216.1,929.4c1.4,2.2,3.8,3.8,6.2,4.8c6.2,2.4,13.6,3.4,20.1,5.1c7,1.8,14,4.3,21.1,5.6
	c4.2,0.8,6.7-4.4,3.5-7.2c-0.5-0.5-1.1-0.9-1.6-1.3c-7.2-5.8-23-15.5-30.8-20.4c-4-2.5-10.7-6.5-15-2.7c-4,3.5-6.6,10.6-4,15.6
	C215.8,928.9,216,929.2,216.1,929.4z"/>
<path class="st5" d="M677.2,549.5c0,0,141.8-308.8,295.2-75.5c0,0,90.7,160.5,222.3-5.1c0,0,60.5-99.1,138.7-38"/>
<circle class="st0" cx="521" cy="388" r="195"/>
<rect x="405.5" y="286.5" class="st6" width="158.5" height="44.4"/>
<circle class="st7" cx="464.8" cy="371.3" r="34.7"/>
<circle class="st8" cx="1092.1" cy="287" r="28"/>
<circle class="st9" cx="165.4" cy="159.4" r="29.3"/>
<polygon class="st0" points="325,196 363.2,225.9 370,177.9 "/>
<rect x="246.4" y="223.6" transform="matrix(0.4416 0.8972 -0.8972 0.4416 360.52 -101.3882)" class="st0" width="30.7" height="30.7"/>
<rect x="1065.4" y="221" transform="matrix(0.4416 0.8972 -0.8972 0.4416 808.062 -835.9533)" class="st0" width="20.4" height="20.4"/>
<rect x="1129.8" y="329.4" transform="matrix(0.4416 0.8972 -0.8972 0.4416 953.5108 -836.0678)" class="st8" width="37.2" height="37.2"/>
<polygon class="st0" points="1008.4,484.8 1048.5,479.9 1024.2,447.5 "/>
<polygon class="st8" points="1024.5,299.9 1073,299.9 1048.7,257.9 "/>
<rect x="1083.1" y="486.8" transform="matrix(0.4416 0.8972 -0.8972 0.4416 1057.2668 -703.6314)" class="st9" width="21.6" height="21.6"/>
<rect x="665.4" y="192" transform="matrix(-1.836970e-16 1 -1 -1.836970e-16 1054.7047 -473.3815)" class="st0" width="197.3" height="197.3"/>
<polygon class="st1" points="405,423 489,504 723.5,504 640.3,422 "/>
<rect x="405" y="379" class="st6" width="169" height="44"/>
<g>
	<line class="st10" x1="692.5" y1="433.5" x2="861.5" y2="848.5"/>
	<line class="st10" x1="559.5" y1="434.5" x2="733.5" y2="862.5"/>
	<line class="st10" x1="662" y1="684.5" x2="794" y2="684.5"/>
	<line class="st10" x1="635" y1="617.5" x2="767" y2="617.5"/>
	<line class="st10" x1="609" y1="550.5" x2="741" y2="550.5"/>
	<line class="st10" x1="581" y1="483.5" x2="713" y2="483.5"/>
	<line class="st10" x1="688.5" y1="751.5" x2="821.5" y2="751.5"/>
	<line class="st10" x1="716.5" y1="823.5" x2="852" y2="823.5"/>
</g>
<path class="st2" d="M806,753c0,0,1.7,35.9-1.7,43.2l-8.1,12.5l24.9-12.5l3.5-6.5c0,0-7.1-25.3,1.4-47.7L806,753z"/>
<path class="st3" d="M830.1,808.2c-1.5,2.3-3.9,3.9-6.5,4.8c-6.4,2.4-14,3.2-20.7,4.9c-7.2,1.8-14.5,4.2-21.8,5.4
	c-4.3,0.7-6.8-4.7-3.5-7.5c0.5-0.5,1.1-0.9,1.6-1.3c7.5-5.8,23.9-15.6,32-20.5c4.1-2.5,11.1-6.6,15.5-2.6c4,3.7,6.6,11,3.8,16.1
	C830.3,807.8,830.2,808,830.1,808.2z"/>
<path class="st4" d="M786.2,811.3c0,0,9.5,1.3,9.5-2.8c0,0-11.2-5.2-2.4-8.1c0,0,11.8,4.8,13.4,2.3"/>
<g>
	<path class="st11" d="M794.7,439.9C783.1,480.2,772.8,556.6,778,598c6.5,52.1,11,82,26,161c1.3,6.8,21.8,6.7,23,0
		c14-76-5.3-123.4-2-153c5-45,22.6-96,13-125.3C823.4,467.2,809.5,453.4,794.7,439.9z"/>
</g>
<path class="st1" d="M773,230l15,42c0,0-18.1,23-49,9c0,0,15.6-17.1,10.8-36.9L773,230z"/>
<path class="st2" d="M720,673c0,0,34.4,47.7,35,55.6l-0.8,14.7l15.3-22.9l-0.2-7.3c0,0-9.9-0.9-13.5-24.2L720,673z"/>
<path class="st3" d="M781.1,724.6c-0.2,2.6-1.4,5.2-3.2,7.2c-4.3,5.1-10.3,9.5-15.2,14.1c-5.2,5-10.3,10.5-15.8,15.1
	c-3.3,2.7-8-0.7-6.6-4.7c0.2-0.7,0.5-1.3,0.7-1.9c3.5-8.5,12.7-24.7,17.2-32.7c2.3-4.1,6.2-10.9,11.8-9.6c5.2,1.2,10.8,6.2,11,11.8
	C781.2,724.1,781.2,724.3,781.1,724.6z"/>
<g>
	<path class="st41" d="M696.5,569.5c37-5,64.8-11.3,94-31c29.2-19.7,29.4-43.7,18.8-72.2c-26.9,5.7-57,7.5-81.2,19.9
		c-24.2,12.4-43.6,18.3-67,40.3c-20.6,19.4-30.6,23-10.7,52.3c33,50.7,63,92.7,81,114.7c0,0,19.3-0.5,24-5c-12.8-40.3-19-94-61-120"
		/>
</g>
<path class="st1" d="M787.1,212.3c-1.8,20.2-19.7,35.1-39.9,33.2c-20.2-1.8-25.2-21.1-23.4-41.3s9.8-33.6,30-31.8
	S789,192.1,787.1,212.3z"/>
<circle class="st23" cx="738.7" cy="217.3" r="9.4"/>
<circle class="st3" cx="730.7" cy="202.5" r="2.3"/>
<path class="st69" d="M737.5,229.8c0,0,5.7,2.6,9.7-3.1"/>
<path class="st69" d="M723.5,201.8c0,0-9,14.7-5.6,16c0,0,3.1,1.4,5.5,0.5"/>
<path class="st70" d="M728.5,174.2c0,0,15.6-33.7,77.4-14.2c0,0,35.1,50.9-30.6,82c0,0-19.2-14.3-17.1-22.7c0,0,4.5-2.5,6.9-5.9
	c4.3-6.1,0.4-16.3-6.4-13.6C758.7,199.8,733.3,194.2,728.5,174.2z"/>
<g>
	
		<ellipse transform="matrix(0.7681 -0.6403 0.6403 0.7681 79.4583 548.0259)" class="st71" cx="796.4" cy="164.3" rx="24.1" ry="29.2"/>
	
		<ellipse transform="matrix(0.7681 -0.6403 0.6403 0.7681 86.6865 542.2557)" class="st71" cx="792.1" cy="151.4" rx="16.3" ry="29.2"/>
	
		<ellipse transform="matrix(0.7681 -0.6403 0.6403 0.7681 91.2917 559.7864)" class="st70" cx="818.6" cy="153.8" rx="29.2" ry="25.8"/>
	<path class="st72" d="M779.5,161.9c10.3,12.4,24.3,17.7,31.2,11.9"/>
	<path class="st72" d="M770.1,159.4c0,6.8,2.6,14.2,7.8,20.4c6.6,7.9,15.7,12,24.1,11.8"/>
</g>
<circle class="st9" cx="449.7" cy="237.5" r="12.9"/>
<polygon class="st75" points="1161,281.1 1184.8,299.6 1189,269.8 "/>
<polygon class="st9" points="550.1,348.9 621,404.3 633.5,315.2 "/>
<rect x="507.4" y="304.1" transform="matrix(0.4416 0.8972 -0.8972 0.4416 576.6723 -290.2162)" class="st75" width="28.1" height="28.1"/>
<path class="st76" d="M677.4,326.1c-5.9-7.8-16.1-16.8-16.1-16.8c-12.2-4.8-19.2-4-20.7,0.3c-0.9,2.6,0.6,5.5,3.2,6.3
	c5.3,1.5,11.1,6.5,15.6,11.4c-8.6,0.3-14.9,2.4-16,3.6c-0.8,0.9-0.3,2.3,0.9,2.5l13,3c9.7,2.5,10.1,2.7,10.1,2.7l6.6,6.9l46.2,45.2
	c31.2,31,44,15.9,44,15.9c32.8-42.4,50-100.9,50-100.9C814,306,792,308,792,308l-6.7-23.2C767.7,294.4,744,372,744,372
	c-1.6-2.6-38-21-38-21C693.3,341.5,677.4,326.1,677.4,326.1z"/>
<path class="st77" d="M659,491.9c0.3,2.4,2.2,4.3,4.4,5.3c2.2,1,4.7,1.2,7.1,1.5c3.6,0.3,7.2,0.7,10.8,1c-5.1,3.9-9.6,8.7-12.5,14.4
	c-3,5.7-8.7,16.9-2.9,18.6c7.8,2.3,18-8.5,19.5-9.7c8.7-7,14.8-15.1,22.9-22.7c-8.6-6.1-4.1-10.8-14.8-9.6
	C691,491,659.1,493.3,659,491.9z"/>
<path class="st7" d="M720,290c0,0,51.7-44.4,90.9-12.9c0,0,31.6,14.2,31.6,208c0,14.8-107.8,2.2-107.8,2.2l8.7-42.5
	c0,0-10.1-73.6-19.4-107.8c-3.9-14.3-16.7,13.1-14,0C717,303,720,290,720,290z"/>
<path class="st2" d="M684,504.1c36.4-37.4,40.3-89.3,40.3-89.3s-7.6-71.9-2.8-86.7l11.6-29.2c0,0,18.5-9.7,22.1,36.7
	c0,0,3.9,40,0.7,86.8c0,0-21.1,54-47.4,78.7"/>
<g>
	<path class="st78" d="M712.3,318l-2,18.7l53.9-16.8c0,0,1.7-46.8-25.3-39.6"/>
	<line class="st79" x1="710.3" y1="336.7" x2="740.4" y2="327.3"/>
</g>
<rect x="467" y="367" class="st80" width="218" height="61"/>
<g>
	<path class="st28" d="M210.7,557.9c11.5,40.4,21.6,116.8,16.3,158.2c-6.7,52.1-11.2,82-26.4,160.9c-1.3,6.8-21.8,6.7-23-0.1
		c-13.8-76,5.6-123.4,2.4-153c-4.9-45-22.4-96.1-12.7-125.3C182,585.2,196,571.4,210.7,557.9z"/>
</g>
<g>
	<path class="st38" d="M266.5,586.5c11.6,40.3,36.8,91.1,19,150c-16,53-24.4,64.5-39.4,143.5c-1.3,6.8-21.8,6.7-23,0
		c-14-76,14.7-113.9,11.4-143.5c-5-45-35-77-33-126C202.3,590.7,251.8,600,266.5,586.5z"/>
</g>
<path class="st1" d="M232.1,348l-15,42c0,0,18.1,23,49,9c0,0-15.6-17.1-10.8-36.9L232.1,348z"/>
<path class="st1" d="M217.9,330.3c1.8,20.2,19.7,35.1,39.9,33.2c20.2-1.8,25.2-21.1,23.4-41.3c-1.8-20.2-9.8-33.6-30-31.8
	C231,292.2,216.1,310.1,217.9,330.3z"/>
<circle class="st23" cx="266.4" cy="335.3" r="9.4"/>
<circle class="st3" cx="274.4" cy="320.5" r="2.3"/>
<path class="st69" d="M267.5,347.8c0,0-5.7,2.6-9.7-3.1"/>
<path class="st69" d="M281.5,319.8c0,0,9,14.7,5.6,16c0,0-3.1,1.4-5.5,0.5"/>
<path class="st11" d="M285.1,408c0,0-51.7-44.4-90.9-12.9c0,0-31.6,14.2-31.6,208c0,14.8,107.8,2.2,107.8,2.2l-8.7-42.5
	c0,0,10.1-73.6,19.4-107.8c3.9-14.3,16.7,13.1,14,0C288.1,421,285.1,408,285.1,408z"/>
<circle class="st1" cx="570.7" cy="396.5" r="8"/>
<rect x="1016.5" y="347.5" class="st0" width="158.5" height="44.4"/>
<rect x="969.5" y="280.5" class="st0" width="158.5" height="44.4"/>
<circle class="st6" cx="1048.7" cy="302.5" r="8"/>
<circle class="st6" cx="1095.7" cy="369.5" r="8"/>
<g>
	<path class="st25" d="M227.5,360.2c-24-14.1-48.3-18.9-44.7-46.3c1-7.8,3.3-13.5,9.9-17c0.3-15.7,16.4-27,36.9-29.3
		c30.8-3.5,52,4.8,50.3,34.1c-3.6,0.8-8.7,1.7-11.4,2.1c-1.3,0.2-3.6-8.4-4.9-8c-1.4,0.5,0.3,9.1-1.2,10.1
		c-3.5,2.3-15.1,15.5-15.1,15.5c0-0.7-6.1-4.7-10.7-1.2c-4.6,3.5-0.2,12.7,2.6,17C243.2,343.3,227.5,360.2,227.5,360.2z"/>
	<path class="st26" d="M200,297.5c0,0-1.1-6.1,12.5-5"/>
</g>
<path class="st1" d="M380.7,457.1c5.9-7.8,16.1-16.8,16.1-16.8c12.2-4.8,19.2-4,20.7,0.3c0.9,2.6-0.6,5.5-3.2,6.3
	c-5.3,1.5-11.1,6.5-15.6,11.4c8.6,0.3,14.9,2.4,16,3.6c0.8,0.9,0.3,2.3-0.9,2.5l-13,3c-9.7,2.5-10.1,2.7-10.1,2.7l-6.6,6.9
	l-46.2,45.2c-31.2,31-44,15.9-44,15.9c-32.8-42.4-50-100.9-50-100.9c0.2-0.2,22.2,1.8,22.2,1.8l6.7-23.2
	c17.6,9.6,41.3,87.2,41.3,87.2c1.6-2.6,38-21,38-21C364.8,472.5,380.7,457.1,380.7,457.1z"/>
<path class="st34" d="M292.7,436l2,18.7l-53.9-16.8c0,0-1.7-46.8,25.3-39.6"/>
<line class="st79" x1="294.8" y1="454.7" x2="264.6" y2="445.3"/>
</svg>
