<?xml version="1.0" encoding="UTF-8"?>
<svg width="704px" height="696px" viewBox="0 0 704 696" version="1.1" xmlns="http://www.w3.org/2000/svg" xmlns:xlink="http://www.w3.org/1999/xlink">
    <!-- Generator: Sketch 53.2 (72643) - https://sketchapp.com -->
    <title>Group</title>
    <desc>Created with Sketch.</desc>
    <defs>
        <polygon id="path-1" points="0.79347645 0.260806452 23.3300021 0.260806452 23.3300021 32.8986581 0.79347645 32.8986581"></polygon>
        <polygon id="path-3" points="0 0.819777778 11.1045818 0.819777778 11.1045818 9.72977778 0 9.72977778"></polygon>
        <polygon id="path-5" points="0.000111965812 0.449239437 130.951855 0.449239437 130.951855 30.4221972 0.000111965812 30.4221972"></polygon>
        <polygon id="path-7" points="0 80 130.951855 80 130.951855 0.495774648 0 0.495774648"></polygon>
        <polygon id="path-9" points="0.587190085 0.782392331 32.3188654 0.782392331 32.3188654 20 0.587190085 20"></polygon>
    </defs>
    <g id="Page-1" stroke="none" stroke-width="1" fill="none" fill-rule="evenodd">
        <g id="Choosing-Chapter-Dropdown" transform="translate(-576.000000, 0.000000)">
            <g id="Group" transform="translate(576.000000, -97.000000)">
                <circle id="Oval" fill="#F0F7FD" cx="477" cy="313" r="313"></circle>
                <circle id="Oval" fill="#FCF36A" cx="37" cy="206" r="37"></circle>
                <circle id="Oval" fill="#F0F7FD" cx="104.5" cy="266.5" r="18.5"></circle>
                <circle id="Oval-Copy" fill="#FFFFFF" cx="370.5" cy="407.5" r="6.5"></circle>
                <rect id="Rectangle" stroke="#5FBFFD" stroke-width="2" transform="translate(418.408146, 385.985995) rotate(-20.000000) translate(-418.408146, -385.985995) " x="408.408146" y="375.985995" width="20" height="20"></rect>
                <rect id="Rectangle" fill="#FCF36A" transform="translate(280.971989, 597.971989) rotate(-20.000000) translate(-280.971989, -597.971989) " x="273.971989" y="590.971989" width="14" height="14"></rect>
                <polygon id="Triangle" fill="#FCF36A" transform="translate(457.022704, 337.022704) rotate(15.000000) translate(-457.022704, -337.022704) " points="457.022704 328.022704 466.022704 346.022704 448.022704 346.022704"></polygon>
                <polygon id="Triangle-Copy" stroke="#5FBFFD" stroke-width="2" transform="translate(540.067481, 319.917668) rotate(-45.000000) translate(-540.067481, -319.917668) " points="540.067481 305.417668 554.567481 334.417668 525.567481 334.417668"></polygon>
                <polygon id="Triangle-Copy-2" fill="#F0F7FD" transform="translate(241.112698, 634.112698) rotate(-45.000000) translate(-241.112698, -634.112698) " points="241.112698 612.112698 263.112698 656.112698 219.112698 656.112698"></polygon>
                <circle id="Oval" stroke="#5FBFFD" stroke-width="2" cx="388" cy="455" r="20"></circle>
                <g id="Group-91" transform="translate(392.000000, 414.000000)">
                    <path d="M24,297.671973 C24,297.671973 30.8505026,318.488935 29.9667072,323.331915 L27.1955951,332 L39.9649145,320.66564 L41,316.270266 C41,316.270266 32.6790448,302.531093 34.114668,288 L24,297.671973 Z" id="Fill-1" fill="#FFFFFF"></path>
                    <path d="M24.4711641,297.61252 C25.4116051,300.595632 31.0128553,318.662914 30.1891733,323.318082 L30.1679443,323.398063 L28.1756103,329.81932 L38.7253214,320.173925 L39.6296733,316.211574 C38.6234226,314.399009 32.2313952,302.340104 32.8374808,289.372213 L24.4711641,297.61252 Z M25.5294256,334 L28.9292369,323.04571 C29.7093997,318.320288 23.1910603,297.836253 23.1231277,297.628732 L23,297.239631 L34.4105437,286 L34.2407123,287.772574 C32.8778158,301.976942 40.7866494,315.636568 40.8662578,315.772754 L41,315.99973 L39.8865432,320.873227 L25.5294256,334 Z" id="Fill-3" fill="#222222"></path>
                    <path d="M46.8590358,323.949282 C46.4946968,325.631629 45.4792905,327.079054 44.2504549,328.161645 C41.1729762,330.873536 37.1404551,332.8471 33.763313,335.160598 C30.1414817,337.640815 26.5864818,340.519425 22.7911044,342.683525 C20.5619534,343.953405 18.0848795,341.147328 19.3374295,338.778618 C19.5433134,338.389968 19.7588986,338.011061 19.9766396,337.645145 C22.9366244,332.652234 30.0423125,323.494594 33.5250913,318.928223 C35.2939679,316.610395 38.3304854,312.787765 41.5621075,314.374844 C44.5479625,315.841755 47.4357262,319.835435 46.9452699,323.45562 C46.9237113,323.622339 46.8935294,323.786893 46.8590358,323.949282" id="Fill-5" fill="#222222"></path>
                    <path d="M28.0344614,223.990331 C35.0636766,239.12061 36.0678502,296.619986 36.0678502,296.619986 L21.3392548,302 C4.80959089,255.827027 1.45232174,229.96261 1.01091495,218.060124 C0.822968025,213.013461 3.07188728,208.195506 7.01125492,205.058333 C51.6985908,169.467385 92.6398759,176.579965 92.6398759,176.579965 L99,203.815546 C99,203.815546 95.3173142,218.946904 28.0344614,223.990331" id="Fill-7" fill="#5FBFFD"></path>
                    <path d="M67,327.89178 C67,327.89178 73.8506041,349.181262 72.9676797,354.133574 L70.1961016,363 L82.9656869,351.407502 L84,346.912211 C84,346.912211 75.6778553,332.860147 77.1155187,318 L67,327.89178 Z" id="Fill-9" fill="#FFFFFF"></path>
                    <path d="M67.5539114,327.8556 C68.545538,330.899185 74.4571576,349.344211 73.5875774,354.096325 L73.5668731,354.177888 L71.4637532,360.734044 L82.5983024,350.887468 L83.5539688,346.841517 C82.4904221,344.991327 75.743003,332.680691 76.3837463,319.442814 L67.5539114,327.8556 Z M68.668674,365 L72.2581441,353.818367 C72.9152329,349.959153 68.5433586,335.1748 66.1318536,327.872771 L66,327.475689 L78.0444483,316 L77.8646479,317.811555 C76.4251549,332.32439 84.7744322,346.254479 84.8583391,346.392921 L85,346.624732 L83.8242143,351.60007 L68.668674,365 Z" id="Fill-11" fill="#222222"></path>
                    <path d="M85.8494345,348.894196 C86.2208045,350.583182 85.8723048,352.391877 85.1644148,353.98183 C83.3936006,357.965964 80.4030374,361.770535 78.1780846,365.550076 C75.7919506,369.600594 73.6388758,373.973239 70.9521608,377.828958 C69.3751996,380.092547 65.8248587,378.837778 66.006732,376.085559 C66.0372258,375.632841 66.0807882,375.185565 66.1308851,374.749171 C66.8169939,368.784396 69.6725134,356.99741 71.0360185,351.151256 C71.7297508,348.18356 72.988706,343.228694 76.737256,343.013218 C80.200472,342.811889 84.6460214,344.924209 85.7220143,348.408831 C85.7721111,348.568805 85.8145845,348.732045 85.8494345,348.894196" id="Fill-13" fill="#222222"></path>
                    <path d="M68.1026327,370 C67.8856112,370 67.671845,369.907086 67.5286109,369.729611 C67.2822915,369.42477 67.3387171,368.985256 67.6555684,368.748274 C68.8057822,367.885951 70.6548052,366.107018 70.7144861,365.0098 C70.7177414,364.939854 70.7144861,364.876171 70.7025499,364.817709 C69.4134424,365.218595 66.6442484,365.881519 65.4864388,364.653805 C64.7941403,363.920934 64.8407999,362.768386 65.6264177,361.230611 C65.7023752,361.081323 65.8304178,360.963354 65.9888435,360.896539 C69.4242934,359.46003 72.5515729,357.526588 72.5494026,356.840697 C72.4658494,356.461734 72.7175943,356.095299 73.1104032,356.014913 C73.5010418,355.935571 73.8884251,356.180905 73.9719784,356.558824 C74.4016809,358.516276 69.7921448,360.813021 66.8189507,362.074143 C66.2655459,363.253834 66.4793121,363.625489 66.5628653,363.714227 C67.0772062,364.260226 69.3255487,363.835328 70.7502946,363.322737 C71.0107204,363.225647 71.3091249,363.285154 71.51204,363.473069 C71.9742957,363.904231 72.2010832,364.461713 72.1663598,365.084966 C72.0502533,367.17396 68.9066972,369.584498 68.5486118,369.851756 C68.4151436,369.951977 68.2588881,370 68.1026327,370" id="Fill-15" fill="#5FBFFD"></path>
                    <path d="M83.5155833,182.292472 C83.5155833,182.292472 32.2380294,227.268895 41.0094178,252.105158 L66.6481948,334 L80.1418891,328.63087 C80.1418891,328.63087 80.8172774,255.461671 67.9968065,249.420593 C67.9968065,249.420593 91.6115835,232.638024 113.203443,209.815454 C113.203443,209.815454 143.564526,176.923343 122.648055,164.169237 C122.648055,164.169237 108.478972,156.113388 83.5155833,182.292472" id="Fill-17" fill="#FFFFFF"></path>
                    <path d="M117.115446,164.430784 C110.939709,164.430784 99.7772455,167.412842 84.5163094,183.517894 L84.4731903,183.558907 C83.9654626,184.006809 33.8416363,228.620029 42.32748,252.802432 L67.6545757,334.21055 L79.9995811,329.266357 C80.0125168,326.331788 80.0254526,309.543549 78.7372687,292.341945 C76.4012902,261.112907 71.7649063,252.591972 68.2851929,250.94067 L67.2524899,250.451755 L68.182785,249.785838 C68.4167063,249.618549 91.8983035,232.738571 113.106445,210.177251 C113.285389,209.9819 131.515077,189.907247 129.497102,175.474002 C128.90637,171.256166 126.604887,167.887726 122.653019,165.462578 C122.6099,165.438834 120.705113,164.430784 117.115446,164.430784 L117.115446,164.430784 Z M66.804051,336 L66.5873774,335.304942 L41.0522319,253.224432 C37.3547669,242.688476 43.411926,227.559095 59.0630902,208.279872 C70.4088098,194.307481 82.9424613,183.119639 83.5612208,182.570284 C108.488387,156.274647 122.742491,163.962376 123.336457,164.304508 C127.665617,166.960622 130.179462,170.652848 130.828405,175.289445 C131.715581,181.639943 129.159695,189.606127 123.228659,198.966744 C118.844522,205.886024 114.13807,211.042835 114.090639,211.093561 C95.025518,231.375437 74.1375361,247.082235 69.7835825,250.283387 C74.8123504,254.004753 78.2726602,268.104499 80.0793515,292.249127 C81.4925808,311.148442 81.3427418,329.544812 81.3405859,329.72829 L81.3373519,330.180509 L66.804051,336 Z" id="Fill-19" fill="#5FBFFD"></path>
                    <path d="M56.555495,99.3644856 C72.7779099,81.377463 82.0715612,79.8107721 80.8885752,80.0448139 C77.5087698,80.7106041 78.8435598,82.7336232 78.8609088,82.7090435 C86.210386,72.499904 91.2828047,83.4966637 95.2633197,84.0983328 C95.8651138,84.189171 96.1871549,84.8442743 95.8846314,85.3647235 C95.8846314,85.3647235 60.6108276,120.681528 53.1756897,116.684649 C45.7394675,112.687771 16,76.0479353 16,76.0479353 C16,76.0479353 16.6256489,68.2337169 22.082999,72.049988 C43.0362738,86.7059221 56.555495,99.3644856 56.555495,99.3644856" id="Fill-21" fill="#C1DCF3"></path>
                    <path d="M22,71.4388374 C20.0308444,66.5756259 15.0758438,58.8703749 15.0758438,58.8703749 C9.34145373,54.661292 5.58166193,54.1076341 4.16003828,56.1394946 C3.30118602,57.3654514 1.21991158,57.3515565 2.3073557,58.3893979 C4.52905085,60.5067654 5.83311298,61.8898414 11.5098108,67.8977781 C6.94341629,66.8310781 3.36105531,67.0437768 2.5707806,67.5183407 C2.01671748,67.8528869 2.08202944,68.6619971 2.68289947,68.9078298 L9.09435682,72.3099402 C13.8218541,74.9766902 17.4619074,77 17.4619074,77" id="Fill-23" fill="#C1DCF3"></path>
                    <path d="M132,23.3653046 C132.843229,22.7431355 133.177724,21.2749023 133.699365,20.3793231 C134.304898,19.3384276 134.981418,18.3405888 135.660088,17.3470557 C137.593922,14.5193075 139.854723,11.9918797 142.501645,9.81536396 C147.467448,5.73358965 153.393715,3.31057435 159.820111,3.03070586 C166.917649,2.72392694 174.050679,4.74543858 180.411467,7.77124755 C187.219683,11.0080343 192.697446,15.7431939 198.5011,20.446061 C204.031565,24.9261097 210.339651,28.259774 217.333936,29.7549176 C224.381999,31.259749 226.003924,29.5579332 232.921846,28.2630033 C240.00325,26.9368572 245.055097,27.1381472 251.65358,30.2479167 C257.812165,33.1499377 262.666111,37.9938154 266.585406,43.4889256 C270.250872,48.6320474 272.806372,54.1120878 272.989215,60.530764 C273.186041,67.4349044 270.699375,73.9870564 264.652647,77.72653 C255.889086,83.146291 251.419111,80.9891508 242.437214,77.3519368 C237.241244,75.2486174 232.458285,72.3379851 228.173304,68.7179938 C222.457844,63.8902623 218.249227,57.7902056 213.289878,52.2541915 C210.961317,49.6557202 208.434856,47.2876022 205.633055,45.2090405 C202.915147,43.1929109 200.066022,41.6590163 196.610288,42.4523358 C192.956653,43.2930177 189.617078,44.2122781 185.81932,44.1638393 C182.174289,44.1186298 178.536788,43.48462 175.135907,42.163856 C168.52129,39.5922951 162.766035,35.0401264 156.848373,31.2059281 C152.021316,28.0810887 146.826422,24.8195444 141.058261,23.8712208 C138.651186,23.4750992 135.029817,23.1704731 133.341208,25.1887555 L132,23.3653046 Z" id="Fill-25" fill="#5FBFFD"></path>
                    <path d="M198.549192,41.6036355 C201.508401,41.6036355 204.021895,43.1364096 206.146871,44.7224125 C208.888079,46.7668355 211.43179,49.1197687 213.924778,51.9169999 C215.537127,53.728954 217.092277,55.6245534 218.595624,57.4582336 C221.721033,61.2689859 224.953284,65.207922 228.795292,68.4711775 C233.073303,72.1059486 237.830486,75.0020335 242.937335,77.0812182 L243.909708,77.4777189 C252.264997,80.8919705 256.458829,82.6061573 264.657631,77.5081354 C270.069898,74.1405949 272.934136,68.1778755 272.72261,60.7149712 C272.562886,55.0672798 270.558782,49.7150629 266.413515,43.868578 C261.979017,37.6136431 257.15924,33.309709 251.676824,30.7123576 C244.834596,27.466483 239.745015,27.5414379 233.267562,28.7591841 C231.359509,29.1187505 229.851844,29.510906 228.521171,29.8574368 C224.97271,30.7786221 222.627574,31.386952 217.378269,30.2604554 C210.639646,28.8124129 204.191332,25.6089042 198.213556,20.739006 C197.611353,20.2469106 197.01023,19.7548152 196.413424,19.263806 C191.183545,14.9739939 186.245053,10.9231685 180.189574,8.02708366 C173.059196,4.61609098 166.205096,3.02682911 159.828011,3.30600908 C153.684035,3.57432602 147.803389,5.89141118 142.823888,10.0074148 C140.300681,12.0942036 138.03217,14.6057371 136.080948,17.4757506 C135.330893,18.5805212 134.711423,19.5049654 134.13728,20.4956741 C133.985111,20.7607321 133.841575,21.1007451 133.690485,21.4603115 C133.433631,22.0697277 133.150877,22.7421495 132.722428,23.2581436 L133.308442,24.0609218 C134.849563,22.786688 137.404066,22.4640558 141.076637,23.0702131 C146.748995,24.0098656 151.716625,27.0210986 157.162348,30.5678792 C158.620368,31.5173084 160.092418,32.5275705 161.516983,33.5041573 C165.909391,36.5164766 170.45181,39.6330811 175.398935,41.5667011 C178.633345,42.830072 182.164539,43.4948897 185.895387,43.5416007 C189.12548,43.5904844 192.086848,42.8898187 195.197148,42.1543913 C195.651498,42.0468472 196.110164,41.9393032 196.575306,41.8306729 C197.254133,41.6731589 197.911375,41.6036355 198.549192,41.6036355 M255.276008,82 C251.606675,82 248.095986,80.5649932 243.433774,78.659617 L242.461401,78.2631163 C237.232601,76.1339616 232.358862,73.1683534 227.978326,69.4466779 C224.048901,66.1084676 220.779957,62.1239067 217.618934,58.2697022 C216.123141,56.4457988 214.577704,54.5610624 212.980465,52.7675755 C210.545754,50.0366088 208.063558,47.7390771 205.392499,45.7457103 C202.923253,43.9033398 200.182045,42.3064738 196.85914,43.073404 C196.397236,43.1798617 195.939648,43.288492 195.486378,43.3949498 C192.297295,44.1488443 189.262541,44.8614594 185.880278,44.8169209 C181.99726,44.7680373 178.316055,44.0728031 174.940269,42.7551171 C169.858242,40.7671818 165.254307,37.6103842 160.802542,34.5578716 C159.385532,33.5845438 157.919957,32.5797131 156.473808,31.6378881 C151.150037,28.1714939 146.3022,25.2276117 140.871586,24.3292388 C137.237867,23.728513 134.830137,24.1011151 133.717465,25.4394409 L133.199442,26.0618927 L131,23.0550049 L131.50939,22.675885 C131.936759,22.3586844 132.235702,21.6493283 132.523853,20.9627846 C132.684656,20.5814921 132.849776,20.1893365 133.042955,19.8547551 C133.637603,18.8260258 134.270024,17.8831144 135.035188,16.7566178 C137.0544,13.7877506 139.403853,11.1849676 142.019872,9.02322388 C147.213058,4.73015284 153.352716,2.31204147 159.772971,2.0317752 C166.369137,1.7471637 173.413178,3.3755325 180.733499,6.87560206 C186.926038,9.83795143 191.921728,13.9365742 197.213123,18.2752699 C197.809929,18.7662791 198.408894,19.2572882 199.012175,19.7482973 C204.831307,24.491098 211.100471,27.6077024 217.642677,29.013379 C222.601673,30.080129 224.709381,29.5315458 228.203882,28.6223098 C229.553981,28.2714338 231.083229,27.8727605 233.035531,27.5045036 C239.76552,26.2378739 245.065548,26.1661778 252.217511,29.5576171 C257.899582,32.2527358 262.880162,36.6913715 267.445245,43.1277191 C271.741603,49.1892921 273.821252,54.7663738 273.98853,60.6791232 C274.213007,68.6145695 271.136163,74.9770485 265.323507,78.5922662 C261.389766,81.0397078 258.279466,82 255.276008,82" id="Fill-27" fill="#222222"></path>
                    <path d="M87.9603011,99.6356158 L83.3785953,107 L59,93.5730868 C59,93.5730868 81.281088,68.1703863 89,78.4487507" id="Fill-29" fill="#FCF36A"></path>
                    <path d="M99.6081052,71.2523145 C99.6081052,71.2523145 118.592893,65.3531241 118.410316,110.603677 L122.445268,147.519028 L136,186 L57,180.607906 L67.0428098,109.838166 C67.0428098,109.838166 70.8382637,71.5723585 99.6081052,71.2523145" id="Fill-31" fill="#FCF36A"></path>
                    <path d="M103.095586,53 L110,73.5384773 C110,73.5384773 95.5268923,79.9717358 87,75.2977149 C87,75.2977149 90.0791555,66.3816528 92.0300051,54.6555624 L103.095586,53 Z" id="Fill-33" fill="#C1DCF3"></path>
                    <path d="M116.927361,45.3213466 C111.916397,55.5734122 99.4014679,59.8904646 88.9736265,54.9618742 C78.5468705,50.0343511 79.7114285,38.8953954 84.7223927,28.6411953 C89.7344422,18.3891297 96.6957427,12.9044987 107.123584,17.8320218 C117.549255,22.7606122 121.939411,35.0682137 116.927361,45.3213466" id="Fill-35" fill="#C1DCF3"></path>
                    <path d="M95.4559462,40.8817612 C94.140194,43.6194897 90.855281,44.7711005 88.1187844,43.45641 C85.3800538,42.1406025 84.2284913,38.8555516 85.5442436,36.117823 C86.8599959,33.3800945 90.1449088,32.2284837 92.8814055,33.5442912 C95.6190191,34.8589817 96.7716985,38.1451496 95.4559462,40.8817612" id="Fill-37" fill="#A2C6E0"></path>
                    <path d="M89.8519756,29.1501447 C89.4925049,29.8958495 88.5968743,30.2102152 87.8499063,29.8519845 C87.1041568,29.4925353 86.7897722,28.5969585 87.1480244,27.8512538 C87.5074951,27.1031121 88.4043442,26.7899649 89.1500937,27.1481956 C89.8958432,27.5064263 90.2102278,28.4032215 89.8519756,29.1501447" id="Fill-39" fill="#222222"></path>
                    <path d="M89.6578533,46 C88.0876327,46 86.8144517,45.3838142 86.1880854,44.8815747 C85.9394761,44.6826071 85.9373237,44.3565458 86.181628,44.1540723 C86.4259324,43.9515987 86.8230616,43.9480927 87.0727471,44.1470602 C87.1685316,44.22244 89.2919349,45.8422284 92.0126461,44.3293741 C92.301076,44.1672199 92.692824,44.2285755 92.8897742,44.4634799 C93.0867244,44.6983843 93.0124645,45.01831 92.7251109,45.1787112 C91.6467277,45.7782433 90.598479,46 89.6578533,46" id="Fill-41" fill="#222222"></path>
                    <path d="M81.8498311,36 L81.8453042,36 C80.0775576,35.9870512 78.4784373,34.5184389 78.4116659,34.4558529 C78.1366579,34.2249322 77.9872709,33.8807093 78.0008515,33.4803749 C78.0698864,31.3492145 83.7828087,26.9865403 84.9269776,26.1340761 C85.2178296,25.9182624 85.6343026,25.9689786 85.8595149,26.243062 C86.0847271,26.5193036 86.0337997,26.9174799 85.7452111,27.1322145 C82.1338928,29.8234115 79.1370983,32.8243012 79.328359,33.5515934 C79.6916411,33.875314 80.83581,34.72562 81.8554897,34.7331735 C82.2221669,34.7364107 82.5175458,35.0223639 82.5141507,35.370903 C82.5118872,35.7194422 82.2142449,36 81.8498311,36" id="Fill-43" fill="#222222"></path>
                    <path d="M95.2575161,78 C91.0338129,78 87.3159297,76.8754122 84.2938156,74.6518219 C83.9875491,74.4273695 83.9085815,73.9773018 84.1145377,73.6446936 C84.3194268,73.3144114 84.7334735,73.227189 85.0376057,73.4493154 C95.4175857,81.0899997 110.864302,72.178194 111.020103,72.0874826 C111.341309,71.8967563 111.745752,72.0281714 111.919694,72.3817129 C112.094704,72.7340915 111.974118,73.1736926 111.650777,73.363256 C111.486439,73.4609451 107.554063,75.7508244 102.216275,77.087072 C99.7789487,77.696466 97.4504696,78 95.2575161,78" id="Fill-45" fill="#222222"></path>
                    <path d="M135.195559,8.27408157 C133.868796,8.27408157 132.547511,8.50038991 131.27005,8.97682852 C124.400683,11.537686 121.384516,20.3572144 124.54311,28.6385837 C126.082418,32.669904 128.835642,35.9681586 132.297716,37.9258882 C135.720348,39.858713 139.423451,40.2452779 142.72995,39.0152001 C149.598222,36.4543425 152.615484,27.6348142 149.45689,19.3523621 C146.884438,12.6129214 141.000009,8.27408157 135.195559,8.27408157 M138.783625,41 C136.399615,41 133.965208,40.3384 131.656794,39.0336079 C127.933969,36.9296983 124.979156,33.3975557 123.333575,29.0890348 C119.92409,20.1493139 123.278796,10.5913057 130.814283,7.78248355 C138.34977,4.9747442 147.255844,9.96327301 150.665329,18.901911 L150.666425,18.901911 C154.07591,27.8427147 150.721204,37.4007229 143.185717,40.209545 C141.766924,40.7379588 140.285683,41 138.783625,41" id="Fill-47" fill="#222222"></path>
                    <g id="Group-51" transform="translate(125.000000, 0.000000)">
                        <mask id="mask-2" fill="white">
                            <use xlink:href="#path-1"></use>
                        </mask>
                        <g id="Clip-50"></g>
                        <path d="M8.0976,1.5177871 C7.48996364,1.5177871 6.90850909,1.61785161 6.35650909,1.82010968 C4.23032727,2.60252903 2.78050909,4.8380129 2.27214545,8.11565806 C1.74632727,11.5231742 2.30596364,15.6034645 3.85178182,19.6049806 C6.99905455,27.7464 13.2368727,33.0178839 17.7674182,31.3487226 C19.8936,30.5673677 21.3445091,28.3308194 21.8506909,25.0542387 C22.3786909,21.6467226 21.8168727,17.5664323 20.2710545,13.5638516 L20.2699636,13.5638516 C18.7241455,9.5634 16.3852364,6.13672258 13.6830545,3.91720645 C11.7576,2.3364 9.83105455,1.5177871 8.0976,1.5177871 M16.0808727,32.8986581 C11.2459636,32.8986581 5.59614545,27.6750774 2.6496,20.0488839 C1.02632727,15.8493677 0.440509091,11.5444645 1.00014545,7.92723871 C1.58050909,4.18120645 3.3216,1.59443226 5.90269091,0.645948387 C8.48596364,-0.304664516 11.5416,0.517141935 14.5121455,2.9570129 C17.3801455,5.31172258 19.8521455,8.92149677 21.4754182,13.1210129 C23.0976,17.3215935 23.6834182,21.6254323 23.1226909,25.2415935 C22.5434182,28.9886903 20.8023273,31.5744 18.2212364,32.5239484 C17.5350545,32.7762387 16.8172364,32.8986581 16.0808727,32.8986581" id="Fill-49" fill="#222222" mask="url(#mask-2)"></path>
                    </g>
                    <path d="M92.0748109,13.279831 C92.0748109,13.279831 96.1713808,3.20851731 111.206572,6.75771578 C117.295131,8.19569675 127.344935,13.0423462 135.91482,19.4653279 C135.91482,19.4653279 146.005763,54.4943263 104.644915,59 C104.644915,59 96.9443593,47.5778557 99.6530321,43.3957278 C99.6530321,43.3957278 102.555491,42.8815406 104.467368,41.490403 C107.905715,38.9880982 107.760646,32.7285235 103.547155,32.8919304 C103.547155,32.8919304 90.9185909,25.0603811 92.0748109,13.279831" id="Fill-52" fill="#5FBFFD"></path>
                    <path d="M99.6390481,44.3778671 C98.0222964,47.5579671 102.393872,55.4280647 104.508665,58.6525734 C117.215709,57.197916 126.195511,52.6476435 131.20174,45.126317 C138.057068,34.8267356 135.159178,22.139913 134.713845,20.3960571 C125.695319,13.6697556 115.893695,9.25920822 110.572291,8.0016823 C96.9111158,4.77500726 92.7654333,13.0447837 92.325479,14.0282751 C91.3713481,24.4675816 101.892604,31.8069404 103.286689,32.7286928 C104.959376,32.7362748 106.226531,33.6526115 106.779432,35.2654075 C107.510897,37.4013602 106.817081,40.6637789 104.39034,42.4303807 C102.738091,43.6337497 100.446886,44.2056477 99.6390481,44.3778671 L99.6390481,44.3778671 Z M103.887996,60 L103.675011,59.683723 C102.867173,58.4846867 95.8698546,47.8504149 98.7075065,43.4636966 L98.8559508,43.2319046 L99.1270229,43.1842464 C99.1549907,43.1799139 101.894755,42.6805862 103.65027,41.4013974 C105.576819,39.9987307 106.155536,37.3396212 105.585424,35.6802502 C105.3122,34.8808927 104.685077,33.9396437 103.12964,34.0024659 L102.937092,34.011131 L102.773588,33.9093158 C102.248655,33.5822074 89.9041164,25.7770982 91.0787623,13.804065 L91.1228653,13.62643 C91.1658926,13.5213654 95.5740418,3.15137991 110.860574,6.7636529 C117.558852,8.34720406 127.749873,13.587437 135.644311,19.507882 L135.814269,19.6346094 L135.873432,19.8414892 C136.042314,20.426385 139.914773,34.3176597 132.249456,45.8346908 C126.977533,53.7567792 117.561003,58.5095989 104.265561,59.9588407 L103.887996,60 Z" id="Fill-54" fill="#222222"></path>
                    <path d="M134.583228,41 C129.626296,39.3814804 125.429753,35.2303271 123.355867,29.8940518 C120.841931,23.4253504 121.880537,16.4017281 126.000598,12 L126.968264,12.8528147 C123.174083,16.906104 122.236345,23.4188979 124.579581,29.4466736 C126.516021,34.4302084 130.41107,38.3006749 135,39.7987466 L134.583228,41 Z" id="Fill-56" fill="#FFFFFF"></path>
                    <path d="M136.294505,32 C132.808791,29.772862 129.703297,25.5991448 127.771429,20.5512543 C126.81978,18.0652223 126.225275,15.5629418 126,13.1148233 L127.291209,13 C127.505495,15.3332953 128.074725,17.7207526 128.984615,20.0995439 C130.792308,24.8289624 133.79011,28.8759407 137,30.9286773 L136.294505,32 Z" id="Fill-58" fill="#FFFFFF"></path>
                    <path d="M114.754139,84 C114.754139,84 127.691478,86.296192 112.932206,111.301215 C112.932206,111.301215 101.222388,131.641387 79.824615,158.676533 C79.824615,158.676533 74.1879081,166.535286 60.8034166,153.346513 L44.6231443,132.565056 L22,107.289638 C22,107.289638 25.3493475,93.130689 41.5134965,117.235838 C41.5134965,117.235838 73.1194706,142.105663 72.8657972,143.710726 C72.8657972,143.710726 75.1262844,131.230387 94.8407848,101.797381 L103.732249,92.1843075" id="Fill-60" fill="#C1DCF3"></path>
                    <path d="M74.2084426,140 L73,139.443987 C73.1059108,139.21027 83.7181763,115.904683 92.9917289,105 L94,105.871905 C84.8471858,116.634651 74.3143534,139.76735 74.2084426,140" id="Fill-62" fill="#222222"></path>
                    <path d="M72.9043217,143.670933 C73.1571114,142.062176 41.5282756,117.134026 41.5282756,117.134026 C27.3634451,92.2980221 22,102.495852 22,106.48956 C22,115.275933 36.7521632,123.38368 36.7521632,123.38368 L60.8317296,153.328897 C74.2263582,166.548026 79.8684099,158.671186 79.8684099,158.671186 C101.282389,131.573815 113,111.186828 113,111.186828" id="Fill-64" fill="#C1DCF3"></path>
                    <path d="M28,110.423919 C28,110.423919 19.7737722,103.860764 20.0047757,108.907898 C20.0047757,108.907898 24.1002514,114.426436 27.9658616,116" id="Fill-66" fill="#C1DCF3"></path>
                    <path d="M24.083099,103.160984 C24.083099,103.160984 16.2696801,96.4344464 20.0172027,96 C20.0172027,96 33.4253745,104.646749 36,108" id="Fill-68" fill="#C1DCF3"></path>
                    <path d="M34.8955459,108 C32.6331611,105.033304 21.2950446,97.543182 19.5183141,96.3795662 C19.4146351,96.4089186 19.365524,96.4445609 19.3589758,96.4665753 C19.1265166,97.1699863 21.3616175,99.9018628 24.1413058,102.312959 L23.2256566,103.289977 C17.7743243,98.565277 17.8878255,96.5682606 18.0526205,96.0692686 C18.1868575,95.6604306 18.5622846,95.1478107 19.5870696,95.0293525 L19.8402646,95 L20.0519881,95.1362793 C20.5965756,95.4906056 33.4178474,103.836142 36,107.223208 L34.8955459,108 Z" id="Fill-70" fill="#222222"></path>
                    <path d="M5.75137945,60 C5.75137945,60 -1.66829603,53.2839203 2.03610047,53 C2.03610047,53 7.17154321,55.7442263 11,58.5157333" id="Fill-72" fill="#C1DCF3"></path>
                    <g id="Group-76" transform="translate(0.000000, 51.000000)">
                        <mask id="mask-4" fill="white">
                            <use xlink:href="#path-3"></use>
                        </mask>
                        <g id="Clip-75"></g>
                        <path d="M4.94421818,9.72977778 C-0.3096,4.51311111 -0.116509091,2.402 0.0689454545,1.87977778 C0.219490909,1.452 0.6144,0.924222222 1.64203636,0.837555556 L1.85476364,0.819777778 L2.04021818,0.928666667 C2.09149091,0.958666667 7.27330909,4.00644444 11.1045818,7.04977778 L10.2634909,8.14866667 C6.93185455,5.502 2.54312727,2.84422222 1.55803636,2.25644444 C1.42821818,2.28533333 1.36494545,2.32533333 1.35621818,2.35088889 C1.09658182,3.08644444 3.21949091,6.06977778 5.89985455,8.732 L4.94421818,9.72977778 Z" id="Fill-74" fill="#222222" mask="url(#mask-4)"></path>
                    </g>
                    <path d="M73.6992375,143.854604 C73.9533202,142.262898 42.1627069,117.598962 42.1627069,117.598962 C25.773831,97.8356365 29.3245018,109.315441 29.3245018,109.315441 L45.2906273,132.801686 L61.5648956,153.410203 C75.028036,166.489222 80.698946,158.695869 80.698946,158.695869 C102.222455,131.885704 114,111.714798 114,111.714798" id="Fill-77" fill="#C1DCF3"></path>
                    <path d="M110.726999,77 C131.814818,80.366443 116.849058,110 116.849058,110 L91,102.5908 L94.4004164,96.5299067" id="Fill-79" fill="#FCF36A"></path>
                    <path d="M116.227409,111 C116.16591,111 116.103332,110.990373 116.041833,110.973259 L90.4840163,103.637725 C90.2876501,103.582105 90.1290466,103.440913 90.0502843,103.253728 C89.972601,103.066542 89.9855482,102.855825 90.0848102,102.679336 L93.4478512,96.6776324 C93.6269544,96.3588822 94.033713,96.2422923 94.3573935,96.4198512 C94.6799951,96.59741 94.7975991,97.0017308 94.6184958,97.3226203 L91.6622135,102.595904 L115.868124,109.541022 C117.196293,106.706499 123.456275,92.4632838 119.16535,84.1672208 C117.522132,80.9882756 114.460114,79.021223 110.067769,78.318475 C109.703088,78.2607149 109.454933,77.9195024 109.513196,77.5579669 C109.572537,77.1953618 109.915639,76.9482769 110.280319,77.0092459 C115.119343,77.7815199 118.509357,79.9871004 120.358652,83.5628789 C122.498181,87.7012837 122.545654,93.5275672 120.50323,100.881285 C118.998115,106.297899 116.914691,110.457697 116.827297,110.632047 C116.710772,110.862018 116.475565,110.99893 116.227409,111" id="Fill-81" fill="#222222"></path>
                    <path d="M21.4708993,303 L21,301.72713 L35.6055609,296.502855 C35.631905,293.624592 35.7087417,277.894549 34.4047129,261.607422 C32.5200182,238.074975 28.680378,224.099312 23.2985153,221.18758 L23.962604,220 C37.8502906,227.513066 37.0193564,294.156844 36.9776451,296.989763 L36.9699614,297.456158 L21.4708993,303 Z" id="Fill-83" fill="#222222"></path>
                    <path d="M68,250 C68,250 66,251.169607 64,252" id="Fill-85" fill="#FFFFFF"></path>
                    <path d="M64.6645495,253 L64,251.643446 C66.0454011,250.559426 68.1225594,249.015888 68.1437309,249 L69,250.238008 C68.9094331,250.304002 66.8087509,251.86465 64.6645495,253" id="Fill-87" fill="#5FBFFD"></path>
                    <path d="M69.2201903,100 C69.0830877,100 68.9471089,99.9630337 68.8302345,99.8921816 L65.3093944,97.7265723 C64.98799,97.5304455 64.9037056,97.1340846 65.1194736,96.8424615 C65.3341179,96.5498116 65.7667778,96.4727985 66.0870584,96.6689253 L68.8392248,98.3611605 C69.1662483,97.4862913 69.7730959,96.0055855 70.6777484,94.3523702 C70.8508124,94.0371298 71.2699868,93.9098014 71.6138671,94.0679351 C71.9588712,94.2250419 72.0993452,94.607027 71.9251574,94.9222674 C70.572112,97.3949024 69.8978368,99.5184112 69.8910941,99.5399749 C69.8292855,99.7350748 69.6674595,99.8921816 69.459558,99.9620069 C69.3820163,99.9876779 69.2999795,100 69.2201903,100" id="Fill-89" fill="#222222"></path>
                </g>
                <g id="Group-16" transform="translate(346.000000, 186.000000)">
                    <polygon id="Fill-1" fill="#FFFFFF" points="0 16 58 16 58 0 0 0"></polygon>
                    <g id="Group-15">
                        <path d="M29.298206,41.628507 C23.7335051,45.8414648 15.8287188,44.7180845 11.6400778,39.1180845 C7.45255641,33.5192113 8.56885556,25.5631549 14.1335564,21.3490704 C19.6982573,17.1361127 27.6030436,18.259493 31.7916846,23.8583662 C35.979206,29.4583662 34.8629068,37.4144225 29.298206,41.628507" id="Fill-2" fill="#FCF36A"></path>
                        <g id="Group-6" transform="translate(0.000000, 49.577465)">
                            <mask id="mask-6" fill="white">
                                <use xlink:href="#path-5"></use>
                            </mask>
                            <g id="Clip-5"></g>
                            <polygon id="Fill-4" fill="#FFFFFF" mask="url(#mask-6)" points="0.000111965812 0.814309859 30.5119154 30.4221972 130.951967 30.4221972 100.727915 0.449239437"></polygon>
                        </g>
                        <mask id="mask-8" fill="white">
                            <use xlink:href="#path-7"></use>
                        </mask>
                        <g id="Clip-8"></g>
                        <polygon id="Fill-7" fill="#E4F0F9" mask="url(#mask-8)" points="0 50.3921127 61.3863761 50.3921127 61.3863761 34.3087324 0 34.3087324"></polygon>
                        <polygon id="Fill-9" fill="#E4F0F9" mask="url(#mask-8)" points="130.763976 80 89.3836513 39.6552113 101.99548 29.6304225 130.763976 58.7988732"></polygon>
                        <path d="M53.7863607,23.4484507 L78.0392752,42.5414085 L82.3443607,11.8574648 L53.7863607,23.4484507 Z M78.8543863,44.5752113 L51.6276598,23.1419718 L83.6879504,10.1312676 L78.8543863,44.5752113 Z" id="Fill-10" stroke="#5FBFFD" fill="#5FBFFD" mask="url(#mask-8)"></path>
                        <path d="M36.1976513,9.97250704 L40.2295402,18.2158873 L48.4198393,14.1595493 L44.3879504,5.91616901 L36.1976513,9.97250704 Z M39.732412,19.6840563 L34.7387368,9.47335211 L44.8850786,4.44912676 L49.8787538,14.6587042 L39.732412,19.6840563 Z" id="Fill-11" stroke="#FCF36A" fill="#FCF36A" mask="url(#mask-8)"></path>
                        <polygon id="Fill-12" fill="#F0F7FD" mask="url(#mask-8)" points="22.5196838 52.2197183 101.705265 52.2197183 101.705265 29.9222535 22.5196838 29.9222535"></polygon>
                        <path d="M23.0660769,51.6698592 L101.159991,51.6698592 L101.159991,30.4698592 L23.0660769,30.4698592 L23.0660769,51.6698592 Z M21.9755299,52.7673239 L102.249419,52.7673239 L102.249419,29.3723944 L21.9755299,29.3723944 L21.9755299,52.7673239 Z" id="Fill-13" stroke="#FFFFFF" fill="#FFFFFF" mask="url(#mask-8)"></path>
                        <path d="M61.956394,43.0611831 C60.6699068,44.0347042 58.8415051,43.7755493 57.8730009,42.4797746 C56.9033769,41.1851268 57.1620179,39.3451268 58.4485051,38.3704789 C59.736112,37.395831 61.5645137,37.6549859 62.5341376,38.9507606 C63.5015222,40.2454085 63.2428812,42.0865352 61.956394,43.0611831" id="Fill-14" fill="#C1DCF3" mask="url(#mask-8)"></path>
                    </g>
                </g>
                <g id="Group-68" transform="translate(210.000000, 223.000000)">
                    <path d="M30.2001,339.7454 C30.2001,339.7454 29.2051,360.2164 31.1851,364.3754 L35.7941,371.5314 L21.6011,364.3994 L19.5961,360.6814 C19.5961,360.6814 23.6461,346.2454 18.7881,333.4694 L30.2001,339.7454 Z" id="Fill-1" fill="#FFFFFF"></path>
                    <path d="M22.0478,363.9408 L34.0698,369.9818 L30.6348,364.6368 C28.7388,360.6578 29.4428,343.0118 29.5718,340.0968 L19.8938,334.7738 C23.6258,346.2838 20.7268,358.7218 20.2478,360.6028 L22.0478,363.9408 Z M37.5178,373.0818 L21.1548,364.8588 L18.9428,360.7528 L19.0088,360.5158 C19.0488,360.3738 22.9438,346.1188 18.2168,333.6858 L17.6268,332.1338 L30.8278,339.3938 L30.8098,339.7748 C30.4698,346.7778 30.2248,360.8348 31.7218,364.0798 L37.5178,373.0818 Z" id="Fill-3" fill="#222222"></path>
                    <g id="Group-7" transform="translate(15.000000, 359.949000)">
                        <mask id="mask-10" fill="white">
                            <use xlink:href="#path-9"></use>
                        </mask>
                        <g id="Clip-6"></g>
                        <path d="M1.4736,11.2994 C2.3256,12.6014 3.7076,13.5164 5.1756,14.0654 C8.8516,15.4384 13.1816,15.9134 17.0136,16.8654 C21.1206,17.8864 25.2876,19.2584 29.4596,19.9624 C31.9086,20.3754 33.3366,17.3034 31.4526,15.6864 C31.1436,15.4204 30.8276,15.1654 30.5156,14.9234 C26.2476,11.6064 16.8716,6.0114 12.2526,3.2034 C9.9086,1.7784 5.9296,-0.5346 3.4296,1.7364 C1.1196,3.8354 -0.3224,8.0234 1.2416,10.9104 C1.3136,11.0434 1.3906,11.1734 1.4736,11.2994" id="Fill-5" fill="#222222" mask="url(#mask-10)"></path>
                    </g>
                    <path d="M39.7509,373.7943 C38.5099,373.7943 36.9619,373.6243 36.1159,372.8793 C35.6759,372.4913 35.4449,371.9793 35.4499,371.3973 C35.4519,371.1443 35.5989,370.9143 35.8279,370.8073 C37.0749,370.2243 38.7789,369.0513 38.7379,368.3643 C38.7309,368.2523 38.6179,367.8703 37.4779,367.4533 C34.7539,368.5403 30.3009,370.0033 29.2599,368.4413 C29.0589,368.1403 29.1409,367.7323 29.4419,367.5313 C29.7449,367.3303 30.1519,367.4123 30.3529,367.7143 C30.8069,368.1623 34.0809,367.4153 37.2129,366.1443 C37.3569,366.0853 37.5189,366.0803 37.6659,366.1293 C39.1929,366.6343 39.9949,367.3603 40.0489,368.2883 C40.1409,369.8403 37.9439,371.1903 36.8609,371.7593 C36.8939,371.8063 36.9349,371.8503 36.9829,371.8933 C37.7599,372.5763 40.1179,372.5543 41.4219,372.3763 C41.7829,372.3313 42.1109,372.5793 42.1609,372.9393 C42.2089,373.2983 41.9579,373.6293 41.5989,373.6773 C41.4259,373.7003 40.6729,373.7943 39.7509,373.7943" id="Fill-8" fill="#5FBFFD"></path>
                    <path d="M36.6279,161.0677 C43.2509,184.0787 49.1449,227.6617 46.1779,251.2977 C42.4439,281.0367 39.9009,298.0897 31.3419,343.1697 C30.6019,347.0647 18.9249,347.0097 18.2169,343.1697 C10.2289,299.8017 21.2349,272.7527 19.3579,255.8637 C16.5049,230.1847 6.4389,201.0707 11.9329,184.3607 C20.2639,176.6827 28.2219,168.7727 36.6279,161.0677" id="Fill-10" fill="#3E4B56"></path>
                    <path d="M81.915,294.6663 C81.915,294.6663 62.269,321.8563 61.943,326.3953 L62.415,334.7863 L53.7,321.7463 L53.789,317.5743 C53.789,317.5743 59.455,317.0863 61.507,303.7453 L81.915,294.6663 Z" id="Fill-12" fill="#FFFFFF"></path>
                    <path d="M54.3144,321.5667 L61.6804,332.5877 L61.3324,326.3897 L61.3354,326.3507 C61.6254,322.3117 75.4614,302.6387 80.1054,296.1387 L62.0584,304.1687 C60.2724,315.2807 55.9324,317.5887 54.3894,318.0627 L54.3144,321.5667 Z M63.1494,336.9847 L53.0854,321.9247 L53.1914,317.0137 L53.7374,316.9667 C53.7814,316.9617 58.9674,316.2397 60.9034,303.6527 L60.9544,303.3237 L83.7364,293.1867 L82.4104,295.0237 C76.9924,302.5227 62.9034,322.7237 62.5554,326.4027 L63.1494,336.9847 Z" id="Fill-14" fill="#222222"></path>
                    <path d="M47.0234,324.096 C47.1204,325.606 47.8494,327.043 48.8284,328.211 C51.2794,331.137 54.7134,333.617 57.4974,336.26 C60.4824,339.094 63.3484,342.254 66.5394,344.851 C68.4124,346.375 71.0944,344.462 70.2774,342.191 C70.1424,341.817 69.9984,341.45 69.8494,341.095 C67.8324,336.242 62.5864,327.011 60.0254,322.42 C58.7254,320.09 56.4704,316.224 53.2664,316.947 C50.3054,317.614 47.0774,320.463 47.0134,323.656 C47.0104,323.803 47.0144,323.95 47.0234,324.096" id="Fill-16" fill="#222222"></path>
                    <path d="M95.3241,235.6058 C74.2111,232.7528 58.3721,229.1508 41.6851,217.9168 C24.9991,206.6828 24.8891,192.9788 30.9701,176.7168 C46.3131,179.9878 63.4701,180.9878 77.2941,188.0658 C91.1181,195.1438 102.1721,198.5148 115.5111,211.0598 C127.2691,222.1198 132.9851,224.1938 121.5921,240.9058 C102.7421,269.8438 85.6241,293.8098 75.3521,306.3638 C75.3521,306.3638 64.3321,306.0838 61.6571,303.5108 C68.9681,280.5388 72.4991,249.8718 96.4661,235.0358" id="Fill-18" fill="#75899D"></path>
                    <path d="M62.3779,303.3011 C64.7359,305.0261 71.9869,305.6271 75.0639,305.7321 C85.9629,292.3711 103.5599,267.4471 121.0689,240.5661 C130.9849,226.0201 127.8489,223.1651 118.5359,214.6931 C117.4579,213.7121 116.3039,212.6611 115.0839,211.5141 C104.8649,201.9041 96.1839,197.8021 86.1319,193.0541 C83.2049,191.6711 80.1779,190.2421 77.0099,188.6201 C67.1359,183.5651 55.3979,181.6131 44.0459,179.7241 C39.8469,179.0261 35.5119,178.3051 31.3679,177.4381 C24.6149,195.8611 27.8209,207.8311 42.0339,217.4001 C58.2369,228.3091 73.2849,231.9971 95.3789,234.9851 C95.6299,234.8221 95.8829,234.6621 96.1379,234.5051 L96.7939,235.5661 C77.6269,247.4301 71.5649,269.9361 66.2139,289.7911 C64.9389,294.5281 63.7319,299.0091 62.3779,303.3011 L62.3779,303.3011 Z M75.6419,306.9941 L75.3369,306.9881 C74.8769,306.9751 64.0419,306.6691 61.2259,303.9601 L60.9459,303.6911 L61.0639,303.3221 C62.4589,298.9351 63.6989,294.3361 65.0099,289.4671 C70.2009,270.2011 76.0579,248.4691 93.8219,236.0301 C85.3889,234.8641 75.7269,233.2781 66.6619,230.5001 C57.3939,227.6591 49.3459,223.8251 41.3369,218.4331 C22.5889,205.8121 25.2799,190.1531 30.3869,176.4981 L30.5749,175.9941 L31.1009,176.1081 C35.3749,177.0181 39.8879,177.7691 44.2499,178.4941 C55.6959,180.3981 67.5309,182.3661 77.5779,187.5111 C80.7289,189.1231 83.7459,190.5481 86.6639,191.9271 C96.3899,196.5211 105.5749,200.8611 115.9389,210.6061 C117.1519,211.7481 118.3019,212.7941 119.3749,213.7701 C128.7469,222.2971 132.6259,225.8261 122.1069,241.2571 C104.4779,268.3221 86.7439,293.4251 75.8349,306.7581 L75.6419,306.9941 Z" id="Fill-20" fill="#3E4B56"></path>
                    <path d="M19.2558,93.6507 C19.5268,93.6977 19.8138,93.6937 20.0638,93.7967 C26.1558,96.3127 34.9998,95.5767 33.1928,101.9257 C29.8888,113.5257 21.0718,126.4977 17.2128,137.8887 C15.5848,142.6937 14.7138,148.1507 12.1118,152.3967 C11.9228,152.1857 12.1118,152.3967 6.1968,149.8687 C-1.1502,146.1307 -1.1092,146.1527 1.9198,138.2697 C7.2988,124.2707 12.6168,110.2447 17.9808,96.2387 C18.3238,95.3397 18.8268,94.5117 19.2558,93.6507" id="Fill-22" fill="#C1DCF3"></path>
                    <path d="M56.7226,79.8978 C58.9266,91.0038 41.2956,108.1598 41.2956,108.1598 L19.0736,96.8068 C19.0736,96.8068 23.2986,85.1118 30.3686,77.1138" id="Fill-24" fill="#FFFFFF"></path>
                    <path d="M42.1464,70.0482 C26.3344,75.7442 15.2884,95.4482 15.2884,95.4482 L22.0684,98.9742" id="Fill-26" fill="#FFFFFF"></path>
                    <path d="M22.0673,99.598 C21.9703,99.598 21.8733,99.576 21.7813,99.528 L15.0013,96.002 C14.8513,95.925 14.7393,95.789 14.6913,95.627 C14.6433,95.466 14.6623,95.291 14.7453,95.144 C14.7723,95.094 17.5893,90.102 22.3113,84.484 C26.6833,79.282 33.6363,72.452 41.9353,69.462 C42.2593,69.346 42.6173,69.514 42.7333,69.837 C42.8493,70.161 42.6813,70.519 42.3583,70.635 C28.4213,75.656 18.0903,91.973 16.1583,95.199 L22.3553,98.421 C22.6613,98.58 22.7803,98.957 22.6213,99.262 C22.5093,99.476 22.2933,99.598 22.0673,99.598" id="Fill-28" fill="#5FBFFD"></path>
                    <path d="M76.0741,96.4642 C74.2991,89.1972 72.5221,81.9312 70.7491,74.6672 C78.2781,74.6182 80.8691,71.1002 88.0491,69.5102 C88.0491,69.5102 113.6061,63.2762 126.1191,60.7322 C127.5291,60.3462 141.0351,50.8102 155.9961,37.7192 C157.0101,36.5782 163.8891,42.2582 160.3591,47.0692 C150.7781,60.1282 148.5151,63.9012 135.8831,72.8462 C126.6971,79.4852 100.9441,86.9312 86.4881,92.8652 C83.0991,94.2572 79.5501,95.2752 76.0741,96.4642" id="Fill-30" fill="#C1DCF3"></path>
                    <path d="M154.9609,51.9886 C166.6919,43.3776 169.2129,30.3776 169.2129,30.3776 C170.0279,23.8506 168.7689,20.5926 166.4709,20.3986 C165.0829,20.2816 164.1479,18.6136 163.7989,19.9626 C163.0869,22.7166 162.5559,24.3976 160.2539,31.7116 C159.0429,27.5716 157.2429,24.8096 156.4969,24.3996 C155.9729,24.1116 155.3449,24.5396 155.4189,25.1326 L155.5669,31.8266 C155.5499,36.8356 155.5599,40.6776 155.5599,40.6776 C155.5599,40.6776 151.6889,45.6796 146.8809,48.4856" id="Fill-32" fill="#C1DCF3"></path>
                    <path d="M163.4902,23.0033 C163.4902,23.0033 165.8912,13.7893 167.8202,16.6083 C167.8202,16.6083 167.7962,22.0523 167.1532,26.4683" id="Fill-34" fill="#C1DCF3"></path>
                    <path d="M167.7704,26.5579 L166.5374,26.3779 C167.0944,22.5439 167.1824,17.8609 167.1954,16.8179 C167.1124,16.7269 167.0504,16.6949 167.0254,16.6969 C166.3304,16.8179 164.9594,19.8379 164.0934,23.1609 L162.8864,22.8459 C164.5824,16.3389 166.3184,15.5539 166.8104,15.4679 C167.2084,15.3989 167.8024,15.4779 168.3344,16.2559 L168.4444,16.4169 L168.4444,16.6119 C168.4444,16.6659 168.4124,22.1499 167.7704,26.5579" id="Fill-36" fill="#C1DCF3"></path>
                    <path d="M49.1718,52.766 L44.7468,67.669 C44.7468,67.669 58.0028,74.096 66.5468,69.428 C66.5468,69.428 62.4898,62.031 60.2598,54.42 L49.1718,52.766 Z" id="Fill-38" fill="#C1DCF3"></path>
                    <path d="M53.3876,8.1654 L52.3816,7.4834 C53.5306,5.7894 54.8876,4.3624 56.3076,3.3564 L57.0096,4.3484 C55.7076,5.2704 54.4546,6.5904 53.3876,8.1654" id="Fill-40" fill="#222222"></path>
                    <path d="M35.3876,44.8294 C40.2946,55.1704 52.6566,59.5754 62.9966,54.6684 C73.3376,49.7614 72.2416,38.5474 67.3346,28.2064 C62.4276,17.8654 55.5676,12.3124 45.2266,17.2204 C34.8846,22.1274 30.4806,34.4884 35.3876,44.8294" id="Fill-42" fill="#C1DCF3"></path>
                    <path d="M57.2743,40.2943 C58.5263,42.9323 61.6793,44.0563 64.3173,42.8043 C66.9553,41.5523 68.0783,38.3993 66.8273,35.7623 C65.5753,33.1243 62.4213,32.0003 59.7843,33.2523 C57.1463,34.5043 56.0223,37.6563 57.2743,40.2943" id="Fill-44" fill="#A2C6E0"></path>
                    <path d="M62.1972,29.181 C62.5092,29.841 63.2982,30.121 63.9582,29.809 C64.6172,29.495 64.8982,28.707 64.5852,28.048 C64.2722,27.389 63.4832,27.108 62.8242,27.42 C62.1652,27.734 61.8842,28.522 62.1972,29.181" id="Fill-46" fill="#222222"></path>
                    <path d="M70.3212,36.2122 C69.9732,36.2122 69.6922,35.9312 69.6912,35.5832 C69.6902,35.2352 69.9712,34.9522 70.3202,34.9512 C71.2882,34.9492 72.3772,34.1082 72.7152,33.7842 C72.9092,33.0642 70.0792,30.0652 66.6662,27.3692 C66.3922,27.1532 66.3452,26.7582 66.5612,26.4842 C66.7762,26.2122 67.1732,26.1642 67.4462,26.3802 C68.5282,27.2342 73.9272,31.6032 73.9832,33.7232 C73.9942,34.1212 73.8502,34.4632 73.5682,34.7122 C73.5252,34.7542 72.0002,36.2082 70.3232,36.2122 L70.3212,36.2122 Z" id="Fill-48" fill="#222222"></path>
                    <path d="M62.5331,45.9398 C61.5901,45.9398 60.5411,45.6678 59.4601,44.9288 C59.1711,44.7318 59.0961,44.3378 59.2941,44.0488 C59.4911,43.7598 59.8851,43.6858 60.1741,43.8828 C62.9051,45.7498 65.0361,43.7458 65.1251,43.6588 C65.3751,43.4168 65.7761,43.4218 66.0191,43.6708 C66.2621,43.9198 66.2601,44.3188 66.0111,44.5628 C65.3831,45.1808 64.1061,45.9398 62.5331,45.9398" id="Fill-50" fill="#222222"></path>
                    <path d="M57.205,72.0765 C55.05,72.0765 52.769,71.8165 50.386,71.2925 C44.996,70.1075 41.029,68.0325 40.863,67.9445 C40.487,67.7465 40.343,67.2795 40.542,66.9035 C40.74,66.5275 41.205,66.3855 41.583,66.5815 C41.737,66.6635 57.222,74.6805 67.67,67.6255 C68.021,67.3885 68.501,67.4795 68.739,67.8325 C68.977,68.1845 68.885,68.6645 68.532,68.9025 C65.412,71.0095 61.567,72.0765 57.205,72.0765" id="Fill-52" fill="#5FBFFD"></path>
                    <path d="M62.0976,7.0755 C62.0566,7.9555 61.8796,8.8065 61.5676,9.6315 C64.2576,9.7125 63.6096,19.9925 61.3686,19.4325 C59.6806,19.0105 58.4136,20.6985 58.4136,22.3865 C58.4136,24.8465 56.7266,25.7625 56.7266,25.7625 C56.4106,27.6575 53.6216,26.2295 53.7726,28.2945 C53.8976,30.0055 53.9646,32.7045 51.3386,33.6045 C50.4106,33.9225 50.1736,31.9035 48.2856,32.5135 C40.1536,35.1465 48.2856,43.0635 52.0836,43.0635 C52.6826,44.5625 52.5066,49.8155 50.8186,52.3475 C50.9866,54.7505 49.9016,53.2385 49.3136,55.6945 C48.7346,58.1145 49.5346,57.7015 47.4426,58.2565 C43.7286,59.2415 38.9756,57.8685 34.8396,58.0385 C32.7566,58.1235 31.0386,58.0985 29.4856,56.4545 C28.8216,55.7515 28.5896,54.3305 27.9186,53.7635 C27.2436,53.1945 25.8386,53.3885 24.9136,52.6955 C22.8866,51.1765 24.5306,51.4845 23.3046,49.8185 C23.2036,49.6815 23.1626,49.3745 23.0456,49.2255 C21.9306,47.8105 19.8336,48.1965 18.6846,46.3545 C14.5266,39.6885 14.5446,33.3035 16.6366,27.0285 C17.0586,25.7625 15.7736,24.9715 16.5786,21.5945 C17.2626,18.7255 17.1576,17.4275 19.5106,15.5405 C20.0436,15.1135 20.4886,15.4425 20.9296,14.9615 C21.9626,13.8335 21.7796,11.7405 23.3046,10.4895 C24.2416,9.7215 25.4716,9.7555 26.3676,9.1895 C26.8946,8.8575 27.1226,8.2755 27.6866,7.9145 C28.2616,7.5465 30.3446,6.8935 30.6726,6.5595 C31.0156,6.2105 30.9196,5.2555 31.2146,4.7845 C32.1036,3.3675 33.8826,1.4825 35.6266,1.2865 C43.1296,0.4435 42.4216,4.3975 44.4006,3.6435 C45.9346,3.0585 46.8606,1.0175 48.8296,0.3145 C51.9806,-0.8105 53.2906,1.4155 55.7446,1.7935 C57.6156,2.0815 58.5186,0.5425 60.4966,2.3505 C61.7556,3.5015 62.1806,5.4445 62.0976,7.0755" id="Fill-54" fill="#222222"></path>
                    <path d="M26.1445,100.2591 C18.8615,118.2291 11.9975,152.4191 4.5165,191.6911 L78.6985,186.0801 L78.0755,136.2111 C78.0755,136.2111 85.6515,112.8781 83.0615,96.3161" id="Fill-56" fill="#FFFFFF"></path>
                    <path d="M64.7197,77.513 C70.0737,67.535 87.8917,68.172 87.8917,68.172 L96.1527,92.576 L83.3007,96.407" id="Fill-58" fill="#FFFFFF"></path>
                    <path d="M83.4794,97.0042 L83.1234,95.8102 L95.3544,92.1622 L87.4424,68.7892 C84.7194,68.7942 69.9254,69.1312 65.2694,77.8072 L64.1704,77.2182 C66.4504,72.9722 71.2954,69.9542 78.1844,68.4912 C83.3234,67.4002 87.7304,67.5442 87.9144,67.5492 L88.3434,67.5652 L96.9504,92.9872 L83.4794,97.0042 Z" id="Fill-60" fill="#5FBFFD"></path>
                    <path d="M77.4511,98.1859 C77.1621,98.1859 76.9031,97.9839 76.8421,97.6909 C76.7701,97.3539 76.9861,97.0229 77.3231,96.9529 C88.9791,94.4979 95.8711,92.0139 95.9391,91.9899 C96.2641,91.8729 96.6201,92.0389 96.7381,92.3629 C96.8561,92.6859 96.6881,93.0429 96.3651,93.1609 C96.2971,93.1869 89.3311,95.6989 77.5801,98.1719 C77.5361,98.1809 77.4931,98.1859 77.4511,98.1859" id="Fill-62" fill="#5FBFFD"></path>
                    <path d="M71.2177,82.6009 L86.1787,93.8219 C86.1787,93.8219 70.5947,98.8089 71.2177,97.5619 C71.8407,96.3159 71.2177,82.6009 71.2177,82.6009" id="Fill-64" fill="#FFFFFF"></path>
                    <path d="M3.7177,192.3763 L3.9097,191.5503 C8.6967,170.9663 11.9097,155.4193 14.4907,142.9263 C18.5867,123.1073 21.0597,111.1463 25.5667,100.0243 L26.7217,100.4933 C22.2577,111.5083 19.7937,123.4293 15.7127,143.1783 C13.1637,155.5103 10.0007,170.8163 5.3167,191.0053 L78.0677,185.5033 L77.4507,136.2193 C77.4717,135.9143 79.3627,111.0183 82.4517,96.1883 L83.6717,96.4423 C80.5997,111.1913 78.7147,136.0093 78.6967,136.2583 L79.3287,186.6583 L78.7447,186.7023 L3.7177,192.3763 Z" id="Fill-66" fill="#5FBFFD"></path>
                    <path d="M37.5178,80 L40.4524883,72.0765 C57.9800494,72.7090087 67.0983867,72.7090087 67.8075,72.0765 C68.5166133,71.4439913 70.5753754,74.085158 73.9837862,80 L78.6891032,92.6368 L71.1995065,99.598 C64.6395306,103.484926 59.8271918,105.428388 56.7624902,105.428388 C52.1654379,105.428388 40.4524883,99.598 40.4524883,99.598 C40.4524883,99.598 40.4524883,93.9048685 40.4524883,91.9524343 C40.4524883,90.6508114 39.4742589,86.6666667 37.5178,80 Z" id="Path-2" fill="#FFFFFF"></path>
                </g>
            </g>
        </g>
    </g>
</svg>