<svg width="366" height="353" viewBox="0 0 366 353" xmlns="http://www.w3.org/2000/svg" xmlns:xlink="http://www.w3.org/1999/xlink"><defs><path d="M16.829 45.774c-18.602 26.95-19.968 62.831-10.271 88.992 9.699 26.161 30.516 42.66 49.227 64.176 18.712 21.462 35.319 47.997 52.311 48.404 16.992.407 34.427-25.259 48.974-46.797 14.49-21.593 26.149-39.113 34.892-65.372 8.741-26.259 14.566-61.369-.091-88.243-14.602-26.875-49.741-45.625-85.174-45.933-.299-.002-.599-.003-.897-.003C70.661.997 35.273 18.996 16.829 45.774" id="a"/><path d="M16.829 45.774c-18.602 26.95-19.968 62.831-10.271 88.992 9.699 26.161 30.516 42.66 49.227 64.176 18.712 21.462 35.319 47.997 52.311 48.404 16.992.407 34.427-25.259 48.974-46.797 14.49-21.593 26.149-39.113 34.892-65.372 8.741-26.259 14.566-61.369-.091-88.243-14.602-26.875-49.741-45.625-85.174-45.933-.299-.002-.599-.003-.897-.003C70.661.997 35.273 18.996 16.829 45.774z" id="c"/><path id="e" d="M0 400h365.747V.05H0z"/></defs><g fill="none" fill-rule="evenodd"><path d="M105.7858 95.3373c.441 0 .799-.357.799-.798 0-.441-.358-.799-.799-.799-.44 0-.798.358-.798.799 0 .441.358.798.798.798M96.7887 95.3373c.44 0 .798-.357.798-.798 0-.441-.358-.799-.798-.799-.44 0-.798.358-.798.799 0 .441.358.798.798.798M87.7916 95.3373c.441 0 .799-.357.799-.798 0-.441-.358-.799-.799-.799-.44 0-.798.358-.798.799 0 .441.358.798.798.798M78.7945 95.3373c.44 0 .798-.357.798-.798 0-.441-.358-.799-.798-.799-.44 0-.798.358-.798.799 0 .441.358.798.798.798M69.7975 95.3373c.441 0 .799-.357.799-.798 0-.441-.358-.799-.799-.799-.441 0-.799.358-.799.799 0 .441.358.798.799.798M128.2779 104.3344c.441 0 .799-.357.799-.798 0-.441-.358-.799-.799-.799-.439 0-.797.358-.797.799 0 .441.358.798.797.798M119.2818 104.3344c.44 0 .798-.357.798-.798 0-.441-.358-.799-.798-.799-.441 0-.799.358-.799.799 0 .441.358.798.799.798M110.2838 104.3344c.441 0 .799-.357.799-.798 0-.441-.358-.799-.799-.799-.439 0-.797.358-.797.799 0 .441.358.798.797.798M101.2877 104.3344c.44 0 .798-.357.798-.798 0-.441-.358-.799-.798-.799-.441 0-.799.358-.799.799 0 .441.358.798.799.798M92.2897 104.3344c.441 0 .799-.357.799-.798 0-.441-.358-.799-.799-.799-.44 0-.798.358-.798.799 0 .441.358.798.798.798M83.2936 104.3344c.44 0 .798-.357.798-.798 0-.441-.358-.799-.798-.799-.441 0-.799.358-.799.799 0 .441.358.798.799.798M74.2965 104.3344c.44 0 .798-.357.798-.798 0-.441-.358-.799-.798-.799-.441 0-.799.358-.799.799 0 .441.358.798.799.798M65.2994 102.7377c-.441 0-.799.357-.799.798 0 .441.358.799.799.799.44 0 .798-.358.798-.799 0-.441-.358-.798-.798-.798M57.1002 103.5361c0-.441-.357-.798-.798-.798-.441 0-.799.357-.799.798 0 .441.358.798.799.798.441 0 .798-.357.798-.798M48.1031 103.5361c0-.441-.357-.798-.798-.798-.441 0-.799.357-.799.798 0 .441.358.798.799.798.441 0 .798-.357.798-.798M141.774 113.3315c.441 0 .799-.358.799-.799 0-.44-.358-.798-.799-.798-.44 0-.798.358-.798.798 0 .441.358.799.798.799M132.777 113.3315c.441 0 .799-.358.799-.799 0-.44-.358-.798-.799-.798-.44 0-.798.358-.798.798 0 .441.358.799.798.799M123.7799 111.7348c-.44 0-.798.357-.798.798 0 .441.358.799.798.799.441 0 .799-.358.799-.799 0-.441-.358-.798-.799-.798M115.5816 112.5326c0-.44-.357-.798-.799-.798-.44 0-.798.358-.798.798 0 .441.358.799.798.799.442 0 .799-.358.799-.799M105.7858 113.3315c.441 0 .799-.358.799-.799 0-.44-.358-.798-.799-.798-.44 0-.798.358-.798.798 0 .441.358.799.798.799M96.7887 113.3315c.44 0 .798-.358.798-.799 0-.44-.358-.798-.798-.798-.44 0-.798.358-.798.798 0 .441.358.799.798.799M87.7916 113.3315c.441 0 .799-.358.799-.799 0-.44-.358-.798-.799-.798-.44 0-.798.358-.798.798 0 .441.358.799.798.799M78.7945 113.3315c.44 0 .798-.358.798-.799 0-.44-.358-.798-.798-.798-.44 0-.798.358-.798.798 0 .441.358.799.798.799M69.7975 113.3315c.441 0 .799-.358.799-.799 0-.44-.358-.798-.799-.798-.441 0-.799.358-.799.798 0 .441.358.799.799.799M61.5983 112.5326c0-.44-.357-.798-.798-.798-.44 0-.798.358-.798.798 0 .441.358.799.798.799.441 0 .798-.358.798-.799M52.6012 112.5326c0-.44-.357-.798-.798-.798-.441 0-.799.358-.799.798 0 .441.358.799.799.799.441 0 .798-.358.798-.799M43.6041 112.5326c0-.44-.357-.798-.798-.798-.44 0-.798.358-.798.798 0 .441.358.799.798.799.441 0 .798-.358.798-.799M34.607 112.5326c0-.44-.357-.798-.798-.798-.441 0-.799.358-.799.798 0 .441.358.799.799.799.441 0 .798-.358.798-.799M147.0709 121.5297c0-.44-.357-.798-.798-.798-.44 0-.799.358-.799.798 0 .441.359.799.799.799.441 0 .798-.358.798-.799M138.0748 121.5297c0-.44-.357-.798-.799-.798-.441 0-.799.358-.799.798 0 .441.358.799.799.799.442 0 .799-.358.799-.799M128.2779 122.3285c.441 0 .799-.357.799-.799 0-.44-.358-.798-.799-.798-.439 0-.797.358-.797.798 0 .442.358.799.797.799M119.2818 122.3285c.44 0 .798-.357.798-.799 0-.44-.358-.798-.798-.798-.441 0-.799.358-.799.798 0 .442.358.799.799.799M110.2838 122.3285c.441 0 .799-.357.799-.799 0-.44-.358-.798-.799-.798-.439 0-.797.358-.797.798 0 .442.358.799.797.799M101.2877 122.3285c.44 0 .798-.357.798-.799 0-.44-.358-.798-.798-.798-.441 0-.799.358-.799.798 0 .442.358.799.799.799M92.2897 122.3285c.441 0 .799-.357.799-.799 0-.44-.358-.798-.799-.798-.44 0-.798.358-.798.798 0 .442.358.799.798.799M83.2936 122.3285c.44 0 .798-.357.798-.799 0-.44-.358-.798-.798-.798-.441 0-.799.358-.799.798 0 .442.358.799.799.799M75.0943 121.5297c0-.44-.357-.798-.798-.798-.441 0-.799.358-.799.798 0 .2.08.377.201.517l1.003.155c.231-.14.393-.382.393-.672M65.2994 120.7319c-.021 0-.037.01-.057.011l.377.058c-.098-.043-.207-.069-.32-.069M141.774 131.3256c.441 0 .799-.357.799-.798 0-.441-.358-.799-.799-.799-.44 0-.798.358-.798.799 0 .441.358.798.798.798M133.5758 130.5273c0-.441-.357-.798-.799-.798-.44 0-.798.357-.798.798 0 .209.084.396.216.538l.966.149c.244-.137.415-.388.415-.687M123.7799 129.7289c-.038 0-.071.017-.108.022l.465.072c-.109-.055-.226-.094-.357-.094M153.0416 130.5273c0-.441-.357-.798-.799-.798-.44 0-.798.357-.798.798 0 .441.358.798.798.798.442 0 .799-.357.799-.798" fill="#FCF36A"/><path d="M86.8746 88.9037c-22.817 0-44.064 9.091-59.828 25.6l.877.837c9.1-9.529 20.063-16.527 32.097-20.708.048.394.373.705.78.705.44 0 .798-.358.798-.799 0-.15-.052-.281-.123-.402 8.079-2.634 16.618-4.019 25.399-4.019 9.448 0 18.593 1.6 27.145 4.593.081.356.383.627.763.627.188 0 .353-.075.489-.183 19.242 7.091 35.336 21.333 44.787 40.557l1.089-.535c-14.03-28.542-42.49-46.273-74.273-46.273" fill="#FCF36A"/><path d="M180.8287 46.3031c-18.602 26.95-19.968 62.831-10.271 88.992 9.699 26.161 30.516 42.659 49.228 64.176 18.712 21.461 35.318 47.997 52.311 48.404 16.992.407 34.426-25.26 48.973-46.797 14.49-21.593 26.15-39.112 34.892-65.372 8.742-26.259 14.566-61.369-.091-88.243-14.602-26.875-49.741-45.624-85.174-45.933-35.431-.309-71.267 17.767-89.868 44.773" fill="#FFF"/><path d="M124.1129 83.0907c8.364 10.262 18.745 81.942-17.583 84.593l-3.725-17.368c-.002-.041 2.312-30.94 2.31-30.98l18.998-36.245z" fill="#5FBFFD"/><path d="M124.1129 83.0907c8.364 10.262 18.745 81.942-17.583 84.593l-3.725-17.368c-.002-.041 2.312-30.94 2.31-30.98l18.998-36.245z" stroke="#222" stroke-width="1.158"/><path d="M364.901 288.0868s-78.44-177.299-163.756-43.567c0 0-50.473 91.986-123.355-3.145 0 0-33.466-56.913-76.944-21.917" stroke="#C1DCF3" stroke-width="1.693" stroke-linecap="round" stroke-linejoin="round"/><g transform="translate(164 -.05)"><mask id="b" fill="#fff"><use xlink:href="#a"/></mask><path d="M110.4244 115.6285h54.421" stroke="#3E4B56" stroke-width="1.158" mask="url(#b)"/><mask id="d" fill="#fff"><use xlink:href="#c"/></mask><path fill="#498DC9" mask="url(#d)" d="M45.004 114.471h93.789V-5.95H45.004z"/><path d="M118.5299-5.3715s6.368 75.842 45.157 90.316c0 0-31.79 31.263-32.369 42.263 0 0 13.316-7.526 19.685 1.737l38.737 2.426.052-126.9-71.262-9.842z" fill="#FCF36A" mask="url(#d)"/><path d="M150.9508 89.5758s20.29 15.803 38.803 8.191" stroke="#75899D" stroke-width="1.158" mask="url(#d)"/><path fill="#75899D" mask="url(#d)" d="M36.03 250.234h113.474v-71.79H36.03z"/><path d="M78.8717 5.339s10.421 65.421-28.368 79.895c0 0 19.104 30.684 19.683 41.684 0 0-13.315-7.526-19.683 1.737l-38.738 2.426-.052-126.9 67.158 1.158z" fill="#FCF36A" mask="url(#d)"/><path stroke="#75899D" stroke-width="1.311" mask="url(#d)" d="M66.7477 116.8566l-16.073-.043-38.909-.103.298-112.554 34.097.183"/><path d="M36.8981 83.2076s5.21 5.79 19.685 1.737M39.2135 11.9972s-.579 38.789-14.474 60.21M56.5826 20.1022s-.417 33.568-10.422 52.105M162.2916 12.2863s.579 38.79 14.474 60.211M144.9234 20.3917s.417 33.568 10.421 52.105" stroke="#75899D" stroke-width="1.311" stroke-linecap="round" stroke-linejoin="round" mask="url(#d)"/><path d="M158.5738 101.7955l12.804 14.047s-5.926 14.625-23.825 6.501c0 0 4.297-3.298 1.543-14.742l9.478-5.806z" fill="#C1DCF3" mask="url(#d)"/><path d="M163.7633 84.6862c1.7 11.272-6.06 21.788-17.331 23.488-11.272 1.701-16.607-8.171-18.307-19.443-1.7-11.272.877-19.675 12.149-21.376 11.272-1.7 21.788 6.059 23.489 17.331" fill="#C1DCF3" mask="url(#d)"/><path d="M143.1617 93.1183c.434 2.875-1.546 5.558-4.421 5.992-2.875.433-5.558-1.546-5.991-4.421-.434-2.875 1.545-5.558 4.421-5.991 2.875-.434 5.557 1.545 5.991 4.42" fill="#A2C6E0" mask="url(#d)"/><path d="M132.9117 86.6779c.108.719-.386 1.389-1.104 1.498-.719.108-1.39-.387-1.499-1.105-.108-.719.387-1.39 1.106-1.498.719-.108 1.389.386 1.497 1.105" fill="#222" mask="url(#d)"/><path d="M139.0113 100.9025s3.466.629 4.877-2.967M127.6148 87.4767s-2.947 9.214-.937 9.474c0 0 1.891.335 3.085-.465" stroke="#222" stroke-width="1.298" stroke-linecap="round" stroke-linejoin="round" mask="url(#d)"/><path d="M160.3521 101.9449c11.388-11.419 24.273-17.666 18.28-32.479-1.709-4.224-3.801-7.1-8.051-8.049-2.465-8.75-13.127-12.709-24.969-11.009-17.762 2.551-28.404 10.305-23.18 26.443 2.16-.07 5.14-.3 6.695-.51.779-.105.754-5.249 1.593-5.191.838.058 1.135 5.142 2.174 5.494 2.315.776 10.701 6.493 10.701 6.493-.111-.378 2.721-3.506 5.839-2.216 3.118 1.29 1.951 7.09 1.019 9.884-1.337 4.008 9.899 11.14 9.899 11.14" fill="#222" mask="url(#d)"/><path d="M160.3521 101.9449c11.388-11.419 24.273-17.666 18.28-32.479-1.709-4.224-3.801-7.1-8.051-8.049-2.465-8.75-13.127-12.709-24.969-11.009-17.762 2.551-28.404 10.305-23.18 26.443 2.16-.07 5.14-.3 6.695-.51.779-.105.754-5.249 1.593-5.191.838.058 1.135 5.142 2.174 5.494 2.315.776 10.701 6.493 10.701 6.493-.111-.378 2.721-3.506 5.839-2.216 3.118 1.29 1.951 7.09 1.019 9.884-1.337 4.008 9.899 11.14 9.899 11.14z" stroke="#222" stroke-width="1.354" stroke-linecap="round" stroke-linejoin="round" mask="url(#d)"/><path d="M166.6129 62.8146s-.269-3.596-7.721-.954" stroke="#FFF" stroke-width="1.291" stroke-linecap="round" stroke-linejoin="round" mask="url(#d)"/><path fill="#FFF" mask="url(#d)" d="M7.9361 79.3048l99.836-.318 11.965 73.154-100.611.321z"/><path stroke="#3E4B56" stroke-width="1.311" mask="url(#d)" d="M7.9361 79.3048l99.836-.318 11.965 73.154-100.611.321z"/><path fill="#3E4B56" mask="url(#d)" d="M50.4078 152.8331l.043 18.743 27.027-.062-.043-18.743z"/><path stroke="#222" stroke-width="1.295" mask="url(#d)" d="M96.9225 175.5245l-47.809.099-.009-3.923 47.809-.099z"/><path stroke="#FCF36A" stroke-width="1.311" mask="url(#d)" d="M66.4068 86.0685l35.443-.081 10.049 59.163-35.719.082z"/><path stroke="#5FBFFD" stroke-width="1.311" mask="url(#d)" d="M10.9908 70.151l47.242.189 11.189 63.378-48.828-.195z"/><path stroke="#222" stroke-width="2.039" mask="url(#d)" d="M7.9693 79.2545l11.124 73.167 100.611-.23"/><path d="M167.8727 113.317s18.697 10.002 21.676 36.094c0 0 7.564 38.267-1.714 75.735l-51.859 7.641s-5.819-31.037 4.036-88.268c.966-5.614-3.535-6.311-3.451-6.262 0 0 6.891-7.382 9.537-11.868 3.746-6.354 10.587-13.866 21.775-13.072" fill="#5FBFFD" mask="url(#d)"/><path d="M162.4185 126.8361s10.582 2.56-1.965 29.347c0 0-16.473 20.111-37.496 42.791 0 0-6.506 4.759-20.251-13.226l-28.478-37.236s-3.074-9.022 4.034-5.189c3.494 1.884 11.653 11.189 19.543 17.783l19.875 14.155s19.919-33.984 31.144-38.753" fill="#C1DCF3" mask="url(#d)"/><path d="M122.9576 198.9738s-6.506 4.76-20.251-13.226l-28.478-37.236" stroke="#222" stroke-width="1.311" mask="url(#d)"/><g mask="url(#d)"><path d="M134.8834 140.9591l25.587 22.125s19.524-36.117 4.559-40.579" fill="#5FBFFD"/><path d="M134.8834 140.9591l25.587 22.125s19.524-36.117 4.559-40.579" stroke="#FFF" stroke-width="1.311"/></g><g mask="url(#d)"><path d="M141.3375 132.6285l-6.454 8.331" fill="#5FBFFD"/><path d="M141.3375 132.6285l-6.454 8.331" stroke="#000" stroke-width="1.311"/></g><path d="M149.1227 152.8004l-13.528-11.326" stroke="#222" stroke-width="1.311" stroke-linecap="round" stroke-linejoin="round" mask="url(#d)"/><path d="M60.4596 121.9186c-.548-1.115.721-2.238 1.766-1.566.171.11.338.226.499.34 2.199 1.573 6.219 5.268 8.225 7.081.141.128.295.27.453.42.709.449 1.325 1.066 1.773 1.838l1.527 2.631c1.492 2.571.61 5.896-1.962 7.389l-2 1.161c-2.571 1.492-5.896.609-7.388-1.962l-1.528-2.631c-1.492-2.572-.609-5.896 1.962-7.389l.697-.405c-.249-.473-.501-.939-.762-1.383-1.076-1.823-2.328-3.625-3.262-5.524" fill="#C1DCF3" mask="url(#d)"/><path d="M64.484 128.8258c-.249-.473-.501-.939-.763-1.383-1.076-1.824-2.328-3.625-3.261-5.524-.548-1.115.72-2.239 1.765-1.567.171.111.338.226.499.341 2.199 1.572 6.22 5.268 8.226 7.081.14.128.295.269.453.42.709.449 1.324 1.066 1.772 1.838l1.528 2.631c1.492 2.571.609 5.896-1.962 7.389" stroke="#222" stroke-width="1.311" stroke-linecap="round" stroke-linejoin="round" mask="url(#d)"/><path d="M95.2135 262.8737l-28.955 107.961 16.32 2.899s41.373-68.1 34.747-100.904l-22.112-9.956z" fill="#3E4B56" mask="url(#d)"/><path d="M164.0035 359.7555s7.069 8.171 7.819 12.725l.303 8.523 7.595-13.984-.477-4.206s-5.769.032-9.08-13.257l-6.16 10.199z" fill="#C1DCF3" mask="url(#d)"/><g mask="url(#d)"><path d="M107.0416 289.5114c23.523 3.019 67.031-18.455 67.031-18.455 26.208-13.546 14.085-43.937 14.085-43.937s-43.667 5.165-51.898 8.446c-8.232 3.281-44.351 26.831-44.351 26.831s-27.026 15.157-4.912 33.555l77.564 67.239 7.762-9.447s-34.655-77.524-65.281-64.232" fill="#75899D"/><path d="M107.0416 289.5114c23.523 3.019 67.031-18.455 67.031-18.455 26.208-13.546 14.085-43.937 14.085-43.937s-43.667 5.165-51.898 8.446c-8.232 3.281-44.351 26.831-44.351 26.831s-27.026 15.157-4.912 33.555l77.564 67.239 7.762-9.447s-34.655-77.524-65.281-64.232" stroke="#3E4B56" stroke-width="1.311"/></g><path stroke="#5FBFFD" stroke-width="1.311" stroke-linecap="round" mask="url(#d)" d="M50.7486 85.3341l-8.217 19.682-12.937-16.957z"/></g><g transform="translate(0 -6.05)"><path d="M22.5084 123.0529c2.032 3.45 4.921 2.53 6.45-2.054 1.53-4.584 1.122-11.097-.91-14.548-2.033-3.449-4.922-2.53-6.451 2.055-1.53 4.584-1.122 11.097.911 14.547" fill="#C1DCF3"/><path d="M25.2779 118.2687v17.38" stroke="#75899D" stroke-width="1.38" stroke-linecap="round"/><path d="M35.7799 123.3185c4.066 6.9 9.843 5.061 12.902-4.108 3.06-9.169 2.244-22.195-1.822-29.095-4.065-6.9-9.842-5.061-12.901 4.108-3.06 9.169-2.244 22.195 1.821 29.095" fill="#C1DCF3"/><path d="M41.3199 111.0231v37.488M36.5094 114.8878l4.625 8.012" stroke="#75899D" stroke-width="1.38" stroke-linecap="round"/><mask id="f" fill="#fff"><use xlink:href="#e"/></mask><path stroke="#498DC9" stroke-width="1.38" mask="url(#f)" d="M39.838 154.608h3.207v-16.67h-3.207zM31.952 154.608h3.207v-16.67h-3.207zM24.067 154.608h3.207v-16.67h-3.207zM15.525 154.608h3.207v-16.67h-3.207zM45.7711 141.8795h-33.61M45.7711 151.4943h-33.61"/><path d="M59.6373 39.5138c-4.173-.437-8.133-1.243-12.294-1.705-4.161-.462-8.753-.55-12.52.392-3.767.942-6.264 3.16-4.628 4.998 1.595 1.792 6.304 2.554 10.472 2.465 4.168-.088 8.157-.803 12.295-1.052 5.938-.357 11.916.256 17.836.673 2.684.189 5.473.334 8.075-.024 2.603-.359 4.987-1.346 5.246-2.601 1.145-5.529-18.783-2.549-24.482-3.146zM113.4635 25.049c-2.821-.296-5.497-.84-8.31-1.152-2.812-.313-5.916-.372-8.461.264-2.547.638-4.235 2.137-3.129 3.379 1.078 1.211 4.261 1.726 7.078 1.666 2.817-.06 5.513-.543 8.31-.712 4.013-.241 8.054.174 12.055.455 1.814.128 3.699.226 5.458-.016 1.759-.242 3.37-.909 3.546-1.758.773-3.737-12.695-1.723-16.547-2.126z" stroke="#C1DCF3" stroke-width="1.38" mask="url(#f)"/><path d="M23.9889 33.923s-2.939-2.31-6.108.978c0 0-2.011-6.189-6.644-2.809M30.1676 59.5084s3.236-2.724 6.945.875c0 0 2.042-7.077 7.409-3.427" stroke="#75899D" stroke-width="1.38" stroke-linecap="round" mask="url(#f)"/><path d="M201.3961 133.9655c2.339 1.752 5.655 1.276 7.408-1.063 1.752-2.34 1.276-5.656-1.063-7.408-2.34-1.753-5.657-1.277-7.408 1.063-1.752 2.339-1.277 5.656 1.063 7.408" fill="#FCF36A" mask="url(#f)"/><path fill="#3E4B56" mask="url(#f)" d="M198.9322 184.3849h-59.41l-11.788 43.555h59.871z"/><path d="M105.3365 121.8898l-13.193 11.202s7.724 21.147 14.905 19.432c0 0 2.695-13.283 6.694-23.94l-8.406-6.694z" fill="#C1DCF3" mask="url(#f)"/><path d="M102.3854 104.8551c-2.968 10.615 3.23 21.627 13.846 24.596 10.616 2.968 16.905-5.873 19.874-16.489 2.968-10.615 1.491-18.984-9.124-21.953-10.616-2.968-21.627 3.231-24.596 13.846" fill="#C1DCF3" mask="url(#f)"/><path d="M121.1559 115.3903c-.758 2.708.824 5.516 3.531 6.273 2.708.758 5.517-.824 6.275-3.531.757-2.708-.825-5.517-3.533-6.274-2.708-.757-5.516.824-6.273 3.532" fill="#A2C6E0" mask="url(#f)"/><path d="M131.7555 110.4249c-.189.677.205 1.379.883 1.568.677.19 1.379-.206 1.568-.882.19-.678-.206-1.38-.883-1.569-.677-.189-1.38.206-1.568.883" fill="#222" mask="url(#f)"/><path d="M124.2154 123.3522s-3.401.192-4.328-3.426M136.7438 111.8195s1.736 9.192-.225 9.203c0 0-1.854.097-2.905-.813" stroke="#222" stroke-width="1.214" stroke-linecap="round" stroke-linejoin="round" mask="url(#f)"/><path d="M139.5221 96.8258s2.16-16.587-28.5-20.026c-3.145-.353-6.229-.329-11.398 2.418-6.065 3.222-20.038 20.978-11.041 32.568 1.08 1.393 2.894 7.527 5.789 9.843 0 0 .616 8.049 0 9.263 0 0 4.631-2.895 8.257-8.064 0 0 12.539-4.146 13.104-8.828 0 0-1.802-2.143-2.352-4.318-.987-3.91 2.916-8.353 5.887-5.661 0 0 13.949 2.039 20.254-7.195" fill="#5FBFFD" mask="url(#f)"/><path d="M106.2145 159.9781s-1.618 32.575 9.592 74.442l-12.863 3.633s-8.17-40.858-9.557-50.567l3.468-22.249 9.36-5.259z" fill="#75899D" mask="url(#f)"/><path d="M92.1432 133.0919s-19.426 4.165-28.865 26.886c0 0-16.721 32.498-18.07 68.636h48.178s14.503-63.377 13.638-74.165c0 0 2.656-17.633-14.881-21.357" fill="#FCF36A" mask="url(#f)"/><path fill="#222" mask="url(#f)" d="M143.9156 220.6583h-33.373l17.191 7.282h17.261z"/><g mask="url(#f)"><path d="M93.7818 142.3546s-8.161-8.881-19.97 14.937c0 0-16.447 29.064-20.243 57.928 0 0-.89 10.698 24.039 10.698h49.61s3.949-5.652-28.102-10.092c0 0-26.147-3.23-27.834-2.826 0 0 25.958-42.46 22.733-52.883" fill="#FFF"/><path d="M93.7818 142.3546s-8.161-8.881-19.97 14.937c0 0-16.447 29.064-20.243 57.928 0 0-.89 10.698 24.039 10.698h49.61s3.949-5.652-28.102-10.092c0 0-26.147-3.23-27.834-2.826 0 0 25.958-42.46 22.733-52.883" stroke="#222" stroke-width="1.238"/></g><g mask="url(#f)"><path d="M96.9889 164.7404l-3.063 8.9-20.805-19.013s9.171-21.535 19.831-12.541" fill="#FCF36A"/><path d="M96.9889 164.7404l-3.063 8.9-20.805-19.013s9.171-21.535 19.831-12.541" stroke="#FFF" stroke-width="1.214"/></g><path d="M93.9234 173.6388l-11.632-10.631" stroke="#222" stroke-width="1.214" stroke-linecap="round" stroke-linejoin="round" mask="url(#f)"/><path d="M165.4674 174.1525c3.257 2.451 7.885 1.797 10.335-1.459 2.451-3.257 1.798-7.884-1.459-10.335-3.257-2.451-7.884-1.798-10.335 1.459-2.451 3.257-1.798 7.884 1.459 10.335zM155.2897 147.9054l-5.444 12.958-8.5-11.194z" stroke="#5FBFFD" stroke-width="1.214" stroke-linecap="round" mask="url(#f)"/><path stroke="#222" stroke-width="1.214" mask="url(#f)" d="M139.5221 184.3849l-11.788 43.555h59.871"/><path d="M159.107 206.7062c0 3.003 2.435 5.438 5.438 5.438 3.003 0 5.438-2.435 5.438-5.438 0-3.003-2.435-5.438-5.438-5.438-3.003 0-5.438 2.435-5.438 5.438z" stroke="#FFF" stroke-width="1.214" mask="url(#f)"/><path fill="#FFF" mask="url(#f)" d="M186.0074 132.5343l7.704-15.655-15.654-7.704-7.704 15.654z"/><path stroke="#C1DCF3" stroke-width="1.861" stroke-linecap="round" mask="url(#f)" d="M186.0074 132.5343l7.704-15.655-15.654-7.704-7.704 15.654z"/><path d="M98.1412 321.963s-7.914 6.136-9.427 10.138l-1.828 7.689-4.352-14.092 1.201-3.735s4.343-.267 9.775-11.738l4.631 11.738z" fill="#FFF" mask="url(#f)"/><path d="M98.1412 321.963s-7.914 6.136-9.427 10.138l-1.828 7.689-4.352-14.092 1.201-3.735s4.343-.267 9.775-11.738l4.631 11.738z" stroke="#222" stroke-width="1.201" mask="url(#f)"/><path d="M178.7076 329.1661s13.339 20.275 16.273 22.143c2.935 1.867-11.205 0-11.205 0l-2.4-.801s2.134-5.116-17.074-25.501h11.205l3.201 4.159z" fill="#FFF" mask="url(#f)"/><path d="M178.7076 329.1661s13.339 20.275 16.273 22.143c2.935 1.867-11.205 0-11.205 0l-2.4-.801s2.134-5.116-17.074-25.501h11.205l3.201 4.159z" stroke="#222" stroke-width="1.201" mask="url(#f)"/><path d="M144.5602 264.8727l36.815 63.226h-17.974s-36.182-29.612-35.915-46.953l17.074-16.273z" fill="#5FBFFD" mask="url(#f)"/><g mask="url(#f)"><path d="M137.0983 256.3361c-19.216 10.671-64.042 7.114-64.042 7.114-27.211-2.667-27.204-32.991-27.204-32.991h108.579s18.674 5.602 2.134 24.543l-58.424 66.961-4.631-11.738s12.66-54.823 43.588-53.889" fill="#FFF"/><path d="M137.0983 256.3361c-19.216 10.671-64.042 7.114-64.042 7.114-27.211-2.667-27.204-32.991-27.204-32.991h108.579s18.674 5.602 2.134 24.543l-58.424 66.961-4.631-11.738s12.66-54.823 43.588-53.889" stroke="#5FBFFD" stroke-width="1.201"/></g><path d="M146.4859 266.5533l-17.918 20.536" stroke="#FFF" stroke-width="1.201" mask="url(#f)"/><path d="M74.5514 326.7443c-.318 1.387-.047 2.878.521 4.193 1.423 3.295 3.853 6.452 5.652 9.582 1.929 3.355 3.663 6.973 5.841 10.169 1.278 1.877 4.21.873 4.083-1.393-.021-.373-.054-.742-.091-1.102-.516-4.915-2.765-14.643-3.839-19.467-.545-2.449-1.539-6.539-4.621-6.748-2.847-.194-6.522 1.507-7.436 4.367-.043.132-.079.265-.11.399M182.151 357.2955c1.057.954 2.492 1.442 3.918 1.585 3.57.36 7.51-.226 11.12-.275 3.869-.052 7.873.193 11.727-.154 2.26-.204 2.81-3.253.768-4.245-.335-.163-.674-.315-1.007-.457-4.545-1.941-14.137-4.71-18.874-6.119-2.405-.715-6.462-1.836-8.144.754-1.555 2.392-1.857 6.431.197 8.621.095.102.193.198.295.29" fill="#222" mask="url(#f)"/><path d="M89.2369 344.3829s-3.917-3.111-2.351-4.593c0 0 6.017 2.327 3.924-2.053 0 0-6.055-2.704-5.722-4.208" stroke="#5FBFFD" stroke-width="1.201" stroke-linecap="round" stroke-linejoin="round" mask="url(#f)"/><path d="M64.0953 258.9352s11.238 2.312 25.311 2.312c14.072 0 30.048-2.312 30.048-2.312l10.946-6.801-38.034-2.124-40.407-2.256 12.136 11.181z" fill="#000" mask="url(#f)"/><path d="M64.0953 258.9352s11.238 2.312 25.311 2.312c14.072 0 30.048-2.312 30.048-2.312l10.946-6.801-38.034-2.124-40.407-2.256 12.136 11.181z" stroke="#000" stroke-width=".578" mask="url(#f)"/><path d="M139.5221 96.8258s2.16-16.587-28.5-20.026c-3.145-.353-6.229-.329-11.398 2.418-5.736 3.047-23.779 19.253-5.831 41.832 2.721 3.423.579 5.789.579 9.842 0 0 7.526-5.211 9.262-8.684 0 0 11.534-3.526 12.099-8.208 0 0-1.802-2.143-2.352-4.318-.987-3.91 2.916-8.353 5.887-5.661 0 0 13.949 2.039 20.254-7.195z" stroke="#222" stroke-width="1.158" mask="url(#f)"/><path d="M180.8287 52.3531c-18.602 26.95-19.968 62.831-10.271 88.992 9.699 26.161 30.516 42.659 49.228 64.176 18.712 21.461 35.318 47.997 52.311 48.404 16.992.407 34.426-25.26 48.973-46.797 14.49-21.593 26.15-39.112 34.892-65.372 8.742-26.259 14.566-61.369-.091-88.243-14.602-26.875-49.741-45.624-85.174-45.933-35.431-.309-71.267 17.767-89.868 44.773z" stroke="#FCF36A" stroke-width="1.737" mask="url(#f)"/><path d="M302.276 41.1901c-.001-.357.288-.648.646-.649.358-.001.648.289.649.646.001.358-.288.649-.646.649-.358.001-.648-.288-.649-.646M285.9039 20.2086c-.001-.357.288-.648.646-.649.358-.001.648.289.649.646.001.358-.288.649-.646.649-.358.001-.648-.288-.649-.646M307.8414 20.7252c-.001-.358.288-.648.646-.649.358-.001.648.288.649.646.001.357-.288.648-.647.649-.357.001-.647-.289-.648-.646M264.2418 69.3922c-.001-.357.289-.648.646-.649.358-.001.649.289.649.646.001.357-.288.649-.646.649-.357.001-.648-.288-.649-.646M301.7975 38.6549c0-.142.114-.256.256-.257.141 0 .257.114.257.256.001.142-.115.256-.255.257-.142 0-.257-.114-.258-.256M256.6891 22.8927c-.001-.142.113-.256.255-.257.141 0 .257.114.258.256 0 .142-.115.256-.256.257-.142 0-.257-.114-.257-.256M260.4449 60.8746c0-.142.114-.256.256-.257.141 0 .257.114.257.256 0 .142-.115.256-.256.257-.142 0-.256-.114-.257-.256M247.4371 35.9733c-.001-.142.114-.257.256-.257.141 0 .256.114.257.256 0 .141-.115.256-.256.257-.142 0-.257-.114-.257-.256M307.5006 13.2789c0-.142.114-.256.256-.257.141 0 .256.114.257.256 0 .142-.115.256-.256.257-.142 0-.257-.114-.257-.256M257.1187 69.3004c0-.142.114-.256.256-.257.141 0 .256.114.257.256 0 .142-.115.257-.256.257-.142 0-.257-.114-.257-.256M240.3297 42.8966c-.001-.141.114-.256.256-.257.141 0 .256.114.257.256 0 .142-.115.257-.256.257-.142 0-.257-.114-.257-.256" fill="#FCF36A" mask="url(#f)"/><path d="M267.7643 52.3317c0-.142.114-.256.256-.257.141 0 .257.114.257.256.001.141-.115.256-.256.257-.142 0-.256-.114-.257-.256" fill="#076D9B" mask="url(#f)"/><path d="M295.0201 30.2521c-.001-.142.114-.256.255-.257.141 0 .257.114.258.256 0 .142-.115.256-.256.257-.142 0-.257-.114-.257-.256M279.1295 19.2799c-.001-.142.114-.257.256-.257.141 0 .256.114.257.256 0 .142-.115.256-.256.257-.142 0-.257-.114-.257-.256M265.6441 21.6852c-.001-.142.114-.257.256-.257.141 0 .256.114.257.256 0 .141-.115.256-.256.257-.142 0-.257-.114-.257-.256M275.0143 13.1373c-.001-.142.114-.256.256-.257.141 0 .256.114.257.256 0 .142-.115.256-.256.257-.142 0-.257-.114-.257-.256M283.3228 12.255c-.001-.142.113-.257.255-.257.141 0 .257.114.257.256.001.142-.114.256-.255.257-.142 0-.257-.114-.257-.256M265.2916 9.1661c0-.141.114-.256.256-.257.141 0 .256.114.257.256 0 .142-.115.257-.256.257-.142 0-.257-.114-.257-.256M295.0953 16.3292c0-.357.289-.648.646-.649.358-.001.649.289.65.646.001.358-.289.649-.647.649-.357.001-.648-.288-.649-.646M260.0055 57.5299c-.001-.357.289-.648.646-.649.358-.001.649.289.649.646.001.357-.288.648-.646.649-.357.001-.648-.289-.649-.646M250.776 33.2672c0-.357.289-.648.646-.649.358-.001.649.289.65.646 0 .358-.289.649-.647.649-.357.001-.648-.288-.649-.646M268.7467 9.8063c-.001-.358.288-.648.646-.649.358-.001.648.288.649.646.001.357-.288.648-.646.649-.358 0-.648-.289-.649-.646" fill="#FCF36A" mask="url(#f)"/></g></g></svg>