<svg width="366" height="353" viewBox="0 0 366 353" xmlns="http://www.w3.org/2000/svg" xmlns:xlink="http://www.w3.org/1999/xlink"><defs><path d="M16.829 45.775c-18.601 26.949-19.968 62.83-10.27 88.992 9.698 26.161 30.515 42.659 49.226 64.175 18.712 21.462 35.319 47.997 52.311 48.404 16.993.407 34.427-25.26 48.974-46.797 14.49-21.593 26.149-39.113 34.892-65.371 8.741-26.26 14.566-61.37-.091-88.244C177.269 20.06 142.13 1.309 106.697 1.001c-.296-.003-.598-.004-.894-.004C70.662.995 35.274 18.994 16.829 45.775" id="a"/><path d="M16.829 45.775c-18.601 26.949-19.968 62.83-10.27 88.992 9.698 26.161 30.515 42.659 49.226 64.175 18.712 21.462 35.319 47.997 52.311 48.404 16.993.407 34.427-25.26 48.974-46.797 14.49-21.593 26.149-39.113 34.892-65.371 8.741-26.26 14.566-61.37-.091-88.244C177.269 20.06 142.13 1.309 106.697 1.001c-.296-.003-.598-.004-.894-.004C70.662.995 35.274 18.994 16.829 45.775z" id="c"/><path id="e" d="M0 400h365.747V.05H0z"/></defs><g fill="none" fill-rule="evenodd"><path d="M105.7857 95.3376c.441 0 .799-.357.799-.799 0-.441-.358-.799-.799-.799-.44 0-.798.358-.798.799 0 .442.358.799.798.799M96.7891 95.3376c.44 0 .798-.357.798-.799 0-.441-.358-.799-.798-.799-.441 0-.799.358-.799.799 0 .442.358.799.799.799M87.7915 95.3376c.441 0 .799-.357.799-.799 0-.441-.358-.799-.799-.799-.44 0-.798.358-.798.799 0 .442.358.799.798.799M78.795 95.3376c.44 0 .798-.357.798-.799 0-.441-.358-.799-.798-.799-.441 0-.799.358-.799.799 0 .442.358.799.799.799M69.7974 95.3376c.441 0 .799-.357.799-.799 0-.441-.358-.799-.799-.799-.441 0-.799.358-.799.799 0 .442.358.799.799.799M128.2788 104.3337c.441 0 .798-.357.798-.798 0-.44-.357-.798-.798-.798-.441 0-.798.358-.798.798 0 .441.357.798.798.798M119.2818 104.3337c.44 0 .798-.357.798-.798 0-.44-.358-.798-.798-.798-.441 0-.799.358-.799.798 0 .441.358.798.799.798M110.2847 104.3337c.441 0 .798-.357.798-.798 0-.44-.357-.798-.798-.798-.441 0-.798.358-.798.798 0 .441.357.798.798.798M101.2876 104.3337c.44 0 .798-.357.798-.798 0-.44-.358-.798-.798-.798-.441 0-.799.358-.799.798 0 .441.358.798.799.798M92.2906 104.3337c.441 0 .798-.357.798-.798 0-.44-.357-.798-.798-.798-.441 0-.799.358-.799.798 0 .441.358.798.799.798M83.293 104.3337c.441 0 .798-.357.798-.798 0-.44-.357-.798-.798-.798-.441 0-.798.358-.798.798 0 .441.357.798.798.798M74.2964 104.3337c.44 0 .798-.357.798-.798 0-.44-.358-.798-.798-.798-.441 0-.799.358-.799.798 0 .441.358.798.799.798M65.2989 102.738c-.44 0-.798.357-.798.798 0 .44.358.798.798.798.441 0 .798-.358.798-.798 0-.441-.357-.798-.798-.798M57.1001 103.5359c0-.44-.357-.798-.798-.798-.441 0-.799.358-.799.798 0 .44.358.798.799.798.441 0 .798-.358.798-.798M48.1035 103.5359c0-.44-.358-.798-.799-.798-.441 0-.798.358-.798.798 0 .44.357.798.798.798.441 0 .799-.358.799-.798M141.7744 113.3318c.441 0 .798-.357.798-.799 0-.441-.357-.799-.798-.799-.441 0-.798.358-.798.799 0 .442.357.799.798.799M132.7769 113.3318c.441 0 .799-.357.799-.799 0-.441-.358-.799-.799-.799-.44 0-.798.358-.798.799 0 .442.358.799.798.799M123.7808 111.7341c-.441 0-.799.357-.799.799 0 .441.358.799.799.799.44 0 .798-.358.798-.799 0-.442-.358-.799-.798-.799M115.5816 112.5329c0-.441-.357-.799-.798-.799-.442 0-.799.358-.799.799 0 .441.357.799.799.799.441 0 .798-.358.798-.799M105.7857 113.3318c.441 0 .799-.357.799-.799 0-.441-.358-.799-.799-.799-.44 0-.798.358-.798.799 0 .442.358.799.798.799M96.7891 113.3318c.44 0 .798-.357.798-.799 0-.441-.358-.799-.798-.799-.441 0-.799.358-.799.799 0 .442.358.799.799.799M87.7915 113.3318c.441 0 .799-.357.799-.799 0-.441-.358-.799-.799-.799-.44 0-.798.358-.798.799 0 .442.358.799.798.799M78.795 113.3318c.44 0 .798-.357.798-.799 0-.441-.358-.799-.798-.799-.441 0-.799.358-.799.799 0 .442.358.799.799.799M69.7974 113.3318c.441 0 .799-.357.799-.799 0-.441-.358-.799-.799-.799-.441 0-.799.358-.799.799 0 .442.358.799.799.799M61.5991 112.5329c0-.441-.358-.799-.799-.799-.44 0-.798.358-.798.799 0 .441.358.799.798.799.441 0 .799-.358.799-.799M52.6016 112.5329c0-.441-.358-.799-.798-.799-.441 0-.799.358-.799.799 0 .441.358.799.799.799.44 0 .798-.358.798-.799M43.605 112.5329c0-.441-.358-.799-.799-.799-.44 0-.798.358-.798.799 0 .441.358.799.798.799.441 0 .799-.358.799-.799M34.6074 112.5329c0-.441-.358-.799-.798-.799-.441 0-.799.358-.799.799 0 .441.358.799.799.799.44 0 .798-.358.798-.799M147.0713 121.53c0-.44-.357-.798-.798-.798-.441 0-.799.358-.799.798 0 .441.358.798.799.798.441 0 .798-.357.798-.798M138.0747 121.53c0-.44-.357-.798-.799-.798-.441 0-.799.358-.799.798 0 .441.358.798.799.798.442 0 .799-.357.799-.798M128.2788 122.3279c.441 0 .798-.356.798-.798 0-.44-.357-.798-.798-.798-.441 0-.798.358-.798.798 0 .442.357.798.798.798M119.2818 122.3279c.44 0 .798-.356.798-.798 0-.44-.358-.798-.798-.798-.441 0-.799.358-.799.798 0 .442.358.798.799.798M110.2847 122.3279c.441 0 .798-.356.798-.798 0-.44-.357-.798-.798-.798-.441 0-.798.358-.798.798 0 .442.357.798.798.798M101.2876 122.3279c.44 0 .798-.356.798-.798 0-.44-.358-.798-.798-.798-.441 0-.799.358-.799.798 0 .442.358.798.799.798M92.2906 122.3279c.441 0 .798-.356.798-.798 0-.44-.357-.798-.798-.798-.441 0-.799.358-.799.798 0 .442.358.798.799.798M83.293 122.3279c.441 0 .798-.356.798-.798 0-.44-.357-.798-.798-.798-.441 0-.798.358-.798.798 0 .442.357.798.798.798M75.0943 121.53c0-.44-.357-.798-.798-.798-.441 0-.799.358-.799.798 0 .2.08.377.202.517l1.003.154c.23-.14.392-.382.392-.671M65.2989 120.7322c-.02 0-.036.01-.056.011l.377.057c-.099-.043-.206-.068-.321-.068M141.7744 131.3259c.441 0 .798-.357.798-.799 0-.441-.357-.798-.798-.798-.441 0-.798.357-.798.798 0 .442.357.799.798.799M133.5757 130.5271c0-.441-.357-.798-.799-.798-.44 0-.798.357-.798.798 0 .209.085.396.216.538l.966.149c.244-.137.415-.388.415-.687M123.7808 129.7292c-.039 0-.072.017-.109.021l.465.072c-.108-.055-.226-.093-.356-.093M153.0415 130.5271c0-.441-.357-.798-.799-.798-.44 0-.798.357-.798.798 0 .441.358.799.798.799.442 0 .799-.358.799-.799" fill="#FCF36A"/><path d="M161.147 135.1765c-14.03-28.542-42.489-46.272-74.272-46.272-22.818 0-44.065 9.09-59.829 25.599l.878.838c9.1-9.53 20.063-16.529 32.097-20.71.048.396.372.706.779.706.441 0 .799-.357.799-.799 0-.15-.053-.282-.124-.402 8.079-2.635 16.618-4.02 25.4-4.02 9.447 0 18.593 1.601 27.144 4.594.081.356.384.627.764.627.188 0 .353-.075.489-.183 19.241 7.091 35.336 21.334 44.786 40.557l1.089-.535z" fill="#FCF36A"/><path d="M180.8286 46.3035c-18.601 26.95-19.968 62.83-10.27 88.991 9.698 26.162 30.515 42.66 49.227 64.177 18.712 21.461 35.318 47.996 52.311 48.403 16.992.408 34.426-25.259 48.973-46.797 14.491-21.592 26.15-39.112 34.892-65.371 8.742-26.259 14.567-61.37-.091-88.244-14.602-26.874-49.741-45.624-85.173-45.932-35.432-.309-71.268 17.767-89.869 44.773" fill="#FFF"/><path d="M124.1133 83.0906c8.363 10.262 18.745 81.942-17.584 84.594l-3.724-17.369c-.002-.041 2.312-30.94 2.309-30.981l18.999-36.244z" fill="#5FBFFD"/><path d="M124.1133 83.0906c8.363 10.262 18.745 81.942-17.584 84.594l-3.724-17.369c-.002-.041 2.312-30.94 2.309-30.981l18.999-36.244z" stroke="#222" stroke-width="1.158"/><path d="M364.9009 288.0866s-78.44-177.299-163.755-43.567c0 0-50.475 91.987-123.356-3.145 0 0-33.466-56.913-76.944-21.917" stroke="#C1DCF3" stroke-width="1.693" stroke-linecap="round" stroke-linejoin="round"/><g transform="translate(164 -.05)"><mask id="b" fill="#fff"><use xlink:href="#a"/></mask><path d="M110.4243 115.6288h54.421" stroke="#3E4B56" stroke-width="1.158" mask="url(#b)"/><mask id="d" fill="#fff"><use xlink:href="#c"/></mask><path fill="#498DC9" mask="url(#d)" d="M45.004 114.471h93.789V-5.95H45.004z"/><path d="M118.5293-5.3712s6.369 75.842 45.158 90.315c0 0-31.79 31.264-32.369 42.264 0 0 13.315-7.526 19.684 1.736l38.738 2.426.051-126.899-71.262-9.842z" fill="#FCF36A" mask="url(#d)"/><path d="M150.9507 89.5761s20.291 15.803 38.803 8.19" stroke="#75899D" stroke-width="1.158" mask="url(#d)"/><path fill="#75899D" mask="url(#d)" d="M36.029 250.234h113.474v-71.79H36.029z"/><path d="M78.8716 5.3388s10.421 65.421-28.368 79.896c0 0 19.105 30.683 19.684 41.683 0 0-13.316-7.526-19.684 1.737l-38.738 2.426-.052-126.899 67.158 1.157z" fill="#FCF36A" mask="url(#d)"/><path stroke="#75899D" stroke-width="1.311" mask="url(#d)" d="M66.7481 116.8564l-16.074-.043-38.909-.103.299-112.553 34.097.182"/><path d="M36.898 83.2079s5.21 5.789 19.684 1.736M39.2139 11.997s-.579 38.789-14.474 60.211M56.582 20.1025s-.417 33.567-10.421 52.105M162.2915 12.2861s.579 38.79 14.474 60.211M144.9234 20.3915s.417 33.568 10.421 52.105" stroke="#75899D" stroke-width="1.311" stroke-linecap="round" stroke-linejoin="round" mask="url(#d)"/><path d="M158.5738 101.7958l12.804 14.047s-5.926 14.625-23.825 6.501c0 0 4.297-3.298 1.543-14.743l9.478-5.805z" fill="#C1DCF3" mask="url(#d)"/><path d="M163.7632 84.6865c1.7 11.271-6.059 21.788-17.331 23.488-11.272 1.7-16.606-8.172-18.306-19.443-1.701-11.273.876-19.676 12.148-21.376 11.272-1.7 21.788 6.059 23.489 17.331" fill="#C1DCF3" mask="url(#d)"/><path d="M143.1617 93.1181c.434 2.876-1.546 5.558-4.421 5.991-2.875.435-5.558-1.545-5.991-4.42-.434-2.875 1.545-5.557 4.42-5.991 2.876-.434 5.558 1.545 5.992 4.42" fill="#A2C6E0" mask="url(#d)"/><path d="M132.9121 86.6777c.108.719-.386 1.39-1.105 1.498-.719.108-1.39-.387-1.498-1.105-.108-.719.386-1.389 1.105-1.497.719-.11 1.39.385 1.498 1.104" fill="#222" mask="url(#d)"/><path d="M139.0113 100.9023s3.466.629 4.877-2.967M127.6153 87.4765s-2.948 9.215-.937 9.475c0 0 1.891.334 3.084-.466" stroke="#222" stroke-width="1.298" stroke-linecap="round" stroke-linejoin="round" mask="url(#d)"/><path d="M160.3526 101.9453c11.387-11.42 24.273-17.666 18.28-32.479-1.709-4.224-3.801-7.1-8.052-8.049-2.465-8.75-13.127-12.709-24.968-11.009-17.762 2.551-28.404 10.305-23.18 26.442 2.159-.069 5.139-.3 6.695-.509.778-.106.754-5.249 1.593-5.191.838.057 1.134 5.142 2.174 5.494 2.315.776 10.7 6.493 10.7 6.493-.111-.379 2.721-3.506 5.84-2.216 3.118 1.29 1.951 7.089 1.019 9.883-1.338 4.008 9.899 11.141 9.899 11.141" fill="#222" mask="url(#d)"/><path d="M160.3526 101.9453c11.387-11.42 24.273-17.666 18.28-32.479-1.709-4.224-3.801-7.1-8.052-8.049-2.465-8.75-13.127-12.709-24.968-11.009-17.762 2.551-28.404 10.305-23.18 26.442 2.159-.069 5.139-.3 6.695-.509.778-.106.754-5.249 1.593-5.191.838.057 1.134 5.142 2.174 5.494 2.315.776 10.7 6.493 10.7 6.493-.111-.379 2.721-3.506 5.84-2.216 3.118 1.29 1.951 7.089 1.019 9.883-1.338 4.008 9.899 11.141 9.899 11.141z" stroke="#222" stroke-width="1.354" stroke-linecap="round" stroke-linejoin="round" mask="url(#d)"/><path d="M166.6128 62.8144s-.268-3.596-7.72-.954" stroke="#FFF" stroke-width="1.291" stroke-linecap="round" stroke-linejoin="round" mask="url(#d)"/><path fill="#FFF" mask="url(#d)" d="M7.9361 79.3046l99.836-.317 11.965 73.154-100.61.32z"/><path stroke="#3E4B56" stroke-width="1.311" mask="url(#d)" d="M7.9361 79.3046l99.836-.317 11.965 73.154-100.61.32z"/><path fill="#3E4B56" mask="url(#d)" d="M50.4082 152.8329l.043 18.743 27.027-.062-.043-18.743z"/><path stroke="#222" stroke-width="1.295" mask="url(#d)" d="M96.9224 175.5243l-47.809.099-.009-3.923 47.809-.099z"/><path stroke="#FCF36A" stroke-width="1.311" mask="url(#d)" d="M66.4068 86.0683l35.443-.081 10.049 59.163-35.719.082z"/><path stroke="#5FBFFD" stroke-width="1.311" mask="url(#d)" d="M10.9912 70.1513l47.242.188 11.188 63.379-48.828-.196z"/><path stroke="#222" stroke-width="2.039" mask="url(#d)" d="M7.9688 79.2548l11.125 73.167 100.611-.23"/><path d="M167.8726 113.3173s18.697 10.002 21.676 36.094c0 0 7.564 38.267-1.714 75.734l-51.86 7.642s-5.818-31.037 4.037-88.269c.966-5.613-3.535-6.31-3.451-6.262 0 0 6.892-7.381 9.537-11.868 3.746-6.353 10.587-13.865 21.775-13.071" fill="#5FBFFD" mask="url(#d)"/><path d="M162.419 126.8359s10.582 2.561-1.965 29.348c0 0-16.474 20.111-37.497 42.79 0 0-6.505 4.759-20.25-13.226l-28.478-37.236s-3.074-9.022 4.034-5.189c3.493 1.884 11.653 11.19 19.543 17.783l19.875 14.155s19.918-33.984 31.144-38.752" fill="#C1DCF3" mask="url(#d)"/><path d="M122.9571 198.9736s-6.505 4.76-20.25-13.226l-28.479-37.236" stroke="#222" stroke-width="1.311" mask="url(#d)"/><g mask="url(#d)"><path d="M134.8838 140.9589l25.586 22.126s19.525-36.117 4.559-40.58" fill="#5FBFFD"/><path d="M134.8838 140.9589l25.586 22.126s19.525-36.117 4.559-40.58" stroke="#FFF" stroke-width="1.311"/></g><g mask="url(#d)"><path d="M141.3374 132.6288l-6.454 8.33" fill="#5FBFFD"/><path d="M141.3374 132.6288l-6.454 8.33" stroke="#000" stroke-width="1.311"/></g><path d="M149.1226 152.8007l-13.528-11.327" stroke="#222" stroke-width="1.311" stroke-linecap="round" stroke-linejoin="round" mask="url(#d)"/><path d="M60.4595 121.9189c-.547-1.115.721-2.238 1.765-1.566.172.11.339.225.5.34 2.199 1.572 6.22 5.268 8.225 7.081.141.127.295.269.453.419.709.45 1.325 1.067 1.773 1.838l1.527 2.632c1.492 2.571.61 5.896-1.962 7.389l-2 1.161c-2.571 1.492-5.896.609-7.388-1.962l-1.528-2.632c-1.492-2.571-.609-5.895 1.962-7.388l.698-.405c-.25-.473-.501-.939-.763-1.384-1.076-1.823-2.329-3.625-3.262-5.523" fill="#C1DCF3" mask="url(#d)"/><path d="M64.4844 128.8261c-.25-.474-.501-.939-.763-1.384-1.076-1.823-2.329-3.625-3.262-5.523-.547-1.115.721-2.239 1.765-1.567.172.111.339.226.5.341 2.199 1.571 6.22 5.268 8.225 7.081.141.127.295.269.453.419.709.449 1.325 1.067 1.773 1.838l1.527 2.632c1.492 2.571.61 5.895-1.962 7.389" stroke="#222" stroke-width="1.311" stroke-linecap="round" stroke-linejoin="round" mask="url(#d)"/><path d="M95.2134 262.8739l-28.955 107.961 16.321 2.899s41.373-68.1 34.746-100.905l-22.112-9.955z" fill="#3E4B56" mask="url(#d)"/><path d="M164.0034 359.7548s7.07 8.172 7.82 12.726l.302 8.523 7.595-13.984-.477-4.206s-5.77.032-9.08-13.257l-6.16 10.198z" fill="#C1DCF3" mask="url(#d)"/><g mask="url(#d)"><path d="M107.0415 289.5116c23.523 3.019 67.031-18.455 67.031-18.455 26.208-13.546 14.086-43.938 14.086-43.938s-43.668 5.165-51.899 8.447c-8.232 3.281-44.35 26.831-44.35 26.831s-27.027 15.156-4.912 33.555l77.563 67.239 7.763-9.447s-34.656-77.525-65.282-64.232" fill="#75899D"/><path d="M107.0415 289.5116c23.523 3.019 67.031-18.455 67.031-18.455 26.208-13.546 14.086-43.938 14.086-43.938s-43.668 5.165-51.899 8.447c-8.232 3.281-44.35 26.831-44.35 26.831s-27.027 15.156-4.912 33.555l77.563 67.239 7.763-9.447s-34.656-77.525-65.282-64.232" stroke="#3E4B56" stroke-width="1.311"/></g><path stroke="#5FBFFD" stroke-width="1.311" stroke-linecap="round" mask="url(#d)" d="M50.7481 85.3339l-8.216 19.683-12.937-16.957z"/></g><g transform="translate(0 -6.05)"><path d="M22.5078 123.0527c2.033 3.45 4.921 2.53 6.451-2.054 1.53-4.585 1.122-11.097-.911-14.548-2.033-3.449-4.921-2.53-6.451 2.055-1.529 4.584-1.122 11.098.911 14.547" fill="#C1DCF3"/><path d="M25.2778 118.2685v17.381" stroke="#75899D" stroke-width="1.38" stroke-linecap="round"/><path d="M35.7803 123.3183c4.066 6.9 9.842 5.061 12.901-4.108 3.06-9.168 2.245-22.195-1.821-29.095-4.066-6.9-9.842-5.061-12.902 4.108-3.059 9.169-2.244 22.196 1.822 29.095" fill="#C1DCF3"/><path d="M41.3203 111.0234v37.487M36.5088 114.8876l4.626 8.012" stroke="#75899D" stroke-width="1.38" stroke-linecap="round"/><mask id="f" fill="#fff"><use xlink:href="#e"/></mask><path stroke="#498DC9" stroke-width="1.38" mask="url(#f)" d="M39.837 154.607h3.207v-16.67h-3.207zM31.952 154.607h3.207v-16.67h-3.207zM24.067 154.607h3.207v-16.67h-3.207zM15.525 154.607h3.207v-16.67h-3.207zM45.7715 141.8798h-33.61M45.7715 151.4941h-33.61"/><path d="M59.6377 39.5136c-4.174-.437-8.133-1.242-12.294-1.705-4.162-.462-8.753-.551-12.52.392-3.768.942-6.265 3.161-4.629 4.998 1.595 1.792 6.305 2.554 10.473 2.465 4.168-.088 8.157-.803 12.295-1.052 5.938-.357 11.916.256 17.836.673 2.684.189 5.473.334 8.075-.024 2.603-.358 4.987-1.346 5.246-2.601 1.145-5.529-18.783-2.549-24.482-3.146zM113.4634 25.0488c-2.821-.296-5.497-.84-8.31-1.152-2.812-.313-5.916-.372-8.462.264-2.546.638-4.234 2.137-3.128 3.379 1.078 1.211 4.261 1.726 7.078 1.666 2.817-.059 5.513-.543 8.31-.712 4.013-.241 8.054.174 12.055.455 1.814.128 3.699.227 5.458-.015 1.759-.243 3.371-.909 3.546-1.759.774-3.736-12.695-1.723-16.547-2.126z" stroke="#C1DCF3" stroke-width="1.38" mask="url(#f)"/><path d="M23.9888 33.9228s-2.939-2.31-6.108.978c0 0-2.011-6.19-6.643-2.809M30.167 59.5087s3.237-2.725 6.946.875c0 0 2.041-7.077 7.409-3.428" stroke="#75899D" stroke-width="1.38" stroke-linecap="round" mask="url(#f)"/><path d="M201.3955 133.9658c2.339 1.752 5.656 1.275 7.408-1.063 1.753-2.34 1.277-5.657-1.063-7.409-2.339-1.752-5.656-1.276-7.408 1.064-1.752 2.339-1.276 5.656 1.063 7.408" fill="#FCF36A" mask="url(#f)"/><path fill="#3E4B56" mask="url(#f)" d="M198.9326 184.3847h-59.41l-11.789 43.556h59.872z"/><path d="M105.3365 121.8896l-13.194 11.202s7.726 21.148 14.906 19.433c0 0 2.695-13.284 6.695-23.941l-8.407-6.694z" fill="#C1DCF3" mask="url(#f)"/><path d="M102.3853 104.8554c-2.968 10.615 3.231 21.627 13.846 24.596 10.615 2.967 16.905-5.873 19.873-16.489 2.969-10.615 1.492-18.985-9.123-21.954-10.616-2.967-21.627 3.232-24.596 13.847" fill="#C1DCF3" mask="url(#f)"/><path d="M121.1558 115.3896c-.757 2.708.824 5.517 3.532 6.274 2.707.757 5.516-.824 6.273-3.532.757-2.707-.824-5.516-3.532-6.273-2.707-.757-5.516.824-6.273 3.531" fill="#A2C6E0" mask="url(#f)"/><path d="M131.7549 110.4247c-.189.677.206 1.379.883 1.568.677.19 1.379-.206 1.569-.882.189-.677-.206-1.379-.884-1.569-.676-.189-1.379.206-1.568.883" fill="#222" mask="url(#f)"/><path d="M124.2154 123.3525s-3.401.192-4.328-3.426M136.7432 111.8193s1.736 9.192-.224 9.203c0 0-1.854.097-2.905-.812" stroke="#222" stroke-width="1.214" stroke-linecap="round" stroke-linejoin="round" mask="url(#f)"/><path d="M139.5225 96.8261s2.16-16.588-28.5-20.026c-3.145-.353-6.23-.329-11.398 2.418-6.065 3.222-20.038 20.977-11.042 32.568 1.08 1.393 2.895 7.526 5.789 9.843 0 0 .616 8.049 0 9.262 0 0 4.632-2.894 8.258-8.063 0 0 12.539-4.146 13.103-8.828 0 0-1.802-2.143-2.351-4.319-.987-3.909 2.916-8.352 5.887-5.661 0 0 13.949 2.04 20.254-7.194" fill="#5FBFFD" mask="url(#f)"/><path d="M106.2149 159.9784s-1.618 32.574 9.592 74.441l-12.864 3.634s-8.169-40.858-9.556-50.567l3.468-22.249 9.36-5.259z" fill="#75899D" mask="url(#f)"/><path d="M92.1426 133.0917s-19.425 4.165-28.865 26.887c0 0-16.72 32.497-18.069 68.635h48.178s14.503-63.377 13.637-74.165c0 0 2.657-17.633-14.881-21.357" fill="#FCF36A" mask="url(#f)"/><path fill="#222" mask="url(#f)" d="M143.9155 220.6581h-33.374l17.192 7.282h17.261z"/><g mask="url(#f)"><path d="M93.7818 142.3544s-8.161-8.881-19.97 14.937c0 0-16.447 29.065-20.242 57.928 0 0-.891 10.698 24.038 10.698h49.61s3.949-5.652-28.102-10.092c0 0-26.147-3.23-27.834-2.826 0 0 25.958-42.46 22.733-52.882" fill="#FFF"/><path d="M93.7818 142.3544s-8.161-8.881-19.97 14.937c0 0-16.447 29.065-20.242 57.928 0 0-.891 10.698 24.038 10.698h49.61s3.949-5.652-28.102-10.092c0 0-26.147-3.23-27.834-2.826 0 0 25.958-42.46 22.733-52.882" stroke="#222" stroke-width="1.238"/></g><g mask="url(#f)"><path d="M96.9888 164.7402l-3.063 8.9-20.805-19.013s9.17-21.535 19.831-12.54" fill="#FCF36A"/><path d="M96.9888 164.7402l-3.063 8.9-20.805-19.013s9.17-21.535 19.831-12.54" stroke="#FFF" stroke-width="1.214"/></g><path d="M93.9239 173.6386l-11.633-10.631" stroke="#222" stroke-width="1.214" stroke-linecap="round" stroke-linejoin="round" mask="url(#f)"/><path d="M165.4678 174.1523c3.257 2.451 7.884 1.798 10.335-1.459 2.451-3.257 1.797-7.884-1.46-10.335-3.256-2.451-7.883-1.798-10.334 1.459-2.451 3.257-1.798 7.884 1.459 10.335zM155.2896 147.9052l-5.444 12.958-8.5-11.194z" stroke="#5FBFFD" stroke-width="1.214" stroke-linecap="round" mask="url(#f)"/><path stroke="#222" stroke-width="1.214" mask="url(#f)" d="M139.5225 184.3847l-11.789 43.556h59.872"/><path d="M159.1074 206.706c0 3.004 2.435 5.438 5.438 5.438 3.003 0 5.438-2.434 5.438-5.438 0-3.003-2.435-5.437-5.438-5.437-3.003 0-5.438 2.434-5.438 5.437z" stroke="#FFF" stroke-width="1.214" mask="url(#f)"/><path fill="#FFF" mask="url(#f)" d="M186.0073 132.5341l7.705-15.654-15.655-7.704-7.704 15.654z"/><path stroke="#C1DCF3" stroke-width="1.861" stroke-linecap="round" mask="url(#f)" d="M186.0073 132.5341l7.705-15.654-15.655-7.704-7.704 15.654z"/><path d="M98.1407 321.9628s-7.914 6.136-9.426 10.138l-1.828 7.689-4.352-14.092 1.2-3.735s4.344-.267 9.775-11.738l4.631 11.738z" fill="#FFF" mask="url(#f)"/><path d="M98.1407 321.9628s-7.914 6.136-9.426 10.138l-1.828 7.689-4.352-14.092 1.2-3.735s4.344-.267 9.775-11.738l4.631 11.738z" stroke="#222" stroke-width="1.201" mask="url(#f)"/><path d="M178.7075 329.1659s13.339 20.275 16.273 22.143c2.935 1.867-11.204 0-11.204 0l-2.401-.8s2.134-5.116-17.074-25.501h11.205l3.201 4.158z" fill="#FFF" mask="url(#f)"/><path d="M178.7075 329.1659s13.339 20.275 16.273 22.143c2.935 1.867-11.204 0-11.204 0l-2.401-.8s2.134-5.116-17.074-25.501h11.205l3.201 4.158z" stroke="#222" stroke-width="1.201" mask="url(#f)"/><path d="M144.5601 264.873l36.815 63.226h-17.974s-36.181-29.613-35.915-46.953l17.074-16.273z" fill="#5FBFFD" mask="url(#f)"/><g mask="url(#f)"><path d="M137.0982 256.3359c-19.216 10.671-64.041 7.114-64.041 7.114-27.212-2.667-27.205-32.992-27.205-32.992h108.579s18.674 5.603 2.134 24.544l-58.425 66.961-4.63-11.738s12.66-54.823 43.588-53.889" fill="#FFF"/><path d="M137.0982 256.3359c-19.216 10.671-64.041 7.114-64.041 7.114-27.212-2.667-27.205-32.992-27.205-32.992h108.579s18.674 5.603 2.134 24.544l-58.425 66.961-4.63-11.738s12.66-54.823 43.588-53.889" stroke="#5FBFFD" stroke-width="1.201"/></g><path d="M146.4863 266.5536l-17.918 20.536" stroke="#FFF" stroke-width="1.201" mask="url(#f)"/><path d="M74.5518 326.7441c-.319 1.388-.047 2.879.521 4.193 1.423 3.295 3.852 6.453 5.651 9.582 1.929 3.355 3.663 6.972 5.842 10.169 1.278 1.877 4.209.873 4.083-1.393-.021-.372-.054-.742-.092-1.102-.515-4.915-2.764-14.642-3.838-19.467-.546-2.449-1.54-6.539-4.621-6.748-2.847-.194-6.522 1.507-7.437 4.368-.042.131-.078.264-.109.398M182.1514 357.2948c1.057.954 2.492 1.442 3.917 1.586 3.571.359 7.511-.226 11.12-.275 3.87-.052 7.874.193 11.727-.155 2.261-.203 2.811-3.252.769-4.245-.336-.163-.674-.314-1.007-.456-4.545-1.941-14.137-4.71-18.875-6.119-2.405-.716-6.461-1.837-8.144.753-1.554 2.393-1.856 6.432.198 8.622.094.101.193.197.295.289" fill="#222" mask="url(#f)"/><path d="M89.2373 344.3827s-3.917-3.11-2.351-4.593c0 0 6.017 2.327 3.924-2.053 0 0-6.056-2.704-5.723-4.208" stroke="#5FBFFD" stroke-width="1.201" stroke-linecap="round" stroke-linejoin="round" mask="url(#f)"/><path d="M81.6143 249.6991c.098-.065.179-.161.249-.275l-1.162-.065c.065.124.143.228.24.302.107.084.225.144.356.144.114 0 .22-.042.317-.106M72.8218 249.8056c.284 0 .523-.231.651-.562.035-.088.055-.182.07-.284l-1.454-.082c.009.102.018.202.046.292.117.374.379.636.687.636M102.4868 259.6708c-.352 0-.633.347-.716.807-.015.085-.036.166-.036.256 0 .014.005.025.005.039.501-.036.997-.072 1.489-.109-.005-.1-.018-.198-.042-.289-.104-.409-.375-.704-.7-.704M77.0596 259.6708c-.315 0-.583.273-.695.661-.026.09-.034.191-.041.291.484.045.981.088 1.486.13 0-.007.002-.012.002-.019 0-.098-.022-.186-.04-.277-.087-.45-.366-.786-.712-.786M126.291 254.3476l-1.929 1.198c.028.001.054.008.083.008.826 0 1.533-.496 1.846-1.206M124.4449 251.5185c-.505 0-.961.192-1.315.5l2.795.155c-.368-.4-.892-.655-1.48-.655M56.2266 251.5185c-.182 0-.356.032-.524.077l2.505 2.309c.022-.12.038-.242.038-.368 0-.147-.019-.289-.048-.428l-1.695-1.563c-.091-.011-.182-.027-.276-.027M63.6421 248.4062c-.022.092-.038.187-.041.287-.001.017-.007.031-.007.048 0 .588.337 1.064.752 1.064.406 0 .734-.458.747-1.029 0-.012.005-.022.005-.035 0-.09-.021-.172-.037-.256l-1.419-.079zM55.3843 247.9452c-.064.079-.116.174-.158.28-.063.155-.109.324-.109.516 0 .588.337 1.064.753 1.064.415 0 .752-.476.752-1.064 0-.158-.028-.307-.073-.442-.036-.11-.082-.21-.141-.296l-1.024-.058zM110.4131 260.0185c.343-.035.68-.07 1.009-.105-.129-.144-.283-.243-.46-.243-.218 0-.412.137-.549.348M94.7041 261.1484c.027-.09.033-.191.042-.292.003-.042.017-.078.017-.122 0-.588-.337-1.064-.752-1.064-.416 0-.753.476-.753 1.064 0 .06.018.112.025.169.011.1.025.199.055.288.455-.013.91-.026 1.366-.043M86.2007 261.206c.032-.089.047-.187.061-.287.007-.063.026-.119.026-.185 0-.588-.337-1.063-.753-1.063-.415 0-.751.475-.751 1.063 0 .05.015.093.02.142.009.101.019.201.047.291.446.016.896.028 1.35.039M68.7578 259.7197c-.058-.02-.112-.049-.174-.049-.02 0-.036.014-.056.016.075.011.153.022.23.033" fill="#C1DCF3" mask="url(#f)"/><path d="M139.5225 96.8261s2.16-16.588-28.5-20.026c-3.145-.353-6.23-.329-11.398 2.418-5.736 3.047-23.779 19.253-5.832 41.832 2.721 3.422.579 5.789.579 9.841 0 0 7.527-5.21 9.263-8.683 0 0 11.534-3.526 12.098-8.208 0 0-1.802-2.143-2.351-4.319-.987-3.909 2.916-8.352 5.887-5.661 0 0 13.949 2.04 20.254-7.194z" stroke="#222" stroke-width="1.158" mask="url(#f)"/><path d="M180.8286 52.3535c-18.601 26.95-19.968 62.83-10.27 88.991 9.698 26.162 30.515 42.66 49.227 64.177 18.712 21.461 35.318 47.996 52.311 48.403 16.992.408 34.426-25.259 48.973-46.797 14.491-21.592 26.15-39.112 34.892-65.371 8.742-26.259 14.567-61.37-.091-88.244-14.602-26.874-49.741-45.624-85.173-45.932-35.432-.309-71.268 17.767-89.869 44.773z" stroke="#FCF36A" stroke-width="1.737" mask="url(#f)"/><path d="M302.2759 41.1904c-.001-.357.289-.648.646-.649.358-.001.648.289.649.646.001.357-.288.649-.646.649-.357 0-.648-.289-.649-.646M285.9038 20.2089c-.001-.357.289-.648.646-.649.358-.001.648.289.649.646.001.357-.288.649-.646.649-.357 0-.648-.289-.649-.646M307.8413 20.7255c-.001-.358.289-.648.646-.649.358-.001.648.288.649.646.001.357-.288.648-.646.649-.357 0-.648-.289-.649-.646M264.2422 69.3925c-.001-.357.288-.648.646-.649.357-.001.648.289.649.646.001.357-.289.648-.646.649-.358 0-.649-.289-.649-.646M301.7979 38.6552c0-.142.114-.257.256-.257.141-.001.256.114.257.256 0 .142-.115.256-.256.257-.142 0-.257-.114-.257-.256M256.6885 22.8925c0-.142.114-.256.256-.257.141 0 .257.114.257.256 0 .142-.115.257-.256.257-.142.001-.257-.114-.257-.256M260.4453 60.8749c0-.142.114-.257.255-.257.142-.001.257.114.257.256.001.142-.114.256-.255.257-.142 0-.257-.114-.257-.256M247.437 35.9736c0-.142.114-.257.255-.257.142-.001.257.113.258.255 0 .142-.115.257-.256.258-.142 0-.257-.114-.257-.256M307.5005 13.2792c0-.142.114-.257.256-.257.141-.001.256.114.257.256 0 .142-.115.256-.256.257-.142 0-.257-.114-.257-.256M257.1187 69.3007c0-.142.114-.257.256-.257.141 0 .256.114.257.256 0 .142-.115.256-.256.257-.142 0-.257-.114-.257-.256M240.3296 42.8964c0-.141.114-.256.255-.257.142 0 .257.114.258.256 0 .142-.115.257-.256.257-.142.001-.257-.114-.257-.256" fill="#FCF36A" mask="url(#f)"/><path d="M267.7647 52.332c0-.142.114-.257.256-.257.141-.001.256.114.257.256 0 .141-.115.256-.256.257-.142 0-.257-.114-.257-.256" fill="#076D9B" mask="url(#f)"/><path d="M295.0196 30.2519c0-.142.114-.257.256-.257.141 0 .257.114.257.256 0 .142-.115.257-.256.257-.141 0-.257-.114-.257-.256M279.1294 19.2802c0-.142.114-.257.256-.257.141-.001.256.114.257.255 0 .142-.115.257-.256.258-.142 0-.257-.114-.257-.256M265.6441 21.6855c0-.142.114-.257.255-.257.142-.001.257.113.257.255.001.142-.114.257-.255.258-.142 0-.257-.114-.257-.256M275.0142 13.1376c0-.142.114-.257.255-.257.142-.001.257.114.258.256 0 .142-.115.256-.256.257-.142 0-.257-.114-.257-.256M283.3223 12.2548c0-.142.114-.257.256-.257.141 0 .256.114.257.256 0 .142-.115.257-.256.257-.142 0-.257-.114-.257-.256M265.2915 9.166c0-.141.114-.256.256-.257.141 0 .256.114.257.256 0 .142-.115.257-.256.257-.142.001-.257-.114-.257-.256M295.0957 16.329c-.001-.357.289-.647.646-.648.358-.001.648.288.649.645.001.357-.288.649-.646.649-.357.001-.648-.289-.649-.646M260.0059 57.5302c-.001-.358.288-.648.646-.649.357-.001.648.288.649.646.001.357-.289.648-.646.649-.358 0-.649-.289-.649-.646M250.7764 33.2675c-.001-.357.289-.648.646-.649.358-.001.648.289.649.646.001.357-.288.649-.646.649-.357 0-.648-.289-.649-.646M268.7466 9.8056c-.001-.357.289-.647.646-.648.358-.001.648.288.649.645.001.358-.288.649-.646.649-.357.001-.648-.288-.649-.646" fill="#FCF36A" mask="url(#f)"/></g></g></svg>