<?xml version="1.0" encoding="UTF-8" standalone="no"?>

<svg id="Livello_1" xmlns="http://www.w3.org/2000/svg" viewBox="0 0 20 20"><style>.st6{fill:#222}</style><path class="st6" d="M7.1 9.1h-5C.9 9.1 0 8.2 0 7.1v-5C0 .9.9 0 2.1 0h5c1.1 0 2.1.9 2.1 2.1v5c-.1 1.1-1 2-2.1 2zm-5-7.7c-.4 0-.7.3-.7.7v5c0 .4.3.7.7.7h5c.4 0 .7-.3.7-.7v-5c0-.4-.3-.7-.7-.7h-5zM17.9 9.1h-5c-1.1 0-2.1-.9-2.1-2.1V2c0-1.1.9-2.1 2.1-2.1h5c1.2.1 2.1 1 2.1 2.2v5c0 1.1-.9 2-2.1 2zm-5-7.7c-.4 0-.7.3-.7.7v5c0 .4.3.7.7.7h5c.4 0 .7-.3.7-.7v-5c0-.4-.3-.7-.7-.7h-5zM7.1 20h-5C.9 20 0 19.1 0 17.9v-5c0-1.1.9-2.1 2.1-2.1h5c1.1 0 2.1.9 2.1 2.1v5c-.1 1.2-1 2.1-2.1 2.1zm-5-7.8c-.4 0-.7.3-.7.7v5c0 .4.3.7.7.7h5c.4 0 .7-.3.7-.7v-5c0-.4-.3-.7-.7-.7h-5zM17.9 20h-5c-1.1 0-2.1-.9-2.1-2.1v-5c0-1.1.9-2.1 2.1-2.1h5c1.1 0 2.1.9 2.1 2.1v5c0 1.2-.9 2.1-2.1 2.1zm-5-7.8c-.4 0-.7.3-.7.7v5c0 .4.3.7.7.7h5c.4 0 .7-.3.7-.7v-5c0-.4-.3-.7-.7-.7h-5z"/></svg>
