<?xml version="1.0" encoding="UTF-8" standalone="no"?>

<svg class="nebulab-logo" width="148" height="45" xmlns="http://www.w3.org/2000/svg"><path d="M56.2 31.2V19.1h3.1v1a5.61 5.61 0 0 1 3.4-1.2 5.38 5.38 0 0 1 4.2 1.9 6 6 0 0 1 1.2 4.2v6.2H65v-6.4a3.3 3.3 0 0 0-.7-2.3 2.67 2.67 0 0 0-1.8-.7 3.7 3.7 0 0 0-2.9 1.5v7.9zM81.5 29.3a6.65 6.65 0 0 1-5 2.2 6 6 0 0 1-6.3-6.3c0-3.4 2.3-6.3 5.9-6.3 3.3 0 5.7 2.8 5.7 6.2a2.77 2.77 0 0 1-.1.9h-8.4a3.19 3.19 0 0 0 3.3 2.9 4.07 4.07 0 0 0 3-1.4zm-3-5.7a2.4 2.4 0 0 0-2.4-2.1 2.69 2.69 0 0 0-2.6 2.1zM84.1 31.2V13.5h3.2V20a5.54 5.54 0 0 1 3.4-1.1 6 6 0 0 1 5.9 6.3 6.71 6.71 0 0 1-1.5 4.2 6.33 6.33 0 0 1-4.6 2 5.43 5.43 0 0 1-3.4-1.2v1zm3.2-4.2a3.5 3.5 0 0 0 2.9 1.5 3.18 3.18 0 0 0 3.2-3.3 3.16 3.16 0 0 0-3.1-3.3 3.84 3.84 0 0 0-3 1.5zM110.4 19.1v12.1h-3.1v-1a5 5 0 0 1-3.3 1.2 5.34 5.34 0 0 1-4.1-1.9 5.8 5.8 0 0 1-1.2-4v-6.4h3.2v6.5a2.93 2.93 0 0 0 .6 2.1 2.57 2.57 0 0 0 1.8.7 3.49 3.49 0 0 0 2.8-1.5V19h3.3zM116.9 31.2h-3.2V13.5h3.2zM131.7 31.2h-3.1v-1a5.23 5.23 0 0 1-3.4 1.2 6.33 6.33 0 0 1-4.6-2 6.71 6.71 0 0 1-1.5-4.2 6 6 0 0 1 5.9-6.3 5.13 5.13 0 0 1 3.5 1.2v-1h3.1v12.1zm-3.2-7.8a3.69 3.69 0 0 0-3-1.5 3.16 3.16 0 0 0-3.1 3.3 3.18 3.18 0 0 0 3.2 3.3 3.5 3.5 0 0 0 2.9-1.5zM135 31.2V13.5h3.2V20a5.54 5.54 0 0 1 3.4-1.1 6 6 0 0 1 5.9 6.3 6.71 6.71 0 0 1-1.5 4.2 6.33 6.33 0 0 1-4.6 2 5.43 5.43 0 0 1-3.4-1.2v1zm3.2-4.2a3.5 3.5 0 0 0 2.9 1.5 3.18 3.18 0 0 0 3.2-3.3 3.16 3.16 0 0 0-3.1-3.3 3.84 3.84 0 0 0-3 1.5V27z" fill="#3e3e3e"/><circle cx="22.9" cy="22.5" r="22.5" fill="#5dbefd"/><path fill="#fff" d="M18.7 26.6l-7.6 7.6 10.1-2.7-2.5-4.9z"/><path fill="#fff" d="M13.9 24.2l-2.8 10 7.6-7.6-4.8-2.4z" opacity=".8"/><path fill="#fff" d="M34.7 10.8L21.5 24l5 9.9 8.2-23.1z"/><path fill="#fff" d="M11.6 19l9.9 5 13.2-13.2L11.6 19z" opacity=".8"/></svg>
