<?xml version="1.0" encoding="UTF-8" standalone="no"?>

<svg width="441" height="353" viewBox="0 0 441 353" xmlns="http://www.w3.org/2000/svg"><g fill="none" fill-rule="evenodd"><path d="M289.5943 314.6577s2.444 9.55 1.202 13.573l-3.223 7.081 11.895-8.324 1.322-3.628s-4.722-2.323-2.015-14.519l-9.181 5.817z" fill="#FFF"/><path d="M289.5943 314.6577s2.444 9.55 1.202 13.573l-3.223 7.081 11.895-8.324 1.322-3.628s-4.722-2.323-2.015-14.519l-9.181 5.817z" stroke="#222" stroke-width="1.349"/><path d="M305.0396 332.6226c-.59 1.271-1.702 2.266-2.938 2.945-3.096 1.701-6.89 2.687-10.179 4.033-3.527 1.442-7.059 3.207-10.683 4.376-2.127.686-3.799-1.864-2.332-3.55.241-.277.49-.544.736-.801 3.37-3.509 10.994-9.711 14.743-12.812 1.903-1.574 5.146-4.152 7.668-2.453 2.33 1.569 4.159 5.111 3.141 7.886-.047.128-.098.253-.156.376M338.3228 313.7436c.358 1.558.053 3.234-.586 4.711-1.599 3.701-4.327 7.248-6.348 10.764-2.167 3.769-4.115 7.833-6.562 11.424-1.437 2.108-4.729.981-4.587-1.565.023-.419.061-.834.103-1.238.578-5.522 3.105-16.45 4.312-21.87.612-2.751 1.73-7.345 5.19-7.58 3.2-.218 7.328 1.692 8.355 4.906.048.148.088.297.123.448" fill="#222"/><path d="M321.8248 333.5591s4.401-3.495 2.642-5.16c0 0-6.76 2.614-4.409-2.306 0 0 6.803-3.038 6.429-4.727" stroke="#5FBFFD" stroke-width="1.349" stroke-linecap="round" stroke-linejoin="round"/><path d="M409.3453 181.8794s7.117 14.633 23.949 16.211" stroke="#222" stroke-width="1.426" stroke-linecap="round" stroke-linejoin="round"/><path d="M368.6656 108.7227l4.016 18.661s-20.962 13.308-26.091 6.985c0 0 6.565-13.43 10.224-25.437l11.851-.209z" fill="#C1DCF3"/><path d="M345.2808 118.145s-27.28-4.3-47.672 25.998c0 0-22.574 26.375-24.273 33.813-1.7 7.438 1.629 15.285 3.328 16.355l101.531 1.01 16.838-30.546s21.595 28.3 28.958 29.99c7.363 1.69 19.644 2.664 15.819-16.857l-35.148-44.55s-12.277-17.41-59.381-15.213" fill="#FCF36A"/><path d="M223.9322 41.1084c-1.077-2.181-1.66-4.509-1.66-6.928 0-12.296 15.056-22.264 33.629-22.264 18.572 0 33.628 9.968 33.628 22.264 0 9.973-9.904 18.414-23.554 21.249" stroke="#FCF36A" stroke-width="1.366" stroke-linecap="round" stroke-linejoin="round"/><path d="M244.4009 15.0518c-.23 0-.416.186-.416.416 0 .229.186.415.416.415.229 0 .415-.186.415-.415 0-.23-.186-.416-.415-.416M249.0835 15.8828c.229 0 .415-.186.415-.416 0-.229-.186-.415-.415-.415-.229 0-.415.186-.415.415 0 .23.186.416.415.416M253.7662 15.8828c.23 0 .416-.186.416-.416 0-.229-.186-.415-.416-.415-.229 0-.416.186-.416.415 0 .23.187.416.416.416M258.4498 15.8828c.229 0 .415-.186.415-.416 0-.229-.186-.415-.415-.415-.23 0-.416.186-.416.415 0 .23.186.416.416.416M263.1314 15.8828c.23 0 .416-.186.416-.416 0-.229-.186-.415-.416-.415-.229 0-.415.186-.415.415 0 .23.186.416.415.416M267.815 15.8828c.229 0 .415-.186.415-.416 0-.229-.186-.415-.415-.415-.229 0-.416.186-.416.415 0 .23.187.416.416.416M232.6939 20.1103c-.23 0-.416.186-.416.416 0 .229.186.415.416.415.229 0 .415-.186.415-.415 0-.23-.186-.416-.415-.416M237.3765 20.1103c-.229 0-.415.186-.415.416 0 .229.186.415.415.415.229 0 .415-.186.415-.415 0-.23-.186-.416-.415-.416M242.0591 20.1103c-.229 0-.416.186-.416.416 0 .229.187.415.416.415.229 0 .416-.186.416-.415 0-.23-.187-.416-.416-.416M246.7427 20.9414c.229 0 .415-.186.415-.416 0-.229-.186-.415-.415-.415-.23 0-.416.186-.416.415 0 .23.186.416.416.416M251.4244 20.9414c.23 0 .416-.186.416-.416 0-.229-.186-.415-.416-.415-.229 0-.415.186-.415.415 0 .23.186.416.415.416M256.108 20.9414c.229 0 .415-.186.415-.416 0-.229-.186-.415-.415-.415-.23 0-.416.186-.416.415 0 .23.186.416.416.416M260.7906 20.9414c.229 0 .415-.186.415-.416 0-.229-.186-.415-.415-.415-.229 0-.415.186-.415.415 0 .23.186.416.415.416M265.4732 20.9414c.23 0 .416-.186.416-.416 0-.229-.186-.415-.416-.415-.229 0-.416.186-.416.415 0 .23.187.416.416.416M270.1568 20.9414c.229 0 .415-.186.415-.416 0-.229-.186-.415-.415-.415-.23 0-.416.186-.416.415 0 .23.186.416.416.416M274.8384 20.9414c.23 0 .416-.186.416-.416 0-.229-.186-.415-.416-.415-.229 0-.414.186-.414.415 0 .23.185.416.414.416M279.522 20.9414c.229 0 .416-.186.416-.416 0-.229-.187-.415-.416-.415-.229 0-.416.186-.416.415 0 .23.187.416.416.416M230.3521 24.7935c-.229 0-.416.186-.416.415 0 .23.187.416.416.416.229 0 .416-.186.416-.416 0-.229-.187-.415-.416-.415M235.0357 24.7935c-.23 0-.416.186-.416.415 0 .23.186.416.416.416.229 0 .414-.186.414-.416 0-.229-.185-.415-.414-.415M239.7173 24.7935c-.229 0-.415.186-.415.415 0 .23.186.416.415.416.23 0 .416-.186.416-.416 0-.229-.186-.415-.416-.415M244.4009 24.7935c-.23 0-.416.186-.416.415 0 .23.186.416.416.416.229 0 .415-.186.415-.416 0-.229-.186-.415-.415-.415M249.0835 25.6245c.229 0 .415-.187.415-.416 0-.23-.186-.415-.415-.415-.229 0-.415.185-.415.415 0 .229.186.416.415.416M253.7662 25.6245c.23 0 .416-.187.416-.416 0-.23-.186-.415-.416-.415-.229 0-.416.185-.416.415 0 .229.187.416.416.416M258.4498 25.6245c.229 0 .415-.187.415-.416 0-.23-.186-.415-.415-.415-.23 0-.416.185-.416.415 0 .229.186.416.416.416M263.1314 25.6245c.23 0 .416-.187.416-.416 0-.23-.186-.415-.416-.415-.229 0-.415.185-.415.415 0 .229.186.416.415.416M267.815 25.6245c.229 0 .415-.187.415-.416 0-.23-.186-.415-.415-.415-.229 0-.416.185-.416.415 0 .229.187.416.416.416M272.4976 25.6245c.229 0 .415-.187.415-.416 0-.23-.186-.415-.415-.415-.229 0-.415.185-.415.415 0 .229.186.416.415.416M277.1802 25.6245c.23 0 .416-.187.416-.416 0-.23-.186-.415-.416-.415-.229 0-.416.185-.416.415 0 .229.187.416.416.416M281.8638 25.6245c.229 0 .415-.187.415-.416 0-.23-.186-.415-.415-.415-.23 0-.416.185-.416.415 0 .229.186.416.416.416M228.0103 29.4761c-.229 0-.415.186-.415.416 0 .229.186.415.415.415.23 0 .416-.186.416-.415 0-.23-.186-.416-.416-.416M232.6939 29.4761c-.23 0-.416.186-.416.416 0 .229.186.415.416.415.229 0 .415-.186.415-.415 0-.23-.186-.416-.415-.416M237.3765 29.4761c-.229 0-.415.186-.415.416 0 .229.186.415.415.415.229 0 .415-.186.415-.415 0-.23-.186-.416-.415-.416M242.0591 29.4761c-.229 0-.416.186-.416.416 0 .229.187.415.416.415.229 0 .416-.186.416-.415 0-.23-.187-.416-.416-.416M246.7427 30.3071c.229 0 .415-.186.415-.416 0-.229-.186-.415-.415-.415-.23 0-.416.186-.416.415 0 .23.186.416.416.416M251.4244 30.3071c.23 0 .416-.186.416-.416 0-.229-.186-.415-.416-.415-.229 0-.415.186-.415.415 0 .23.186.416.415.416M256.108 30.3071c.229 0 .415-.186.415-.416 0-.229-.186-.415-.415-.415-.23 0-.416.186-.416.415 0 .23.186.416.416.416M260.7906 30.3071c.229 0 .415-.186.415-.416 0-.229-.186-.415-.415-.415-.229 0-.415.186-.415.415 0 .23.186.416.415.416M265.4732 30.3071c.23 0 .416-.186.416-.416 0-.229-.186-.415-.416-.415-.229 0-.416.186-.416.415 0 .23.187.416.416.416M270.1568 30.3071c.229 0 .415-.186.415-.416 0-.229-.186-.415-.415-.415-.23 0-.416.186-.416.415 0 .23.186.416.416.416M274.8384 30.3071c.23 0 .416-.186.416-.416 0-.229-.186-.415-.416-.415-.229 0-.414.186-.414.415 0 .23.185.416.414.416M279.522 30.3071c.229 0 .416-.186.416-.416 0-.229-.187-.415-.416-.415-.229 0-.416.186-.416.415 0 .23.187.416.416.416M284.2047 30.3071c.229 0 .415-.186.415-.416 0-.229-.186-.415-.415-.415-.229 0-.415.186-.415.415 0 .23.186.416.415.416M225.6685 34.1592c-.229 0-.414.186-.414.416 0 .229.185.415.414.415.23 0 .416-.186.416-.415 0-.23-.186-.416-.416-.416M230.3521 34.1592c-.229 0-.416.186-.416.416 0 .229.187.415.416.415.229 0 .416-.186.416-.415 0-.23-.187-.416-.416-.416M235.0357 34.1592c-.23 0-.416.186-.416.416 0 .229.186.415.416.415.229 0 .414-.186.414-.415 0-.23-.185-.416-.414-.416M239.7173 34.1592c-.229 0-.415.186-.415.416 0 .229.186.415.415.415.23 0 .416-.186.416-.415 0-.23-.186-.416-.416-.416M244.4009 34.1592c-.23 0-.416.186-.416.416 0 .229.186.415.416.415.229 0 .415-.186.415-.415 0-.23-.186-.416-.415-.416M249.0835 34.9897c.229 0 .415-.186.415-.415 0-.23-.186-.416-.415-.416-.229 0-.415.186-.415.416 0 .229.186.415.415.415M253.7662 34.9897c.23 0 .416-.186.416-.415 0-.23-.186-.416-.416-.416-.229 0-.416.186-.416.416 0 .229.187.415.416.415M258.4498 34.9897c.229 0 .415-.186.415-.415 0-.23-.186-.416-.415-.416-.23 0-.416.186-.416.416 0 .229.186.415.416.415M263.1314 34.9897c.23 0 .416-.186.416-.415 0-.23-.186-.416-.416-.416-.229 0-.415.186-.415.416 0 .229.186.415.415.415M267.815 34.9897c.229 0 .415-.186.415-.415 0-.23-.186-.416-.415-.416-.229 0-.416.186-.416.416 0 .229.187.415.416.415M272.4976 34.9897c.229 0 .415-.186.415-.415 0-.23-.186-.416-.415-.416-.229 0-.415.186-.415.416 0 .229.186.415.415.415M277.1802 34.9897c.23 0 .416-.186.416-.415 0-.23-.186-.416-.416-.416-.229 0-.416.186-.416.416 0 .229.187.415.416.415M281.8638 34.9897c.229 0 .415-.186.415-.415 0-.23-.186-.416-.415-.416-.23 0-.416.186-.416.416 0 .229.186.415.416.415M286.9615 34.5747c0-.229-.186-.416-.416-.416-.229 0-.414.187-.414.416 0 .229.185.415.414.415.23 0 .416-.186.416-.415M228.0103 38.8418c-.229 0-.415.186-.415.416 0 .229.186.415.415.415.23 0 .416-.186.416-.415 0-.23-.186-.416-.416-.416M232.6939 38.8418c-.23 0-.416.186-.416.416 0 .229.186.415.416.415.229 0 .415-.186.415-.415 0-.23-.186-.416-.415-.416M237.3765 38.8418c-.229 0-.415.186-.415.416 0 .229.186.415.415.415.229 0 .415-.186.415-.415 0-.23-.186-.416-.415-.416M242.0591 38.8418c-.229 0-.416.186-.416.416 0 .229.187.415.416.415.229 0 .416-.186.416-.415 0-.23-.187-.416-.416-.416M246.7427 39.6728c.229 0 .415-.186.415-.416 0-.229-.186-.415-.415-.415-.23 0-.416.186-.416.415 0 .23.186.416.416.416M251.4244 39.6728c.23 0 .416-.186.416-.416 0-.229-.186-.415-.416-.415-.229 0-.415.186-.415.415 0 .23.186.416.415.416M256.108 39.6728c.229 0 .415-.186.415-.416 0-.229-.186-.415-.415-.415-.23 0-.416.186-.416.415 0 .23.186.416.416.416M260.7906 39.6728c.229 0 .415-.186.415-.416 0-.229-.186-.415-.415-.415-.229 0-.415.186-.415.415 0 .23.186.416.415.416M265.4732 39.6728c.23 0 .416-.186.416-.416 0-.229-.186-.415-.416-.415-.229 0-.416.186-.416.415 0 .23.187.416.416.416M270.1568 39.6728c.229 0 .415-.186.415-.416 0-.229-.186-.415-.415-.415-.23 0-.416.186-.416.415 0 .23.186.416.416.416M274.8384 39.6728c.23 0 .416-.186.416-.416 0-.229-.186-.415-.416-.415-.229 0-.414.186-.414.415 0 .23.185.416.414.416M279.522 39.6728c.229 0 .416-.186.416-.416 0-.229-.187-.415-.416-.415-.229 0-.416.186-.416.415 0 .23.187.416.416.416M284.2047 39.6728c.229 0 .415-.186.415-.416 0-.229-.186-.415-.415-.415-.229 0-.415.186-.415.415 0 .23.186.416.415.416M230.3521 43.5249c-.229 0-.416.186-.416.415 0 .23.187.416.416.416.229 0 .416-.186.416-.416 0-.229-.187-.415-.416-.415M235.0357 43.5249c-.23 0-.416.186-.416.415 0 .23.186.416.416.416.229 0 .414-.186.414-.416 0-.229-.185-.415-.414-.415M239.7173 43.5249c-.229 0-.415.186-.415.415 0 .23.186.416.415.416.23 0 .416-.186.416-.416 0-.229-.186-.415-.416-.415M244.4009 43.5249c-.23 0-.416.186-.416.415 0 .23.186.416.416.416.229 0 .415-.186.415-.416 0-.229-.186-.415-.415-.415M249.0835 44.356c.229 0 .415-.187.415-.416 0-.23-.186-.415-.415-.415-.229 0-.415.185-.415.415 0 .229.186.416.415.416M253.7662 44.356c.23 0 .416-.187.416-.416 0-.23-.186-.415-.416-.415-.229 0-.416.185-.416.415 0 .229.187.416.416.416M258.4498 44.356c.229 0 .415-.187.415-.416 0-.23-.186-.415-.415-.415-.23 0-.416.185-.416.415 0 .229.186.416.416.416M263.1314 44.356c.23 0 .416-.187.416-.416 0-.23-.186-.415-.416-.415-.229 0-.415.185-.415.415 0 .229.186.416.415.416M267.815 44.356c.229 0 .415-.187.415-.416 0-.23-.186-.415-.415-.415-.229 0-.416.185-.416.415 0 .229.187.416.416.416M272.4976 44.356c.229 0 .415-.187.415-.416 0-.23-.186-.415-.415-.415-.229 0-.415.185-.415.415 0 .229.186.416.415.416M277.1802 44.356c.23 0 .416-.187.416-.416 0-.23-.186-.415-.416-.415-.229 0-.416.185-.416.415 0 .229.187.416.416.416M232.6939 48.2075c-.23 0-.416.186-.416.416 0 .229.186.415.416.415.229 0 .415-.186.415-.415 0-.23-.186-.416-.415-.416M237.3765 48.2075c-.229 0-.415.186-.415.416 0 .229.186.415.415.415.229 0 .415-.186.415-.415 0-.23-.186-.416-.415-.416M242.0591 48.2075c-.229 0-.416.186-.416.416 0 .229.187.415.416.415.229 0 .416-.186.416-.415 0-.23-.187-.416-.416-.416M246.7427 49.0386c.229 0 .415-.186.415-.416 0-.229-.186-.415-.415-.415-.23 0-.416.186-.416.415 0 .23.186.416.416.416M251.4244 49.0386c.23 0 .416-.186.416-.416 0-.229-.186-.415-.416-.415-.229 0-.415.186-.415.415 0 .23.186.416.415.416M256.108 49.0386c.229 0 .415-.186.415-.416 0-.229-.186-.415-.415-.415-.23 0-.416.186-.416.415 0 .23.186.416.416.416M260.7906 49.0386c.229 0 .415-.186.415-.416 0-.229-.186-.415-.415-.415-.229 0-.415.186-.415.415 0 .23.186.416.415.416M265.4732 48.2075c-.229 0-.416.186-.416.416 0 .031.012.059.019.088l.772-.263c-.066-.141-.208-.241-.375-.241M244.4009 52.8901c-.23 0-.416.187-.416.416 0 .229.186.415.416.415.229 0 .415-.186.415-.415 0-.229-.186-.416-.415-.416M249.0835 53.7212c.229 0 .415-.186.415-.416 0-.229-.186-.415-.415-.415-.229 0-.415.186-.415.415 0 .23.186.416.415.416" fill="#FCF36A"/><path d="M255.9009 11.0727c-18.92 0-34.312 10.294-34.312 22.948 0 10.116 9.685 18.924 24.099 21.916.047.01.094.015.14.015.316 0 .6-.222.668-.545.076-.369-.161-.73-.531-.807-13.763-2.857-23.01-11.127-23.01-20.579 0-2.985.93-5.83 2.61-8.418.034.01.067.022.104.022.23 0 .416-.187.416-.416 0-.09-.035-.169-.083-.237 2.844-4.016 7.517-7.365 13.317-9.588-.006.028-.017.054-.017.084 0 .229.187.415.415.415.231 0 .416-.186.416-.415 0-.136-.069-.251-.17-.327 4.727-1.719 10.16-2.702 15.938-2.702 5.906 0 11.448 1.029 16.246 2.819-.037.062-.064.131-.064.21 0 .229.185.415.415.415.204 0 .365-.149.401-.342 9.549 3.783 15.947 10.651 15.947 18.48 0 2.262-.535 4.491-1.589 6.624-.167.339-.028.748.31.915.34.167.748.029.915-.309 1.148-2.324 1.73-4.756 1.73-7.23 0-12.654-15.392-22.948-34.311-22.948" fill="#FCF36A"/><path d="M235.4537 151.898c-6.504-39.126-26.479-46.352-26.479-46.352-14.449-4.475-31.406-18.083-31.406-18.083l-.182 2.874-.182-2.874s-16.957 13.608-31.404 18.083c0 0-19.978 7.226-26.482 46.352 0 0-19.511 34.73-7.804 40.004 0 0 9.722 3.279 34.781 4.379l31.091-.953 31.091.953c27.587-1.1 34.782-4.379 34.782-4.379 11.707-5.274-7.806-40.004-7.806-40.004" fill="#FFF"/><path d="M235.4537 151.898c-6.504-39.126-26.479-46.352-26.479-46.352-14.449-4.475-31.406-18.083-31.406-18.083l-.182 2.874-.182-2.874s-16.957 13.608-31.404 18.083c0 0-19.978 7.226-26.482 46.352 0 0-19.511 34.73-7.804 40.004 0 0 9.722 3.279 34.781 4.379l31.091-.953 31.091.953c27.587-1.1 34.782-4.379 34.782-4.379 11.707-5.274-7.806-40.004-7.806-40.004z" stroke="#222" stroke-width="1.329"/><path d="M125.3023 135.7822h109.354c2.56 0 4.482 2.338 3.988 4.85l-10.09 51.268c-.375 1.906-2.046 3.28-3.988 3.28h-89.173c-1.943 0-3.613-1.374-3.988-3.28l-10.091-51.268c-.494-2.512 1.428-4.85 3.988-4.85" fill="#222"/><path d="M125.3023 135.7822h109.354c2.56 0 4.482 2.338 3.988 4.85l-10.09 51.268c-.375 1.906-2.046 3.28-3.988 3.28h-89.173c-1.943 0-3.613-1.374-3.988-3.28l-10.091-51.268c-.494-2.512 1.428-4.85 3.988-4.85z" stroke="#3E4B56" stroke-width="1.301" stroke-linecap="round" stroke-linejoin="round"/><path d="M175.481 76.6948l-7.562 18.208s14.702 6.086 22.088 2.314c0 0-3.748-3.21-2.199-15.902l-12.327-4.62z" fill="#C1DCF3"/><path d="M168.3414 60.0332c-.434 12.375 9.247 22.758 21.623 23.191 12.375.434 16.903-10.883 17.337-23.258.433-12.375-3.394-21.123-15.769-21.556-12.375-.434-22.758 9.248-23.191 21.623" fill="#C1DCF3"/><path d="M191.6216 66.5708c-.111 3.156 2.358 5.805 5.515 5.916 3.157.11 5.805-2.359 5.916-5.516.11-3.157-2.359-5.805-5.516-5.916-3.156-.11-5.805 2.359-5.915 5.516" fill="#A2C6E0"/><path d="M201.8804 58.3457c-.027.79.59 1.452 1.379 1.479.789.028 1.451-.59 1.479-1.379.028-.789-.589-1.451-1.379-1.479-.79-.027-1.452.59-1.479 1.379" fill="#222"/><path d="M207.6958 58.5493s4.327 9.577 2.189 10.107c0 0-1.999.597-3.386-.119" stroke="#222" stroke-width="1.363" stroke-linecap="round" stroke-linejoin="round"/><path d="M148.9224 14.8437c7.197-6.709 17.527-7.326 23.073-1.377 5.547 5.949 4.209 16.21-2.987 22.92-7.196 6.71-17.526 7.327-23.073 1.377-5.546-5.948-4.209-16.21 2.987-22.92z" stroke="#222" stroke-width="1.363"/><path d="M155.7837 10.8545c7.196-6.709 16.076-8.881 19.834-4.851 3.758 4.03.97 12.737-6.227 19.447-7.196 6.709-16.076 8.881-19.834 4.851-3.757-4.031-.969-12.737 6.227-19.447z" stroke="#222" stroke-width="1.363"/><path d="M206.7642 41.4438s-6.257-21.514-45.196-14.413c0 0-25.167 28.137 12.284 52.018 0 0 12.102-7.3 11.48-12.562 0 0-2.534-1.863-3.709-4.092-2.112-4.008.975-9.892 4.93-7.738 0 0 15.77-1.463 20.211-13.213" fill="#5FBFFD"/><path d="M206.7642 41.4438s-6.257-21.514-45.196-14.413c0 0-25.167 28.137 12.284 52.018 0 0 12.102-7.3 11.48-12.562 0 0-2.534-1.863-3.709-4.092-2.112-4.008.975-9.892 4.93-7.738 0 0 15.77-1.463 20.211-13.213z" stroke="#222" stroke-width="1.363"/><path d="M157.8853 6.8193c-6.709-7.196-17.317-8.211-23.694-2.266-6.376 5.945-6.106 16.598.604 23.794 6.709 7.197 17.318 8.211 23.694 2.266 6.376-5.944 6.106-16.598-.604-23.794" fill="#5FBFFD"/><path d="M157.8853 6.8193c-6.709-7.196-17.317-8.211-23.694-2.266-6.376 5.945-6.106 16.598.604 23.794 6.709 7.197 17.318 8.211 23.694 2.266 6.376-5.944 6.106-16.598-.604-23.794z" stroke="#222" stroke-width="1.363"/><path d="M169.3912 25.4502c-7.196 6.709-16.076 8.881-19.834 4.851M175.2808 24.6416c-.541 4.147-2.674 8.391-6.272 11.745-4.583 4.274-10.438 6.075-15.518 5.284" stroke="#FFF" stroke-width="1.363"/><path d="M186.6587 156.895c0 3.689-2.99 6.679-6.68 6.679-3.688 0-6.679-2.99-6.679-6.679s2.991-6.68 6.679-6.68c3.69 0 6.68 2.991 6.68 6.68z" stroke="#FFF" stroke-width="1.301"/><path d="M196.7603 75.9277s-2.455-2.513-4.91-5.025c0 0-3.524 3.533-1.204 5.515 2.146 1.835 4.873 1.156 6.114-.49z" stroke="#222" stroke-width="1.363" stroke-linecap="round" stroke-linejoin="round"/><path d="M167.3638 94.5874s13.006 8.139 22.643 2.498" stroke="#5FBFFD" stroke-width="1.301" stroke-linecap="round" stroke-linejoin="round"/><path d="M175.1509 318.9805c1.397.777 2.438 2.126 3.108 3.589 1.678 3.665 2.486 8.067 3.745 11.922 1.348 4.134 3.062 8.302 4.091 12.524.605 2.477-2.437 4.169-4.233 2.358-.296-.297-.579-.602-.851-.904-3.714-4.128-10.139-13.321-13.357-17.846-1.634-2.297-4.298-6.203-2.155-8.932 1.979-2.521 6.163-4.308 9.237-2.919.143.063.28.133.415.208" fill="#222"/><path d="M165.4351 295.8018s8.126 15.709 9.458 26.868c1.347 11.283-5.081 3.405-5.081 3.405l-16.645-24.879 12.268-5.394z" fill="#C1DCF3"/><path d="M222.7105 202.6836s-3.778 34.889-34.348 37.761c0 0-26.246 1.995-48.965-1.218l-24.018-36.543" fill="#FFF"/><path d="M222.7105 202.6836s-3.778 34.889-34.348 37.761c0 0-26.246 1.995-48.965-1.218l-24.018-36.543" stroke="#75899D" stroke-width="1.364"/><path d="M82.3814 309.9902s-14.984 22.777-18.281 24.876c-3.297 2.097 12.587 0 12.587 0l2.697-.9s-2.398-5.747 19.181-28.648h-12.587l-3.597 4.672z" fill="#C1DCF3"/><path d="M120.7437 237.7627l-41.359 71.029h20.192s40.647-33.267 40.348-52.747l-19.181-18.282z" fill="#75899D"/><path d="M78.8453 340.3911c-1.096 1.165-2.658 1.843-4.241 2.134-3.964.73-8.43.436-12.476.712-4.338.296-8.799.937-13.144.902-2.55-.021-3.446-3.384-1.25-4.683.361-.213.726-.414 1.085-.604 4.911-2.59 15.398-6.569 20.573-8.581 2.627-1.021 7.066-2.649 9.187.098 1.96 2.536 2.668 7.03.57 9.67-.097.123-.199.239-.304.352" fill="#222"/><path d="M109.7427 201.0225s22.957-15.01 50.209 68.955c0 0 3.929 19.931 8.597 30.077 0 0-5.911 10.437-13.195 6.736 0 0-21.763-31.592-31.736-46.065 0 0-31.219-46.249-13.875-59.703" fill="#FFF"/><path d="M109.7427 201.0225s22.957-15.01 50.209 68.955c0 0 3.929 19.931 8.597 30.077 0 0-5.911 10.437-13.195 6.736 0 0-21.763-31.592-31.736-46.065 0 0-31.219-46.249-13.875-59.703z" stroke="#75899D" stroke-width="1.364"/><path d="M272.8853 237.4199c17.976 12.042 62.238 12.226 62.238 12.226 26.911-.388 27.438-30.135 27.438-30.135s-35.802-13.563-43.858-14.236c-8.056-.673-47.131 3.847-47.131 3.847s-28.236 1.37-17.673 25.395l35.946 86.473 10.184-4.551s3.271-77.401-27.144-79.019" fill="#5FBFFD"/><path d="M311.8228 308.3721s8.891 6.893 10.589 11.389l2.055 8.638 4.888-15.831-1.348-4.196s-4.88-.299-10.982-13.187l-5.202 13.187z" fill="#FFF"/><path d="M311.8228 308.3721s8.891 6.893 10.589 11.389l2.055 8.638 4.888-15.831-1.348-4.196s-4.88-.299-10.982-13.187l-5.202 13.187z" stroke="#222" stroke-width="1.349"/><path d="M268.0572 234.646c21.588 11.988 71.945 7.993 71.945 7.993 30.57-2.997 30.562-37.064 30.562-37.064h-121.979s-20.978 6.294-2.397 27.572l65.635 75.225 5.202-13.186s-14.223-61.589-48.968-60.54" fill="#FFF"/><path d="M268.0572 234.646c21.588 11.988 71.945 7.993 71.945 7.993 30.57-2.997 30.562-37.064 30.562-37.064h-121.979s-20.978 6.294-2.397 27.572l65.635 75.225 5.202-13.186s-14.223-61.589-48.968-60.54" stroke="#5FBFFD" stroke-width="1.349"/><path d="M353.3824 65.6948c-3.715-5.053-4.727-11.176-2.259-13.676 2.467-2.5 7.479-.43 11.194 4.623 3.714 5.053 4.726 11.177 2.258 13.677-2.466 2.5-7.478.43-11.193-4.624zM355.5113 66.5889c-4.324-8.637-3.908-17.602.93-20.024" stroke="#FFF" stroke-width="1.338" stroke-linecap="round" stroke-linejoin="round"/><path d="M382.689 95.8047c-4.534 11.279-17.354 16.747-28.632 12.213-11.279-4.534-10.842-16.492-6.308-27.771 4.534-11.279 11.448-17.608 22.727-13.074 11.279 4.534 16.747 17.353 12.213 28.632" fill="#C1DCF3"/><path d="M359.1939 92.4116c-1.156 2.877-4.426 4.271-7.303 3.115-2.877-1.157-4.271-4.426-3.115-7.303 1.156-2.877 4.426-4.272 7.303-3.116 2.878 1.157 4.272 4.427 3.115 7.304" fill="#A2C6E0"/><path d="M353.2584 80.9487c-.289.719-1.106 1.068-1.826.779-.719-.289-1.068-1.107-.778-1.826.289-.72 1.106-1.068 1.826-.779.718.289 1.067 1.107.778 1.826" fill="#3E4B56"/><path d="M347.9586 78.8179s-7.693 6.874-5.985 8.2c0 0 1.556 1.331 3.086 1.241" stroke="#3E4B56" stroke-width="1.338" stroke-linecap="round" stroke-linejoin="round"/><path d="M354.2925 59.4893c2.07-7.471 10.317-13.275 6.236-11.817-5.062 1.809-2.349 5.09 8.608 8.28 7.018 2.043 20.626-1.468 27.822 9.721 0 0 21.323 36.708-26.167 45.182 0 0-8.571-11.542-5.92-16.017 0 0 3.016-.664 4.957-2.198 3.489-2.756 3.06-9.265-1.347-8.905 0 0-17.996-10.506-14.189-24.246" fill="#498DC9"/><path d="M354.2925 59.4893c2.07-7.471 10.317-13.275 6.236-11.817-5.062 1.809-2.349 5.09 8.608 8.28 7.018 2.043 20.626-1.468 27.822 9.721 0 0 21.323 36.708-26.167 45.182 0 0-8.571-11.542-5.92-16.017 0 0 3.016-.664 4.957-2.198 3.489-2.756 3.06-9.265-1.347-8.905 0 0-17.996-10.506-14.189-24.246z" stroke="#3E4B56" stroke-width="1.355"/><path d="M358.5718 52.6997c1.489.972 2.989 2.401 4.322 4.214M365.7291 70.8623c-2.468 2.5-7.479.43-11.194-4.623" stroke="#3E4B56" stroke-width="1.338"/><path d="M9.4654 198.6441h424.859" stroke="#222" stroke-width="1.366" stroke-linecap="round" stroke-linejoin="round"/><path d="M354.4224 97.0825l-6.82 1.687s1.259 4.828 4.144 3.833c2.669-.921 3.465-3.616 2.676-5.52z" stroke="#222" stroke-width="1.363" stroke-linecap="round" stroke-linejoin="round"/><path d="M345.2252 117.9497c48.058-2.241 60.583 15.521 60.583 15.521l18.48 23.424 7.002 6.931" stroke="#222" stroke-width="1.426" stroke-linecap="round" stroke-linejoin="round"/><path d="M380.106 194.085s-15.479 36.549-22.304 42.037c-29.77 23.942-71.796-21.645-71.796-21.645l15.206-21.234 78.894.842z" fill="#FCF36A"/><path stroke="#222" stroke-width="1.426" stroke-linecap="round" stroke-linejoin="round" d="M301.2125 193.2432l15.603-39.997-19.536 36.192"/><path d="M383.4068 221.7466c0 9.866-6.947 18.644-17.74 24.254-7.739 4.023-17.454-1.609-28.004-1.609-12.449 0-23.737 4.692-31.985-.717-8.49-5.569-13.759-13.336-13.759-21.928 0-16.939 20.48-30.671 45.744-30.671s45.744 13.732 45.744 30.671M346.0416 251.3852c0 2.173-4.895 3.936-10.934 3.936-6.038 0-10.933-1.763-10.933-3.936 0-2.174 4.895-3.936 10.933-3.936 6.039 0 10.934 1.762 10.934 3.936" fill="#75899D"/><path d="M310.522 252.5669h48.309" stroke="#75899D" stroke-width="1.349"/><path d="M260.4048 59.1655s-1.905 9.221-13.51 12.783" stroke="#FCF36A" stroke-width="1.366" stroke-linecap="round" stroke-linejoin="round"/><path d="M238.2935 27.4023c2.904 16.123 14.079 9.339 18.512 2.489 2.025-3.13-1.692-7.07-4.011-4.238-4.131 5.045 7.776 17.627 14.009 9.996 1.855-2.271-.121-6.098-2.654-5.08-4.21 1.691 1.04 12.612 4.857 12.077" stroke="#5FBFFD" stroke-width="1.366" stroke-linecap="round" stroke-linejoin="round"/><path d="M321.5142 90.6475c.434-1.633.51-3.3.177-4.947-1.694-8.375-13.321-13.092-25.97-10.534-12.649 2.556-21.531 11.418-19.838 19.793 1.373 6.793 9.28 11.178 18.967 11.23" stroke="#C1DCF3" stroke-width="1.366" stroke-linecap="round" stroke-linejoin="round"/><path d="M293.5709 77.1352c.229 0 .415-.186.415-.415 0-.23-.186-.416-.415-.416-.23 0-.416.186-.416.416 0 .229.186.415.416.415M298.2535 77.1352c.229 0 .415-.186.415-.415 0-.23-.186-.416-.415-.416-.229 0-.415.186-.415.416 0 .229.186.415.415.415M302.9361 77.1352c.229 0 .416-.186.416-.415 0-.23-.187-.416-.416-.416-.229 0-.416.186-.416.416 0 .229.187.415.416.415M307.6187 77.1352c.229 0 .416-.186.416-.415 0-.23-.187-.416-.416-.416-.229 0-.415.186-.415.416 0 .229.186.415.415.415M311.9039 76.6328c-.007.029-.018.056-.018.087 0 .23.187.415.415.415.159 0 .291-.09.362-.22-.044-.018-.082-.039-.126-.057-.205-.083-.424-.147-.633-.225M286.5455 81.8184c.23 0 .416-.186.416-.416 0-.229-.186-.415-.416-.415-.229 0-.414.186-.414.415 0 .23.185.416.414.416M291.2291 81.8184c.229 0 .416-.186.416-.416 0-.229-.187-.415-.416-.415-.229 0-.416.186-.416.415 0 .23.187.416.416.416M295.9117 81.8184c.229 0 .416-.186.416-.416 0-.229-.187-.415-.416-.415-.229 0-.415.186-.415.415 0 .23.186.416.415.416M300.5943 81.8184c.23 0 .416-.186.416-.416 0-.229-.186-.415-.416-.415-.229 0-.415.186-.415.415 0 .23.186.416.415.416M305.2779 81.8184c.229 0 .415-.186.415-.416 0-.229-.186-.415-.415-.415-.23 0-.416.186-.416.415 0 .23.186.416.416.416M309.9605 81.8184c.229 0 .415-.186.415-.416 0-.229-.186-.415-.415-.415-.229 0-.415.186-.415.415 0 .23.186.416.415.416M314.6431 81.8184c.229 0 .416-.186.416-.416 0-.229-.187-.415-.416-.415-.229 0-.416.186-.416.415 0 .23.187.416.416.416M318.9107 81.4028c0 .205.15.367.346.401-.105-.144-.229-.28-.342-.422 0 .008-.004.014-.004.021M279.522 86.5015c.229 0 .416-.187.416-.416 0-.23-.187-.415-.416-.415-.229 0-.416.185-.416.415 0 .229.187.416.416.416M284.2047 86.5015c.229 0 .415-.187.415-.416 0-.23-.186-.415-.415-.415-.229 0-.415.185-.415.415 0 .229.186.416.415.416M288.8873 86.5015c.23 0 .416-.187.416-.416 0-.23-.186-.415-.416-.415-.229 0-.416.185-.416.415 0 .229.187.416.416.416M293.5709 86.5015c.229 0 .415-.187.415-.416 0-.23-.186-.415-.415-.415-.23 0-.416.185-.416.415 0 .229.186.416.416.416M298.2535 86.5015c.229 0 .415-.187.415-.416 0-.23-.186-.415-.415-.415-.229 0-.415.185-.415.415 0 .229.186.416.415.416M302.9361 86.5015c.229 0 .416-.187.416-.416 0-.23-.187-.415-.416-.415-.229 0-.416.185-.416.415 0 .229.187.416.416.416M307.6187 86.5015c.229 0 .416-.187.416-.416 0-.23-.187-.415-.416-.415-.229 0-.415.185-.415.415 0 .229.186.416.415.416M312.3013 86.5015c.23 0 .416-.187.416-.416 0-.23-.186-.415-.416-.415-.229 0-.415.185-.415.415 0 .229.186.416.415.416M316.9849 86.5015c.229 0 .415-.187.415-.416 0-.23-.186-.415-.415-.415-.229 0-.416.185-.416.415 0 .229.187.416.416.416M276.7642 90.7686c0 .229.187.416.416.416.23 0 .416-.187.416-.416 0-.229-.186-.416-.416-.416-.229 0-.416.187-.416.416M282.2789 90.7686c0-.229-.187-.416-.415-.416-.231 0-.416.187-.416.416 0 .229.185.416.416.416.228 0 .415-.187.415-.416M286.5455 91.1841c.23 0 .416-.186.416-.416 0-.229-.186-.415-.416-.415-.229 0-.414.186-.414.415 0 .23.185.416.414.416M291.2291 91.1841c.229 0 .416-.186.416-.416 0-.229-.187-.415-.416-.415-.229 0-.416.186-.416.415 0 .23.187.416.416.416M295.9117 91.1841c.229 0 .416-.186.416-.416 0-.229-.187-.415-.416-.415-.229 0-.415.186-.415.415 0 .23.186.416.415.416M300.5943 91.1841c.23 0 .416-.186.416-.416 0-.229-.186-.415-.416-.415-.229 0-.415.186-.415.415 0 .23.186.416.415.416M305.2779 91.1841c.229 0 .415-.186.415-.416 0-.229-.186-.415-.415-.415-.23 0-.416.186-.416.415 0 .23.186.416.416.416M309.9605 91.1841c.229 0 .415-.186.415-.416 0-.229-.186-.415-.415-.415-.229 0-.415.186-.415.415 0 .23.186.416.415.416M314.6431 91.1841c.229 0 .416-.186.416-.416 0-.229-.187-.415-.416-.415-.229 0-.416.186-.416.415 0 .23.187.416.416.416M319.7418 90.7686c0-.229-.187-.416-.416-.416-.23 0-.415.187-.415.416 0 .229.185.416.415.416.229 0 .416-.187.416-.416M279.522 95.8667c.229 0 .416-.186.416-.415 0-.23-.187-.416-.416-.416-.229 0-.416.186-.416.416 0 .229.187.415.416.415M284.2047 95.8667c.229 0 .415-.186.415-.415 0-.23-.186-.416-.415-.416-.229 0-.415.186-.415.416 0 .229.186.415.415.415M288.8873 95.8667c.23 0 .416-.186.416-.415 0-.23-.186-.416-.416-.416-.229 0-.416.186-.416.416 0 .229.187.415.416.415M293.5709 95.8667c.229 0 .415-.186.415-.415 0-.23-.186-.416-.415-.416-.23 0-.416.186-.416.416 0 .229.186.415.416.415M298.2535 95.8667c.229 0 .415-.186.415-.415 0-.23-.186-.416-.415-.416-.229 0-.415.186-.415.416 0 .229.186.415.415.415M302.9361 95.8667c.229 0 .416-.186.416-.415 0-.23-.187-.416-.416-.416-.229 0-.416.186-.416.416 0 .229.187.415.416.415M307.6187 95.8667c.229 0 .416-.186.416-.415 0-.23-.187-.416-.416-.416-.229 0-.415.186-.415.416 0 .229.186.415.415.415M312.3013 95.8667c.23 0 .416-.186.416-.415 0-.23-.186-.416-.416-.416-.229 0-.415.186-.415.416 0 .229.186.415.415.415M316.9849 95.8667c.229 0 .415-.186.415-.415 0-.23-.186-.416-.415-.416-.229 0-.416.186-.416.416 0 .229.187.415.416.415M281.8638 99.7188c-.099 0-.186.039-.256.096l.583.075c-.075-.101-.19-.171-.327-.171M286.9615 100.1343c0-.229-.186-.416-.416-.416-.229 0-.414.187-.414.416 0 .109.044.207.113.281l.515.067c.119-.073.202-.199.202-.348M291.2291 100.5498c.229 0 .416-.186.416-.416 0-.229-.187-.415-.416-.415-.229 0-.416.186-.416.415 0 .23.187.416.416.416M295.9117 100.5498c.229 0 .416-.186.416-.416 0-.229-.187-.415-.416-.415-.229 0-.415.186-.415.415 0 .23.186.416.415.416M300.5943 100.5498c.23 0 .416-.186.416-.416 0-.229-.186-.415-.416-.415-.229 0-.415.186-.415.415 0 .23.186.416.415.416M305.2779 100.5498c.229 0 .415-.186.415-.416 0-.229-.186-.415-.415-.415-.23 0-.416.186-.416.415 0 .23.186.416.416.416M309.9605 100.5498c.229 0 .415-.186.415-.416 0-.229-.186-.415-.415-.415-.229 0-.415.186-.415.415 0 .23.186.416.415.416" fill="#FCF36A"/><path d="M313.0494 75.5918c-5.026-2.04-11.235-2.466-17.485-1.205-12.997 2.628-22.137 11.869-20.372 20.599.346 1.715 1.09 3.321 2.212 4.772.229.299.659.352.958.123.298-.231.353-.66.123-.958-.993-1.284-1.65-2.7-1.956-4.207-1.614-7.993 7.046-16.511 19.306-18.99 5.732-1.159 11.398-.823 16.068.907.209.078.428.142.633.225.044.018.082.039.126.057 2.686 1.111 4.795 2.64 6.252 4.468.114.141.238.277.342.421.865 1.198 1.458 2.514 1.743 3.923 1.28 6.338-3.83 13.15-12.717 16.951-.346.149-.507.55-.359.897.111.259.363.414.628.414.09 0 .181-.017.269-.055 9.498-4.063 14.93-11.488 13.517-18.478-.865-4.282-4.163-7.785-9.288-9.864" fill="#C1DCF3"/><path d="M299.1588 107.9668s2.567 6.019 10.961 6.847" stroke="#C1DCF3" stroke-width="1.366" stroke-linecap="round" stroke-linejoin="round"/><path d="M309.8453 83.2895c.242 11.381-8.303 8.299-12.265 4.243-1.81-1.852.179-5.048 2.148-3.438 3.509 2.868-2.869 13.076-8.164 8.737-1.577-1.292-.758-4.17 1.106-3.826 3.102.573 1.029 8.733-1.644 8.895" stroke="#75899D" stroke-width="1.366" stroke-linecap="round" stroke-linejoin="round"/><path d="M169.8589 225.5874c-.171 0-.309.195-.309.437s.138.438.309.438c.171 0 .31-.196.31-.438s-.139-.437-.31-.437M173.3443 225.5874c-.172 0-.31.195-.31.437s.138.438.31.438c.17 0 .309-.196.309-.438s-.139-.437-.309-.437M176.8287 225.5874c-.171 0-.31.195-.31.437s.139.438.31.438c.17 0 .309-.196.309-.438s-.139-.437-.309-.437M180.313 225.5874c-.171 0-.309.195-.309.437s.138.438.309.438c.171 0 .31-.196.31-.438s-.139-.437-.31-.437M183.7974 225.5874c-.17 0-.309.195-.309.437s.139.438.309.438c.171 0 .31-.196.31-.438s-.139-.437-.31-.437M187.2818 225.5874c-.17 0-.309.195-.309.437s.139.438.309.438c.172 0 .311-.196.311-.438s-.139-.437-.311-.437M190.7671 225.5874c-.171 0-.31.195-.31.437s.139.438.31.438c.171 0 .31-.196.31-.438s-.139-.437-.31-.437M194.2515 226.4619c.171 0 .31-.196.31-.437 0-.242-.139-.438-.31-.438-.171 0-.31.196-.31.438 0 .241.139.437.31.437M197.7369 226.4619c.17 0 .309-.196.309-.437 0-.242-.139-.438-.309-.438-.172 0-.311.196-.311.438 0 .241.139.437.311.437M201.2212 226.4619c.17 0 .309-.196.309-.437 0-.242-.139-.438-.309-.438-.171 0-.31.196-.31.438 0 .241.139.437.31.437M204.7056 226.4619c.171 0 .309-.196.309-.437 0-.242-.138-.438-.309-.438-.171 0-.309.196-.309.438 0 .241.138.437.309.437M208.19 226.4619c.171 0 .309-.196.309-.437 0-.242-.138-.438-.309-.438-.171 0-.309.196-.309.438 0 .241.138.437.309.437M168.1167 230.5176c-.171 0-.31.196-.31.437 0 .242.139.438.31.438.171 0 .31-.196.31-.438 0-.241-.139-.437-.31-.437M171.6021 230.5176c-.172 0-.311.196-.311.437 0 .242.139.438.311.438.17 0 .309-.196.309-.438 0-.241-.139-.437-.309-.437M175.0865 230.5176c-.171 0-.31.196-.31.437 0 .242.139.438.31.438.17 0 .309-.196.309-.438 0-.241-.139-.437-.309-.437M178.5708 230.5176c-.171 0-.309.196-.309.437 0 .242.138.438.309.438.171 0 .309-.196.309-.438 0-.241-.138-.437-.309-.437M182.0552 230.5176c-.171 0-.309.196-.309.437 0 .242.138.438.309.438.171 0 .31-.196.31-.438 0-.241-.139-.437-.31-.437M185.5396 230.5176c-.17 0-.309.196-.309.437 0 .242.139.438.309.438.172 0 .31-.196.31-.438 0-.241-.138-.437-.31-.437M189.024 230.5176c-.17 0-.309.196-.309.437 0 .242.139.438.309.438.172 0 .311-.196.311-.438 0-.241-.139-.437-.311-.437M192.5093 230.5176c-.171 0-.31.196-.31.437 0 .242.139.438.31.438.171 0 .31-.196.31-.438 0-.241-.139-.437-.31-.437M195.9937 231.3926c.171 0 .31-.196.31-.437 0-.242-.139-.438-.31-.438-.171 0-.31.196-.31.438 0 .241.139.437.31.437M199.479 231.3926c.17 0 .309-.196.309-.437 0-.242-.139-.438-.309-.438-.172 0-.31.196-.31.438 0 .241.138.437.31.437M202.9634 231.3926c.17 0 .309-.196.309-.437 0-.242-.139-.438-.309-.438-.171 0-.31.196-.31.438 0 .241.139.437.31.437M169.8589 235.4482c-.171 0-.309.196-.309.437 0 .242.138.438.309.438.171 0 .31-.196.31-.438 0-.241-.139-.437-.31-.437M173.3443 235.4482c-.172 0-.31.196-.31.437 0 .242.138.438.31.438.17 0 .309-.196.309-.438 0-.241-.139-.437-.309-.437M176.8287 235.4482c-.171 0-.31.196-.31.437 0 .242.139.438.31.438.17 0 .309-.196.309-.438 0-.241-.139-.437-.309-.437M180.313 235.4482c-.171 0-.309.196-.309.437 0 .242.138.438.309.438.171 0 .31-.196.31-.438 0-.241-.139-.437-.31-.437M183.7974 235.4482c-.17 0-.309.196-.309.437 0 .242.139.438.309.438.171 0 .31-.196.31-.438 0-.241-.139-.437-.31-.437M187.2818 235.4482c-.17 0-.309.196-.309.437 0 .242.139.438.309.438.172 0 .311-.196.311-.438 0-.241-.139-.437-.311-.437M191.0767 235.8857c0-.242-.139-.437-.31-.437-.17 0-.309.195-.309.437 0 .241.139.437.308.437h.003c.17-.002.308-.196.308-.437M194.2515 235.4482c-.171 0-.31.196-.31.437 0 .015.006.026.006.04.205-.028.409-.056.608-.083-.017-.22-.144-.394-.304-.394M152.0298 226.3867l-.309.017c.043.034.092.058.145.058.061 0 .115-.032.164-.075M155.3501 226.4619c.131 0 .242-.115.287-.277l-.56.031c.049.145.152.246.273.246M158.8355 226.4619c.171 0 .31-.196.31-.437 0-.013-.005-.023-.006-.035l-.614.034v.001c0 .241.139.437.31.437M162.3199 226.4619c.171 0 .31-.196.31-.437 0-.085-.022-.16-.051-.228l-.53.03c-.023.06-.039.126-.039.198 0 .241.139.437.31.437M165.4947 226.0244c0 .242.139.437.311.437.169 0 .308-.195.308-.437 0-.197-.094-.357-.221-.412l-.211.012c-.11.067-.187.221-.187.4M150.1236 230.5176c-.17 0-.309.196-.309.437 0 .242.139.438.309.438.171 0 .31-.196.31-.438 0-.241-.139-.437-.31-.437M153.608 230.5176c-.17 0-.309.196-.309.437 0 .242.139.438.309.438.172 0 .31-.196.31-.438 0-.241-.138-.437-.31-.437M157.0933 230.5176c-.171 0-.31.196-.31.437 0 .242.139.438.31.438.171 0 .31-.196.31-.438 0-.241-.139-.437-.31-.437M160.5777 230.5176c-.171 0-.31.196-.31.437 0 .242.139.438.31.438.171 0 .31-.196.31-.438 0-.241-.139-.437-.31-.437M164.063 230.5176c-.172 0-.311.196-.311.437 0 .242.139.438.311.438.17 0 .309-.196.309-.438 0-.241-.139-.437-.309-.437M151.8658 235.4482c-.17 0-.309.196-.309.437 0 .242.139.438.309.438.171 0 .31-.196.31-.438 0-.241-.139-.437-.31-.437M155.3501 235.4482c-.17 0-.309.196-.309.437 0 .242.139.438.309.438.172 0 .311-.196.311-.438 0-.241-.139-.437-.311-.437M158.8355 235.4482c-.171 0-.31.196-.31.437 0 .242.139.438.31.438.171 0 .31-.196.31-.438 0-.241-.139-.437-.31-.437M162.3199 235.4482c-.171 0-.31.196-.31.437 0 .242.139.438.31.438.171 0 .31-.196.31-.438 0-.241-.139-.437-.31-.437M165.8052 235.4482c-.172 0-.311.196-.311.437 0 .242.139.438.311.438.17 0 .309-.196.309-.438 0-.241-.139-.437-.309-.437" fill="#000"/><path d="M197.7369 235.4482c.109 0 .201.085.256.207-.176.029-.356.058-.545.088.041-.17.153-.295.289-.295m-49.6-9.169l.502-.028c-.054.124-.146.211-.257.211-.102 0-.189-.075-.245-.183m45.811 9.646c-.977.132-2.037.266-3.179.398h-.003c-4.936.568-11.312 1.08-18.275 1.08h-22.689l-3.039-10.723 4.958-.276c-.084-.065-.14-.179-.155-.317l.606-.034c-.007.143-.062.261-.142.333l3.047-.17c-.022-.059-.035-.122-.035-.192 0-.047.009-.09.018-.132l.577-.032c.014.051.024.106.024.164 0 .057-.01.111-.024.161l2.889-.161c0-.136.047-.252.115-.332l.367-.02c.075.072.124.184.131.318l2.91-.163c.051-.141.151-.24.271-.24.11 0 .204.087.259.21l3.102-.173c.038-.023.079-.037.124-.037.032 0 .06.013.088.025l47.78-2.668-12.902 11.886c-.463.092-2.718.526-6.216 1.012 0 .015.006.028.006.043 0 .117-.033.222-.086.301-.129.017-.263.035-.396.053-.072-.072-.122-.182-.131-.314m7.042-.477l.088-.018 14.366-13.235-46.298 2.585-23.228 1.298 3.394 11.974h23.179c15.66 0 28.372-2.577 28.499-2.604"/><path d="M190.7671 236.3232h.002-.003.001M190.7671 236.3232h.002-.003.001M194.5611 235.8857c0-.015-.006-.029-.006-.043-.198.027-.402.054-.607.083.009.131.058.242.131.314.132-.019.267-.036.396-.054.053-.078.086-.183.086-.3" fill="#000"/><path d="M194.5611 235.8857c0-.015-.006-.029-.006-.043-.198.027-.402.054-.607.083.009.131.058.242.131.314.132-.019.267-.036.396-.054.053-.078.086-.183.086-.3M197.7369 235.4482c-.136 0-.248.125-.289.295.189-.03.369-.059.545-.088-.055-.122-.147-.207-.256-.207" fill="#000"/><path d="M197.7369 235.4482c-.136 0-.248.125-.289.295.189-.03.369-.059.545-.088-.055-.122-.147-.207-.256-.207M148.6392 226.251l-.502.028c.056.108.143.183.244.183.112 0 .203-.087.258-.211" fill="#000"/><path d="M148.6392 226.251l-.502.028c.056.108.143.183.244.183.112 0 .203-.087.258-.211M152.1714 226.0537l-.605.034c.014.137.071.252.155.316l.308-.017c.08-.073.135-.191.142-.333" fill="#000"/><path d="M152.1714 226.0537l-.605.034c.014.137.071.252.155.316l.308-.017c.08-.073.135-.191.142-.333M155.6607 226.0244c0-.058-.01-.113-.023-.164l-.578.032c-.008.042-.018.085-.018.132 0 .07.014.133.035.192l.561-.031c.013-.05.023-.104.023-.161" fill="#000"/><path d="M155.6607 226.0244c0-.058-.01-.113-.023-.164l-.578.032c-.008.042-.018.085-.018.132 0 .07.014.133.035.192l.561-.031c.013-.05.023-.104.023-.161M159.0083 225.6719l-.367.021c-.069.08-.115.196-.115.331l.613-.034c-.008-.134-.057-.245-.131-.318" fill="#000"/><path d="M159.0083 225.6719l-.367.021c-.069.08-.115.196-.115.331l.613-.034c-.008-.134-.057-.245-.131-.318M162.3199 225.5874c-.12 0-.22.099-.271.24l.53-.03c-.055-.124-.149-.21-.259-.21" fill="#000"/><path d="M162.3199 225.5874c-.12 0-.22.099-.271.24l.53-.03c-.055-.124-.149-.21-.259-.21M165.8052 225.5874c-.045 0-.086.014-.124.037l.212-.012c-.028-.012-.057-.025-.088-.025" fill="#000"/><path d="M165.8052 225.5874c-.045 0-.086.014-.124.037l.212-.012c-.028-.012-.057-.025-.088-.025" fill="#000"/><path d="M11.4283 219.1113c9.075 10.309 15.798 7.612 22.119 2.047 6.321-5.566 9.848-11.892.773-22.2-9.077-10.308-33.638-15.13-33.638-15.13s1.671 24.975 10.746 35.283" fill="#5FBFFD"/><path d="M.6822 183.8281l42.781 48.594M14.8248 199.8921l-11.841-.737M25.4312 211.94l1.95-18.485" stroke="#222" stroke-width="1.364" stroke-linecap="round" stroke-linejoin="round"/><path d="M76.3404 184.5601c-9.075 10.309-15.798 7.612-22.119 2.047-6.321-5.566-9.848-11.892-.773-22.2 9.077-10.309 33.638-15.131 33.638-15.131s-1.671 24.975-10.746 35.284" fill="#5FBFFD"/><path d="M87.0865 149.2764l-42.781 48.594M72.9439 165.3403l11.841-.736M62.3374 177.3887l-1.95-18.486M43.7427 298.9805v-178.987" stroke="#222" stroke-width="1.364" stroke-linecap="round" stroke-linejoin="round"/><path d="M82.1656 245.8618c-8.229 17.284-18.271 16.236-28.869 11.189-10.599-5.045-17.741-12.179-9.513-29.463 8.23-17.284 39.314-33.127 39.314-33.127s7.297 34.117-.932 51.401" fill="#5FBFFD"/><path d="M83.0972 194.4609l-38.792 81.476M70.274 221.395l15.59-5.509M60.6558 241.5957l-9.673-24.035" stroke="#222" stroke-width="1.364" stroke-linecap="round" stroke-linejoin="round"/><path fill="#FCF36A" d="M62.2544 348.5381h-34.967l-10.284-61.706h53.479z"/><path stroke="#222" stroke-width="1.364" d="M62.2544 348.5381h-34.967l-10.284-61.706h53.479z"/><path stroke="#222" stroke-width="1.364" d="M70.7867 310.6973h-54.671l-2.55-10.441h60.409z"/><path d="M278.775 352.6817s8.925-94.268 57.375-91.083c0 0 37.612-1.272 55.463 91.083" stroke="#75899D" stroke-width="1.363"/></g></svg>
