<?xml version="1.0" encoding="UTF-8" standalone="no"?>

<svg width="435" height="353" viewBox="0 0 435 353" xmlns="http://www.w3.org/2000/svg"><g fill="none" fill-rule="evenodd"><path fill="#FFF" d="M337.545 96.5771l.168-48.576-72.459-26.753-.288 83.307 37.249 13.752 35.769 11.697z"/><path stroke="#C1DCF3" stroke-width="2.031" d="M337.545 96.5771l.168-48.576-72.459-26.753-.288 83.307 37.249 13.752 35.769 11.697z"/><path d="M273.8809 38.1528l45.925 16.956M274.3516 49.8505l32.657 12.058M274.3096 61.9082l54.089 19.971M273.7598 73.2294l54.089 19.97M274.2305 84.9272l32.657 12.058M279.6046 98.3388l15.308 5.652" stroke="#C1DCF3" stroke-width="2.031" stroke-linecap="round" stroke-linejoin="round"/><path d="M241.17 55.621c3.572 2.689 8.647 1.972 11.336-1.601 2.689-3.572 1.973-8.648-1.601-11.337-3.572-2.688-8.647-1.971-11.337 1.602-2.688 3.572-1.971 8.648 1.602 11.336z" stroke="#5FBFFD" stroke-width="1.883" stroke-linecap="round"/><path d="M327.9542 310.8383c-25.111 25.364-59.954 41.076-98.466 41.076-76.521 0-138.555-62.033-138.555-138.555" stroke="#5FBFFD" stroke-width="1.883"/><path d="M227.9796 103.1181c-2.112 1.497-4.215 3.659-6.054 6.371" stroke="#222" stroke-width="1.949"/><path stroke="#C1DCF3" stroke-width="2.169" d="M86.3585 147.8393l-20.072-.053-48.589-.129.243-91.949 86.353.229"/><path stroke="#C1DCF3" stroke-width="2.169" stroke-linecap="round" stroke-linejoin="round" d="M174.3594 68.124h-83.979v41.645l6.726-7.266 20.064-.279"/><path d="M178.335 85.6108c-15.628-18.375-35.242 7.825-37.319-.631-.95-3.864 4.175-6.538 5.525-2.872 2.402 6.531-31.562 15.058-35.182 5.186-1.077-2.939 2.252-6.107 4.451-4.197 3.655 3.177-5.454 12.355-9.117 10.482" stroke="#75899D" stroke-width="2.169" stroke-linecap="round" stroke-linejoin="round"/><path d="M97.879 136.5605c-6.968-11.886-18.777-15.639-27.552-16.691l1.07 3.205c.1.302-.063.628-.365.728-.059.02-.121.03-.181.03-.242 0-.466-.153-.546-.394l-.048-.143-.492.032c-.147 2.449-3.034 4.715-18.502 1.401-.928-.199-.237-.871 1.047-1.658.163-.514.353-1.204.563-2.127-22.208 3.056-27.132 15.082-27.182 15.214l-.073.132-3.08 4.216 79.511-.221-4.17-3.724z" fill="#5FBFFD"/><path d="M25.6905 136.1572c.051-.132 4.975-12.157 27.183-15.213.082-.363.167-.764.254-1.201-22.563 2.928-27.998 14.75-28.481 15.926l-3.287 4.499.93.679.249-.341 3.08-4.217.072-.132zM70.2569 123.2954l.048.144c.08.24.305.393.546.393.06 0 .122-.01.181-.03.302-.1.465-.426.365-.728l-1.07-3.205-3.246-9.735c-.1-.301-.432-.464-.727-.364-.251.084-.396.324-.383.576.003.051.002.102.018.152l4.268 12.797zM52.4786 90.1582c-.094.657-.702 1.113-1.359 1.019-.657-.094-1.114-.702-1.019-1.359.094-.657.702-1.113 1.359-1.019.657.094 1.113.702 1.019 1.359M66.2881 90.1582c-.094.657-.703 1.113-1.359 1.019-.658-.094-1.114-.702-1.02-1.359.094-.657.703-1.113 1.359-1.019.658.094 1.114.702 1.02 1.359" fill="#222"/><path d="M39.2901 80.4697s2.302 9.519 33.97 0c0 0 4.947-1.837 5.287-5.102 0 0-8.456 1.113-19.388.114 0 0-27.197-.723-19.869 4.988" fill="#FCF36A"/><path d="M65.9991 80.7753c8.635-3.179 14.192-9.677 12.411-14.513M68.7335 72.8159c4.702-1.353 9.655-.543 11.063 1.809 1.407 2.351-1.264 5.353-5.966 6.706M40.5704 78.9545s-3.16 8.834 22.763 3.727M65.7696 103.1528s-1.206 2.907-4.032 2.705" stroke="#222" stroke-width="1.151" stroke-linecap="round" stroke-linejoin="round"/><path d="M59.0772 88.1977s-4.996 7.28-3.307 8.035c0 0 1.566.789 2.819.403" stroke="#222" stroke-width="1.146" stroke-linecap="round" stroke-linejoin="round"/><path d="M51.6983 124.5048s11.394 6.034 19.152-1.248M56.5499 89.9882c0 3.158-2.56 5.717-5.717 5.717-3.158 0-5.718-2.559-5.718-5.717 0-3.158 2.56-5.717 5.718-5.717 3.157 0 5.717 2.559 5.717 5.717zM72.4522 89.9882c0 3.158-2.56 5.717-5.717 5.717-3.158 0-5.718-2.559-5.718-5.717 0-3.158 2.56-5.717 5.718-5.717 3.157 0 5.717 2.559 5.717 5.717zM55.8526 90.725s3.205-3.316 6.25 0" stroke="#222" stroke-width="1.151" stroke-linecap="round" stroke-linejoin="round"/><path stroke="#C1DCF3" stroke-width="2.031" d="M433.0567 87.1982l.189-54.653-81.523-30.1-.324 93.729 41.908 15.473 40.245 13.16z"/><path d="M53.6085 214.3125c3.854 2.9 9.329 2.127 12.229-1.727 2.9-3.854 2.127-9.329-1.727-12.229-3.854-2.9-9.329-2.127-12.229 1.727-2.9 3.854-2.127 9.329 1.727 12.229z" stroke="#FFF" stroke-width="2.031" stroke-linecap="round"/><path d="M366.7999 80.9765c3.031 4.344 7.755 4.892 10.55 1.224 2.795-3.668 2.601-10.164-.43-14.508-3.032-4.344-7.756-4.892-10.551-1.224-2.794 3.668-2.601 10.164.431 14.508z" stroke="#5FBFFD" stroke-width="2.031" stroke-linecap="round" stroke-linejoin="round"/><path stroke="#FCF36A" stroke-width="1.883" stroke-linecap="round" d="M342.7842 19.1025l-16.074 12.576-2.854-20.209z"/><path d="M4.17 178.621c3.572 2.689 8.647 1.972 11.336-1.601 2.689-3.572 1.973-8.648-1.601-11.337-3.572-2.688-8.647-1.971-11.337 1.602-2.688 3.572-1.971 8.648 1.602 11.336z" stroke="#5FBFFD" stroke-width="1.883" stroke-linecap="round"/><path stroke="#FCF36A" stroke-width="1.883" stroke-linecap="round" d="M45.7842 196.1025l-16.074 12.576-2.854-20.209z"/><path stroke="#5FBFFD" stroke-width="2.031" stroke-linecap="round" d="M213.9454 26.8569l8.41-17.088-17.088-8.409-8.409 17.088z"/><path stroke="#5FBFFD" stroke-width="2.031" stroke-linecap="round" stroke-linejoin="round" d="M392.3174 83.7553l29.114 8.778-29.248-59.247-14.715 21.169"/><path d="M232.9932 150.2802c4.232-2.008 9.29-.206 11.298 4.025 2.008 4.232.206 9.29-4.026 11.298-4.231 2.008-9.29.205-11.297-4.026-2.008-4.232-.205-9.289 4.025-11.297m4.878-9.355c1.058-.502 2.322-.051 2.824 1.006.502 1.058.051 2.323-1.007 2.825-1.057.502-2.322.051-2.824-1.006-.502-1.058-.052-2.323 1.007-2.825m5.111 27.5c-1.007.991-3.054 2.208-5.579 2.208-1.513 0-3.196-.437-4.93-1.622-.463-.316-.583-.948-.266-1.411.316-.463.948-.582 1.411-.265 4.383 2.993 7.8-.223 7.943-.361.402-.388 1.045-.381 1.435.02.39.4.385 1.039-.014 1.431m-1.664 47.303c-1.292-4.018-4.718-15.324-7.218-29.495 1.365-.442 2.717-.967 4.047-1.599 12.346-5.858 14.526-17.32 11.591-29.638-.479-.079-.85-.475-.851-.976-.001-.326.162-.602.4-.788-1.01-3.668-2.446-7.391-4.181-11.047-.127-.266-.257-.526-.384-.788-.229-.185-.457-.37-.689-.554-.396-.313-.477-.855-.237-1.282-2.16-4.135-4.546-7.705-7.202-10.545-.528.206-1.003.163-1.307.087-.719-.182-1.393-.034-1.993.435-.896.7-1.475 1.999-1.475 3.311 0 3.567-1.95 5.399-2.828 6.043-.533 1.767-2.212 2.087-3.247 2.285-1.38.263-1.426.364-1.374 1.075.17 2.332.568 7.791-4.593 9.561-1.224.42-2.054-.42-2.603-.976-.683-.691-1.134-1.146-2.31-.767-3.599 1.165-5.224 3.024-4.828 5.527.673 4.267 7.086 9.4 10.605 9.4h.694l.257.644c1.043 2.613.776 11.11-1.942 15.544.087 1.949-.357 2.626-1.288 3.276-.4.279-.814.569-1.171 2.059-.238.994-.322 1.668-.384 2.16-.227 1.825-.728 2.026-2.607 2.507l-.742.193c-.28.074-.569.129-.856.188l-6.722 19.934c7.41.596 20.357 4.361 27.365 6.536 2.752-.375 5.477-1.106 8.073-2.31" fill="#C1DCF3"/><path d="M240.2657 165.6035c4.231-2.008 6.033-7.066 4.025-11.298-2.007-4.231-7.065-6.034-11.297-4.025-4.231 2.008-6.034 7.065-4.026 11.297 2.008 4.231 7.067 6.034 11.298 4.026" fill="#A2C6E0"/><path d="M239.6885 144.7558c1.058-.502 1.509-1.766 1.007-2.824-.502-1.058-1.767-1.509-2.824-1.007-1.059.502-1.509 1.767-1.007 2.825.502 1.058 1.766 1.508 2.824 1.006M244.0333 140.8437c.232.184.46.368.688.553 5.161 4.173 9.313 8.631 9.015 9.738-.542.52-2.289 1.868-3.841 1.872-.233.001-.437.093-.608.226-.238.185-.401.462-.4.787 0 .501.372.897.851.976.054.009.103.033.159.033h.002c2.691-.007 5.138-2.339 5.206-2.406.453-.399.684-.948.667-1.588-.09-3.4-8.752-10.408-10.487-11.778-.439-.346-1.074-.27-1.419.167-.033.042-.045.093-.07.138-.241.426-.159.969.237 1.282" fill="#222"/><path d="M251.0245 276.2871l.329 10.218-.494-.06c-.165.115-.358.193-.57.193-.041 0-.082-.002-.123-.008-.127-.015-12.848-1.597-25.281-6.462-1.693-.663-3.282-1.364-4.808-2.086-1.666-.74-3.308-1.536-4.893-2.399l.076-.139c-10.377-6.1-15.654-13.875-15.335-22.844.02-.561.474-1.008 1.051-.978.561.02.999.49.979 1.05-.844 23.658 40.978 30.751 47.581 31.721l-1.307-40.521c-2.683-2.118-22.513-17.123-37.366-10.463l-.717-1.598c7.021-3.148 16.097-2.234 26.247 2.638 7.584 3.642 13.029 8.129 13.258 8.318l.303.252.091 2.819c2.862-.096 6.124-.274 9.757-.566-4.74-10.915-11.649-20.64-21.727-25.791 0 0-.033-.011-.046-.015-3.013.851-6.272 1.281-9.74 1.281-3.568 0-7.355-.452-11.32-1.363-8.676-1.991-15.071-5.411-15.339-5.556-.6-.324-.825-1.074-.501-1.674.325-.602 1.075-.825 1.675-.502.197.106 15.685 8.298 30.441 6.286-7.008-2.175-19.955-5.939-27.366-6.536-3.224-.26-5.41.075-5.578 1.414 0 0-24.23 31.903-22.606 120.765 19.053 8.156 40.032 12.677 62.07 12.677 12.736 0 25.115-1.518 36.978-4.366l-6.592-43.291s0-10.365-2.155-23.77c-5.868.883-11.663 1.414-16.972 1.356" fill="#FCF36A"/><path d="M344.587 114.7583l-14.749 6.916c.312.611.506 1.292.506 2.025 0 2.474-2.013 4.487-4.487 4.487-1.845 0-3.43-1.12-4.12-2.715l-8.235 3.862 30.995 11.279.09-25.854z" fill="#FFF"/><path d="M325.8565 126.1552c1.354 0 2.456-1.102 2.456-2.456 0-.424-.118-.817-.308-1.166l-4.425 2.075c.362.904 1.244 1.547 2.277 1.547" fill="#FFF"/><path d="M344.587 114.7583l-.09 25.854-30.995-11.279-.058-.021c.099.789.26 1.563.457 2.328l28.803 10.481c.42-.299.834-.606 1.232-.943.965-.817 1.833-1.719 2.6-2.689l.079-22.899c-.167-.216-.319-.439-.496-.648v-.001c-.399-.472-.818-.92-1.255-1.345-.167.181-.274.417-.275.682l-.002.48zM311.6241 130.7539c-.086-.464-.175-.927-.229-1.398-.054.075-.112.148-.145.239-.159.437.013.9.374 1.159M344.9678 142.9453l.192.07c.114.041.231.061.348.061.205 0 .408-.062.581-.182.272-.19.434-.499.435-.83l.002-.528c-.411.41-.829.813-1.278 1.192-.091.077-.188.142-.28.217" fill="#C1DCF3"/><path d="M202.8047 211.7524c-.601-.324-1.351-.1-1.675.501-.324.601-.099 1.351.501 1.675.268.144 6.662 3.564 15.339 5.556 3.965.911 7.752 1.363 11.319 1.363 3.469 0 6.728-.43 9.741-1.282 2.962-.836 5.684-2.079 8.127-3.729.566-.381.714-1.15.333-1.716-.383-.566-1.151-.713-1.716-.332-1.118.755-2.275 1.392-3.455 1.94-2.597 1.204-5.322 1.935-8.074 2.31-14.755 2.012-30.244-6.18-30.44-6.286" fill="#222"/><path d="M313.3575 125.4233c.413-4.956 2.73-9.454 6.526-12.666 3.392-2.871 7.602-4.407 11.995-4.407.523 0 1.048.021 1.576.065 4.34.362 8.328 2.185 11.41 5.181.436.425.855.873 1.255 1.345v.001c.176.209.329.432.496.648 2.861 3.69 4.236 8.24 3.846 12.922-.307 3.695-1.677 7.134-3.925 9.977-.768.97-1.635 1.872-2.601 2.689-.397.337-.811.644-1.231.943-3.581 2.56-7.905 3.769-12.339 3.399-4.956-.413-9.454-2.731-12.666-6.526-1.837-2.17-3.107-4.681-3.798-7.354-.197-.765-.358-1.539-.457-2.328-.159-1.276-.196-2.577-.087-3.889m2.791 14.882c3.563 4.21 8.552 6.781 14.048 7.239.585.048 1.168.072 1.748.072 4.755 0 9.309-1.633 13.023-4.671.092-.075.19-.14.281-.217.448-.379.867-.782 1.277-1.192 3.445-3.446 5.552-7.944 5.96-12.856.458-5.496-1.253-10.841-4.815-15.051v.001c-3.563-4.21-8.552-6.781-14.048-7.239-5.49-.456-10.841 1.253-15.051 4.816-4.21 3.563-6.78 8.551-7.237 14.048-.116 1.381-.092 2.753.061 4.101.054.47.143.934.229 1.398.645 3.488 2.17 6.77 4.524 9.551" fill="#5FBFFD"/><path d="M343.0587 168.5278l-4.711-20.678c-.125-.547-.671-.888-1.216-.764-.547.124-.888.669-.764 1.215l5.032 22.091c.461.682.922 1.393 1.374 2.132.147-1.338.249-2.68.285-3.996M323.4005 123.6992c0-1.354 1.102-2.456 2.456-2.456.931 0 1.731.525 2.148 1.29.19.349.308.742.308 1.166 0 1.354-1.101 2.456-2.456 2.456-1.033 0-1.915-.643-2.277-1.547-.113-.282-.179-.587-.179-.909m2.456 4.487c2.475 0 4.487-2.013 4.487-4.487 0-.732-.193-1.414-.506-2.025-.743-1.454-2.239-2.462-3.981-2.462-2.475 0-4.487 2.013-4.487 4.487 0 .63.133 1.229.368 1.772.689 1.595 2.274 2.715 4.119 2.715M213.6924 189.205c.405-.104.82-.21 1.016-.285.022-.12.046-.316.069-.493.063-.51.159-1.279.424-2.384.496-2.071 1.255-2.746 1.988-3.259.345-.241.502-.35.4-1.799l-.024-.348.193-.291c2.288-3.43 2.754-10.552 2.111-13.355-4.508-.586-11.054-6.001-11.855-11.075-.324-2.054.053-5.797 6.219-7.793 2.38-.77 3.64.51 4.396 1.275.175.178.44.446.548.486 3.161-1.112 3.387-4.253 3.152-7.483-.192-2.619 1.905-3.019 3.031-3.234 1.271-.242 1.605-.394 1.719-1.07l.082-.493.439-.238c.08-.046 2.172-1.27 2.172-4.516 0-1.948.867-3.835 2.263-4.925 1.091-.851 2.424-1.138 3.748-.807.112.031.27-.157.336-.236 1.52-1.815 2.184-9.155.732-12.393-.218-.485-.573-1.065-1.029-1.079l-1.435-.044.509-1.342c.462-1.215.726-2.488.786-3.783v-.004c.111-2.186-.418-5.113-2.235-6.774-1.614-1.476-2.465-1.265-3.87-.916-.903.223-1.922.477-3.219.278-1.588-.245-2.859-.897-4.09-1.528-1.982-1.015-3.69-1.894-6.504-.891-1.473.527-2.587 1.647-3.662 2.73-1.019 1.027-2.074 2.089-3.423 2.603-1.761.674-2.779-.306-3.675-1.17-1.387-1.336-3.477-3.357-10.65-2.551-2.19.247-4.841 2.772-6.326 5.14-.109.175-.184.634-.243 1.004-.118.729-.239 1.483-.761 2.014-.398.406-1.186.743-2.886 1.415-.82.323-1.749.69-2.083.904-.325.209-.572.505-.858.849-.333.399-.711.852-1.265 1.201-.754.476-1.581.716-2.382.947-.899.26-1.748.506-2.427 1.063-1.15.943-1.583 2.278-2.043 3.692-.389 1.195-.79 2.43-1.663 3.382-.62.677-1.299.767-1.749.827-.323.043-.46.066-.64.21-2.875 2.304-3.213 3.893-3.886 7.06-.136.639-.283 1.331-.464 2.09-.715 3.004-.331 4.578-.021 5.844.234.959.455 1.865.091 2.96-3.711 11.131-2.7 20.707 3.182 30.137.82 1.314 1.992 1.759 3.352 2.274 1.272.483 2.588.982 3.581 2.241.209.266.31.574.392.821.025.075.046.15.075.21.966 1.305 1.015 2.108.98 2.814-.013.267-.024.498 1.359 1.535.585.438 1.431.606 2.25.767.931.184 1.895.375 2.617.984.743.627 1.17 1.606 1.583 2.553.307.704.625 1.432 1.013 1.843 2.149 2.276 4.485 2.356 7.804 2.22.406-.017.817-.024 1.23-.024 2.333 0 4.755.244 7.108.482 4.239.428 8.243.831 11.658-.075l.76-.197z" fill="#5FBFFD"/><path d="M201.2745 189.477c-2.354-.238-4.775-.482-7.108-.482-.413 0-.824.007-1.23.024-3.319.136-5.655.056-7.804-2.22-.388-.411-.706-1.139-1.013-1.843-.413-.947-.84-1.926-1.583-2.553-.722-.609-1.686-.8-2.617-.984-.819-.161-1.666-.329-2.25-.767-1.383-1.037-1.372-1.268-1.359-1.535.035-.706-.015-1.509-.98-2.814-.029-.06-.05-.135-.075-.21-.082-.247-.183-.554-.392-.821-.993-1.259-2.309-1.758-3.581-2.241-1.36-.515-2.532-.96-3.352-2.274-5.882-9.43-6.893-19.006-3.182-30.137.364-1.095.143-2.001-.091-2.96-.31-1.266-.695-2.84.021-5.844.181-.759.328-1.451.464-2.09.673-3.166 1.011-4.756 3.886-7.06.18-.144.317-.167.64-.21.45-.06 1.129-.15 1.749-.827.873-.952 1.274-2.187 1.663-3.381.46-1.415.893-2.75 2.043-3.693.679-.557 1.528-.803 2.427-1.063.801-.231 1.628-.471 2.382-.947.554-.349.932-.802 1.265-1.201.286-.344.533-.64.858-.849.334-.214 1.263-.581 2.083-.904 1.7-.672 2.488-1.009 2.886-1.415.521-.531.643-1.285.761-2.014.059-.37.134-.829.243-1.004 1.485-2.368 4.136-4.893 6.326-5.139 7.173-.807 9.263 1.214 10.649 2.55.897.864 1.915 1.844 3.676 1.17 1.349-.514 2.404-1.576 3.423-2.603 1.075-1.083 2.189-2.203 3.662-2.73 2.814-1.003 4.522-.124 6.504.891 1.231.631 2.502 1.284 4.09 1.528 1.297.199 2.316-.055 3.219-.278 1.405-.349 2.256-.56 3.87.916 1.817 1.661 2.346 4.588 2.235 6.774v.004c-.06 1.295-.324 2.568-.786 3.783l-.509 1.342 1.435.044c.456.014.811.594 1.029 1.079 1.452 3.238.788 10.578-.732 12.393-.066.079-.224.267-.336.236-1.324-.331-2.657-.044-3.748.807-1.396 1.09-2.263 2.977-2.263 4.925 0 3.246-2.092 4.47-2.172 4.516l-.439.238-.082.493c-.114.676-.448.828-1.719 1.07-1.126.215-3.223.615-3.031 3.234.235 3.23.008 6.371-3.152 7.483-.108-.04-.373-.308-.549-.486-.755-.765-2.015-2.045-4.395-1.275-6.166 1.996-6.543 5.739-6.219 7.793.801 5.074 7.347 10.489 11.855 11.075.643 2.803.176 9.925-2.111 13.355l-.193.291.024.348c.102 1.449-.055 1.558-.4 1.799-.733.513-1.492 1.188-1.988 3.259-.265 1.105-.361 1.874-.424 2.384-.023.177-.047.373-.069.493-.196.075-.611.182-1.016.285l-.76.197c-3.415.906-7.419.503-11.658.075zm12.926 1.71c1.879-.481 2.38-.682 2.607-2.506.062-.493.146-1.167.384-2.161.356-1.49.77-1.779 1.171-2.059.931-.65 1.375-1.327 1.288-3.276 2.718-4.434 2.984-12.931 1.941-15.544l-.256-.643h-.694c-3.519 0-9.932-5.133-10.605-9.401-.396-2.503 1.229-4.362 4.828-5.527 1.176-.379 1.627.076 2.309.767.55.556 1.379 1.396 2.604.976 5.161-1.77 4.763-7.229 4.593-9.561-.052-.711-.006-.812 1.374-1.075 1.035-.198 2.714-.518 3.247-2.284.878-.645 2.828-2.477 2.828-6.043 0-1.312.579-2.612 1.475-3.312.6-.469 1.274-.617 1.993-.435.303.076.779.12 1.306-.086.354-.139.73-.386 1.095-.822 2.16-2.58 2.737-10.735 1.029-14.543-.455-1.015-1.013-1.598-1.564-1.921.327-1.103.518-2.24.572-3.392.174-3.433-.909-6.568-2.897-8.385-2.425-2.217-4.189-1.779-5.744-1.393-.785.195-1.526.379-2.414.242-1.261-.194-2.334-.744-3.468-1.326-2.101-1.078-4.481-2.299-8.125-.998-1.912.683-3.248 2.028-4.427 3.215-.906.914-1.764 1.776-2.699 2.133-.487.186-.605.158-1.527-.731-1.561-1.505-4.175-4.024-12.298-3.111-3.409.383-6.526 4.005-7.831 6.085-.331.528-.437 1.185-.531 1.766-.048.298-.128.796-.174.882-.252.198-1.426.663-2.204.969-1.037.41-1.932.764-2.434 1.085-.592.379-.983.848-1.327 1.262-.271.324-.504.604-.785.781-.508.321-1.164.511-1.858.712-1.009.292-2.152.622-3.156 1.446-1.614 1.323-2.187 3.086-2.693 4.642-.336 1.032-.652 2.007-1.225 2.632-.107.117-.155.133-.51.181-.405.054-1.019.135-1.649.641-3.446 2.761-3.909 4.937-4.608 8.232-.133.624-.276 1.3-.453 2.041-.83 3.484-.361 5.403-.019 6.803.213.874.308 1.315.137 1.828-3.864 11.592-2.756 22.017 3.388 31.867 1.184 1.899 2.873 2.539 4.361 3.104 1.106.419 2.059.781 2.67 1.55.036.069.06.157.088.241.076.231.162.492.335.727.651.886.636 1.211.619 1.555-.055 1.095.247 1.827 2.175 3.273.958.717 2.085.94 3.08 1.137.708.139 1.376.272 1.693.54.379.319.709 1.076 1.029 1.807.377.866.767 1.76 1.4 2.43 2.734 2.893 5.735 3.007 9.376 2.859 2.56-.104 5.35.178 8.049.45 2.335.235 4.713.475 7.011.475 1.558 0 3.077-.122 4.522-.42.287-.059.575-.114.856-.188l.742-.193z" fill="#222"/><path d="M352.1075 197.4423c.761-2.218 1.175-3.508 1.175-3.508l-.412-.156c1.96-10.23 3.564-24.616 3.564-24.616-3.153-11.769-7.587-16.48-11.665-15.211-2.464.766-3.807 3.462-2.872 5.866.951 2.444 1.249 5.498 1.161 8.71-.036 1.316-.138 2.658-.285 3.997-.452-.74-.913-1.451-1.374-2.133-2.579-3.814-5.153-6.609-6.06-6.971-1.028-.412-2.087.516-1.817 1.589l3.66 14.522c.801 3.179 1.137 6.114 1.172 8.76l-.021-.008c-5.97 29.351-36.141 50.408-36.141 50.408-17.378 3.916-31.568 5.813-42.39 6.681-3.633.292-6.895.47-9.758.566l.98 30.349c5.309.057 11.104-.473 16.972-1.357 23.143-3.484 47.414-12.448 47.414-12.448 15.035-7.282 30.214-46.665 35.714-62.221l.211.184c.258-.872.516-1.888.772-3.003" fill="#C1DCF3"/><path d="M249.6514 242.8667c-.229-.189-5.674-4.676-13.258-8.317-10.15-4.873-19.226-5.787-26.247-2.639l.717 1.599c14.853-6.66 34.684 8.345 37.366 10.462l1.307 40.521c.529.078.838.118.874.122.556.067.953.573.886 1.13-.037.3-.208.541-.437.701l.494.06-.329-10.219-.979-30.349-.091-2.819-.303-.252zM215.1846 275.6835c1.585.862 3.227 1.658 4.893 2.398-1.713-.809-3.318-1.656-4.817-2.537l-.076.139z" fill="#FFF"/><path d="M251.296 285.7451c.067-.557-.329-1.063-.886-1.13-.036-.005-.344-.044-.874-.122-6.602-.97-48.425-8.063-47.581-31.721.021-.56-.418-1.03-.978-1.05-.577-.03-1.032.417-1.051.978-.319 8.969 4.958 16.744 15.335 22.844 1.499.882 3.103 1.728 4.816 2.538 1.527.722 3.115 1.423 4.809 2.086 12.432 4.865 25.153 6.447 25.28 6.462.041.006.082.008.123.008.212 0 .405-.078.57-.193.23-.159.401-.401.437-.7M241.5616 166.9741c-.144.138-3.561 3.354-7.943.361-.463-.317-1.095-.198-1.411.265-.317.463-.198 1.095.266 1.412 1.734 1.184 3.417 1.621 4.93 1.621 2.524 0 4.572-1.217 5.579-2.208.398-.392.403-1.031.014-1.431-.39-.4-1.034-.408-1.435-.02" fill="#222"/></g></svg>
