<?xml version="1.0" encoding="UTF-8" standalone="no"?>

<svg width="367" height="354" viewBox="0 0 367 354" xmlns="http://www.w3.org/2000/svg" xmlns:xlink="http://www.w3.org/1999/xlink"><defs><path id="a" d="M.6191542.08900245H24.644V11.8689182H.6191542z"/><path id="c" d="M0 353.204h366.644V0H0z"/></defs><g fill="none" fill-rule="evenodd"><path d="M16.8261 315.128s-9.917 12.442-12.531 13.415c-2.615.974 6.639 3.49 6.639 3.49l2.018-.226s-2.611-4.754 15.873-17.528l-8.79-1.877-3.209 2.726z" fill="#FFF"/><path d="M16.8261 315.128s-9.917 12.442-12.531 13.415c-2.615.974 6.639 3.49 6.639 3.49l2.018-.226s-2.611-4.754 15.873-17.528l-8.79-1.877-3.209 2.726z" stroke="#222" stroke-width=".914"/><path d="M2.0155 330.6104c.182 1.127.833 2.154 1.652 2.96 2.052 2.019 4.81 3.634 7.091 5.417 2.446 1.913 4.826 4.078 7.409 5.798 1.517 1.009 3.393-.621 2.615-2.268-.127-.271-.263-.535-.4-.791-1.866-3.498-6.471-10.051-8.725-13.312-1.145-1.657-3.117-4.396-5.471-3.623-2.175.715-4.393 3.088-4.21 5.49.009.111.021.22.039.329" fill="#222"/><path d="M255.4667 39.5347l11.105 9.521s-3.145 11.729-17.584 7.214c0 0 2.971-2.925-.212-11.406l6.691-5.329z" fill="#C1DCF3"/><path d="M257.8153 25.9766c2.362 8.449-2.571 17.213-11.02 19.576-8.45 2.363-13.456-4.674-15.818-13.123-2.362-8.449-1.187-15.111 7.262-17.474 8.449-2.362 17.214 2.572 19.576 11.021" fill="#C1DCF3"/><path d="M242.8759 34.3614c.603 2.155-.656 4.391-2.812 4.994-2.154.602-4.39-.656-4.993-2.811-.602-2.156.657-4.391 2.812-4.994 2.155-.603 4.39.656 4.993 2.811" fill="#A2C6E0"/><path d="M234.4394 30.4097c.15.539-.164 1.098-.702 1.249-.539.15-1.098-.165-1.249-.704-.151-.538.164-1.097.703-1.248.539-.151 1.098.164 1.248.703" fill="#222"/><path d="M240.4404 40.6988s2.707.153 3.445-2.727M230.4697 31.5201s-1.383 7.316.178 7.324c0 0 1.476.077 2.312-.646" stroke="#222" stroke-width=".999" stroke-linecap="round" stroke-linejoin="round"/><path d="M256.8398 39.481c7.619-9.797 16.872-15.784 10.896-26.532-1.704-3.066-3.573-5.065-6.909-5.388-2.709-6.451-11.226-8.469-20.11-6.052-13.326 3.624-20.722 10.551-15.209 22.384 1.643-.257 3.897-.714 5.065-1.022.585-.154.081-4.079.727-4.115.645-.035 1.353 3.821 2.18 3.992 1.84.374 8.785 3.949 8.785 3.949-.12-.279 1.748-2.935 4.251-2.244 2.504.692 2.16 5.231 1.711 7.453-.643 3.188 8.613 7.575 8.613 7.575" fill="#5FBFFD"/><path d="M256.8398 39.481c7.619-9.797 16.872-15.784 10.896-26.532-1.704-3.066-3.573-5.065-6.909-5.388-2.709-6.451-11.226-8.469-20.11-6.052-13.326 3.624-20.722 10.551-15.209 22.384 1.643-.257 3.897-.714 5.065-1.022.585-.154.081-4.079.727-4.115.645-.035 1.353 3.821 2.18 3.992 1.84.374 8.785 3.949 8.785 3.949-.12-.279 1.748-2.935 4.251-2.244 2.504.692 2.16 5.231 1.711 7.453-.643 3.188 8.613 7.575 8.613 7.575z" stroke="#222" stroke-width="1.042" stroke-linecap="round" stroke-linejoin="round"/><path d="M257.9276 9.002s-.544-2.721-5.986 0" stroke="#222" stroke-width=".993" stroke-linecap="round" stroke-linejoin="round"/><path d="M318.1405 352.4112s-76.852-201.862-159.944-49.348c0 0-49.139 104.893-120.44-3.363 0 0-14.108-27.9-35.79-35.79" stroke="#5FBFFD" stroke-width="1.163" stroke-linecap="round" stroke-linejoin="round"/><path d="M365.1991 210.7364c-62.123-44.16-135.628-27.017-211.547 141.785" stroke="#5FBFFD" stroke-width="1.366" stroke-linecap="round" stroke-linejoin="round"/><path d="M353.8085 214.1685s8.829 16.285 11.18 17.788c2.35 1.504-8.989-.02-8.989-.02l-1.924-.647s3.556-4.096-11.815-20.483l8.988.02 2.56 3.342z" fill="#FFF"/><path d="M353.8085 214.1685s8.829 16.285 11.18 17.788c2.35 1.504-8.989-.02-8.989-.02l-1.924-.647s3.556-4.096-11.815-20.483l8.988.02 2.56 3.342z" stroke="#222" stroke-width=".914"/><g transform="translate(342 227.204)"><mask id="b" fill="#fff"><use xlink:href="#a"/></mask><path d="M23.6591 8.1994c-.743.867-1.835 1.403-2.954 1.664-2.804.652-5.998.591-8.875.922-3.084.356-6.245.962-9.346 1.082-1.819.07-2.57-2.299-1.048-3.299.25-.164.504-.319.754-.466 3.417-2.011 10.765-5.199 14.389-6.806 1.84-.817 4.952-2.125 6.557-.238 1.482 1.745 2.137 4.927.728 6.88-.065.09-.134.177-.205.261" fill="#222" mask="url(#b)"/></g><path d="M276.4433 140.0401s19.936 40.422 28.449 46.8c0 0 36.293 30.407 46.145 35.949 0 0 8.569-1.963 8.963-3.624 0 0-24.01-38.702-38.345-44.566l-16.599-40.664-28.613 6.105z" fill="#75899D"/><path d="M253.2245 221.9708s2.455 7.825 1.602 11.222l-2.364 3.876 9.512-5.293.937-3.074s-4.026-1.719-2.319-11.972l-7.368 5.241z" fill="#FFF"/><path d="M253.2245 221.9708s2.455 7.825 1.602 11.222l-2.364 3.876 9.512-5.293.937-3.074s-4.026-1.719-2.319-11.972l-7.368 5.241z" stroke="#222" stroke-width=".914"/><path d="M265.4823 236.9176c-.848.8-2.014 1.226-3.178 1.369-2.917.36-6.153-.048-9.109-.022-3.169.028-6.443.301-9.604.087-1.855-.125-2.361-2.611-.707-3.461.272-.14.546-.27.816-.392 3.685-1.673 11.489-4.115 15.342-5.354 1.956-.63 5.256-1.622 6.681.468 1.317 1.931 1.638 5.231-.004 7.062-.076.085-.155.165-.237.243" fill="#222"/><path d="M246.9384 233.8516s3.82 1.479 4.219-.242c0 0-4.137-3.286-.176-3.622 0 0 4.419 3.157 5.344 2.299" stroke="#5FBFFD" stroke-width=".983" stroke-linecap="round" stroke-linejoin="round"/><path d="M149.0107 74.0084c1.737 1.301 4.2.947 5.501-.79 1.301-1.737.947-4.199-.789-5.501-1.737-1.3-4.2-.947-5.501.79-1.301 1.737-.947 4.2.789 5.501z" stroke="#5FBFFD" stroke-width=".914" stroke-linecap="round"/><path d="M159.3593 96.2281c3.024 2.275 7.32 1.669 9.596-1.355 2.275-3.024 1.669-7.32-1.355-9.596-3.024-2.275-7.32-1.669-9.595 1.355-2.276 3.024-1.669 7.32 1.354 9.596z" stroke="#FFF" stroke-width="1.127" stroke-linecap="round"/><path stroke="#5FBFFD" stroke-width=".914" stroke-linecap="round" d="M161.832 116.629l-5.055 12.031-7.891-10.393z"/><path stroke="#C1DCF3" stroke-width=".914" stroke-linecap="round" d="M145.4736 59.7271l-12.862-2.203 8.339-10.038z"/><path d="M186.3818 147.1724c-.933-.294-1.567-1.2-1.809-2.147-.242-.948-.157-1.944-.07-2.918.13-1.464.261-2.927.391-4.391-1.93 1.732-4.155 3.185-6.632 3.95-2.479.765-7.345 2.235-7.624-.187-.332-3.284 4.683-6.577 5.265-7.081 3.404-2.952 7.094-4.798 10.71-7.499 1.809 3.876 3.998 2.43 2.752 6.585-.296.987-3.523 13.518-2.983 13.688" fill="#FFF"/><path d="M186.3818 147.1724c-.933-.294-1.567-1.2-1.809-2.147-.242-.948-.157-1.944-.07-2.918.13-1.464.261-2.927.391-4.391-1.93 1.732-4.155 3.185-6.632 3.95-2.479.765-7.345 2.235-7.624-.187-.332-3.284 4.683-6.577 5.265-7.081 3.404-2.952 7.094-4.798 10.71-7.499 1.809 3.876 3.998 2.43 2.752 6.585-.296.987-3.523 13.518-2.983 13.688z" stroke="#222" stroke-width=".914" stroke-linecap="round" stroke-linejoin="round"/><path d="M331.1903 136.7603c.895.138 1.794-.353 2.383-1.04.59-.688.928-1.549 1.256-2.393.493-1.269.985-2.537 1.478-3.805.891 2.23 2.141 4.349 3.884 6.001 1.742 1.652 5.179 4.87 6.404 2.973 1.624-2.589-1.187-7.381-1.463-8.038-1.614-3.848-3.92-6.895-5.813-10.621-3.092 2.475-4.316.376-4.986 4.336-.16.941-2.624 12.667-3.143 12.587" fill="#C1DCF3"/><path d="M256.8183 45.8321c-3.755.511-10.049 6.003-10.049 6.003l-14.891 19.33c-11.945 13.19-16.784 31.898-44.723 51.535-2.758 1.938 5.98 7.973 5.98 7.973s10.03 1.75 31.957-24.164c3.387-4.003 17.936-13.546 17.936-13.546s4.494 8.809 7.315 19.784c2.821 10.975-4.66 15.417-4.66 15.417s35.032 13.23 47.662 7.046c4.3-2.106 7.451-.578 11.288.851 0 0-.007-11.9-6.91-29.201-3.086-7.736-11.008-33.455-11.008-33.455s46.354 26.044 44.36 47.971c-.168 1.855 7.973-3.987 7.973-3.987s1.994-25.914-27.907-53.822c-.422-.393-1.186-1.254-1.142-1.303-3.646-3.312-8.013-5.938-12.565-7.995-18.547-8.956-34.937-9.209-40.616-8.437" fill="#FCF36A"/><path d="M247.9657 64.5279s11.52 6.554-2.052 26.167" stroke="#FFF" stroke-width=".914" stroke-linecap="round" stroke-linejoin="round"/><path d="M237.5937 151.7296c14.868 8.8 45.982 9.441 45.982 9.441 21.115-2.098 21.211-26.931 21.211-26.931s-29.295-2.839-35.665-2.865c-6.37-.026-40.941-3.045-40.941-3.045s-19.037 1.221-9.247 20.448l33.511 74.549 8.734-4.474s.406-67.789-23.585-67.123" fill="#FFF"/><path d="M237.5937 151.7296c14.868 8.8 45.982 9.441 45.982 9.441 21.115-2.098 21.211-26.931 21.211-26.931s-29.295-2.839-35.665-2.865c-6.37-.026-40.941-3.045-40.941-3.045s-19.037 1.221-9.247 20.448l33.511 74.549 8.734-4.474s.406-67.789-23.585-67.123" stroke="#75899D" stroke-width=".914"/><path d="M90.1493 243.9224s-18.702 37.92-26.688 43.903c0 0-34.046 28.524-43.288 33.723 0 0-8.039-1.842-8.408-3.399 0 0 22.524-36.307 35.97-41.808l15.572-38.146 26.842 5.727z" fill="#498DC9"/><path d="M168.9902 256.9727s6.034 5.554 9.472 6.229l4.513-.488-8.84 6.352-3.18-.46s.159-4.377-9.845-7.197l7.88-4.436z" fill="#FFF"/><path d="M168.9902 256.9727s6.034 5.554 9.472 6.229l4.513-.488-8.84 6.352-3.18-.46s.159-4.377-9.845-7.197l7.88-4.436z" stroke="#222" stroke-width=".914"/><path d="M177.2157 274.5357c1.139-.247 2.149-.969 2.926-1.848 1.945-2.203 3.437-5.104 5.13-7.528 1.813-2.599 3.889-5.145 5.499-7.874.944-1.601-.821-3.423-2.456-2.54-.27.146-.532.299-.786.452-3.462 2.095-9.886 7.153-13.086 9.631-1.624 1.259-4.309 3.421-3.389 5.777.849 2.178 3.391 4.308 5.828 3.988.112-.015.224-.034.334-.058" fill="#222"/><path d="M185.1659 257.5045s-.939 3.987-2.584 3.343c0 0-.373-5.269-2.889-2.192 0 0 .108 5.431-1.123 5.708" stroke="#5FBFFD" stroke-width=".983" stroke-linecap="round" stroke-linejoin="round"/><path d="M165.0146 144.8668c.895.395 1.426 1.365 1.562 2.333.136.969-.058 1.949-.251 2.908-.29 1.44-.581 2.881-.872 4.322 2.109-1.51 4.48-2.71 7.027-3.198 2.547-.488 7.546-1.414 7.556 1.024-.03 3.3-5.376 6.023-6.01 6.46-3.708 2.56-7.579 3.988-11.471 6.276-1.371-4.052-3.706-2.855-2.011-6.847.404-.949 4.988-13.049 4.47-13.278" fill="#FFF"/><path d="M165.0146 144.8668c.895.395 1.426 1.365 1.562 2.333.136.969-.058 1.949-.251 2.908-.29 1.44-.581 2.881-.872 4.322 2.109-1.51 4.48-2.71 7.027-3.198 2.547-.488 7.546-1.414 7.556 1.024-.03 3.3-5.376 6.023-6.01 6.46-3.708 2.56-7.579 3.988-11.471 6.276-1.371-4.052-3.706-2.855-2.011-6.847.404-.949 4.988-13.049 4.47-13.278z" stroke="#222" stroke-width=".914" stroke-linecap="round" stroke-linejoin="round"/><path d="M56.6034 238.1959c-.67.609-1.691.696-2.562.448-.871-.248-1.628-.781-2.368-1.303-1.11-.786-2.221-1.572-3.332-2.358.488 2.351.615 4.808.073 7.148-.542 2.339-1.633 6.919-3.702 6.013-2.783-1.263-3.082-6.811-3.214-7.511-.778-4.099-.536-7.913-1.013-12.065 3.945.357 3.807-2.068 6.552.864.652.698 9.177 9.117 9.566 8.764M239.7704 149.5504c-.078.575.188 1.086.595 1.142.406.055.8-.367.878-.942.079-.575-.189-1.087-.595-1.142-.406-.055-.799.366-.878.942M248.0683 150.6773c-.078.576.189 1.087.596 1.142.406.055.799-.367.878-.942.078-.575-.189-1.086-.595-1.142-.406-.055-.8.367-.879.942M256.3671 151.8048c-.078.575.187 1.086.595 1.142.407.055.8-.367.878-.942.078-.575-.188-1.087-.595-1.142-.407-.055-.8.367-.878.942M266.1376 153.1319c.078-.575-.188-1.086-.595-1.142-.406-.055-.8.367-.878.942-.078.575.189 1.087.595 1.142.406.055.8-.367.878-.942M274.4355 154.2594c.078-.575-.187-1.087-.595-1.142-.406-.055-.8.367-.878.942-.078.575.189 1.087.595 1.142.407.055.8-.367.878-.942M282.7343 155.3863c.078-.575-.189-1.086-.596-1.142-.406-.055-.799.367-.877.942-.078.575.188 1.087.595 1.142.406.055.8-.366.878-.942" fill="#C1DCF3"/><path d="M240.3495 171.5665c-13.265 16.937-39.817 26.176-68.435 21.757-38.039-5.873-65.322-33.652-60.937-62.046" stroke="#C1DCF3" stroke-width=".914" stroke-linecap="round"/><path d="M180.6034 78.0885c19.044 10.299 32.422 34.596 32.419 62.928-.005 37.658-23.648 68.184-52.811 68.181" stroke="#5FBFFD" stroke-width=".914" stroke-linecap="round"/><mask id="d" fill="#fff"><use xlink:href="#c"/></mask><path stroke="#C1DCF3" stroke-width=".914" stroke-linecap="round" mask="url(#d)" d="M108.364 131.018h5.376v-5.375h-5.376zM238.01 171.026h5.376v-5.375h-5.376z"/><path stroke="#5FBFFD" stroke-width=".914" stroke-linecap="round" mask="url(#d)" d="M174.54 80.168h5.375v-5.375h-5.375zM154.123 211.885h5.375v-5.375h-5.375z"/><path d="M48.0282 104.4893c2.756-6.305 9.215-9.57 14.428-7.292 5.212 2.278 7.203 9.236 4.448 15.541-2.756 6.305-9.216 9.57-14.428 7.293-5.212-2.279-7.204-9.237-4.448-15.542z" stroke="#5FBFFD" stroke-width=".954" mask="url(#d)"/><path d="M51.3241 100.0235c2.756-6.306 7.853-10.166 11.384-8.623 3.531 1.544 4.16 7.906 1.404 14.212-2.756 6.305-7.852 10.165-11.384 8.622-3.531-1.544-4.16-7.906-1.404-14.211z" stroke="#5FBFFD" stroke-width=".954" mask="url(#d)"/><path d="M153.9618 161.3375l-.407 1.001c-.032.08-3.406 7.939-17.128 5.224-5.457-1.079-12.133-6.375-18.589-11.496-4.325-3.431-8.798-6.979-12.883-9.229l-6.822-2.625-.107-.01c-.295-.029-7.377-.661-16.616 1.564-9.459 2.278-12.164 4.549-21.77 15.123-15.042 16.559-21.347 62.138-21.347 62.528 0 1.558.84 2.57 2.304 2.777 1.379.193 3.361-.298 5.894-1.462 1.062-.489 3.551-1.692 3.725-2.298l.035-.103c.79-2.321 3.597-10.835 6.565-23.077 6.535-17.468 10.267-21.526 11.663-22.466-.48 5.157-2.689 27.126-6.044 33.435-3.459 6.503-6.954 14.296-6.659 22.785l.031.87.861-.121c3.714-.517 35.981-5.096 39.858-8.532l11.983-4.886.849-.35-.477-.785c-.025-.042-2.525-4.297-1.877-15.141.57-9.544 1.497-27.978 1.765-33.33 2.632 1.992 8.978 6.678 12.748 8.495 13.18 6.353 23.422 3.179 29.692-.604 6.769-4.082 10.373-9.585 10.523-9.817l.374-.579-8.144-6.891z" fill="#5FBFFD" mask="url(#d)"/><path d="M73.0468 170.8429s4.37-7.086 3.533-13.329c0 0-.194-1.671-1.445-2.447-.417-.259-.951-.417-1.635-.382" stroke="#FFF" stroke-width=".914" stroke-linecap="round" stroke-linejoin="round" mask="url(#d)"/><g mask="url(#d)"><path d="M130.8661 230.9884c-12.066 11.263-49.387 24.26-49.387 24.26-19.881 1.66-24.64-22.713-24.64-22.713s26.501-7.951 32.375-9.099c5.874-1.148 37.21-10.206 37.21-10.206s7.059-3.531 17.298 10.547l26.463 30.813-4.633 10.42s-56.953-30.448-34.686-34.022" fill="#FFF"/><path d="M130.8661 230.9884c-12.066 11.263-49.387 24.26-49.387 24.26-19.881 1.66-24.64-22.713-24.64-22.713s26.501-7.951 32.375-9.099c5.874-1.148 37.21-10.206 37.21-10.206s7.059-3.531 17.298 10.547l26.463 30.813-4.633 10.42s-56.953-30.448-34.686-34.022" stroke="#498DC9" stroke-width=".914"/></g><path d="M118.4501 228.7139c.192-.072.325-.247.386-.472.023-.088.025-.189.025-.289l-1.277.396c.064.086.141.152.219.213.205.16.438.23.647.152M110.6015 231.6339c.318-.118.461-.521.392-.963-.014-.087-.027-.174-.058-.263l-1.41.437c.006.021.006.041.014.062.025.069.066.123.099.184.233.424.627.668.963.543M102.7529 234.5538c.386-.143.532-.701.33-1.245-.022-.06-.059-.106-.087-.16-.045-.085-.089-.168-.144-.237l-1.239.384c-.003.089.004.179.022.274.014.086.023.171.056.257.202.545.678.87 1.062.727M86.3222 238.4229c-.385.143-.532.7-.33 1.245.203.544.679.869 1.063.726.385-.143.533-.701.33-1.245-.202-.544-.678-.87-1.063-.726M78.4736 241.3429c-.384.143-.532.7-.329 1.244.202.545.678.87 1.062.727.385-.143.533-.7.33-1.245-.203-.544-.678-.869-1.063-.726M70.6249 244.2628c-.385.143-.532.7-.33 1.245.203.544.679.869 1.063.726.384-.143.533-.7.329-1.245-.202-.544-.677-.869-1.062-.726M126.5654 225.5665l-.668.207c.136.048.272.068.401.021.114-.042.198-.126.267-.228M93.9413 235.672c-.074.089-.127.201-.158.33-.052.22-.039.483.058.745.203.545.678.87 1.063.727.385-.143.532-.7.33-1.245-.088-.237-.232-.421-.395-.554-.105-.087-.214-.15-.33-.179l-.568.176zM81.9062 134.2569l-2.979 13.268s13.805 6.478 17.499 2.005c0 0-3.548-6.473-6.08-15.05l-8.44-.223z" fill="#C1DCF3" mask="url(#d)"/><path d="M71.997 124.9664c3.159 8.063 12.257 12.039 20.32 8.88 8.064-3.158 7.827-11.68 4.668-19.743-3.158-8.064-8.044-12.616-16.107-9.457-8.064 3.159-12.039 12.257-8.881 20.32" fill="#C1DCF3" mask="url(#d)"/><path d="M88.7558 122.6969c.806 2.057 3.126 3.071 5.184 2.265 2.056-.806 3.07-3.126 2.264-5.183-.805-2.057-3.126-3.071-5.182-2.265-2.058.806-3.072 3.126-2.266 5.183" fill="#A2C6E0" mask="url(#d)"/><path d="M93.0566 114.5684c.201.514.781.768 1.296.566.514-.201.767-.781.566-1.295-.201-.515-.782-.769-1.296-.567-.514.202-.767.782-.566 1.296" fill="#222" mask="url(#d)"/><path d="M94.4413 126.2447s-2.042 1.729-4.336-.102M96.8456 113.0841s5.437 4.945 4.212 5.879c0 0-1.117.938-2.206.865" stroke="#222" stroke-width=".954" stroke-linecap="round" stroke-linejoin="round" mask="url(#d)"/><path d="M91.497 102.3634s-2.671-7.621-14.019-5.568c-4.594.832-12.274 4.038-18.91 8.468 0 0-8.861 25.573 21.81 30.499 0 0 6.179-8.168 4.318-11.373 0 0-2.143-.491-3.517-1.596-2.469-1.986-2.121-6.62 1.015-6.336 0 0 9.715-5.319 9.303-14.094" fill="#222" mask="url(#d)"/><path d="M78.539 145.0611s.603 8.527 16.766 5.292" stroke="#498DC9" stroke-linecap="round" stroke-linejoin="round" mask="url(#d)"/><path d="M62.4687 104.086c-.764.07-1.717-.534-2.462-.755-.865-.258-1.743-.459-2.621-.657-2.496-.565-5.002-.823-7.517-.721-4.717.193-9.042 1.688-12.479 4.522-3.796 3.13-6.367 7.48-8.009 11.991-1.758 4.828-2.035 9.812-2.497 14.931-.439 4.878-1.89 9.523-4.673 13.537-2.803 4.044-6.985 6.132-11.216 8.669-4.33 2.596-8.031 6.149-9.749 10.813-1.603 4.354-1.504 9.105-.578 13.76.866 4.356 2.482 8.372 5.812 11.772 3.581 3.658 8.347 5.89 13.436 5.019 7.375-1.261 12.179-7.769 14.835-13.81 1.537-3.494 2.432-7.215 2.695-11.071.35-5.143-.75-10.244-1.165-15.403-.195-2.421-.165-4.815.161-7.187.315-2.302.955-4.415 3.146-5.606 2.318-1.26 4.517-2.332 6.435-4.117 1.841-1.712 3.364-3.726 4.399-5.984 2.014-4.394 2.53-9.413 3.515-14.137.803-3.851 1.721-7.943 4.167-11.107 1.021-1.32 2.711-3.155 4.651-2.895l-.286-1.564z" fill="#222" mask="url(#d)"/><path d="M65.7372 99.6998c2.63 3.213 3.233 8.31 1.167 13.039-1.723 3.94-4.892 6.693-8.299 7.648" stroke="#FFF" stroke-width=".954" mask="url(#d)"/><path d="M65.663 100.2613c-.243 1.71-.757 3.533-1.551 5.351-1.622 3.711-4.054 6.575-6.502 7.989" stroke="#FFF" stroke-width=".954" mask="url(#d)"/></g></svg>
