<svg width="285" height="326" viewBox="0 0 285 326" xmlns="http://www.w3.org/2000/svg"><g fill="none" fill-rule="evenodd"><path d="M135.2909 168.5836l-11.098 32.909s23.264 10.309 36.97 2.821c0 0-4.95-14.289-8.085-33.076l-17.787-2.654z" fill="#C1DCF3"/><path d="M147.3006 90.1183c-2.112 1.497-4.215 3.659-6.054 6.371" stroke="#222" stroke-width="1.949"/><path d="M113.1786 155.8522c7.872 16.589 27.701 23.655 44.29 15.783 16.589-7.872 14.831-25.861 6.959-42.45-7.873-16.588-18.878-25.496-35.467-17.624-16.589 7.873-23.654 27.702-15.782 44.291" fill="#C1DCF3"/><path d="M148.2889 148.5777c2.008 4.231 7.066 6.034 11.298 4.025 4.231-2.007 6.033-7.066 4.025-11.297-2.008-4.231-7.066-6.034-11.298-4.026-4.23 2.008-6.033 7.067-4.025 11.298" fill="#A2C6E0"/><path d="M156.1854 130.7496c.502 1.058 1.767 1.509 2.824 1.007 1.058-.503 1.509-1.767 1.007-2.825-.502-1.057-1.767-1.508-2.824-1.006-1.059.502-1.509 1.766-1.007 2.824" fill="#222"/><path d="M163.9803 127.0504s12.23 9.657 9.778 11.813c0 0-2.225 2.149-4.54 2.154" stroke="#222" stroke-width="2.022" stroke-linecap="round" stroke-linejoin="round"/><path d="M161.5917 154.7013s-4.063 3.998-9.225.472" stroke="#222" stroke-width="2.031" stroke-linecap="round" stroke-linejoin="round"/><path d="M191.9071 321.9601l-2.435-36.258s0-62.726-32.076-79.121c0 0-37.06-12.368-37.773-6.665 0 0-24.67 19.587-19.202 122.005l91.486.039" fill="#FCF36A"/><path stroke="#C1DCF3" stroke-width="2.031" d="M65.3085 110.9742l-18.795-.05-45.495-.121.228-86.095 80.854.215"/><path stroke="#C1DCF3" stroke-width="2.031" stroke-linecap="round" stroke-linejoin="round" d="M147.7059 36.3336h-78.632v38.993l6.298-6.803 18.786-.261"/><path d="M151.4286 52.7072c-14.632-17.205-32.998 7.327-34.942-.591-.889-3.618 3.909-6.122 5.172-2.689 2.25 6.115-29.552 14.099-32.941 4.856-1.009-2.752 2.108-5.719 4.167-3.93 3.422 2.975-5.107 11.568-8.536 9.815" stroke="#75899D" stroke-width="2.031" stroke-linecap="round" stroke-linejoin="round"/><path d="M33.5858 56.965c-.088.615-.658 1.042-1.273.955-.615-.088-1.042-.658-.955-1.273.088-.615.659-1.042 1.274-.954.614.087 1.042.657.954 1.272M46.5155 56.965c-.088.615-.658 1.042-1.272.955-.616-.088-1.043-.658-.956-1.273.089-.615.659-1.042 1.274-.954.615.087 1.042.657.954 1.272" fill="#222"/><path d="M21.2362 47.8937s2.155 8.912 31.808 0c0 0 4.631-1.72 4.95-4.777 0 0-7.918 1.041-18.154.107 0 0-25.465-.678-18.604 4.67" fill="#FCF36A"/><path d="M46.245 48.1793c8.085-2.977 13.288-9.06 11.621-13.588M48.8055 40.7267c4.402-1.266 9.04-.508 10.358 1.693 1.318 2.202-1.183 5.014-5.587 6.28M22.4354 46.4747s-2.959 8.272 21.313 3.489M46.0301 69.1324s-1.129 2.722-3.775 2.533" stroke="#222" stroke-width="1.077" stroke-linecap="round" stroke-linejoin="round"/><path d="M39.7635 55.1295s-4.678 6.816-3.096 7.523c0 0 1.466.739 2.64.378" stroke="#222" stroke-width="1.073" stroke-linecap="round" stroke-linejoin="round"/><path d="M49.9022 88.0143l-.131.008c-.002.032-.003.063-.006.094.045-.037.092-.064.137-.102" fill="#5FBFFD"/><path d="M76.0956 100.4132c-6.524-11.129-17.582-14.643-25.798-15.628l.995 2.983c0 .001 0 .002.001.003l.005.015c.008.023.004.045.008.068.01.044.019.087.018.132-.002.034-.014.064-.022.096-.01.036-.014.071-.029.104-.017.035-.043.063-.067.094-.017.023-.028.049-.049.07-.004.003-.009.006-.013.01 0 .001-.002.001-.002.002-2.832 2.65-6.172 3.476-9.229 3.476-4.997 0-9.243-2.201-9.311-2.237-.124-.065-.208-.174-.251-.296-.707-.214-.073-.818 1.074-1.523.154-.481.332-1.128.528-1.991-20.794 2.861-25.404 14.122-25.452 14.245l-.067.124-2.883 3.947 74.448-.207-3.904-3.487z" fill="#5FBFFD"/><path d="M40.9833 90.7306c-.685-.064-1.409-.145-2.202-.254.7.123 1.438.212 2.202.254" fill="#5FBFFD"/><path d="M8.5018 100.0358c.048-.123 4.658-11.383 25.452-14.245.077-.339.157-.713.239-1.124-21.128 2.742-26.215 13.812-26.669 14.912l-3.077 4.212.871.636.234-.32 2.883-3.947.067-.124zM50.1639 87.7862c-.087.077-.174.155-.262.228-.045.038-.092.065-.136.102-2.745 2.227-5.931 2.772-8.783 2.614-.763-.042-1.502-.131-2.202-.254-2.082-.367-3.816-1.007-4.799-1.424-.531-.227-.845-.388-.873-.402 0 0-.002-.001-.003-.001-.262-.139-.59-.039-.728.224-.073.14-.076.295-.026.432.042.122.126.231.25.296.069.036 4.315 2.237 9.312 2.237 3.057 0 6.396-.826 9.229-3.476 0-.001.001-.001.001-.002.004-.004.009-.007.013-.011.022-.02.032-.046.05-.069.023-.031.05-.059.066-.094.016-.033.02-.068.03-.104.007-.032.019-.062.021-.096.002-.045-.008-.088-.017-.132-.004-.023 0-.046-.008-.068l-.005-.015c-.001-.001-.001-.002-.001-.003l-.995-2.983-3.039-9.116c-.094-.282-.405-.433-.681-.341-.236.079-.371.304-.358.54.003.047.002.094.017.142l3.927 11.776z" fill="#222"/><path d="M37.3973 56.8058c0 2.957-2.396 5.354-5.353 5.354s-5.353-2.397-5.353-5.354c0-2.957 2.396-5.354 5.353-5.354s5.353 2.397 5.353 5.354zM52.2879 56.8058c0 2.957-2.397 5.354-5.354 5.354-2.957 0-5.353-2.397-5.353-5.354 0-2.957 2.396-5.354 5.353-5.354s5.354 2.397 5.354 5.354zM36.745 57.4962s3.001-3.106 5.853 0" stroke="#222" stroke-width="1.077" stroke-linecap="round" stroke-linejoin="round"/><path fill="#FFF" d="M232.536 122.3077l-37.249-13.753.288-83.307 72.459 26.753-.168 48.577"/><path stroke="#C1DCF3" stroke-width="2.031" stroke-linecap="round" stroke-linejoin="round" d="M232.536 122.3077l-37.249-13.753.288-83.307 72.459 26.753-.168 48.577"/><path fill="#FFF" d="M267.8661 100.5773l.168-48.576-72.459-26.753-.288 83.307 37.249 13.752 35.769 11.697z"/><path fill="#FFF" d="M272.9256 115.2814l-.097 27.78-33.303-12.119"/><path stroke="#C1DCF3" stroke-width="2.031" stroke-linecap="round" stroke-linejoin="round" d="M272.9256 115.2814l-.097 27.78-33.303-12.119M204.202 42.153l45.925 16.956M204.6727 53.8507l32.657 12.058M204.6307 65.9083l54.089 19.971M204.0809 77.2296l54.089 19.97M204.5516 88.9274l32.657 12.058M209.9256 102.339l15.308 5.652"/><path d="M121.5389 199.8404s25.659 13.848 43.247 1.972" stroke="#222" stroke-width="2.472" stroke-linecap="round" stroke-linejoin="round"/><path d="M274.2157 115.2858c7.005 8.276 5.974 20.664-2.303 27.668-8.276 7.004-20.664 5.973-27.668-2.304-7.004-8.276-5.972-20.663 2.304-27.667 8.276-7.005 20.663-5.973 27.667 2.303zM264.6786 149.0758l5.398 23.697" stroke="#5FBFFD" stroke-width="2.031" stroke-linecap="round" stroke-linejoin="round"/><path d="M256.6493 125.6993c0 1.917-1.555 3.472-3.472 3.472-1.918 0-3.471-1.555-3.471-3.472s1.553-3.472 3.471-3.472c1.917 0 3.472 1.555 3.472 3.472z" stroke="#5FBFFD" stroke-width="2.031" stroke-linecap="round" stroke-linejoin="round"/><path d="M15.9735 324.8165h225.416" stroke="#5FBFFD" stroke-width="2.031"/><path d="M213.9296 157.3126c3.854 2.9 9.329 2.127 12.229-1.727 2.9-3.854 2.127-9.329-1.727-12.229-3.854-2.9-9.329-2.127-12.229 1.727-2.9 3.854-2.127 9.329 1.727 12.229z" stroke="#FFF" stroke-width="2.031" stroke-linecap="round"/><path stroke="#5FBFFD" stroke-width="2.031" stroke-linecap="round" d="M62.1053 136.1026l-16.074 12.576-2.854-20.209zM171.2665 26.8571l8.41-17.088-17.088-8.409-8.409 17.088z"/><path d="M156.0253 95.2887c-.065 1.412-.35 2.778-.851 4.099 4.318.131 3.277 16.622-.318 15.723-2.708-.676-4.739 2.032-4.739 4.739 0 3.947-2.708 5.416-2.708 5.416-.506 3.04-4.981.749-4.738 4.062.2 2.744.308 7.073-3.905 8.518-1.487.51-1.868-2.729-4.896-1.749-13.046 4.223 0 16.924 6.093 16.924.959 2.404.676 10.831-2.032 14.893.27 3.853-1.47 1.428-2.414 5.368-.929 3.882.355 3.219-3.001 4.11-5.958 1.58-13.582-.623-20.217-.35-3.341.137-6.097.098-8.589-2.54-1.067-1.129-1.437-3.408-2.513-4.317-1.082-.913-3.336-.602-4.82-1.714-3.252-2.438-.617-1.941-2.583-4.615-.162-.218-.227-.713-.414-.95-1.79-2.27-5.153-1.652-6.997-4.607-6.67-10.694-6.64-20.936-3.285-31.002.677-2.031-1.385-3.301-.094-8.717 1.097-4.603.929-6.686 4.706-9.712.854-.685 1.567-.157 2.274-.93 1.658-1.81 1.364-5.166 3.812-7.173 1.501-1.232 3.476-1.178 4.912-2.084.845-.534 1.212-1.467 2.117-2.047.922-.59 4.263-1.637 4.79-2.174.55-.56.395-2.092.868-2.846 1.427-2.274 4.28-5.297 7.078-5.612 12.036-1.353 10.902 4.991 14.075 3.782 2.461-.938 3.947-4.213 7.106-5.341 5.054-1.805 7.156 1.765 11.094 2.371 2.999.463 4.449-2.007 7.623.895 2.018 1.845 2.699 4.963 2.566 7.58" fill="#5FBFFD"/><path d="M156.0253 95.2887c-.065 1.412-.35 2.778-.851 4.099 4.318.131 3.277 16.622-.318 15.723-2.708-.676-4.739 2.032-4.739 4.739 0 3.947-2.708 5.416-2.708 5.416-.506 3.04-4.981.749-4.738 4.062.2 2.744.308 7.073-3.905 8.518-1.487.51-1.868-2.729-4.896-1.749-13.046 4.223 0 16.924 6.093 16.924.959 2.404.676 10.831-2.032 14.893.27 3.853-1.47 1.428-2.414 5.368-.929 3.882.355 3.219-3.001 4.11-5.958 1.58-13.582-.623-20.217-.35-3.341.137-6.097.098-8.589-2.54-1.067-1.129-1.437-3.408-2.513-4.317-1.082-.913-3.336-.602-4.82-1.714-3.252-2.438-.617-1.941-2.583-4.615-.162-.218-.227-.713-.414-.95-1.79-2.27-5.153-1.652-6.997-4.607-6.67-10.694-6.64-20.936-3.285-31.002.677-2.031-1.385-3.301-.094-8.717 1.097-4.603.929-6.686 4.706-9.712.854-.685 1.567-.157 2.274-.93 1.658-1.81 1.364-5.166 3.812-7.173 1.501-1.232 3.476-1.178 4.912-2.084.845-.534 1.212-1.467 2.117-2.047.922-.59 4.263-1.637 4.79-2.174.55-.56.395-2.092.868-2.846 1.427-2.274 4.28-5.297 7.078-5.612 12.036-1.353 10.902 4.991 14.075 3.782 2.461-.938 3.947-4.213 7.106-5.341 5.054-1.805 7.156 1.765 11.094 2.371 2.999.463 4.449-2.007 7.623.895 2.018 1.845 2.699 4.963 2.566 7.58z" stroke="#222" stroke-width="2.046"/><path d="M268.1424 190.2594c4.171-8.889-7.026-26.544-9.212-27.69-.98-.514-2.13.301-1.97 1.397l2.159 14.819" fill="#C1DCF3"/><path d="M273.3495 194.1446c5.522-7.194 10.989-18.547 10.989-18.547 1.268-12.118-1.185-18.104-5.448-18.379-2.574-.166-4.794 1.87-4.781 4.45.052 10.623-13.447 26.749-13.447 26.749" fill="#C1DCF3"/><path d="M259.119 178.7853c2.159 14.819-4.831 23.588-4.831 23.588l6.681 13.824c4.889-8.849 12.38-22.053 12.38-22.053l-14.23-15.359z" fill="#C1DCF3"/><path d="M150.3758 234.0655s23.229 5.36 67.899 0c0 0 32.163-17.868 41.096-46.457l14.295 7.147s-25.016 57.178-44.67 64.325c0 0-62.538 16.082-82.193 1.787l3.573-26.802z" fill="#C1DCF3"/><g><path d="M118.826 219.7101c16.575-7.431 38.587 10.831 38.587 10.831l1.353 41.971s-19.8-2.411-34.841-10.598" fill="#FCF36A"/><path d="M118.826 219.7101c16.575-7.431 38.587 10.831 38.587 10.831l1.353 41.971s-19.8-2.411-34.841-10.598" stroke="#FFF" stroke-width="1.752"/></g><path d="M109.2616 239.7364c-.955 26.781 49.348 32.886 49.348 32.886" stroke="#222" stroke-width="2.031" stroke-linecap="round" stroke-linejoin="round"/></g></svg>