<svg width="434" height="353" viewBox="0 0 434 353" xmlns="http://www.w3.org/2000/svg" xmlns:xlink="http://www.w3.org/1999/xlink"><defs><path d="M.051 158.137c0 87.187 70.679 157.866 157.866 157.866 87.187 0 157.867-70.679 157.867-157.866C315.784 70.949 245.104.27 157.917.27 70.73.27.051 70.949.051 158.137" id="a"/><path d="M.051 158.137c0 87.187 70.679 157.866 157.866 157.866 87.187 0 157.867-70.679 157.867-157.866C315.784 70.949 245.104.27 157.917.27 70.73.27.051 70.949.051 158.137" id="c"/><path d="M.051 158.137c0 87.187 70.679 157.866 157.866 157.866 87.187 0 157.867-70.679 157.867-157.866C315.784 70.949 245.104.27 157.917.27 70.73.27.051 70.949.051 158.137" id="e"/><path d="M.051 158.137c0 87.187 70.679 157.866 157.866 157.866 87.187 0 157.867-70.679 157.867-157.866C315.784 70.949 245.104.27 157.917.27 70.73.27.051 70.949.051 158.137" id="g"/><path d="M.051 158.137c0 87.187 70.679 157.866 157.866 157.866 87.187 0 157.867-70.679 157.867-157.866C315.784 70.949 245.104.27 157.917.27 70.73.27.051 70.949.051 158.137" id="i"/><path d="M.051 158.137c0 87.187 70.679 157.866 157.866 157.866 87.187 0 157.867-70.679 157.867-157.866C315.784 70.949 245.104.27 157.917.27 70.73.27.051 70.949.051 158.137" id="k"/><path d="M.051 158.137c0 87.187 70.679 157.866 157.866 157.866 87.187 0 157.867-70.679 157.867-157.866C315.784 70.949 245.104.27 157.917.27 70.73.27.051 70.949.051 158.137" id="m"/><path d="M.051 158.137c0 87.187 70.679 157.866 157.866 157.866 87.187 0 157.867-70.679 157.867-157.866C315.784 70.949 245.104.27 157.917.27 70.73.27.051 70.949.051 158.137" id="o"/><path d="M.051 158.137c0 87.187 70.679 157.866 157.866 157.866 87.187 0 157.867-70.679 157.867-157.866C315.784 70.949 245.104.27 157.917.27 70.73.27.051 70.949.051 158.137" id="q"/><path d="M.051 158.137c0 87.187 70.679 157.866 157.866 157.866 87.187 0 157.867-70.679 157.867-157.866C315.784 70.949 245.104.27 157.917.27 70.73.27.051 70.949.051 158.137" id="s"/><path d="M.051 158.137c0 87.187 70.679 157.866 157.866 157.866 87.187 0 157.867-70.679 157.867-157.866C315.784 70.949 245.104.27 157.917.27 70.73.27.051 70.949.051 158.137" id="u"/><path d="M.051 158.137c0 87.187 70.679 157.866 157.866 157.866 87.187 0 157.867-70.679 157.867-157.866C315.784 70.949 245.104.27 157.917.27 70.73.27.051 70.949.051 158.137" id="w"/><path d="M.051 158.137c0 87.187 70.679 157.866 157.866 157.866 87.187 0 157.867-70.679 157.867-157.866C315.784 70.949 245.104.27 157.917.27 70.73.27.051 70.949.051 158.137z" id="y"/><path d="M.051 158.137c0 87.187 70.679 157.866 157.866 157.866 87.187 0 157.867-70.679 157.867-157.866C315.784 70.949 245.104.27 157.917.27 70.73.27.051 70.949.051 158.137z" id="A"/><path d="M.051 158.137c0 87.187 70.679 157.866 157.866 157.866 87.187 0 157.867-70.679 157.867-157.866C315.784 70.949 245.104.27 157.917.27 70.73.27.051 70.949.051 158.137" id="C"/><path d="M.051 158.137c0 87.187 70.679 157.866 157.866 157.866 87.187 0 157.867-70.679 157.867-157.866C315.784 70.949 245.104.27 157.917.27 70.73.27.051 70.949.051 158.137" id="E"/><path d="M.051 158.137c0 87.187 70.679 157.866 157.866 157.866 87.187 0 157.867-70.679 157.867-157.866C315.784 70.949 245.104.27 157.917.27 70.73.27.051 70.949.051 158.137" id="G"/><path d="M.051 158.137c0 87.187 70.679 157.866 157.866 157.866 87.187 0 157.867-70.679 157.867-157.866C315.784 70.949 245.104.27 157.917.27 70.73.27.051 70.949.051 158.137" id="I"/><path d="M.051 158.137c0 87.187 70.679 157.866 157.866 157.866 87.187 0 157.867-70.679 157.867-157.866C315.784 70.949 245.104.27 157.917.27 70.73.27.051 70.949.051 158.137" id="K"/><path d="M.051 158.137c0 87.187 70.679 157.866 157.866 157.866 87.187 0 157.867-70.679 157.867-157.866C315.784 70.949 245.104.27 157.917.27 70.73.27.051 70.949.051 158.137" id="M"/><path d="M.051 158.137c0 87.187 70.679 157.866 157.866 157.866 87.187 0 157.867-70.679 157.867-157.866C315.784 70.949 245.104.27 157.917.27 70.73.27.051 70.949.051 158.137" id="O"/><path d="M.051 158.137c0 87.187 70.679 157.866 157.866 157.866 87.187 0 157.867-70.679 157.867-157.866C315.784 70.949 245.104.27 157.917.27 70.73.27.051 70.949.051 158.137" id="Q"/><path d="M.051 158.137c0 87.187 70.679 157.866 157.866 157.866 87.187 0 157.867-70.679 157.867-157.866C315.784 70.949 245.104.27 157.917.27 70.73.27.051 70.949.051 158.137" id="S"/><path d="M.051 158.137c0 87.187 70.679 157.866 157.866 157.866 87.187 0 157.867-70.679 157.867-157.866C315.784 70.949 245.104.27 157.917.27 70.73.27.051 70.949.051 158.137" id="U"/><path d="M.051 158.137c0 87.187 70.679 157.866 157.866 157.866 87.187 0 157.867-70.679 157.867-157.866C315.784 70.949 245.104.27 157.917.27 70.73.27.051 70.949.051 158.137" id="W"/><path d="M.051 158.137c0 87.187 70.679 157.866 157.866 157.866 87.187 0 157.867-70.679 157.867-157.866C315.784 70.949 245.104.27 157.917.27 70.73.27.051 70.949.051 158.137" id="Y"/><path d="M.051 158.137c0 87.187 70.679 157.866 157.866 157.866 87.187 0 157.867-70.679 157.867-157.866C315.784 70.949 245.104.27 157.917.27 70.73.27.051 70.949.051 158.137" id="aa"/><path d="M.051 158.137c0 87.187 70.679 157.866 157.866 157.866 87.187 0 157.867-70.679 157.867-157.866C315.784 70.949 245.104.27 157.917.27 70.73.27.051 70.949.051 158.137" id="ac"/><path d="M.051 158.137c0 87.187 70.679 157.866 157.866 157.866 87.187 0 157.867-70.679 157.867-157.866C315.784 70.949 245.104.27 157.917.27 70.73.27.051 70.949.051 158.137z" id="ae"/><path d="M.051 158.137c0 87.187 70.679 157.866 157.866 157.866 87.187 0 157.867-70.679 157.867-157.866C315.784 70.949 245.104.27 157.917.27 70.73.27.051 70.949.051 158.137z" id="ag"/><path d="M.051 158.137c0 87.187 70.679 157.866 157.866 157.866 87.187 0 157.867-70.679 157.867-157.866C315.784 70.949 245.104.27 157.917.27 70.73.27.051 70.949.051 158.137" id="ai"/><path d="M.051 158.137c0 87.187 70.679 157.866 157.866 157.866 87.187 0 157.867-70.679 157.867-157.866C315.784 70.949 245.104.27 157.917.27 70.73.27.051 70.949.051 158.137z" id="ak"/><path d="M.051 158.137c0 87.187 70.679 157.866 157.866 157.866 87.187 0 157.867-70.679 157.867-157.866C315.784 70.949 245.104.27 157.917.27 70.73.27.051 70.949.051 158.137" id="am"/><path d="M.051 158.137c0 87.187 70.679 157.866 157.866 157.866 87.187 0 157.867-70.679 157.867-157.866C315.784 70.949 245.104.27 157.917.27 70.73.27.051 70.949.051 158.137" id="ao"/></defs><g fill="none" fill-rule="evenodd"><path fill="#FFF" d="M320.9729 58.8521h-66.599V.9411h97.798v19.171"/><path stroke="#C1DCF3" stroke-width="1.883" stroke-linecap="round" stroke-linejoin="round" d="M320.9729 58.8521h-66.599V.9411h97.798v19.171"/><path stroke="#5FBFFD" stroke-width="1.883" d="M376.4094 135.939l56.585-.15-.284-107.08-100.562.267.284 107.08z"/><path d="M298.4055 93.6475c3.572 2.689 8.647 1.972 11.336-1.601 2.689-3.572 1.973-8.648-1.601-11.337-3.572-2.688-8.647-1.971-11.337 1.602-2.688 3.572-1.971 8.648 1.602 11.336z" stroke="#5FBFFD" stroke-width="1.883" stroke-linecap="round"/><path d="M375.5168 67.1621c5.629 3.426 12.97 1.64 16.396-3.989 3.426-5.63 1.641-12.971-3.989-16.397-5.63-3.426-12.97-1.64-16.396 3.99-3.427 5.629-1.641 12.97 3.989 16.396z" stroke="#5FBFFD" stroke-width="1.883" stroke-linecap="round" stroke-linejoin="round"/><path stroke="#FCF36A" stroke-width="1.883" stroke-linecap="round" d="M225.3694 14.1685l-14.902 11.658-2.646-18.734z"/><path stroke="#5FBFFD" stroke-width="1.883" stroke-linecap="round" d="M234.4709 70.6704l7.796-15.841-15.841-7.796-7.796 15.841z"/><path d="M367.1897 310.8648c-25.111 25.364-59.954 41.076-98.466 41.076-76.521 0-138.555-62.033-138.555-138.555" stroke="#5FBFFD" stroke-width="1.883"/><path d="M344.9885 41.5566c-18.199-21.398-41.042 9.113-43.46-.735-1.105-4.499 4.862-7.614 6.434-3.344 2.798 7.605-36.756 17.536-40.97 6.039-1.255-3.423 2.622-7.112 5.182-4.887 4.256 3.699-6.352 14.388-10.617 12.207" stroke="#75899D" stroke-width="1.883" stroke-linecap="round" stroke-linejoin="round"/><path stroke="#5FBFFD" stroke-width="1.883" stroke-linecap="round" stroke-linejoin="round" d="M381.7786 119.2671l25.878-.069-25.996-44.752-13.079 22.793"/><path stroke="#C1DCF3" stroke-width="1.883" stroke-linecap="round" stroke-linejoin="round" d="M254.3743 1.9819l48.898 28.955 48.9-28.955"/><path d="M211.2434 127.7656c-1.259-.928-1.757-3.115-2.534-4.451-.903-1.551-1.913-3.037-2.926-4.518-2.883-4.213-6.255-7.982-10.202-11.224-7.406-6.082-16.245-9.694-25.831-10.11-10.586-.459-21.225 2.554-30.713 7.063-10.153 4.824-18.324 11.881-26.98 18.889-8.249 6.679-17.657 11.645-28.09 13.872-10.511 2.244-12.932-.291-23.249-2.221-10.562-1.976-18.098-1.677-27.938 2.956-9.185 4.327-16.426 11.545-22.27 19.735-5.469 7.663-9.281 15.832-9.553 25.397-.293 10.29 3.416 20.054 12.434 25.626 13.072 8.078 19.738 4.862 33.135-.557 7.749-3.134 14.882-7.473 21.275-12.867 8.525-7.194 14.8-16.286 22.199-24.537 3.472-3.873 7.24-7.401 11.419-10.498 4.054-3.006 8.304-5.292 13.457-4.109 5.451 1.251 10.43 2.623 16.096 2.552 5.435-.069 10.862-1.013 15.932-2.983 9.866-3.831 18.451-10.617 27.278-16.329 7.199-4.658 14.948-9.519 23.551-10.932 3.591-.59 8.99-1.044 11.509 1.964l2.001-2.718z" fill="#498DC9"/><path d="M211.2434 127.7656c-1.259-.928-1.757-3.115-2.534-4.451-.903-1.551-1.913-3.037-2.926-4.518-2.883-4.213-6.255-7.982-10.202-11.224-7.406-6.082-16.245-9.694-25.831-10.11-10.586-.459-21.225 2.554-30.713 7.063-10.153 4.824-18.324 11.881-26.98 18.889-8.249 6.679-17.657 11.645-28.09 13.872-10.511 2.244-12.932-.291-23.249-2.221-10.562-1.976-18.098-1.677-27.938 2.956-9.185 4.327-16.426 11.545-22.27 19.735-5.469 7.663-9.281 15.832-9.553 25.397-.293 10.29 3.416 20.054 12.434 25.626 13.072 8.078 19.738 4.862 33.135-.557 7.749-3.134 14.882-7.473 21.275-12.867 8.525-7.194 14.8-16.286 22.199-24.537 3.472-3.873 7.24-7.401 11.419-10.498 4.054-3.006 8.304-5.292 13.457-4.109 5.451 1.251 10.43 2.623 16.096 2.552 5.435-.069 10.862-1.013 15.932-2.983 9.866-3.831 18.451-10.617 27.278-16.329 7.199-4.658 14.948-9.519 23.551-10.932 3.591-.59 8.99-1.044 11.509 1.964l2.001-2.718z" stroke="#222" stroke-width="1.883"/><g><g transform="translate(123 29.508)"><mask id="b" fill="#fff"><use xlink:href="#a"/></mask><path d="M233.5959 120.2567c-.999 7.644-7.638 62.319 4.514 79.237.102.142.227.264.37.366l9.656 6.912c1.093.781 2.598-.092 2.46-1.428l-4.509-43.945c-.005-.053-.008-.106-.008-.159v-35.977c0-.036-.001-.071-.004-.107l-.579-8.452c-.072-1.065-1.169-1.743-2.154-1.334l-8.798 3.652c-.514.214-.876.682-.948 1.235" fill="#C1DCF3" mask="url(#b)"/></g><g transform="translate(123 29.508)"><mask id="d" fill="#fff"><use xlink:href="#c"/></mask><path d="M224.3694 91.5018c-.067 1.088-.797 15.415 7.406 17.387.56.134 1.001.557 1.15 1.113.465 1.742 1.3 5.603.791 9.364-.586 4.315 8.256-2.217 10.898-4.255.454-.35.677-.921.584-1.486l-1.236-7.514c-.027-.157-.028-.317-.005-.474l1.846-12.911c.025-.182.019-.366-.019-.545l-1.769-8.34c-.023-.107-.035-.215-.035-.324v-2.933c0-.922-.794-1.643-1.711-1.553l-10.636 1.034c-.407.04-.812-.082-1.13-.338l-1.771-1.426c-.937-.755-2.341-.209-2.521.982l-1.827 12.088c-.007.045-.012.086-.015.131" fill="#C1DCF3" mask="url(#d)"/></g><g transform="translate(123 29.508)"><mask id="f" fill="#fff"><use xlink:href="#e"/></mask><path d="M230.9993 83.2274c.408-3.969 2.366-5.552 2.366-5.552 2.505-2.458 5.1-3.941 7.054-.951" fill="#C1DCF3" mask="url(#f)"/><path d="M230.9993 83.2274c.408-3.969 2.366-5.552 2.366-5.552 2.505-2.458 5.1-3.941 7.054-.951" stroke="#222" stroke-width="1.965" stroke-linecap="round" stroke-linejoin="round" mask="url(#f)"/></g><g transform="translate(123 29.508)"><mask id="h" fill="#fff"><use xlink:href="#g"/></mask><path d="M225.9973 76.5975s-2.181-14.323 1.22-13.702c.522.096.923.515 1.089 1.02.722 2.201 3.137 10.03 2.942 15.914" fill="#C1DCF3" mask="url(#h)"/><path d="M225.9973 76.5975s-2.181-14.323 1.22-13.702c.522.096.923.515 1.089 1.02.722 2.201 3.137 10.03 2.942 15.914" stroke="#222" stroke-width="1.965" stroke-linecap="round" stroke-linejoin="round" mask="url(#h)"/></g><g transform="translate(123 29.508)"><mask id="j" fill="#fff"><use xlink:href="#i"/></mask><path d="M243.9807 78.8641c3.462 5.444 4.77 10.131 4.322 11.551 0 0-.434 6.919-3.496 14.855-.082.214-.118.446-.1.674l.634 8.489c.005.069.015.137.029.204l19.183 91.398c4.997 20.155-24.592 17.615-26.891 17.388-.096-.009-.185-.027-.277-.054l-87.908-25.499c-1.053-.305-1.47-1.569-.808-2.443 4.387-5.782 19.587-23.04 42.088-18.848.055.01.111.023.164.038 2.092.596 43.581 12.547 55.483 26.685" fill="#C1DCF3" mask="url(#j)"/></g><g transform="translate(123 29.508)"><mask id="l" fill="#fff"><use xlink:href="#k"/></mask><path d="M234.8 90.1619c-1.354-7.532 2.127-10.346 2.127-10.346 2.505-2.459 5.1-3.941 7.054-.952" fill="#C1DCF3" mask="url(#l)"/><path d="M234.8 90.1619c-1.354-7.532 2.127-10.346 2.127-10.346 2.505-2.459 5.1-3.941 7.054-.952" stroke="#222" stroke-width="1.965" stroke-linecap="round" stroke-linejoin="round" mask="url(#l)"/></g><g transform="translate(123 29.508)"><mask id="n" fill="#fff"><use xlink:href="#m"/></mask><path d="M241.9924 86.5276s-.907 4.296-3.079 4.909" fill="#FFF" mask="url(#n)"/><path d="M241.9924 86.5276s-.907 4.296-3.079 4.909" stroke="#222" stroke-width="1.965" stroke-linecap="round" stroke-linejoin="round" mask="url(#n)"/></g><g transform="translate(123 29.508)"><mask id="p" fill="#fff"><use xlink:href="#o"/></mask><path d="M227.6458 100.9124s.254 3.112 4.045 3.145" fill="#FFF" mask="url(#p)"/><path d="M227.6458 100.9124s.254 3.112 4.045 3.145" stroke="#222" stroke-width="1.861" stroke-linecap="round" stroke-linejoin="round" mask="url(#p)"/></g><g transform="translate(123 29.508)"><mask id="r" fill="#fff"><use xlink:href="#q"/></mask><path d="M224.3733 88.8328l5.674-4.357c1.091-.837 2.676.045 2.501 1.409-.277 2.158-1.233 4.879-4.078 6.567" fill="#C1DCF3" mask="url(#r)"/><path d="M224.3733 88.8328l5.674-4.357c1.091-.837 2.676.045 2.501 1.409-.277 2.158-1.233 4.879-4.078 6.567" stroke="#222" stroke-width="1.965" stroke-linecap="round" stroke-linejoin="round" mask="url(#r)"/></g><g transform="translate(123 29.508)"><mask id="t" fill="#fff"><use xlink:href="#s"/></mask><path d="M233.7161 119.366s-12.83 84.244 12.363 83.906" stroke="#222" stroke-width="1.861" mask="url(#t)"/></g><g transform="translate(123 29.508)"><mask id="v" fill="#fff"><use xlink:href="#u"/></mask><path d="M167.3313 203.3807l12.287 4.407 16.251-38.621s-50.028-9.149-49.546 10.19" fill="#FFF" mask="url(#v)"/><path d="M167.3313 203.3807l12.287 4.407 16.251-38.621s-50.028-9.149-49.546 10.19" stroke="#5FBFFD" stroke-width="1.624" mask="url(#v)"/></g><g transform="translate(123 29.508)"><mask id="x" fill="#fff"><use xlink:href="#w"/></mask><path d="M135.512 168.7166s-35.199-.191-54.989 46.915c0 0 27.702 7.204 26.905 11.468l-6.026 54.771-11.807 44.239h107.117l-16.943-129.628s-1.283-27.289-44.257-27.765" fill="#FFF" mask="url(#x)"/></g><g transform="translate(123 29.508)"><mask id="z" fill="#fff"><use xlink:href="#y"/></mask><path d="M135.512 168.7166s-35.199-.191-54.989 46.915c0 0 27.702 7.204 26.905 11.468l-6.026 54.771-11.807 44.239h107.117l-16.943-129.628s-1.283-27.289-44.257-27.765z" stroke="#5FBFFD" stroke-width="1.782" mask="url(#z)"/></g><g transform="translate(123 29.508)"><mask id="B" fill="#fff"><use xlink:href="#A"/></mask><path d="M131.094 142.0467l-10.288 30.507s21.566 9.557 34.272 2.616c0 0-4.588-13.246-7.495-30.663l-16.489-2.46z" fill="#C1DCF3" mask="url(#B)"/></g><g transform="translate(123 29.508)"><mask id="D" fill="#fff"><use xlink:href="#C"/></mask><path d="M110.4914 130.1717c7.408 15.412 25.906 21.9 41.318 14.493 15.412-7.408 13.691-24.152 6.284-39.563-7.409-15.412-17.698-23.655-33.11-16.247-15.411 7.407-21.899 25.906-14.492 41.317" fill="#C1DCF3" mask="url(#D)"/></g><g transform="translate(123 29.508)"><mask id="F" fill="#fff"><use xlink:href="#E"/></mask><path d="M143.1545 123.2347c1.889 3.931 6.607 5.586 10.539 3.697 3.931-1.89 5.586-6.608 3.696-10.539-1.889-3.931-6.608-5.587-10.539-3.697-3.931 1.89-5.586 6.608-3.696 10.539" fill="#A2C6E0" mask="url(#F)"/></g><g transform="translate(123 29.508)"><mask id="H" fill="#fff"><use xlink:href="#G"/></mask><path d="M150.425 106.5965c.473.983 1.651 1.396 2.635.924.982-.472 1.396-1.652.924-2.634-.473-.983-1.652-1.397-2.635-.925-.983.472-1.397 1.652-.924 2.635" fill="#222" mask="url(#H)"/></g><g transform="translate(123 29.508)"><mask id="J" fill="#fff"><use xlink:href="#I"/></mask><path d="M154.8713 129.3826s-3.767 3.706-8.552.438" stroke="#222" stroke-width="1.883" stroke-linecap="round" stroke-linejoin="round" mask="url(#J)"/></g><g transform="translate(123 29.508)"><mask id="L" fill="#fff"><use xlink:href="#K"/></mask><path d="M157.6672 103.1155s11.434 8.936 9.159 10.955c0 0-2.061 2.012-4.217 2.027" stroke="#222" stroke-width="1.883" stroke-linecap="round" stroke-linejoin="round" mask="url(#L)"/></g><g transform="translate(123 29.508)"><mask id="N" fill="#fff"><use xlink:href="#M"/></mask><path d="M118.5715 171.6341s23.787 12.838 40.092 1.829" stroke="#5FBFFD" stroke-width="2.292" stroke-linecap="round" stroke-linejoin="round" mask="url(#N)"/></g><g transform="translate(123 29.508)"><mask id="P" fill="#fff"><use xlink:href="#O"/></mask><path d="M112.6389 184.345s-13.488-13.257-30.28 24.816c0 0-13.908 30.622-27.517 78.163 0 0-4.441 13.135 22.109 17.869l37.734 1.702 62.463 7.615s2.489-21.989-42.005-16.706c0 0-55.39-16.386-57.049-14.755 0 0 12.649-13.017 30.458-60.576l3.766-18.408" fill="#C1DCF3" mask="url(#P)"/></g><g transform="translate(123 29.508)"><mask id="R" fill="#fff"><use xlink:href="#Q"/></mask><path d="M122.3459 221.0706l-4.326 14.823-35.574-29.535s13.347-36.005 31.518-22.097" fill="#FFF" mask="url(#R)"/></g><g transform="translate(123 29.508)"><mask id="T" fill="#fff"><use xlink:href="#S"/></mask><path d="M113.9641 184.262c-18.171-13.908-31.519 22.097-31.519 22.097l15.358 12.75" stroke="#5FBFFD" stroke-width="1.991" stroke-linecap="round" stroke-linejoin="round" mask="url(#T)"/></g><g transform="translate(123 29.508)"><mask id="V" fill="#fff"><use xlink:href="#U"/></mask><path d="M120.1828 213.659l-4.325 14.823" stroke="#FFF" stroke-width="1.991" stroke-linecap="round" stroke-linejoin="round" mask="url(#V)"/></g><g transform="translate(123 29.508)"><mask id="X" fill="#fff"><use xlink:href="#W"/></mask><path d="M167.0647 308.8895s14.305 3.532 9.981 6.573c0 0-8.939-.304-14.442-2.938" fill="#C1DCF3" mask="url(#X)"/><path d="M167.0647 308.8895s14.305 3.532 9.981 6.573c0 0-8.939-.304-14.442-2.938" stroke="#FFF" stroke-width="1.941" mask="url(#X)"/></g><g transform="translate(123 29.508)"><mask id="Z" fill="#fff"><use xlink:href="#Y"/></mask><path d="M82.5696 279.6287s18.571-32.216 23.604-52.529" stroke="#222" stroke-width="1.941" mask="url(#Z)"/></g><g transform="translate(123 29.508)"><mask id="ab" fill="#fff"><use xlink:href="#aa"/></mask><path d="M78.094 283.0486c1.659-1.63 57.049 14.756 57.049 14.756 44.494-5.283 42.005 16.705 42.005 16.705l-62.463-7.614-37.734-1.702c-26.55-4.735-22.109-17.87-22.109-17.87 13.608-47.54 27.517-78.162 27.517-78.162" fill="#C1DCF3" mask="url(#ab)"/></g><g transform="translate(123 29.508)"><mask id="ad" fill="#fff"><use xlink:href="#ac"/></mask><path d="M167.0647 308.8895s14.305 3.532 9.981 6.573c0 0-8.939-.304-14.442-2.938" fill="#C1DCF3" mask="url(#ad)"/><path d="M167.0647 308.8895s14.305 3.532 9.981 6.573c0 0-8.939-.304-14.442-2.938" stroke="#222" stroke-width="1.941" mask="url(#ad)"/></g><g transform="translate(123 29.508)"><mask id="af" fill="#fff"><use xlink:href="#ae"/></mask><path d="M61.2991 92.1898c4.818-12.777 17.286-19.906 27.849-15.924 10.562 3.983 15.218 17.57 10.4 30.346-4.817 12.778-17.285 19.907-27.848 15.924-10.562-3.983-15.218-17.569-10.401-30.346z" stroke="#222" stroke-width="1.892" mask="url(#af)"/></g><g transform="translate(123 29.508)"><mask id="ah" fill="#fff"><use xlink:href="#ag"/></mask><path d="M67.3752 83.0027c4.817-12.777 14.524-20.948 21.68-18.25 7.156 2.699 9.051 15.244 4.233 28.021-4.817 12.777-14.524 20.948-21.68 18.25-7.156-2.699-9.051-15.244-4.233-28.021z" stroke="#222" stroke-width="1.892" mask="url(#ah)"/></g><g transform="translate(123 29.508)"><mask id="aj" fill="#fff"><use xlink:href="#ai"/></mask><path d="M147.2297 83.5413s-6.071-14.831-28.35-9.604c-9.022 2.117-23.915 9.254-36.613 18.712 0 0-14.953 51.584 46.335 58.219 0 0 11.411-16.82 7.398-22.98 0 0-4.3-.757-7.134-2.806-5.096-3.684-4.881-12.903 1.365-12.66 0 0 18.711-11.532 16.999-28.881" fill="#498DC9" mask="url(#aj)"/></g><g transform="translate(123 29.508)"><mask id="al" fill="#fff"><use xlink:href="#ak"/></mask><path d="M147.2297 83.5413s-6.071-14.831-28.35-9.604c-9.022 2.117-23.915 9.254-36.613 18.712 0 0-14.953 51.584 46.335 58.219 0 0 11.411-16.82 7.398-22.98 0 0-4.3-.757-7.134-2.806-5.096-3.684-4.881-12.903 1.365-12.66 0 0 18.711-11.532 16.999-28.881z" stroke="#222" stroke-width="1.883" mask="url(#al)"/></g><g transform="translate(123 29.508)"><mask id="an" fill="#fff"><use xlink:href="#am"/></mask><path d="M95.9065 80.8909c5.539 6.101 7.256 16.139 3.642 25.721-3.011 7.986-9.011 13.765-15.665 16.005" stroke="#FFF" stroke-width="1.892" mask="url(#an)"/></g><g transform="translate(123 29.508)"><mask id="ap" fill="#fff"><use xlink:href="#ao"/></mask><path d="M95.8166 82.0115c-.308 3.415-1.139 7.079-2.528 10.762-2.835 7.521-7.365 13.445-12.071 16.497" stroke="#FFF" stroke-width="1.892" mask="url(#ap)"/></g></g><path d="M201.094 312.5566c1.659-1.63 57.049 14.756 57.049 14.756 36.836 2.544 20.398 8.023 20.398 8.023l-40.856 1.068-37.734-1.702c-26.55-4.735-22.109-17.87-22.109-17.87 13.608-47.54 27.517-78.162 27.517-78.162" fill="#C1DCF3"/></g></svg>