<svg width="373" height="352" viewBox="0 0 373 352" xmlns="http://www.w3.org/2000/svg"><g fill="none" fill-rule="evenodd"><path stroke="#FCF36A" stroke-width="1.883" stroke-linecap="round" d="M370.8966 57.3344l-14.902 11.658-2.646-18.734z"/><path d="M114.9337 72.099s-25.658-17.106-4.276-17.106c0 0 25.658 17.106 4.276 17.106" fill="#FFF"/><path stroke="#FFF" stroke-width=".781" stroke-linecap="round" d="M190.5665 48.5692l-1.614-11.036-8.75 6.916z"/><path d="M224.6681 85.3857l7.321 21.709s-15.346 6.801-24.387 1.861c0 0 3.264-9.425 5.333-21.819l11.733-1.751z" fill="#C1DCF3"/><path stroke="#C1DCF3" stroke-width="1.263" stroke-linecap="round" d="M174.712 211.3622l7.07-2.29-2.29-7.07-7.071 2.29z"/><path d="M102.2511 290.6137s1.95 7.772-6.742 10.674c0 0-16.276 8.973-33.218 4.828 0 0-11.047-1.037-16.511-6.13" fill="#FFF"/><path d="M102.2511 290.6137s1.95 7.772-6.742 10.674c0 0-16.276 8.973-33.218 4.828 0 0-11.047-1.037-16.511-6.13" stroke="#75899D" stroke-width="1.34" stroke-linecap="round" stroke-linejoin="round"/><path d="M88.4288 204.0629c17.956 12.429 63.759 7.379 63.759 7.379 27.164.022 30.121-29.96 30.121-29.96s-6.784-19.707-14.904-20.51c-8.12-.803-79.867 14.513-79.867 14.513s-27.65 5.833-21.095 28.399l18.964 85.775 10.347-4.436s23.345-79.059-7.325-81.16" fill="#5FBFFD"/><path d="M135.128 245.5155c21.66 2.779 60.01-22.769 60.01-22.769 24.131-12.473 12.969-40.456 12.969-40.456s-15.087-14.38-22.666-11.358c-7.581 3.02-64.247 49.616-64.247 49.616s-21.87 17.895-5.671 34.919l56.285 67.445 7.148-8.698s-15.628-80.939-43.828-68.699" fill="#FFF"/><path d="M135.128 245.5155c21.66 2.779 60.01-22.769 60.01-22.769 24.131-12.473 12.969-40.456 12.969-40.456s-15.087-14.38-22.666-11.358c-7.581 3.02-64.247 49.616-64.247 49.616s-21.87 17.895-5.671 34.919l56.285 67.445 7.148-8.698s-15.628-80.939-43.828-68.699" stroke="#5FBFFD" stroke-width="1.34"/><path d="M216.7452 33.6234c1.395.987 2.781 2.414 3.994 4.203" stroke="#222" stroke-width="1.286"/><path d="M211.9317 45.2636c-3.388-5.251-4.022-11.402-1.417-13.739 2.605-2.337 7.465.025 10.854 5.276 3.387 5.252 4.022 11.403 1.417 13.74-2.606 2.337-7.465-.026-10.854-5.277zM213.9952 46.2816c-3.776-8.853-2.819-17.744 2.139-19.859" stroke="#222" stroke-width="1.334" stroke-linecap="round" stroke-linejoin="round"/><path d="M239.256 76.9872c-5.193 10.943-18.274 15.604-29.218 10.412-10.943-5.194-9.784-17.06-4.591-28.004 5.194-10.943 12.454-16.819 23.397-11.626 10.943 5.193 15.605 18.275 10.412 29.218" fill="#C1DCF3"/><path d="M216.0938 72.1879c-1.325 2.792-4.661 3.98-7.453 2.656-2.791-1.325-3.981-4.661-2.655-7.453 1.324-2.791 4.661-3.98 7.452-2.656 2.792 1.325 3.98 4.661 2.656 7.453" fill="#A2C6E0"/><path d="M210.8849 60.4272c-.331.698-1.166.995-1.863.664-.699-.331-.995-1.165-.664-1.863.331-.698 1.165-.995 1.863-.664.697.331.995 1.165.664 1.863" fill="#222"/><path d="M205.7423 57.9872s-8.068 6.37-6.45 7.792c0 0 1.468 1.418 2.995 1.422" stroke="#222" stroke-width="1.334" stroke-linecap="round" stroke-linejoin="round"/><path d="M213.214 39.1464c2.512-7.305 11.065-12.578 6.919-11.375-5.145 1.492-2.646 4.921 8.059 8.757 6.857 2.458 20.603-.21 27.083 11.354 0 0 18.983 37.803-28.765 43.353 0 0-7.825-12-4.917-16.29 0 0 3.04-.477 5.063-1.885 3.638-2.531 3.606-9.03-.798-8.939 0 0-17.262-11.539-12.644-24.975" fill="#FCF36A"/><path d="M213.214 39.1464c2.512-7.305 11.065-12.578 6.919-11.375-5.145 1.492-2.646 4.921 8.059 8.757 6.857 2.458 20.603-.21 27.083 11.354 0 0 18.983 37.803-28.765 43.353 0 0-7.825-12-4.917-16.29 0 0 3.04-.477 5.063-1.885 3.638-2.531 3.606-9.03-.798-8.939 0 0-17.262-11.539-12.644-24.975z" stroke="#222" stroke-width="1.35"/><path d="M223.8985 51.1518c-2.605 2.336-7.465-.026-10.853-5.277" stroke="#222" stroke-width="1.334"/><path d="M210.3321 75.748l-6.668 1.49s1.119 4.721 3.945 3.818c2.616-.837 3.449-3.439 2.723-5.308z" stroke="#222" stroke-width="1.326" stroke-linecap="round" stroke-linejoin="round"/><path d="M194.2579 99.1005s-28.154 6.607-49.987-5.458c0 0-10.343-7.757-11.779-9.768l-8.619 14.364s.863 11.491 20.972 25.569c0 0 15.226 12.64 37.059 11.491 0 0-9.204 17.811-30.902 26.972 0 0 24.876 7.8 39.932 22.059 0 0 16.534 12.64 16.168 25.28 0 0 27.95-25.473 34.844-51.041 0 0 8.62 6.607 10.917 14.364 0 0 7.757 16.662 2.874 28.441l-6.034 12.353 12.354 8.619s7.757-5.459 13.789-23.557c0 0 9.768-29.591-4.884-58.319 0 0-14.363-20.867-24.131-27.096l-10.917-6.229-19.169-1.149-9.393-3.768-9.073-1.777-4.021-1.35z" fill="#FFF"/><path d="M194.2579 99.1005s-28.154 6.607-49.987-5.458c0 0-10.343-7.757-11.779-9.768l-8.619 14.364s.863 11.491 20.972 25.569c0 0 15.226 12.64 37.059 11.491 0 0-9.204 17.811-30.902 26.972 0 0 24.876 7.8 39.932 22.059 0 0 16.534 12.64 16.168 25.28 0 0 27.95-25.473 34.844-51.041 0 0 8.62 6.607 10.917 14.364 0 0 7.757 16.662 2.874 28.441l-6.034 12.353 12.354 8.619s7.757-5.459 13.789-23.557c0 0 9.768-29.591-4.884-58.319 0 0-14.363-20.867-24.131-27.096l-10.917-6.229-19.169-1.149-9.393-3.768-9.073-1.777-4.021-1.35z" stroke="#5FBFFD" stroke-width="1.34"/><path d="M242.5216 118.6356s-10.025 7.006-6.033 25.855M191.3849 110.8124s-4.31 17.017-6.895 20.751c0 0-3.67 5.858-4.705 7.097-1.035 1.24 1.035-1.239 1.035-1.239" stroke="#5FBFFD" stroke-width="1.34" stroke-linecap="round" stroke-linejoin="round"/><path d="M170.2706 268.2748s-22.069 12.64-39.594 7.182c0 0 19.711 33.612 23.933 39.358 0 0-21.635 22.408-19.911 27.004 0 0 11.965 13.79 35.572-4.883 0 0 18.15-11.779 14.855-19.169l-14.855-49.492z" fill="#FFF"/><path d="M170.2706 268.2748s-22.069 12.64-39.594 7.182c0 0 19.711 33.612 23.933 39.358 0 0-21.635 22.408-19.911 27.004 0 0 11.965 13.79 35.572-4.883 0 0 18.15-11.779 14.855-19.169l-14.855-49.492z" stroke="#222" stroke-width="1.34" stroke-linecap="round" stroke-linejoin="round"/><path d="M185.5265 321.4223s4.533 6.607-2.606 12.353c0 0-12.135 14.077-29.46 16.088 0 0-10.718 2.872-17.613 0" stroke="#222" stroke-width="1.34" stroke-linecap="round" stroke-linejoin="round"/><path d="M173.8028 280.0429s-11.583 12.938-34.245 10.423" stroke="#5FBFFD" stroke-width="1.34" stroke-linecap="round" stroke-linejoin="round"/><path d="M178.5186 294.1884s-9.77 12.938-28.881 10.423" stroke="#5FBFFD" stroke-width="1.231" stroke-linecap="round" stroke-linejoin="round"/><path d="M182.1427 306.1962s-8.57 11.42-25.336 9.2" stroke="#5FBFFD" stroke-width="1.083" stroke-linecap="round" stroke-linejoin="round"/><path d="M106.4483 235.4799s-21.492 4.849-36.021-6.367c0 0 3.183 37.69 5.14 44.546 0 0-28.081 13.477-28.064 18.386 0 0 6.416 17.091 35.048 7.803 0 0 21.114-4.725 20.597-12.8l3.3-51.568z" fill="#FFF"/><path d="M106.4483 235.4799s-21.492 4.849-36.021-6.367c0 0 3.183 37.69 5.14 44.546 0 0-28.081 13.477-28.064 18.386 0 0 6.416 17.091 35.048 7.803 0 0 21.114-4.725 20.597-12.8l3.3-51.568z" stroke="#75899D" stroke-width="1.34" stroke-linecap="round" stroke-linejoin="round"/><path d="M105.6642 247.7416s-15.363 8.097-35.732-2.148" stroke="#5FBFFD" stroke-width="1.34" stroke-linecap="round" stroke-linejoin="round"/><path d="M105.1612 262.6439s-13.662 8.729-30.703-.281" stroke="#5FBFFD" stroke-width="1.231" stroke-linecap="round" stroke-linejoin="round"/><path d="M104.379 275.162s-12.009 7.724-26.954-.193" stroke="#5FBFFD" stroke-width="1.083" stroke-linecap="round" stroke-linejoin="round"/><path d="M65.2999 20.9726c-3.271 2.462-7.918 1.806-10.38-1.465-2.461-3.271-1.805-7.918 1.466-10.38 3.271-2.461 7.918-1.805 10.38 1.466 2.461 3.271 1.805 7.918-1.466 10.379z" stroke="#FCF36A" stroke-width="1.34" stroke-linecap="round"/><path d="M161.8438 24.8236c-4.754 2.893-10.952 1.385-13.846-3.369-2.892-4.753-1.384-10.951 3.369-13.844 4.753-2.893 10.953-1.386 13.845 3.368 2.894 4.753 1.385 10.952-3.368 13.845z" stroke="#5FBFFD" stroke-width="1.236" stroke-linecap="round" stroke-linejoin="round"/><path stroke="#5FBFFD" stroke-width="1.236" stroke-linecap="round" d="M312.9386 20.7856l-6.582-13.375 13.375-6.583 6.583 13.375z"/><path d="M210.5392 324.2948c-3.271 2.461-7.918 1.805-10.379-1.466-2.462-3.271-1.806-7.918 1.465-10.379 3.271-2.462 7.918-1.805 10.38 1.466 2.462 3.271 1.805 7.918-1.466 10.379zM12.5392 295.2948c-3.271 2.461-7.918 1.805-10.379-1.466-2.462-3.271-1.806-7.918 1.465-10.379 3.271-2.462 7.918-1.805 10.38 1.466 2.462 3.271 1.805 7.918-1.466 10.379zM277.4083 251.5268l13.644 10.674 2.421-17.153z" stroke="#FFF" stroke-width="1.34" stroke-linecap="round"/><path stroke="#5FBFFD" stroke-width="1.34" stroke-linecap="round" d="M269.0753 303.2577l-7.138-14.503 14.503-7.138 7.138 14.503z"/><path stroke="#5FBFFD" stroke-width="1.34" stroke-linecap="round" stroke-linejoin="round" d="M90.8819 43.5795l-21.521-9.91 38.686-27.363 2.211 23.957"/><path d="M112.0089 54.6112c-2.151-3.006-4.453-3.38-4.453-3.38-3.145-.829-5.912-.83-6.113 2.472" fill="#FFF"/><path d="M112.0089 54.6112c-2.151-3.006-4.453-3.38-4.453-3.38-3.145-.829-5.912-.83-6.113 2.472" stroke="#75899D" stroke-width="1.34" stroke-linecap="round" stroke-linejoin="round"/><path d="M112.9893 46.9809s-5.593-14.527-7.793-9.718c0 0 1.693 9.272 5.052 14.73" fill="#FFF"/><path d="M112.9893 46.9809s-5.593-14.527-7.793-9.718c0 0 1.693 9.272 5.052 14.73" stroke="#75899D" stroke-width="1.34" stroke-linecap="round" stroke-linejoin="round"/><path d="M127.4142 74.953l2.649 5.664c3.735 5.351 17.08 14.488 17.08 14.488-11.65 4.326-22.121 22.105-22.121 22.105-3.317-3.447-9.036-25.569-9.036-25.569l-1.149-5.25-3.567-7.5c-6.261-5.036-9.885-10.552-9.885-10.552-1.012-.937-2.111-5.308-1.825-11.278" fill="#FFF"/><path d="M127.4142 74.953l2.649 5.664c3.735 5.351 17.08 14.488 17.08 14.488-11.65 4.326-22.121 22.105-22.121 22.105-3.317-3.447-9.036-25.569-9.036-25.569l-1.149-5.25-3.567-7.5c-6.261-5.036-9.885-10.552-9.885-10.552-1.012-.937-2.111-5.308-1.825-11.278" stroke="#75899D" stroke-width="1.34" stroke-linecap="round" stroke-linejoin="round"/><path d="M112.1339 61.9359c-2.368-6.682-6.462-7.348-6.462-7.348-3.143-.828-5.912-.83-6.112 2.473" fill="#FFF"/><path d="M112.1339 61.9359c-2.368-6.682-6.462-7.348-6.462-7.348-3.143-.828-5.912-.83-6.112 2.473" stroke="#75899D" stroke-width="1.34" stroke-linecap="round" stroke-linejoin="round"/><path d="M104.6778 62.3139s2.703 3.041 4.731 2.536" fill="#FFF"/><path d="M104.6778 62.3139s2.703 3.041 4.731 2.536" stroke="#75899D" stroke-width="1.34" stroke-linecap="round" stroke-linejoin="round"/><path d="M122.8263 67.3017s1.224 2.621-1.811 4.387" fill="#FFF"/><path d="M122.8263 67.3017s1.224 2.621-1.811 4.387" stroke="#75899D" stroke-width="1.34" stroke-linecap="round" stroke-linejoin="round"/><path d="M118.2774 60.872c-5.706-.096-7.789-6.085-7.789-6.085l9.425 1.293" fill="#FFF"/><path d="M118.2774 60.872c-5.706-.096-7.789-6.085-7.789-6.085l9.425 1.293" stroke="#75899D" stroke-width="1.34" stroke-linecap="round" stroke-linejoin="round"/><path d="M276.9952 198.788s-11.231 2.596-23.584-11.194c0 0 .184 18.099-6.711 30.165 0 0-8.231-6.607-12.304-.862 0 0-3.21 3.427-3.21 5.448 0 0 2.586 2.575 6.321 0 0 0 4.022-1.282-.287 2.955l-2.824 3.822s-4.358-1.564-4.358 0c0 0-2.402 3.001 8.997 9.609 0 0 9.676 6.872 18.026-11.204 0 0 16.931-9.481 19.934-28.739" fill="#FFF"/><path d="M276.9952 198.788s-11.231 2.596-23.584-11.194c0 0 .184 18.099-6.711 30.165 0 0-8.231-6.607-12.304-.862 0 0-3.21 3.427-3.21 5.448 0 0 2.586 2.575 6.321 0 0 0 4.022-1.282-.287 2.955l-2.824 3.822s-4.358-1.564-4.358 0c0 0-2.402 3.001 8.997 9.609 0 0 9.676 6.872 18.026-11.204 0 0 16.931-9.481 19.934-28.739z" stroke="#222" stroke-width="1.34" stroke-linecap="round" stroke-linejoin="round"/><path d="M217.7989 141.9027c-1.923 6.918-9.09 10.968-16.008 9.045-6.918-1.922-10.969-9.089-9.046-16.007 1.923-6.919 9.09-10.969 16.008-9.046 6.919 1.923 10.969 9.09 9.046 16.008" fill="#5DBEFD"/><path fill="#FFF" d="M202.838 140.8143l-4.368 4.368 5.796-1.562z"/><path fill="#FFF" d="M200.0313 139.3861l-1.562 5.796 4.369-4.368zM212.0743 131.661l-7.637 7.637 2.914 5.724z"/><path fill="#FFF" d="M198.714 136.3842l5.724 2.914 7.636-7.637z"/><path d="M240.1583 101.9599s-.353 4.61 0 6.333c0 0-16.839 6.034-32.807-.574 0 0-9.933-3.735-13.093-8.618 0 0-.132-3.198 0-5.459 0 0 22.099 14.939 45.9 8.318" fill="#75899D"/><path d="M175.878 53.6996c0 27.605 22.379 49.984 49.984 49.984 27.606 0 49.984-22.379 49.984-49.984s-22.378-49.984-49.984-49.984c-27.605 0-49.984 22.379-49.984 49.984z" stroke="#3E4B56" stroke-width="1.34"/><path d="M126.2979 124.3768c-53.818 17.71-90.26 42.704-85.974 61.431 5.236 22.879 69.273 27.742 143.031 10.863 73.757-16.878 129.305-49.108 124.07-71.987-1.964-8.579-12.195-14.625-28.108-17.942" stroke="#FCF36A" stroke-width="1.34" stroke-linecap="round"/><path d="M307.4249 185.808c-5.235 22.878-69.272 27.742-143.03 10.863s-129.306-49.109-124.071-71.987c2.5-10.926 18.413-17.744 42.389-20.046" stroke="#C1DCF3" stroke-width="1.34" stroke-linecap="round"/></g></svg>