<svg width="230" height="354" viewBox="0 0 230 354" xmlns="http://www.w3.org/2000/svg"><g fill="none" fill-rule="evenodd"><path d="M64.3942 95.2724s-23.663-15.776-3.943-15.776c0 0 23.663 15.776 3.943 15.776" fill="#FFF"/><path stroke="#FCF36A" stroke-width=".72" stroke-linecap="round" d="M134.1471 73.5718l-1.489-10.177-8.07 6.378z"/><path d="M165.5973 107.5259l6.752 20.021s-14.153 6.272-22.492 1.717c0 0 3.011-8.693 4.919-20.123l10.821-1.615z" fill="#C1DCF3"/><path stroke="#C1DCF3" stroke-width="1.165" stroke-linecap="round" d="M119.525 223.708l6.521-2.112-2.113-6.521-6.52 2.112z"/><path d="M52.6989 296.7978s1.798 7.168-6.219 9.844c0 0-15.01 8.275-30.635 4.452 0 0-10.188-.956-15.227-5.653" fill="#FFF"/><path d="M52.6989 296.7978s1.798 7.168-6.219 9.844c0 0-15.01 8.275-30.635 4.452 0 0-10.188-.956-15.227-5.653" stroke="#75899D" stroke-width="1.236" stroke-linecap="round" stroke-linejoin="round"/><path d="M39.9508 216.9761c16.56 11.463 58.801 6.805 58.801 6.805 25.053.021 27.78-27.63 27.78-27.63s-6.257-18.175-13.746-18.915c-7.488-.741-73.656 13.384-73.656 13.384s-25.501 5.379-19.456 26.191l17.489 79.106 9.543-4.091s21.53-72.913-6.755-74.85" fill="#5FBFFD"/><path d="M83.0192 255.2055c19.976 2.563 55.344-20.999 55.344-20.999 22.255-11.502 11.961-37.31 11.961-37.31s-13.914-13.262-20.905-10.476c-6.99 2.787-59.251 45.759-59.251 45.759s-20.17 16.504-5.231 32.205l51.91 62.201 6.592-8.022s-14.413-74.646-40.42-63.358" fill="#FFF"/><path d="M83.0192 255.2055c19.976 2.563 55.344-20.999 55.344-20.999 22.255-11.502 11.961-37.31 11.961-37.31s-13.914-13.262-20.905-10.476c-6.99 2.787-59.251 45.759-59.251 45.759s-20.17 16.504-5.231 32.205l51.91 62.201 6.592-8.022s-14.413-74.646-40.42-63.358" stroke="#5FBFFD" stroke-width="1.236"/><path d="M158.2906 59.7881c1.285.911 2.564 2.226 3.684 3.876" stroke="#222" stroke-width="1.186"/><path d="M153.8512 70.5234c-3.125-4.843-3.71-10.516-1.307-12.671 2.403-2.156 6.884.024 10.009 4.866 3.125 4.843 3.711 10.516 1.308 12.672-2.404 2.154-6.885-.024-10.01-4.867zM155.7545 71.4624c-3.483-8.164-2.601-16.364 1.972-18.315" stroke="#222" stroke-width="1.23" stroke-linecap="round" stroke-linejoin="round"/><path d="M179.0504 99.7803c-4.789 10.093-16.854 14.392-26.945 9.602-10.093-4.789-9.024-15.733-4.235-25.826 4.79-10.092 11.486-15.511 21.578-10.722 10.092 4.789 14.392 16.854 9.602 26.946" fill="#C1DCF3"/><path d="M157.6901 95.3545c-1.222 2.574-4.3 3.671-6.874 2.449-2.574-1.221-3.671-4.299-2.449-6.873 1.221-2.575 4.299-3.671 6.873-2.45 2.575 1.222 3.671 4.3 2.45 6.874" fill="#A2C6E0"/><path d="M152.8854 84.5083c-.306.644-1.074.917-1.718.612-.644-.305-.918-1.074-.613-1.718.306-.644 1.075-.918 1.719-.612.643.305.918 1.074.612 1.718" fill="#222"/><path d="M148.1432 82.2573s-7.441 5.875-5.949 7.187c0 0 1.353 1.308 2.762 1.311" stroke="#222" stroke-width="1.23" stroke-linecap="round" stroke-linejoin="round"/><path d="M155.0338 64.8818c2.316-6.737 10.205-11.6 6.381-10.491-4.745 1.376-2.441 4.538 7.432 8.076 6.324 2.267 19.001-.193 24.977 10.472 0 0 17.508 34.864-26.527 39.982 0 0-7.217-11.067-4.535-15.023 0 0 2.802-.441 4.669-1.739 3.355-2.334 3.325-8.328-.737-8.244 0 0-15.92-10.642-11.66-23.033" fill="#FCF36A"/><path d="M155.0338 64.8818c2.316-6.737 10.205-11.6 6.381-10.491-4.745 1.376-2.441 4.538 7.432 8.076 6.324 2.267 19.001-.193 24.977 10.472 0 0 17.508 34.864-26.527 39.982 0 0-7.217-11.067-4.535-15.023 0 0 2.802-.441 4.669-1.739 3.355-2.334 3.325-8.328-.737-8.244 0 0-15.92-10.642-11.66-23.033z" stroke="#222" stroke-width="1.245"/><path d="M164.8883 75.9536c-2.403 2.155-6.885-.023-10.01-4.867" stroke="#222" stroke-width="1.23"/><path d="M152.3756 98.6377s-3.074.687-6.149 1.375c0 0 1.032 4.354 3.638 3.52 2.412-.772 3.18-3.171 2.511-4.895z" stroke="#222" stroke-width="1.223" stroke-linecap="round" stroke-linejoin="round"/><path d="M137.5514 120.1743s-25.965 6.094-46.101-5.034c0 0-9.538-7.154-10.863-9.008l-7.948 13.248s.795 10.597 19.341 23.58c0 0 14.043 11.657 34.178 10.598 0 0-8.489 16.426-28.501 24.874 0 0 22.944 7.194 36.829 20.344 0 0 15.249 11.658 14.91 23.315 0 0 25.777-23.492 32.136-47.073 0 0 7.949 6.094 10.068 13.248 0 0 7.154 15.366 2.649 26.229l-5.563 11.393 11.392 7.949s7.154-5.035 12.718-21.726c0 0 9.008-27.29-4.504-53.784 0 0-13.248-19.245-22.256-24.989l-10.068-5.745-17.678-1.06-8.663-3.475-8.367-1.638-3.709-1.246z" fill="#FFF"/><path d="M137.5514 120.1743s-25.965 6.094-46.101-5.034c0 0-9.538-7.154-10.863-9.008l-7.948 13.248s.795 10.597 19.341 23.58c0 0 14.043 11.657 34.178 10.598 0 0-8.489 16.426-28.501 24.874 0 0 22.944 7.194 36.829 20.344 0 0 15.249 11.658 14.91 23.315 0 0 25.777-23.492 32.136-47.073 0 0 7.949 6.094 10.068 13.248 0 0 7.154 15.366 2.649 26.229l-5.563 11.393 11.392 7.949s7.154-5.035 12.718-21.726c0 0 9.008-27.29-4.504-53.784 0 0-13.248-19.245-22.256-24.989l-10.068-5.745-17.678-1.06-8.663-3.475-8.367-1.638-3.709-1.246z" stroke="#5FBFFD" stroke-width="1.236"/><path d="M182.0621 138.1909s-9.245 6.462-5.563 23.845M134.902 130.9761s-3.975 15.693-6.358 19.138c0 0-3.386 5.402-4.34 6.545l.954-1.143" stroke="#5FBFFD" stroke-width="1.236" stroke-linecap="round" stroke-linejoin="round"/><path d="M115.4293 276.1953s-20.354 11.658-36.516 6.624c0 0 18.179 30.999 22.073 36.297 0 0-19.953 20.666-18.364 24.906 0 0 11.035 12.717 32.807-4.504 0 0 16.738-10.863 13.7-17.678l-13.7-45.645z" fill="#FFF"/><path d="M115.4293 276.1953s-20.354 11.658-36.516 6.624c0 0 18.179 30.999 22.073 36.297 0 0-19.953 20.666-18.364 24.906 0 0 11.035 12.717 32.807-4.504 0 0 16.738-10.863 13.7-17.678l-13.7-45.645z" stroke="#222" stroke-width="1.236" stroke-linecap="round" stroke-linejoin="round"/><path d="M129.4987 325.2109s4.181 6.094-2.403 11.393c0 0-11.192 12.982-27.17 14.836 0 0-9.884 2.65-16.243 0" stroke="#222" stroke-width="1.236" stroke-linecap="round" stroke-linejoin="round"/><path d="M118.6871 287.0488s-10.684 11.932-31.583 9.612" stroke="#5FBFFD" stroke-width="1.236" stroke-linecap="round" stroke-linejoin="round"/><path d="M123.0368 300.0947s-9.011 11.932-26.637 9.612" stroke="#5FBFFD" stroke-width="1.135" stroke-linecap="round" stroke-linejoin="round"/><path d="M126.3786 311.1684s-7.904 10.533-23.366 8.485" stroke="#5FBFFD" stroke-width=".999" stroke-linecap="round" stroke-linejoin="round"/><path d="M56.569 245.9502s-19.821 4.473-33.22-5.872c0 0 2.935 34.76 4.741 41.082 0 0-25.898 12.43-25.883 16.957 0 0 5.918 15.763 32.323 7.196 0 0 19.473-4.358 18.996-11.804l3.043-47.559z" fill="#FFF"/><path d="M56.569 245.9502s-19.821 4.473-33.22-5.872c0 0 2.935 34.76 4.741 41.082 0 0-25.898 12.43-25.883 16.957 0 0 5.918 15.763 32.323 7.196 0 0 19.473-4.358 18.996-11.804l3.043-47.559z" stroke="#75899D" stroke-width="1.236" stroke-linecap="round" stroke-linejoin="round"/><path d="M55.8453 257.2588s-14.168 7.468-32.953-1.981" stroke="#5FBFFD" stroke-width="1.236" stroke-linecap="round" stroke-linejoin="round"/><path d="M55.3824 271.0029s-12.6 8.05-28.316-.26" stroke="#5FBFFD" stroke-width="1.135" stroke-linecap="round" stroke-linejoin="round"/><path d="M54.6608 282.5473s-11.075 7.123-24.858-.178" stroke="#5FBFFD" stroke-width=".999" stroke-linecap="round" stroke-linejoin="round"/><path d="M114.5338 41.6655c-3.017 2.27-7.302 1.665-9.572-1.352-2.271-3.016-1.665-7.302 1.351-9.572 3.017-2.27 7.303-1.665 9.573 1.351 2.27 3.017 1.665 7.303-1.352 9.573z" stroke="#FCF36A" stroke-width="1.236" stroke-linecap="round"/><path d="M49.4235 19.3017c-4.754 2.893-10.952 1.385-13.846-3.369-2.892-4.753-1.384-10.951 3.369-13.844 4.753-2.893 10.953-1.386 13.845 3.368 2.894 4.753 1.385 10.952-3.368 13.845z" stroke="#5FBFFD" stroke-width="1.236" stroke-linecap="round" stroke-linejoin="round"/><path stroke="#5FBFFD" stroke-width="1.236" stroke-linecap="round" d="M168.5182 22.2636l-6.582-13.375 13.375-6.583 6.583 13.375z"/><path d="M152.567 327.8598c-3.017 2.271-7.302 1.665-9.572-1.352-2.271-3.016-1.665-7.302 1.351-9.572 3.017-2.27 7.303-1.665 9.573 1.352 2.27 3.016 1.665 7.302-1.352 9.572zM214.2369 260.75l12.583 9.844 2.233-15.819z" stroke="#FFF" stroke-width="1.236" stroke-linecap="round"/><path stroke="#5FBFFD" stroke-width="1.236" stroke-linecap="round" d="M206.5514 308.4585l-6.582-13.375 13.375-6.583 6.583 13.375z"/><path stroke="#FFF" stroke-width="1.236" stroke-linecap="round" stroke-linejoin="round" d="M42.2125 68.9702l-19.847-9.14 35.678-25.235 2.039 22.095"/><path d="M61.6969 79.1445c-1.983-2.772-4.106-3.118-4.106-3.118-2.901-.764-5.454-.765-5.638 2.281" fill="#FFF"/><path d="M61.6969 79.1445c-1.983-2.772-4.106-3.118-4.106-3.118-2.901-.764-5.454-.765-5.638 2.281" stroke="#75899D" stroke-width="1.236" stroke-linecap="round" stroke-linejoin="round"/><path d="M62.6012 72.1069s-5.157-13.397-7.187-8.962c0 0 1.562 8.55 4.659 13.584" fill="#FFF"/><path d="M62.6012 72.1069s-5.157-13.397-7.187-8.962c0 0 1.562 8.55 4.659 13.584" stroke="#75899D" stroke-width="1.236" stroke-linecap="round" stroke-linejoin="round"/><path d="M75.9049 97.9043l2.443 5.224c3.445 4.935 15.751 13.362 15.751 13.362-10.743 3.989-20.4 20.386-20.4 20.386-3.059-3.18-8.333-23.581-8.333-23.581l-1.061-4.842-3.289-6.917c-5.774-4.644-9.116-9.732-9.116-9.732-.933-.863-1.947-4.896-1.684-10.401" fill="#FFF"/><path d="M75.9049 97.9043l2.443 5.224c3.445 4.935 15.751 13.362 15.751 13.362-10.743 3.989-20.4 20.386-20.4 20.386-3.059-3.18-8.333-23.581-8.333-23.581l-1.061-4.842-3.289-6.917c-5.774-4.644-9.116-9.732-9.116-9.732-.933-.863-1.947-4.896-1.684-10.401" stroke="#75899D" stroke-width="1.236" stroke-linecap="round" stroke-linejoin="round"/><path d="M61.8131 85.8994c-2.185-6.163-5.96-6.776-5.96-6.776-2.899-.765-5.452-.766-5.638 2.28" fill="#FFF"/><path d="M61.8131 85.8994c-2.185-6.163-5.96-6.776-5.96-6.776-2.899-.765-5.452-.766-5.638 2.28" stroke="#75899D" stroke-width="1.236" stroke-linecap="round" stroke-linejoin="round"/><path d="M54.9362 86.248s2.492 2.804 4.363 2.339" fill="#FFF"/><path d="M54.9362 86.248s2.492 2.804 4.363 2.339" stroke="#75899D" stroke-width="1.236" stroke-linecap="round" stroke-linejoin="round"/><path d="M71.6735 90.8476s1.129 2.417-1.67 4.046" fill="#FFF"/><path d="M71.6735 90.8476s1.129 2.417-1.67 4.046" stroke="#75899D" stroke-width="1.236" stroke-linecap="round" stroke-linejoin="round"/><path d="M67.4791 84.9184c-5.264-.088-7.184-5.612-7.184-5.612l8.692 1.192" fill="#FFF"/><path d="M67.4791 84.9184c-5.264-.088-7.184-5.612-7.184-5.612l8.692 1.192" stroke="#75899D" stroke-width="1.236" stroke-linecap="round" stroke-linejoin="round"/><path d="M213.8561 212.1113s-10.357 2.394-21.751-10.323c0 0 .17 16.691-6.188 27.819 0 0-7.592-6.094-11.347-.795 0 0-2.961 3.16-2.961 5.025 0 0 2.385 2.375 5.829 0 0 0 3.709-1.183-.265 2.725l-2.603 3.525s-4.021-1.443-4.021 0c0 0-2.215 2.768 8.298 8.861 0 0 8.924 6.338 16.625-10.333 0 0 15.614-8.743 18.384-26.504" fill="#FFF"/><path d="M213.8561 212.1113s-10.357 2.394-21.751-10.323c0 0 .17 16.691-6.188 27.819 0 0-7.592-6.094-11.347-.795 0 0-2.961 3.16-2.961 5.025 0 0 2.385 2.375 5.829 0 0 0 3.709-1.183-.265 2.725l-2.603 3.525s-4.021-1.443-4.021 0c0 0-2.215 2.768 8.298 8.861 0 0 8.924 6.338 16.625-10.333 0 0 15.614-8.743 18.384-26.504z" stroke="#222" stroke-width="1.236" stroke-linecap="round" stroke-linejoin="round"/><path d="M159.2623 159.6489c-1.773 6.38-8.383 10.115-14.764 8.342-6.38-1.773-10.115-8.383-8.341-14.763 1.772-6.381 8.382-10.116 14.762-8.343 6.381 1.774 10.116 8.384 8.343 14.764" fill="#5DBEFD"/><path fill="#FFF" d="M145.4645 158.645l-4.028 4.028 5.344-1.44z"/><path fill="#FFF" d="M142.8766 157.3281l-1.44 5.345 4.028-4.028zM153.983 150.2036l-7.044 7.043 2.689 5.279z"/><path fill="#FFF" d="M141.6608 154.5591l5.278 2.688 7.044-7.043z"/><path d="M179.8824 122.8115s-.325 4.251 0 5.841c0 0-15.529 5.564-30.255-.529 0 0-9.162-3.445-12.076-7.949 0 0-.121-2.949 0-5.034 0 0 20.382 13.777 42.331 7.671" fill="#75899D"/><path d="M120.6012 78.3037c0 25.459 20.639 46.098 46.098 46.098s46.097-20.639 46.097-46.098-20.638-46.098-46.097-46.098-46.098 20.639-46.098 46.098z" stroke="#3E4B56" stroke-width="1.236"/><path d="M79.7311 146.6811c-44.141 14.526-74.028 35.024-70.514 50.384 4.294 18.765 56.817 22.754 117.311 8.91 60.495-13.843 106.055-40.277 101.761-59.042-1.611-7.037-10.003-11.996-23.055-14.716" stroke="#FCF36A" stroke-width="1.236" stroke-linecap="round"/><path d="M228.2887 197.0654c-4.295 18.765-56.816 22.754-117.312 8.91-60.494-13.844-106.053-40.278-101.759-59.042 2.05-8.962 15.1-14.554 34.766-16.442" stroke="#C1DCF3" stroke-width="1.236" stroke-linecap="round"/></g></svg>