<svg xmlns="http://www.w3.org/2000/svg" xmlns:xlink="http://www.w3.org/1999/xlink" viewBox="0 0 525.68 286"><defs><pattern id="a" width="319.2" height="318" patternTransform="matrix(-0.12, -0.01, 0.02, -0.17, -6719.66, 4515.33)" patternUnits="userSpaceOnUse" viewBox="0 0 319.2 318"><rect width="319.2" height="318" fill="none"/><path d="M0,318H319.2V0H0Z" fill="none"/><path d="M12,308.9a1.3,1.3,0,1,1-1.3,1.3A1.32,1.32,0,0,1,12,308.9Zm14.4,0a1.3,1.3,0,1,1-1.3,1.3A1.32,1.32,0,0,1,26.4,308.9Zm14.4,0a1.3,1.3,0,1,1-1.3,1.3A1.32,1.32,0,0,1,40.8,308.9Z" fill="#c1dcf3"/><circle cx="55.2" cy="310.2" r="1.3" fill="#c1dcf3"/><path d="M69.6,308.9a1.3,1.3,0,1,1-1.3,1.3A1.32,1.32,0,0,1,69.6,308.9Zm14.4,0a1.3,1.3,0,1,1-1.3,1.3A1.32,1.32,0,0,1,84,308.9Zm14.4,0a1.3,1.3,0,1,1-1.3,1.3A1.32,1.32,0,0,1,98.4,308.9Zm14.4,0a1.3,1.3,0,1,1-1.3,1.3A1.32,1.32,0,0,1,112.8,308.9Z" fill="#c1dcf3"/><circle cx="127.2" cy="310.2" r="1.3" fill="#c1dcf3"/><path d="M141.6,308.9a1.3,1.3,0,1,1-1.3,1.3A1.32,1.32,0,0,1,141.6,308.9Zm14.4,0a1.3,1.3,0,1,1-1.3,1.3A1.32,1.32,0,0,1,156,308.9Zm14.4,0a1.3,1.3,0,1,1-1.3,1.3A1.32,1.32,0,0,1,170.4,308.9Zm14.4,0a1.3,1.3,0,1,1-1.3,1.3A1.32,1.32,0,0,1,184.8,308.9Z" fill="#c1dcf3"/><circle cx="199.2" cy="310.2" r="1.3" fill="#c1dcf3"/><path d="M213.6,308.9a1.3,1.3,0,1,1-1.3,1.3A1.32,1.32,0,0,1,213.6,308.9Zm14.4,0a1.3,1.3,0,1,1-1.3,1.3A1.32,1.32,0,0,1,228,308.9Zm14.4,0a1.3,1.3,0,1,1-1.3,1.3A1.32,1.32,0,0,1,242.4,308.9Zm14.4,0a1.3,1.3,0,1,1-1.3,1.3A1.32,1.32,0,0,1,256.8,308.9Z" fill="#c1dcf3"/><circle cx="271.2" cy="310.2" r="1.3" fill="#c1dcf3"/><path d="M285.6,308.9a1.3,1.3,0,1,1-1.3,1.3A1.32,1.32,0,0,1,285.6,308.9Zm14.4,0a1.3,1.3,0,1,1-1.3,1.3A1.32,1.32,0,0,1,300,308.9Zm14.4,0a1.3,1.3,0,1,1-1.3,1.3A1.32,1.32,0,0,1,314.4,308.9ZM4.8,294.5a1.3,1.3,0,1,1-1.3,1.3A1.32,1.32,0,0,1,4.8,294.5Z" fill="#c1dcf3"/><circle cx="19.2" cy="295.8" r="1.3" fill="#c1dcf3"/><path d="M33.6,294.5a1.3,1.3,0,1,1-1.3,1.3A1.32,1.32,0,0,1,33.6,294.5Zm14.4,0a1.3,1.3,0,1,1-1.3,1.3A1.32,1.32,0,0,1,48,294.5Zm14.4,0a1.3,1.3,0,1,1-1.3,1.3A1.32,1.32,0,0,1,62.4,294.5Zm14.4,0a1.3,1.3,0,1,1-1.3,1.3A1.32,1.32,0,0,1,76.8,294.5Z" fill="#c1dcf3"/><circle cx="91.2" cy="295.8" r="1.3" fill="#c1dcf3"/><path d="M105.6,294.5a1.3,1.3,0,1,1-1.3,1.3A1.32,1.32,0,0,1,105.6,294.5Zm14.4,0a1.3,1.3,0,1,1-1.3,1.3A1.32,1.32,0,0,1,120,294.5Zm14.4,0a1.3,1.3,0,1,1-1.3,1.3A1.32,1.32,0,0,1,134.4,294.5Zm14.4,0a1.3,1.3,0,1,1-1.3,1.3A1.32,1.32,0,0,1,148.8,294.5Z" fill="#c1dcf3"/><circle cx="163.2" cy="295.8" r="1.3" fill="#c1dcf3"/><path d="M177.6,294.5a1.3,1.3,0,1,1-1.3,1.3A1.32,1.32,0,0,1,177.6,294.5Zm14.4,0a1.3,1.3,0,1,1-1.3,1.3A1.32,1.32,0,0,1,192,294.5Zm14.4,0a1.3,1.3,0,1,1-1.3,1.3A1.32,1.32,0,0,1,206.4,294.5Zm14.4,0a1.3,1.3,0,1,1-1.3,1.3A1.32,1.32,0,0,1,220.8,294.5Z" fill="#c1dcf3"/><circle cx="235.2" cy="295.8" r="1.3" fill="#c1dcf3"/><path d="M249.6,294.5a1.3,1.3,0,1,1-1.3,1.3A1.32,1.32,0,0,1,249.6,294.5Zm14.4,0a1.3,1.3,0,1,1-1.3,1.3A1.32,1.32,0,0,1,264,294.5Zm14.4,0a1.3,1.3,0,1,1-1.3,1.3A1.32,1.32,0,0,1,278.4,294.5Zm14.4,0a1.3,1.3,0,1,1-1.3,1.3A1.32,1.32,0,0,1,292.8,294.5Z" fill="#c1dcf3"/><circle cx="307.2" cy="295.8" r="1.3" fill="#c1dcf3"/><path d="M12,280.1a1.3,1.3,0,1,1-1.3,1.3A1.32,1.32,0,0,1,12,280.1Zm14.4,0a1.3,1.3,0,1,1-1.3,1.3A1.32,1.32,0,0,1,26.4,280.1Zm14.4,0a1.3,1.3,0,1,1-1.3,1.3A1.32,1.32,0,0,1,40.8,280.1Zm14.4,0a1.3,1.3,0,1,1-1.3,1.3A1.32,1.32,0,0,1,55.2,280.1Zm14.4,0a1.3,1.3,0,1,1-1.3,1.3A1.32,1.32,0,0,1,69.6,280.1Zm14.4,0a1.3,1.3,0,1,1-1.3,1.3A1.32,1.32,0,0,1,84,280.1Zm14.4,0a1.3,1.3,0,1,1-1.3,1.3A1.32,1.32,0,0,1,98.4,280.1Zm14.4,0a1.3,1.3,0,1,1-1.3,1.3A1.32,1.32,0,0,1,112.8,280.1Zm14.4,0a1.3,1.3,0,1,1-1.3,1.3A1.32,1.32,0,0,1,127.2,280.1Zm14.4,0a1.3,1.3,0,1,1-1.3,1.3A1.32,1.32,0,0,1,141.6,280.1Zm14.4,0a1.3,1.3,0,1,1-1.3,1.3A1.32,1.32,0,0,1,156,280.1Zm14.4,0a1.3,1.3,0,1,1-1.3,1.3A1.32,1.32,0,0,1,170.4,280.1Zm14.4,0a1.3,1.3,0,1,1-1.3,1.3A1.32,1.32,0,0,1,184.8,280.1Zm14.4,0a1.3,1.3,0,1,1-1.3,1.3A1.32,1.32,0,0,1,199.2,280.1Zm14.4,0a1.3,1.3,0,1,1-1.3,1.3A1.32,1.32,0,0,1,213.6,280.1Zm14.4,0a1.3,1.3,0,1,1-1.3,1.3A1.32,1.32,0,0,1,228,280.1Zm14.4,0a1.3,1.3,0,1,1-1.3,1.3A1.32,1.32,0,0,1,242.4,280.1Zm14.4,0a1.3,1.3,0,1,1-1.3,1.3A1.32,1.32,0,0,1,256.8,280.1Zm14.4,0a1.3,1.3,0,1,1-1.3,1.3A1.32,1.32,0,0,1,271.2,280.1Zm14.4,0a1.3,1.3,0,1,1-1.3,1.3A1.32,1.32,0,0,1,285.6,280.1Zm14.4,0a1.3,1.3,0,1,1-1.3,1.3A1.32,1.32,0,0,1,300,280.1Zm14.4,0a1.3,1.3,0,1,1-1.3,1.3A1.32,1.32,0,0,1,314.4,280.1ZM4.8,265.7A1.3,1.3,0,1,1,3.5,267,1.32,1.32,0,0,1,4.8,265.7Zm14.4,0a1.3,1.3,0,1,1-1.3,1.3A1.32,1.32,0,0,1,19.2,265.7Zm14.4,0a1.3,1.3,0,1,1-1.3,1.3A1.32,1.32,0,0,1,33.6,265.7Zm14.4,0a1.3,1.3,0,1,1-1.3,1.3A1.32,1.32,0,0,1,48,265.7Zm14.4,0a1.3,1.3,0,1,1-1.3,1.3A1.32,1.32,0,0,1,62.4,265.7Zm14.4,0a1.3,1.3,0,1,1-1.3,1.3A1.32,1.32,0,0,1,76.8,265.7Zm14.4,0a1.3,1.3,0,1,1-1.3,1.3A1.32,1.32,0,0,1,91.2,265.7Zm14.4,0a1.3,1.3,0,1,1-1.3,1.3A1.32,1.32,0,0,1,105.6,265.7Zm14.4,0a1.3,1.3,0,1,1-1.3,1.3A1.32,1.32,0,0,1,120,265.7Zm14.4,0a1.3,1.3,0,1,1-1.3,1.3A1.32,1.32,0,0,1,134.4,265.7Zm14.4,0a1.3,1.3,0,1,1-1.3,1.3A1.32,1.32,0,0,1,148.8,265.7Zm14.4,0a1.3,1.3,0,1,1-1.3,1.3A1.32,1.32,0,0,1,163.2,265.7Zm14.4,0a1.3,1.3,0,1,1-1.3,1.3A1.32,1.32,0,0,1,177.6,265.7Zm14.4,0a1.3,1.3,0,1,1-1.3,1.3A1.32,1.32,0,0,1,192,265.7Zm14.4,0a1.3,1.3,0,1,1-1.3,1.3A1.32,1.32,0,0,1,206.4,265.7Zm14.4,0a1.3,1.3,0,1,1-1.3,1.3A1.32,1.32,0,0,1,220.8,265.7Zm14.4,0a1.3,1.3,0,1,1-1.3,1.3A1.32,1.32,0,0,1,235.2,265.7Zm14.4,0a1.3,1.3,0,1,1-1.3,1.3A1.32,1.32,0,0,1,249.6,265.7Zm14.4,0a1.3,1.3,0,1,1-1.3,1.3A1.32,1.32,0,0,1,264,265.7Zm14.4,0a1.3,1.3,0,1,1-1.3,1.3A1.32,1.32,0,0,1,278.4,265.7Zm14.4,0a1.3,1.3,0,1,1-1.3,1.3A1.32,1.32,0,0,1,292.8,265.7Zm14.4,0a1.3,1.3,0,1,1-1.3,1.3A1.32,1.32,0,0,1,307.2,265.7ZM12,251.3a1.3,1.3,0,1,1-1.3,1.3A1.32,1.32,0,0,1,12,251.3Zm14.4,0a1.3,1.3,0,1,1-1.3,1.3A1.32,1.32,0,0,1,26.4,251.3Zm14.4,0a1.3,1.3,0,1,1-1.3,1.3A1.32,1.32,0,0,1,40.8,251.3Zm14.4,0a1.3,1.3,0,1,1-1.3,1.3A1.32,1.32,0,0,1,55.2,251.3Zm14.4,0a1.3,1.3,0,1,1-1.3,1.3A1.32,1.32,0,0,1,69.6,251.3Zm14.4,0a1.3,1.3,0,1,1-1.3,1.3A1.32,1.32,0,0,1,84,251.3Zm14.4,0a1.3,1.3,0,1,1-1.3,1.3A1.32,1.32,0,0,1,98.4,251.3Zm14.4,0a1.3,1.3,0,1,1-1.3,1.3A1.32,1.32,0,0,1,112.8,251.3Zm14.4,0a1.3,1.3,0,1,1-1.3,1.3A1.32,1.32,0,0,1,127.2,251.3Zm14.4,0a1.3,1.3,0,1,1-1.3,1.3A1.32,1.32,0,0,1,141.6,251.3Zm14.4,0a1.3,1.3,0,1,1-1.3,1.3A1.32,1.32,0,0,1,156,251.3Zm14.4,0a1.3,1.3,0,1,1-1.3,1.3A1.32,1.32,0,0,1,170.4,251.3Zm14.4,0a1.3,1.3,0,1,1-1.3,1.3A1.32,1.32,0,0,1,184.8,251.3Zm14.4,0a1.3,1.3,0,1,1-1.3,1.3A1.32,1.32,0,0,1,199.2,251.3Zm14.4,0a1.3,1.3,0,1,1-1.3,1.3A1.32,1.32,0,0,1,213.6,251.3Zm14.4,0a1.3,1.3,0,1,1-1.3,1.3A1.32,1.32,0,0,1,228,251.3Zm14.4,0a1.3,1.3,0,1,1-1.3,1.3A1.32,1.32,0,0,1,242.4,251.3Zm14.4,0a1.3,1.3,0,1,1-1.3,1.3A1.32,1.32,0,0,1,256.8,251.3Zm14.4,0a1.3,1.3,0,1,1-1.3,1.3A1.32,1.32,0,0,1,271.2,251.3Zm14.4,0a1.3,1.3,0,1,1-1.3,1.3A1.32,1.32,0,0,1,285.6,251.3Zm14.4,0a1.3,1.3,0,1,1-1.3,1.3A1.32,1.32,0,0,1,300,251.3Zm14.4,0a1.3,1.3,0,1,1-1.3,1.3A1.32,1.32,0,0,1,314.4,251.3ZM4.8,236.9a1.3,1.3,0,1,1-1.3,1.3A1.32,1.32,0,0,1,4.8,236.9Z" fill="#c1dcf3"/><circle cx="19.2" cy="238.2" r="1.3" fill="#c1dcf3"/><path d="M33.6,236.9a1.3,1.3,0,1,1-1.3,1.3A1.32,1.32,0,0,1,33.6,236.9Zm14.4,0a1.3,1.3,0,1,1-1.3,1.3A1.32,1.32,0,0,1,48,236.9Zm14.4,0a1.3,1.3,0,1,1-1.3,1.3A1.32,1.32,0,0,1,62.4,236.9Zm14.4,0a1.3,1.3,0,1,1-1.3,1.3A1.32,1.32,0,0,1,76.8,236.9Z" fill="#c1dcf3"/><circle cx="91.2" cy="238.2" r="1.3" fill="#c1dcf3"/><path d="M105.6,236.9a1.3,1.3,0,1,1-1.3,1.3A1.32,1.32,0,0,1,105.6,236.9Zm14.4,0a1.3,1.3,0,1,1-1.3,1.3A1.32,1.32,0,0,1,120,236.9Zm14.4,0a1.3,1.3,0,1,1-1.3,1.3A1.32,1.32,0,0,1,134.4,236.9Zm14.4,0a1.3,1.3,0,1,1-1.3,1.3A1.32,1.32,0,0,1,148.8,236.9Z" fill="#c1dcf3"/><circle cx="163.2" cy="238.2" r="1.3" fill="#c1dcf3"/><path d="M177.6,236.9a1.3,1.3,0,1,1-1.3,1.3A1.32,1.32,0,0,1,177.6,236.9Zm14.4,0a1.3,1.3,0,1,1-1.3,1.3A1.32,1.32,0,0,1,192,236.9Zm14.4,0a1.3,1.3,0,1,1-1.3,1.3A1.32,1.32,0,0,1,206.4,236.9Zm14.4,0a1.3,1.3,0,1,1-1.3,1.3A1.32,1.32,0,0,1,220.8,236.9Z" fill="#c1dcf3"/><circle cx="235.2" cy="238.2" r="1.3" fill="#c1dcf3"/><path d="M249.6,236.9a1.3,1.3,0,1,1-1.3,1.3A1.32,1.32,0,0,1,249.6,236.9Zm14.4,0a1.3,1.3,0,1,1-1.3,1.3A1.32,1.32,0,0,1,264,236.9Zm14.4,0a1.3,1.3,0,1,1-1.3,1.3A1.32,1.32,0,0,1,278.4,236.9Zm14.4,0a1.3,1.3,0,1,1-1.3,1.3A1.32,1.32,0,0,1,292.8,236.9Z" fill="#c1dcf3"/><circle cx="307.2" cy="238.2" r="1.3" fill="#c1dcf3"/><path d="M12,222.5a1.3,1.3,0,1,1-1.3,1.3A1.32,1.32,0,0,1,12,222.5Zm14.4,0a1.3,1.3,0,1,1-1.3,1.3A1.32,1.32,0,0,1,26.4,222.5Zm14.4,0a1.3,1.3,0,1,1-1.3,1.3A1.32,1.32,0,0,1,40.8,222.5Z" fill="#c1dcf3"/><circle cx="55.2" cy="223.8" r="1.3" fill="#c1dcf3"/><path d="M69.6,222.5a1.3,1.3,0,1,1-1.3,1.3A1.32,1.32,0,0,1,69.6,222.5Zm14.4,0a1.3,1.3,0,1,1-1.3,1.3A1.32,1.32,0,0,1,84,222.5Zm14.4,0a1.3,1.3,0,1,1-1.3,1.3A1.32,1.32,0,0,1,98.4,222.5Zm14.4,0a1.3,1.3,0,1,1-1.3,1.3A1.32,1.32,0,0,1,112.8,222.5Z" fill="#c1dcf3"/><circle cx="127.2" cy="223.8" r="1.3" fill="#c1dcf3"/><path d="M141.6,222.5a1.3,1.3,0,1,1-1.3,1.3A1.32,1.32,0,0,1,141.6,222.5Zm14.4,0a1.3,1.3,0,1,1-1.3,1.3A1.32,1.32,0,0,1,156,222.5Zm14.4,0a1.3,1.3,0,1,1-1.3,1.3A1.32,1.32,0,0,1,170.4,222.5Zm14.4,0a1.3,1.3,0,1,1-1.3,1.3A1.32,1.32,0,0,1,184.8,222.5Z" fill="#c1dcf3"/><circle cx="199.2" cy="223.8" r="1.3" fill="#c1dcf3"/><path d="M213.6,222.5a1.3,1.3,0,1,1-1.3,1.3A1.32,1.32,0,0,1,213.6,222.5Zm14.4,0a1.3,1.3,0,1,1-1.3,1.3A1.32,1.32,0,0,1,228,222.5Zm14.4,0a1.3,1.3,0,1,1-1.3,1.3A1.32,1.32,0,0,1,242.4,222.5Zm14.4,0a1.3,1.3,0,1,1-1.3,1.3A1.32,1.32,0,0,1,256.8,222.5Z" fill="#c1dcf3"/><circle cx="271.2" cy="223.8" r="1.3" fill="#c1dcf3"/><path d="M285.6,222.5a1.3,1.3,0,1,1-1.3,1.3A1.32,1.32,0,0,1,285.6,222.5Zm14.4,0a1.3,1.3,0,1,1-1.3,1.3A1.32,1.32,0,0,1,300,222.5Zm14.4,0a1.3,1.3,0,1,1-1.3,1.3A1.32,1.32,0,0,1,314.4,222.5ZM4.8,208.1a1.3,1.3,0,1,1-1.3,1.3A1.32,1.32,0,0,1,4.8,208.1Zm14.4,0a1.3,1.3,0,1,1-1.3,1.3A1.32,1.32,0,0,1,19.2,208.1Zm14.4,0a1.3,1.3,0,1,1-1.3,1.3A1.32,1.32,0,0,1,33.6,208.1Zm14.4,0a1.3,1.3,0,1,1-1.3,1.3A1.32,1.32,0,0,1,48,208.1Zm14.4,0a1.3,1.3,0,1,1-1.3,1.3A1.32,1.32,0,0,1,62.4,208.1Zm14.4,0a1.3,1.3,0,1,1-1.3,1.3A1.32,1.32,0,0,1,76.8,208.1Zm14.4,0a1.3,1.3,0,1,1-1.3,1.3A1.32,1.32,0,0,1,91.2,208.1Zm14.4,0a1.3,1.3,0,1,1-1.3,1.3A1.32,1.32,0,0,1,105.6,208.1Zm14.4,0a1.3,1.3,0,1,1-1.3,1.3A1.32,1.32,0,0,1,120,208.1Zm14.4,0a1.3,1.3,0,1,1-1.3,1.3A1.32,1.32,0,0,1,134.4,208.1Zm14.4,0a1.3,1.3,0,1,1-1.3,1.3A1.32,1.32,0,0,1,148.8,208.1Zm14.4,0a1.3,1.3,0,1,1-1.3,1.3A1.32,1.32,0,0,1,163.2,208.1Zm14.4,0a1.3,1.3,0,1,1-1.3,1.3A1.32,1.32,0,0,1,177.6,208.1Zm14.4,0a1.3,1.3,0,1,1-1.3,1.3A1.32,1.32,0,0,1,192,208.1Zm14.4,0a1.3,1.3,0,1,1-1.3,1.3A1.32,1.32,0,0,1,206.4,208.1Zm14.4,0a1.3,1.3,0,1,1-1.3,1.3A1.32,1.32,0,0,1,220.8,208.1Zm14.4,0a1.3,1.3,0,1,1-1.3,1.3A1.32,1.32,0,0,1,235.2,208.1Zm14.4,0a1.3,1.3,0,1,1-1.3,1.3A1.32,1.32,0,0,1,249.6,208.1Zm14.4,0a1.3,1.3,0,1,1-1.3,1.3A1.32,1.32,0,0,1,264,208.1Zm14.4,0a1.3,1.3,0,1,1-1.3,1.3A1.32,1.32,0,0,1,278.4,208.1Zm14.4,0a1.3,1.3,0,1,1-1.3,1.3A1.32,1.32,0,0,1,292.8,208.1Zm14.4,0a1.3,1.3,0,1,1-1.3,1.3A1.32,1.32,0,0,1,307.2,208.1ZM12,193.7a1.3,1.3,0,1,1-1.3,1.3A1.32,1.32,0,0,1,12,193.7Zm14.4,0a1.3,1.3,0,1,1-1.3,1.3A1.32,1.32,0,0,1,26.4,193.7Zm14.4,0a1.3,1.3,0,1,1-1.3,1.3A1.32,1.32,0,0,1,40.8,193.7Zm14.4,0a1.3,1.3,0,1,1-1.3,1.3A1.32,1.32,0,0,1,55.2,193.7Zm14.4,0a1.3,1.3,0,1,1-1.3,1.3A1.32,1.32,0,0,1,69.6,193.7Zm14.4,0a1.3,1.3,0,1,1-1.3,1.3A1.32,1.32,0,0,1,84,193.7Zm14.4,0a1.3,1.3,0,1,1-1.3,1.3A1.32,1.32,0,0,1,98.4,193.7Zm14.4,0a1.3,1.3,0,1,1-1.3,1.3A1.32,1.32,0,0,1,112.8,193.7Zm14.4,0a1.3,1.3,0,1,1-1.3,1.3A1.32,1.32,0,0,1,127.2,193.7Zm14.4,0a1.3,1.3,0,1,1-1.3,1.3A1.32,1.32,0,0,1,141.6,193.7Zm14.4,0a1.3,1.3,0,1,1-1.3,1.3A1.32,1.32,0,0,1,156,193.7Zm14.4,0a1.3,1.3,0,1,1-1.3,1.3A1.32,1.32,0,0,1,170.4,193.7Zm14.4,0a1.3,1.3,0,1,1-1.3,1.3A1.32,1.32,0,0,1,184.8,193.7Zm14.4,0a1.3,1.3,0,1,1-1.3,1.3A1.32,1.32,0,0,1,199.2,193.7Zm14.4,0a1.3,1.3,0,1,1-1.3,1.3A1.32,1.32,0,0,1,213.6,193.7Zm14.4,0a1.3,1.3,0,1,1-1.3,1.3A1.32,1.32,0,0,1,228,193.7Zm14.4,0a1.3,1.3,0,1,1-1.3,1.3A1.32,1.32,0,0,1,242.4,193.7Zm14.4,0a1.3,1.3,0,1,1-1.3,1.3A1.32,1.32,0,0,1,256.8,193.7Zm14.4,0a1.3,1.3,0,1,1-1.3,1.3A1.32,1.32,0,0,1,271.2,193.7Zm14.4,0a1.3,1.3,0,1,1-1.3,1.3A1.32,1.32,0,0,1,285.6,193.7Zm14.4,0a1.3,1.3,0,1,1-1.3,1.3A1.32,1.32,0,0,1,300,193.7Zm14.4,0a1.3,1.3,0,1,1-1.3,1.3A1.32,1.32,0,0,1,314.4,193.7ZM4.8,179.3a1.3,1.3,0,1,1-1.3,1.3A1.32,1.32,0,0,1,4.8,179.3Zm14.4,0a1.3,1.3,0,1,1-1.3,1.3A1.32,1.32,0,0,1,19.2,179.3Zm14.4,0a1.3,1.3,0,1,1-1.3,1.3A1.32,1.32,0,0,1,33.6,179.3Zm14.4,0a1.3,1.3,0,1,1-1.3,1.3A1.32,1.32,0,0,1,48,179.3Zm14.4,0a1.3,1.3,0,1,1-1.3,1.3A1.32,1.32,0,0,1,62.4,179.3Zm14.4,0a1.3,1.3,0,1,1-1.3,1.3A1.32,1.32,0,0,1,76.8,179.3Zm14.4,0a1.3,1.3,0,1,1-1.3,1.3A1.32,1.32,0,0,1,91.2,179.3Zm14.4,0a1.3,1.3,0,1,1-1.3,1.3A1.32,1.32,0,0,1,105.6,179.3Zm14.4,0a1.3,1.3,0,1,1-1.3,1.3A1.32,1.32,0,0,1,120,179.3Zm14.4,0a1.3,1.3,0,1,1-1.3,1.3A1.32,1.32,0,0,1,134.4,179.3Zm14.4,0a1.3,1.3,0,1,1-1.3,1.3A1.32,1.32,0,0,1,148.8,179.3Zm14.4,0a1.3,1.3,0,1,1-1.3,1.3A1.32,1.32,0,0,1,163.2,179.3Zm14.4,0a1.3,1.3,0,1,1-1.3,1.3A1.32,1.32,0,0,1,177.6,179.3Zm14.4,0a1.3,1.3,0,1,1-1.3,1.3A1.32,1.32,0,0,1,192,179.3Zm14.4,0a1.3,1.3,0,1,1-1.3,1.3A1.32,1.32,0,0,1,206.4,179.3Zm14.4,0a1.3,1.3,0,1,1-1.3,1.3A1.32,1.32,0,0,1,220.8,179.3Zm14.4,0a1.3,1.3,0,1,1-1.3,1.3A1.32,1.32,0,0,1,235.2,179.3Zm14.4,0a1.3,1.3,0,1,1-1.3,1.3A1.32,1.32,0,0,1,249.6,179.3Zm14.4,0a1.3,1.3,0,1,1-1.3,1.3A1.32,1.32,0,0,1,264,179.3Zm14.4,0a1.3,1.3,0,1,1-1.3,1.3A1.32,1.32,0,0,1,278.4,179.3Zm14.4,0a1.3,1.3,0,1,1-1.3,1.3A1.32,1.32,0,0,1,292.8,179.3Zm14.4,0a1.3,1.3,0,1,1-1.3,1.3A1.32,1.32,0,0,1,307.2,179.3ZM12,164.9a1.3,1.3,0,1,1-1.3,1.3A1.32,1.32,0,0,1,12,164.9Zm14.4,0a1.3,1.3,0,1,1-1.3,1.3A1.32,1.32,0,0,1,26.4,164.9Zm14.4,0a1.3,1.3,0,1,1-1.3,1.3A1.32,1.32,0,0,1,40.8,164.9Z" fill="#c1dcf3"/><circle cx="55.2" cy="166.2" r="1.3" fill="#c1dcf3"/><path d="M69.6,164.9a1.3,1.3,0,1,1-1.3,1.3A1.32,1.32,0,0,1,69.6,164.9Zm14.4,0a1.3,1.3,0,1,1-1.3,1.3A1.32,1.32,0,0,1,84,164.9Zm14.4,0a1.3,1.3,0,1,1-1.3,1.3A1.32,1.32,0,0,1,98.4,164.9Zm14.4,0a1.3,1.3,0,1,1-1.3,1.3A1.32,1.32,0,0,1,112.8,164.9Z" fill="#c1dcf3"/><circle cx="127.2" cy="166.2" r="1.3" fill="#c1dcf3"/><path d="M141.6,164.9a1.3,1.3,0,1,1-1.3,1.3A1.32,1.32,0,0,1,141.6,164.9Zm14.4,0a1.3,1.3,0,1,1-1.3,1.3A1.32,1.32,0,0,1,156,164.9Zm14.4,0a1.3,1.3,0,1,1-1.3,1.3A1.32,1.32,0,0,1,170.4,164.9Zm14.4,0a1.3,1.3,0,1,1-1.3,1.3A1.32,1.32,0,0,1,184.8,164.9Z" fill="#c1dcf3"/><circle cx="199.2" cy="166.2" r="1.3" fill="#c1dcf3"/><path d="M213.6,164.9a1.3,1.3,0,1,1-1.3,1.3A1.32,1.32,0,0,1,213.6,164.9Zm14.4,0a1.3,1.3,0,1,1-1.3,1.3A1.32,1.32,0,0,1,228,164.9Zm14.4,0a1.3,1.3,0,1,1-1.3,1.3A1.32,1.32,0,0,1,242.4,164.9Zm14.4,0a1.3,1.3,0,1,1-1.3,1.3A1.32,1.32,0,0,1,256.8,164.9Z" fill="#c1dcf3"/><circle cx="271.2" cy="166.2" r="1.3" fill="#c1dcf3"/><path d="M285.6,164.9a1.3,1.3,0,1,1-1.3,1.3A1.32,1.32,0,0,1,285.6,164.9Zm14.4,0a1.3,1.3,0,1,1-1.3,1.3A1.32,1.32,0,0,1,300,164.9Zm14.4,0a1.3,1.3,0,1,1-1.3,1.3A1.32,1.32,0,0,1,314.4,164.9ZM4.8,150.5a1.3,1.3,0,1,1-1.3,1.3A1.32,1.32,0,0,1,4.8,150.5Z" fill="#c1dcf3"/><circle cx="19.2" cy="151.8" r="1.3" fill="#c1dcf3"/><path d="M33.6,150.5a1.3,1.3,0,1,1-1.3,1.3A1.32,1.32,0,0,1,33.6,150.5Zm14.4,0a1.3,1.3,0,1,1-1.3,1.3A1.32,1.32,0,0,1,48,150.5Zm14.4,0a1.3,1.3,0,1,1-1.3,1.3A1.32,1.32,0,0,1,62.4,150.5Zm14.4,0a1.3,1.3,0,1,1-1.3,1.3A1.32,1.32,0,0,1,76.8,150.5Z" fill="#c1dcf3"/><circle cx="91.2" cy="151.8" r="1.3" fill="#c1dcf3"/><path d="M105.6,150.5a1.3,1.3,0,1,1-1.3,1.3A1.32,1.32,0,0,1,105.6,150.5Zm14.4,0a1.3,1.3,0,1,1-1.3,1.3A1.32,1.32,0,0,1,120,150.5Zm14.4,0a1.3,1.3,0,1,1-1.3,1.3A1.32,1.32,0,0,1,134.4,150.5Zm14.4,0a1.3,1.3,0,1,1-1.3,1.3A1.32,1.32,0,0,1,148.8,150.5Z" fill="#c1dcf3"/><circle cx="163.2" cy="151.8" r="1.3" fill="#c1dcf3"/><path d="M177.6,150.5a1.3,1.3,0,1,1-1.3,1.3A1.32,1.32,0,0,1,177.6,150.5Zm14.4,0a1.3,1.3,0,1,1-1.3,1.3A1.32,1.32,0,0,1,192,150.5Zm14.4,0a1.3,1.3,0,1,1-1.3,1.3A1.32,1.32,0,0,1,206.4,150.5Zm14.4,0a1.3,1.3,0,1,1-1.3,1.3A1.32,1.32,0,0,1,220.8,150.5Z" fill="#c1dcf3"/><circle cx="235.2" cy="151.8" r="1.3" fill="#c1dcf3"/><path d="M249.6,150.5a1.3,1.3,0,1,1-1.3,1.3A1.32,1.32,0,0,1,249.6,150.5Zm14.4,0a1.3,1.3,0,1,1-1.3,1.3A1.32,1.32,0,0,1,264,150.5Zm14.4,0a1.3,1.3,0,1,1-1.3,1.3A1.32,1.32,0,0,1,278.4,150.5Zm14.4,0a1.3,1.3,0,1,1-1.3,1.3A1.32,1.32,0,0,1,292.8,150.5Z" fill="#c1dcf3"/><circle cx="307.2" cy="151.8" r="1.3" fill="#c1dcf3"/><path d="M12,136.1a1.3,1.3,0,1,1-1.3,1.3A1.32,1.32,0,0,1,12,136.1Zm14.4,0a1.3,1.3,0,1,1-1.3,1.3A1.32,1.32,0,0,1,26.4,136.1Zm14.4,0a1.3,1.3,0,1,1-1.3,1.3A1.32,1.32,0,0,1,40.8,136.1Zm14.4,0a1.3,1.3,0,1,1-1.3,1.3A1.32,1.32,0,0,1,55.2,136.1Zm14.4,0a1.3,1.3,0,1,1-1.3,1.3A1.32,1.32,0,0,1,69.6,136.1Zm14.4,0a1.3,1.3,0,1,1-1.3,1.3A1.32,1.32,0,0,1,84,136.1Zm14.4,0a1.3,1.3,0,1,1-1.3,1.3A1.32,1.32,0,0,1,98.4,136.1Zm14.4,0a1.3,1.3,0,1,1-1.3,1.3A1.32,1.32,0,0,1,112.8,136.1Zm14.4,0a1.3,1.3,0,1,1-1.3,1.3A1.32,1.32,0,0,1,127.2,136.1Zm14.4,0a1.3,1.3,0,1,1-1.3,1.3A1.32,1.32,0,0,1,141.6,136.1Zm14.4,0a1.3,1.3,0,1,1-1.3,1.3A1.32,1.32,0,0,1,156,136.1Zm14.4,0a1.3,1.3,0,1,1-1.3,1.3A1.32,1.32,0,0,1,170.4,136.1Zm14.4,0a1.3,1.3,0,1,1-1.3,1.3A1.32,1.32,0,0,1,184.8,136.1Zm14.4,0a1.3,1.3,0,1,1-1.3,1.3A1.32,1.32,0,0,1,199.2,136.1Zm14.4,0a1.3,1.3,0,1,1-1.3,1.3A1.32,1.32,0,0,1,213.6,136.1Zm14.4,0a1.3,1.3,0,1,1-1.3,1.3A1.32,1.32,0,0,1,228,136.1Zm14.4,0a1.3,1.3,0,1,1-1.3,1.3A1.32,1.32,0,0,1,242.4,136.1Zm14.4,0a1.3,1.3,0,1,1-1.3,1.3A1.32,1.32,0,0,1,256.8,136.1Zm14.4,0a1.3,1.3,0,1,1-1.3,1.3A1.32,1.32,0,0,1,271.2,136.1Zm14.4,0a1.3,1.3,0,1,1-1.3,1.3A1.32,1.32,0,0,1,285.6,136.1Zm14.4,0a1.3,1.3,0,1,1-1.3,1.3A1.32,1.32,0,0,1,300,136.1Zm14.4,0a1.3,1.3,0,1,1-1.3,1.3A1.32,1.32,0,0,1,314.4,136.1ZM4.8,121.7A1.3,1.3,0,1,1,3.5,123,1.32,1.32,0,0,1,4.8,121.7Zm14.4,0a1.3,1.3,0,1,1-1.3,1.3A1.32,1.32,0,0,1,19.2,121.7Zm14.4,0a1.3,1.3,0,1,1-1.3,1.3A1.32,1.32,0,0,1,33.6,121.7Zm14.4,0a1.3,1.3,0,1,1-1.3,1.3A1.32,1.32,0,0,1,48,121.7Zm14.4,0a1.3,1.3,0,1,1-1.3,1.3A1.32,1.32,0,0,1,62.4,121.7Zm14.4,0a1.3,1.3,0,1,1-1.3,1.3A1.32,1.32,0,0,1,76.8,121.7Zm14.4,0a1.3,1.3,0,1,1-1.3,1.3A1.32,1.32,0,0,1,91.2,121.7Zm14.4,0a1.3,1.3,0,1,1-1.3,1.3A1.32,1.32,0,0,1,105.6,121.7Zm14.4,0a1.3,1.3,0,1,1-1.3,1.3A1.32,1.32,0,0,1,120,121.7Zm14.4,0a1.3,1.3,0,1,1-1.3,1.3A1.32,1.32,0,0,1,134.4,121.7Zm14.4,0a1.3,1.3,0,1,1-1.3,1.3A1.32,1.32,0,0,1,148.8,121.7Zm14.4,0a1.3,1.3,0,1,1-1.3,1.3A1.32,1.32,0,0,1,163.2,121.7Zm14.4,0a1.3,1.3,0,1,1-1.3,1.3A1.32,1.32,0,0,1,177.6,121.7Zm14.4,0a1.3,1.3,0,1,1-1.3,1.3A1.32,1.32,0,0,1,192,121.7Zm14.4,0a1.3,1.3,0,1,1-1.3,1.3A1.32,1.32,0,0,1,206.4,121.7Zm14.4,0a1.3,1.3,0,1,1-1.3,1.3A1.32,1.32,0,0,1,220.8,121.7Zm14.4,0a1.3,1.3,0,1,1-1.3,1.3A1.32,1.32,0,0,1,235.2,121.7Zm14.4,0a1.3,1.3,0,1,1-1.3,1.3A1.32,1.32,0,0,1,249.6,121.7Zm14.4,0a1.3,1.3,0,1,1-1.3,1.3A1.32,1.32,0,0,1,264,121.7Zm14.4,0a1.3,1.3,0,1,1-1.3,1.3A1.32,1.32,0,0,1,278.4,121.7Zm14.4,0a1.3,1.3,0,1,1-1.3,1.3A1.32,1.32,0,0,1,292.8,121.7Zm14.4,0a1.3,1.3,0,1,1-1.3,1.3A1.32,1.32,0,0,1,307.2,121.7ZM12,107.3a1.3,1.3,0,1,1-1.3,1.3A1.32,1.32,0,0,1,12,107.3Zm14.4,0a1.3,1.3,0,1,1-1.3,1.3A1.32,1.32,0,0,1,26.4,107.3Zm14.4,0a1.3,1.3,0,1,1-1.3,1.3A1.32,1.32,0,0,1,40.8,107.3Zm14.4,0a1.3,1.3,0,1,1-1.3,1.3A1.32,1.32,0,0,1,55.2,107.3Zm14.4,0a1.3,1.3,0,1,1-1.3,1.3A1.32,1.32,0,0,1,69.6,107.3Zm14.4,0a1.3,1.3,0,1,1-1.3,1.3A1.32,1.32,0,0,1,84,107.3Zm14.4,0a1.3,1.3,0,1,1-1.3,1.3A1.32,1.32,0,0,1,98.4,107.3Zm14.4,0a1.3,1.3,0,1,1-1.3,1.3A1.32,1.32,0,0,1,112.8,107.3Zm14.4,0a1.3,1.3,0,1,1-1.3,1.3A1.32,1.32,0,0,1,127.2,107.3Zm14.4,0a1.3,1.3,0,1,1-1.3,1.3A1.32,1.32,0,0,1,141.6,107.3Zm14.4,0a1.3,1.3,0,1,1-1.3,1.3A1.32,1.32,0,0,1,156,107.3Zm14.4,0a1.3,1.3,0,1,1-1.3,1.3A1.32,1.32,0,0,1,170.4,107.3Zm14.4,0a1.3,1.3,0,1,1-1.3,1.3A1.32,1.32,0,0,1,184.8,107.3Zm14.4,0a1.3,1.3,0,1,1-1.3,1.3A1.32,1.32,0,0,1,199.2,107.3Zm14.4,0a1.3,1.3,0,1,1-1.3,1.3A1.32,1.32,0,0,1,213.6,107.3Zm14.4,0a1.3,1.3,0,1,1-1.3,1.3A1.32,1.32,0,0,1,228,107.3Zm14.4,0a1.3,1.3,0,1,1-1.3,1.3A1.32,1.32,0,0,1,242.4,107.3Zm14.4,0a1.3,1.3,0,1,1-1.3,1.3A1.32,1.32,0,0,1,256.8,107.3Zm14.4,0a1.3,1.3,0,1,1-1.3,1.3A1.32,1.32,0,0,1,271.2,107.3Zm14.4,0a1.3,1.3,0,1,1-1.3,1.3A1.32,1.32,0,0,1,285.6,107.3Zm14.4,0a1.3,1.3,0,1,1-1.3,1.3A1.32,1.32,0,0,1,300,107.3Zm14.4,0a1.3,1.3,0,1,1-1.3,1.3A1.32,1.32,0,0,1,314.4,107.3ZM4.8,92.9a1.3,1.3,0,1,1-1.3,1.3A1.32,1.32,0,0,1,4.8,92.9Z" fill="#c1dcf3"/><circle cx="19.2" cy="94.2" r="1.3" fill="#c1dcf3"/><path d="M33.6,92.9a1.3,1.3,0,1,1-1.3,1.3A1.32,1.32,0,0,1,33.6,92.9Zm14.4,0a1.3,1.3,0,1,1-1.3,1.3A1.32,1.32,0,0,1,48,92.9Zm14.4,0a1.3,1.3,0,1,1-1.3,1.3A1.32,1.32,0,0,1,62.4,92.9Zm14.4,0a1.3,1.3,0,1,1-1.3,1.3A1.32,1.32,0,0,1,76.8,92.9Z" fill="#c1dcf3"/><circle cx="91.2" cy="94.2" r="1.3" fill="#c1dcf3"/><path d="M105.6,92.9a1.3,1.3,0,1,1-1.3,1.3A1.32,1.32,0,0,1,105.6,92.9Zm14.4,0a1.3,1.3,0,1,1-1.3,1.3A1.32,1.32,0,0,1,120,92.9Zm14.4,0a1.3,1.3,0,1,1-1.3,1.3A1.32,1.32,0,0,1,134.4,92.9Zm14.4,0a1.3,1.3,0,1,1-1.3,1.3A1.32,1.32,0,0,1,148.8,92.9Z" fill="#c1dcf3"/><circle cx="163.2" cy="94.2" r="1.3" fill="#c1dcf3"/><path d="M177.6,92.9a1.3,1.3,0,1,1-1.3,1.3A1.32,1.32,0,0,1,177.6,92.9Zm14.4,0a1.3,1.3,0,1,1-1.3,1.3A1.32,1.32,0,0,1,192,92.9Zm14.4,0a1.3,1.3,0,1,1-1.3,1.3A1.32,1.32,0,0,1,206.4,92.9Zm14.4,0a1.3,1.3,0,1,1-1.3,1.3A1.32,1.32,0,0,1,220.8,92.9Z" fill="#c1dcf3"/><circle cx="235.2" cy="94.2" r="1.3" fill="#c1dcf3"/><path d="M249.6,92.9a1.3,1.3,0,1,1-1.3,1.3A1.32,1.32,0,0,1,249.6,92.9Zm14.4,0a1.3,1.3,0,1,1-1.3,1.3A1.32,1.32,0,0,1,264,92.9Zm14.4,0a1.3,1.3,0,1,1-1.3,1.3A1.32,1.32,0,0,1,278.4,92.9Zm14.4,0a1.3,1.3,0,1,1-1.3,1.3A1.32,1.32,0,0,1,292.8,92.9Z" fill="#c1dcf3"/><circle cx="307.2" cy="94.2" r="1.3" fill="#c1dcf3"/><path d="M12,78.5a1.3,1.3,0,1,1-1.3,1.3A1.32,1.32,0,0,1,12,78.5Zm14.4,0a1.3,1.3,0,1,1-1.3,1.3A1.32,1.32,0,0,1,26.4,78.5Zm14.4,0a1.3,1.3,0,1,1-1.3,1.3A1.32,1.32,0,0,1,40.8,78.5Z" fill="#c1dcf3"/><circle cx="55.2" cy="79.8" r="1.3" fill="#c1dcf3"/><path d="M69.6,78.5a1.3,1.3,0,1,1-1.3,1.3A1.32,1.32,0,0,1,69.6,78.5Zm14.4,0a1.3,1.3,0,1,1-1.3,1.3A1.32,1.32,0,0,1,84,78.5Zm14.4,0a1.3,1.3,0,1,1-1.3,1.3A1.32,1.32,0,0,1,98.4,78.5Zm14.4,0a1.3,1.3,0,1,1-1.3,1.3A1.32,1.32,0,0,1,112.8,78.5Z" fill="#c1dcf3"/><circle cx="127.2" cy="79.8" r="1.3" fill="#c1dcf3"/><path d="M141.6,78.5a1.3,1.3,0,1,1-1.3,1.3A1.32,1.32,0,0,1,141.6,78.5Zm14.4,0a1.3,1.3,0,1,1-1.3,1.3A1.32,1.32,0,0,1,156,78.5Zm14.4,0a1.3,1.3,0,1,1-1.3,1.3A1.32,1.32,0,0,1,170.4,78.5Zm14.4,0a1.3,1.3,0,1,1-1.3,1.3A1.32,1.32,0,0,1,184.8,78.5Z" fill="#c1dcf3"/><circle cx="199.2" cy="79.8" r="1.3" fill="#c1dcf3"/><path d="M213.6,78.5a1.3,1.3,0,1,1-1.3,1.3A1.32,1.32,0,0,1,213.6,78.5Zm14.4,0a1.3,1.3,0,1,1-1.3,1.3A1.32,1.32,0,0,1,228,78.5Zm14.4,0a1.3,1.3,0,1,1-1.3,1.3A1.32,1.32,0,0,1,242.4,78.5Zm14.4,0a1.3,1.3,0,1,1-1.3,1.3A1.32,1.32,0,0,1,256.8,78.5Z" fill="#c1dcf3"/><circle cx="271.2" cy="79.8" r="1.3" fill="#c1dcf3"/><path d="M285.6,78.5a1.3,1.3,0,1,1-1.3,1.3A1.32,1.32,0,0,1,285.6,78.5Zm14.4,0a1.3,1.3,0,1,1-1.3,1.3A1.32,1.32,0,0,1,300,78.5Zm14.4,0a1.3,1.3,0,1,1-1.3,1.3A1.32,1.32,0,0,1,314.4,78.5ZM4.8,64.1a1.3,1.3,0,1,1-1.3,1.3A1.32,1.32,0,0,1,4.8,64.1Zm14.4,0a1.3,1.3,0,1,1-1.3,1.3A1.32,1.32,0,0,1,19.2,64.1Zm14.4,0a1.3,1.3,0,1,1-1.3,1.3A1.32,1.32,0,0,1,33.6,64.1Zm14.4,0a1.3,1.3,0,1,1-1.3,1.3A1.32,1.32,0,0,1,48,64.1Zm14.4,0a1.3,1.3,0,1,1-1.3,1.3A1.32,1.32,0,0,1,62.4,64.1Zm14.4,0a1.3,1.3,0,1,1-1.3,1.3A1.32,1.32,0,0,1,76.8,64.1Zm14.4,0a1.3,1.3,0,1,1-1.3,1.3A1.32,1.32,0,0,1,91.2,64.1Zm14.4,0a1.3,1.3,0,1,1-1.3,1.3A1.32,1.32,0,0,1,105.6,64.1Zm14.4,0a1.3,1.3,0,1,1-1.3,1.3A1.32,1.32,0,0,1,120,64.1Zm14.4,0a1.3,1.3,0,1,1-1.3,1.3A1.32,1.32,0,0,1,134.4,64.1Zm14.4,0a1.3,1.3,0,1,1-1.3,1.3A1.32,1.32,0,0,1,148.8,64.1Zm14.4,0a1.3,1.3,0,1,1-1.3,1.3A1.32,1.32,0,0,1,163.2,64.1Zm14.4,0a1.3,1.3,0,1,1-1.3,1.3A1.32,1.32,0,0,1,177.6,64.1Zm14.4,0a1.3,1.3,0,1,1-1.3,1.3A1.32,1.32,0,0,1,192,64.1Zm14.4,0a1.3,1.3,0,1,1-1.3,1.3A1.32,1.32,0,0,1,206.4,64.1Zm14.4,0a1.3,1.3,0,1,1-1.3,1.3A1.32,1.32,0,0,1,220.8,64.1Zm14.4,0a1.3,1.3,0,1,1-1.3,1.3A1.32,1.32,0,0,1,235.2,64.1Zm14.4,0a1.3,1.3,0,1,1-1.3,1.3A1.32,1.32,0,0,1,249.6,64.1Zm14.4,0a1.3,1.3,0,1,1-1.3,1.3A1.32,1.32,0,0,1,264,64.1Zm14.4,0a1.3,1.3,0,1,1-1.3,1.3A1.32,1.32,0,0,1,278.4,64.1Zm14.4,0a1.3,1.3,0,1,1-1.3,1.3A1.32,1.32,0,0,1,292.8,64.1Zm14.4,0a1.3,1.3,0,1,1-1.3,1.3A1.32,1.32,0,0,1,307.2,64.1ZM12,49.7A1.3,1.3,0,1,1,10.7,51,1.32,1.32,0,0,1,12,49.7Zm14.4,0A1.3,1.3,0,1,1,25.1,51,1.32,1.32,0,0,1,26.4,49.7Zm14.4,0A1.3,1.3,0,1,1,39.5,51,1.32,1.32,0,0,1,40.8,49.7Zm14.4,0A1.3,1.3,0,1,1,53.9,51,1.32,1.32,0,0,1,55.2,49.7Zm14.4,0A1.3,1.3,0,1,1,68.3,51,1.32,1.32,0,0,1,69.6,49.7Zm14.4,0A1.3,1.3,0,1,1,82.7,51,1.32,1.32,0,0,1,84,49.7Zm14.4,0A1.3,1.3,0,1,1,97.1,51,1.32,1.32,0,0,1,98.4,49.7Zm14.4,0a1.3,1.3,0,1,1-1.3,1.3A1.32,1.32,0,0,1,112.8,49.7Zm14.4,0a1.3,1.3,0,1,1-1.3,1.3A1.32,1.32,0,0,1,127.2,49.7Zm14.4,0a1.3,1.3,0,1,1-1.3,1.3A1.32,1.32,0,0,1,141.6,49.7Zm14.4,0a1.3,1.3,0,1,1-1.3,1.3A1.32,1.32,0,0,1,156,49.7Zm14.4,0a1.3,1.3,0,1,1-1.3,1.3A1.32,1.32,0,0,1,170.4,49.7Zm14.4,0a1.3,1.3,0,1,1-1.3,1.3A1.32,1.32,0,0,1,184.8,49.7Zm14.4,0a1.3,1.3,0,1,1-1.3,1.3A1.32,1.32,0,0,1,199.2,49.7Zm14.4,0a1.3,1.3,0,1,1-1.3,1.3A1.32,1.32,0,0,1,213.6,49.7Zm14.4,0a1.3,1.3,0,1,1-1.3,1.3A1.32,1.32,0,0,1,228,49.7Zm14.4,0a1.3,1.3,0,1,1-1.3,1.3A1.32,1.32,0,0,1,242.4,49.7Zm14.4,0a1.3,1.3,0,1,1-1.3,1.3A1.32,1.32,0,0,1,256.8,49.7Zm14.4,0a1.3,1.3,0,1,1-1.3,1.3A1.32,1.32,0,0,1,271.2,49.7Zm14.4,0a1.3,1.3,0,1,1-1.3,1.3A1.32,1.32,0,0,1,285.6,49.7Zm14.4,0a1.3,1.3,0,1,1-1.3,1.3A1.32,1.32,0,0,1,300,49.7Zm14.4,0a1.3,1.3,0,1,1-1.3,1.3A1.32,1.32,0,0,1,314.4,49.7ZM4.8,35.3a1.3,1.3,0,1,1-1.3,1.3A1.32,1.32,0,0,1,4.8,35.3Zm14.4,0a1.3,1.3,0,1,1-1.3,1.3A1.32,1.32,0,0,1,19.2,35.3Zm14.4,0a1.3,1.3,0,1,1-1.3,1.3A1.32,1.32,0,0,1,33.6,35.3Zm14.4,0a1.3,1.3,0,1,1-1.3,1.3A1.32,1.32,0,0,1,48,35.3Zm14.4,0a1.3,1.3,0,1,1-1.3,1.3A1.32,1.32,0,0,1,62.4,35.3Zm14.4,0a1.3,1.3,0,1,1-1.3,1.3A1.32,1.32,0,0,1,76.8,35.3Zm14.4,0a1.3,1.3,0,1,1-1.3,1.3A1.32,1.32,0,0,1,91.2,35.3Zm14.4,0a1.3,1.3,0,1,1-1.3,1.3A1.32,1.32,0,0,1,105.6,35.3Zm14.4,0a1.3,1.3,0,1,1-1.3,1.3A1.32,1.32,0,0,1,120,35.3Zm14.4,0a1.3,1.3,0,1,1-1.3,1.3A1.32,1.32,0,0,1,134.4,35.3Zm14.4,0a1.3,1.3,0,1,1-1.3,1.3A1.32,1.32,0,0,1,148.8,35.3Zm14.4,0a1.3,1.3,0,1,1-1.3,1.3A1.32,1.32,0,0,1,163.2,35.3Zm14.4,0a1.3,1.3,0,1,1-1.3,1.3A1.32,1.32,0,0,1,177.6,35.3Zm14.4,0a1.3,1.3,0,1,1-1.3,1.3A1.32,1.32,0,0,1,192,35.3Zm14.4,0a1.3,1.3,0,1,1-1.3,1.3A1.32,1.32,0,0,1,206.4,35.3Zm14.4,0a1.3,1.3,0,1,1-1.3,1.3A1.32,1.32,0,0,1,220.8,35.3Zm14.4,0a1.3,1.3,0,1,1-1.3,1.3A1.32,1.32,0,0,1,235.2,35.3Zm14.4,0a1.3,1.3,0,1,1-1.3,1.3A1.32,1.32,0,0,1,249.6,35.3Zm14.4,0a1.3,1.3,0,1,1-1.3,1.3A1.32,1.32,0,0,1,264,35.3Zm14.4,0a1.3,1.3,0,1,1-1.3,1.3A1.32,1.32,0,0,1,278.4,35.3Zm14.4,0a1.3,1.3,0,1,1-1.3,1.3A1.32,1.32,0,0,1,292.8,35.3Zm14.4,0a1.3,1.3,0,1,1-1.3,1.3A1.32,1.32,0,0,1,307.2,35.3ZM12,20.9a1.3,1.3,0,1,1-1.3,1.3A1.32,1.32,0,0,1,12,20.9Zm14.4,0a1.3,1.3,0,1,1-1.3,1.3A1.32,1.32,0,0,1,26.4,20.9Zm14.4,0a1.3,1.3,0,1,1-1.3,1.3A1.32,1.32,0,0,1,40.8,20.9Z" fill="#c1dcf3"/><circle cx="55.2" cy="22.2" r="1.3" fill="#c1dcf3"/><path d="M69.6,20.9a1.3,1.3,0,1,1-1.3,1.3A1.32,1.32,0,0,1,69.6,20.9Zm14.4,0a1.3,1.3,0,1,1-1.3,1.3A1.32,1.32,0,0,1,84,20.9Zm14.4,0a1.3,1.3,0,1,1-1.3,1.3A1.32,1.32,0,0,1,98.4,20.9Zm14.4,0a1.3,1.3,0,1,1-1.3,1.3A1.32,1.32,0,0,1,112.8,20.9Z" fill="#c1dcf3"/><circle cx="127.2" cy="22.2" r="1.3" fill="#c1dcf3"/><path d="M141.6,20.9a1.3,1.3,0,1,1-1.3,1.3A1.32,1.32,0,0,1,141.6,20.9Zm14.4,0a1.3,1.3,0,1,1-1.3,1.3A1.32,1.32,0,0,1,156,20.9Zm14.4,0a1.3,1.3,0,1,1-1.3,1.3A1.32,1.32,0,0,1,170.4,20.9Zm14.4,0a1.3,1.3,0,1,1-1.3,1.3A1.32,1.32,0,0,1,184.8,20.9Z" fill="#c1dcf3"/><circle cx="199.2" cy="22.2" r="1.3" fill="#c1dcf3"/><path d="M213.6,20.9a1.3,1.3,0,1,1-1.3,1.3A1.32,1.32,0,0,1,213.6,20.9Zm14.4,0a1.3,1.3,0,1,1-1.3,1.3A1.32,1.32,0,0,1,228,20.9Zm14.4,0a1.3,1.3,0,1,1-1.3,1.3A1.32,1.32,0,0,1,242.4,20.9Zm14.4,0a1.3,1.3,0,1,1-1.3,1.3A1.32,1.32,0,0,1,256.8,20.9Z" fill="#c1dcf3"/><circle cx="271.2" cy="22.2" r="1.3" fill="#c1dcf3"/><path d="M285.6,20.9a1.3,1.3,0,1,1-1.3,1.3A1.32,1.32,0,0,1,285.6,20.9Zm14.4,0a1.3,1.3,0,1,1-1.3,1.3A1.32,1.32,0,0,1,300,20.9Zm14.4,0a1.3,1.3,0,1,1-1.3,1.3A1.32,1.32,0,0,1,314.4,20.9ZM4.8,6.5A1.3,1.3,0,1,1,3.5,7.8,1.32,1.32,0,0,1,4.8,6.5Z" fill="#c1dcf3"/><circle cx="19.2" cy="7.8" r="1.3" fill="#c1dcf3"/><path d="M33.6,6.5a1.3,1.3,0,1,1-1.3,1.3A1.32,1.32,0,0,1,33.6,6.5ZM48,6.5a1.3,1.3,0,1,1-1.3,1.3A1.32,1.32,0,0,1,48,6.5Zm14.4,0a1.3,1.3,0,1,1-1.3,1.3A1.32,1.32,0,0,1,62.4,6.5Zm14.4,0a1.3,1.3,0,1,1-1.3,1.3A1.32,1.32,0,0,1,76.8,6.5Z" fill="#c1dcf3"/><circle cx="91.2" cy="7.8" r="1.3" fill="#c1dcf3"/><path d="M105.6,6.5a1.3,1.3,0,1,1-1.3,1.3A1.32,1.32,0,0,1,105.6,6.5Zm14.4,0a1.3,1.3,0,1,1-1.3,1.3A1.32,1.32,0,0,1,120,6.5Zm14.4,0a1.3,1.3,0,1,1-1.3,1.3A1.32,1.32,0,0,1,134.4,6.5Zm14.4,0a1.3,1.3,0,1,1-1.3,1.3A1.32,1.32,0,0,1,148.8,6.5Z" fill="#c1dcf3"/><circle cx="163.2" cy="7.8" r="1.3" fill="#c1dcf3"/><path d="M177.6,6.5a1.3,1.3,0,1,1-1.3,1.3A1.32,1.32,0,0,1,177.6,6.5Zm14.4,0a1.3,1.3,0,1,1-1.3,1.3A1.32,1.32,0,0,1,192,6.5Zm14.4,0a1.3,1.3,0,1,1-1.3,1.3A1.32,1.32,0,0,1,206.4,6.5Zm14.4,0a1.3,1.3,0,1,1-1.3,1.3A1.32,1.32,0,0,1,220.8,6.5Z" fill="#c1dcf3"/><circle cx="235.2" cy="7.8" r="1.3" fill="#c1dcf3"/><path d="M249.6,6.5a1.3,1.3,0,1,1-1.3,1.3A1.32,1.32,0,0,1,249.6,6.5Zm14.4,0a1.3,1.3,0,1,1-1.3,1.3A1.32,1.32,0,0,1,264,6.5Zm14.4,0a1.3,1.3,0,1,1-1.3,1.3A1.32,1.32,0,0,1,278.4,6.5Zm14.4,0a1.3,1.3,0,1,1-1.3,1.3A1.32,1.32,0,0,1,292.8,6.5Z" fill="#c1dcf3"/><circle cx="307.2" cy="7.8" r="1.3" fill="#c1dcf3"/></pattern><pattern id="b" width="319.2" height="318" patternTransform="matrix(-0.32, -0.03, 0.03, -0.32, -7661.8, 3721.33)" patternUnits="userSpaceOnUse" viewBox="0 0 319.2 318"><rect width="319.2" height="318" fill="none"/><path d="M0,318H319.2V0H0Z" fill="none"/><path d="M12,308.9a1.3,1.3,0,1,1-1.3,1.3A1.32,1.32,0,0,1,12,308.9Zm14.4,0a1.3,1.3,0,1,1-1.3,1.3A1.32,1.32,0,0,1,26.4,308.9Zm14.4,0a1.3,1.3,0,1,1-1.3,1.3A1.32,1.32,0,0,1,40.8,308.9Z" fill="#c1dcf3"/><circle cx="55.2" cy="310.2" r="1.3" fill="#c1dcf3"/><path d="M69.6,308.9a1.3,1.3,0,1,1-1.3,1.3A1.32,1.32,0,0,1,69.6,308.9Zm14.4,0a1.3,1.3,0,1,1-1.3,1.3A1.32,1.32,0,0,1,84,308.9Zm14.4,0a1.3,1.3,0,1,1-1.3,1.3A1.32,1.32,0,0,1,98.4,308.9Zm14.4,0a1.3,1.3,0,1,1-1.3,1.3A1.32,1.32,0,0,1,112.8,308.9Z" fill="#c1dcf3"/><circle cx="127.2" cy="310.2" r="1.3" fill="#c1dcf3"/><path d="M141.6,308.9a1.3,1.3,0,1,1-1.3,1.3A1.32,1.32,0,0,1,141.6,308.9Zm14.4,0a1.3,1.3,0,1,1-1.3,1.3A1.32,1.32,0,0,1,156,308.9Zm14.4,0a1.3,1.3,0,1,1-1.3,1.3A1.32,1.32,0,0,1,170.4,308.9Zm14.4,0a1.3,1.3,0,1,1-1.3,1.3A1.32,1.32,0,0,1,184.8,308.9Z" fill="#c1dcf3"/><circle cx="199.2" cy="310.2" r="1.3" fill="#c1dcf3"/><path d="M213.6,308.9a1.3,1.3,0,1,1-1.3,1.3A1.32,1.32,0,0,1,213.6,308.9Zm14.4,0a1.3,1.3,0,1,1-1.3,1.3A1.32,1.32,0,0,1,228,308.9Zm14.4,0a1.3,1.3,0,1,1-1.3,1.3A1.32,1.32,0,0,1,242.4,308.9Zm14.4,0a1.3,1.3,0,1,1-1.3,1.3A1.32,1.32,0,0,1,256.8,308.9Z" fill="#c1dcf3"/><circle cx="271.2" cy="310.2" r="1.3" fill="#c1dcf3"/><path d="M285.6,308.9a1.3,1.3,0,1,1-1.3,1.3A1.32,1.32,0,0,1,285.6,308.9Zm14.4,0a1.3,1.3,0,1,1-1.3,1.3A1.32,1.32,0,0,1,300,308.9Zm14.4,0a1.3,1.3,0,1,1-1.3,1.3A1.32,1.32,0,0,1,314.4,308.9ZM4.8,294.5a1.3,1.3,0,1,1-1.3,1.3A1.32,1.32,0,0,1,4.8,294.5Z" fill="#c1dcf3"/><circle cx="19.2" cy="295.8" r="1.3" fill="#c1dcf3"/><path d="M33.6,294.5a1.3,1.3,0,1,1-1.3,1.3A1.32,1.32,0,0,1,33.6,294.5Zm14.4,0a1.3,1.3,0,1,1-1.3,1.3A1.32,1.32,0,0,1,48,294.5Zm14.4,0a1.3,1.3,0,1,1-1.3,1.3A1.32,1.32,0,0,1,62.4,294.5Zm14.4,0a1.3,1.3,0,1,1-1.3,1.3A1.32,1.32,0,0,1,76.8,294.5Z" fill="#c1dcf3"/><circle cx="91.2" cy="295.8" r="1.3" fill="#c1dcf3"/><path d="M105.6,294.5a1.3,1.3,0,1,1-1.3,1.3A1.32,1.32,0,0,1,105.6,294.5Zm14.4,0a1.3,1.3,0,1,1-1.3,1.3A1.32,1.32,0,0,1,120,294.5Zm14.4,0a1.3,1.3,0,1,1-1.3,1.3A1.32,1.32,0,0,1,134.4,294.5Zm14.4,0a1.3,1.3,0,1,1-1.3,1.3A1.32,1.32,0,0,1,148.8,294.5Z" fill="#c1dcf3"/><circle cx="163.2" cy="295.8" r="1.3" fill="#c1dcf3"/><path d="M177.6,294.5a1.3,1.3,0,1,1-1.3,1.3A1.32,1.32,0,0,1,177.6,294.5Zm14.4,0a1.3,1.3,0,1,1-1.3,1.3A1.32,1.32,0,0,1,192,294.5Zm14.4,0a1.3,1.3,0,1,1-1.3,1.3A1.32,1.32,0,0,1,206.4,294.5Zm14.4,0a1.3,1.3,0,1,1-1.3,1.3A1.32,1.32,0,0,1,220.8,294.5Z" fill="#c1dcf3"/><circle cx="235.2" cy="295.8" r="1.3" fill="#c1dcf3"/><path d="M249.6,294.5a1.3,1.3,0,1,1-1.3,1.3A1.32,1.32,0,0,1,249.6,294.5Zm14.4,0a1.3,1.3,0,1,1-1.3,1.3A1.32,1.32,0,0,1,264,294.5Zm14.4,0a1.3,1.3,0,1,1-1.3,1.3A1.32,1.32,0,0,1,278.4,294.5Zm14.4,0a1.3,1.3,0,1,1-1.3,1.3A1.32,1.32,0,0,1,292.8,294.5Z" fill="#c1dcf3"/><circle cx="307.2" cy="295.8" r="1.3" fill="#c1dcf3"/><path d="M12,280.1a1.3,1.3,0,1,1-1.3,1.3A1.32,1.32,0,0,1,12,280.1Zm14.4,0a1.3,1.3,0,1,1-1.3,1.3A1.32,1.32,0,0,1,26.4,280.1Zm14.4,0a1.3,1.3,0,1,1-1.3,1.3A1.32,1.32,0,0,1,40.8,280.1Zm14.4,0a1.3,1.3,0,1,1-1.3,1.3A1.32,1.32,0,0,1,55.2,280.1Zm14.4,0a1.3,1.3,0,1,1-1.3,1.3A1.32,1.32,0,0,1,69.6,280.1Zm14.4,0a1.3,1.3,0,1,1-1.3,1.3A1.32,1.32,0,0,1,84,280.1Zm14.4,0a1.3,1.3,0,1,1-1.3,1.3A1.32,1.32,0,0,1,98.4,280.1Zm14.4,0a1.3,1.3,0,1,1-1.3,1.3A1.32,1.32,0,0,1,112.8,280.1Zm14.4,0a1.3,1.3,0,1,1-1.3,1.3A1.32,1.32,0,0,1,127.2,280.1Zm14.4,0a1.3,1.3,0,1,1-1.3,1.3A1.32,1.32,0,0,1,141.6,280.1Zm14.4,0a1.3,1.3,0,1,1-1.3,1.3A1.32,1.32,0,0,1,156,280.1Zm14.4,0a1.3,1.3,0,1,1-1.3,1.3A1.32,1.32,0,0,1,170.4,280.1Zm14.4,0a1.3,1.3,0,1,1-1.3,1.3A1.32,1.32,0,0,1,184.8,280.1Zm14.4,0a1.3,1.3,0,1,1-1.3,1.3A1.32,1.32,0,0,1,199.2,280.1Zm14.4,0a1.3,1.3,0,1,1-1.3,1.3A1.32,1.32,0,0,1,213.6,280.1Zm14.4,0a1.3,1.3,0,1,1-1.3,1.3A1.32,1.32,0,0,1,228,280.1Zm14.4,0a1.3,1.3,0,1,1-1.3,1.3A1.32,1.32,0,0,1,242.4,280.1Zm14.4,0a1.3,1.3,0,1,1-1.3,1.3A1.32,1.32,0,0,1,256.8,280.1Zm14.4,0a1.3,1.3,0,1,1-1.3,1.3A1.32,1.32,0,0,1,271.2,280.1Zm14.4,0a1.3,1.3,0,1,1-1.3,1.3A1.32,1.32,0,0,1,285.6,280.1Zm14.4,0a1.3,1.3,0,1,1-1.3,1.3A1.32,1.32,0,0,1,300,280.1Zm14.4,0a1.3,1.3,0,1,1-1.3,1.3A1.32,1.32,0,0,1,314.4,280.1ZM4.8,265.7A1.3,1.3,0,1,1,3.5,267,1.32,1.32,0,0,1,4.8,265.7Zm14.4,0a1.3,1.3,0,1,1-1.3,1.3A1.32,1.32,0,0,1,19.2,265.7Zm14.4,0a1.3,1.3,0,1,1-1.3,1.3A1.32,1.32,0,0,1,33.6,265.7Zm14.4,0a1.3,1.3,0,1,1-1.3,1.3A1.32,1.32,0,0,1,48,265.7Zm14.4,0a1.3,1.3,0,1,1-1.3,1.3A1.32,1.32,0,0,1,62.4,265.7Zm14.4,0a1.3,1.3,0,1,1-1.3,1.3A1.32,1.32,0,0,1,76.8,265.7Zm14.4,0a1.3,1.3,0,1,1-1.3,1.3A1.32,1.32,0,0,1,91.2,265.7Zm14.4,0a1.3,1.3,0,1,1-1.3,1.3A1.32,1.32,0,0,1,105.6,265.7Zm14.4,0a1.3,1.3,0,1,1-1.3,1.3A1.32,1.32,0,0,1,120,265.7Zm14.4,0a1.3,1.3,0,1,1-1.3,1.3A1.32,1.32,0,0,1,134.4,265.7Zm14.4,0a1.3,1.3,0,1,1-1.3,1.3A1.32,1.32,0,0,1,148.8,265.7Zm14.4,0a1.3,1.3,0,1,1-1.3,1.3A1.32,1.32,0,0,1,163.2,265.7Zm14.4,0a1.3,1.3,0,1,1-1.3,1.3A1.32,1.32,0,0,1,177.6,265.7Zm14.4,0a1.3,1.3,0,1,1-1.3,1.3A1.32,1.32,0,0,1,192,265.7Zm14.4,0a1.3,1.3,0,1,1-1.3,1.3A1.32,1.32,0,0,1,206.4,265.7Zm14.4,0a1.3,1.3,0,1,1-1.3,1.3A1.32,1.32,0,0,1,220.8,265.7Zm14.4,0a1.3,1.3,0,1,1-1.3,1.3A1.32,1.32,0,0,1,235.2,265.7Zm14.4,0a1.3,1.3,0,1,1-1.3,1.3A1.32,1.32,0,0,1,249.6,265.7Zm14.4,0a1.3,1.3,0,1,1-1.3,1.3A1.32,1.32,0,0,1,264,265.7Zm14.4,0a1.3,1.3,0,1,1-1.3,1.3A1.32,1.32,0,0,1,278.4,265.7Zm14.4,0a1.3,1.3,0,1,1-1.3,1.3A1.32,1.32,0,0,1,292.8,265.7Zm14.4,0a1.3,1.3,0,1,1-1.3,1.3A1.32,1.32,0,0,1,307.2,265.7ZM12,251.3a1.3,1.3,0,1,1-1.3,1.3A1.32,1.32,0,0,1,12,251.3Zm14.4,0a1.3,1.3,0,1,1-1.3,1.3A1.32,1.32,0,0,1,26.4,251.3Zm14.4,0a1.3,1.3,0,1,1-1.3,1.3A1.32,1.32,0,0,1,40.8,251.3Zm14.4,0a1.3,1.3,0,1,1-1.3,1.3A1.32,1.32,0,0,1,55.2,251.3Zm14.4,0a1.3,1.3,0,1,1-1.3,1.3A1.32,1.32,0,0,1,69.6,251.3Zm14.4,0a1.3,1.3,0,1,1-1.3,1.3A1.32,1.32,0,0,1,84,251.3Zm14.4,0a1.3,1.3,0,1,1-1.3,1.3A1.32,1.32,0,0,1,98.4,251.3Zm14.4,0a1.3,1.3,0,1,1-1.3,1.3A1.32,1.32,0,0,1,112.8,251.3Zm14.4,0a1.3,1.3,0,1,1-1.3,1.3A1.32,1.32,0,0,1,127.2,251.3Zm14.4,0a1.3,1.3,0,1,1-1.3,1.3A1.32,1.32,0,0,1,141.6,251.3Zm14.4,0a1.3,1.3,0,1,1-1.3,1.3A1.32,1.32,0,0,1,156,251.3Zm14.4,0a1.3,1.3,0,1,1-1.3,1.3A1.32,1.32,0,0,1,170.4,251.3Zm14.4,0a1.3,1.3,0,1,1-1.3,1.3A1.32,1.32,0,0,1,184.8,251.3Zm14.4,0a1.3,1.3,0,1,1-1.3,1.3A1.32,1.32,0,0,1,199.2,251.3Zm14.4,0a1.3,1.3,0,1,1-1.3,1.3A1.32,1.32,0,0,1,213.6,251.3Zm14.4,0a1.3,1.3,0,1,1-1.3,1.3A1.32,1.32,0,0,1,228,251.3Zm14.4,0a1.3,1.3,0,1,1-1.3,1.3A1.32,1.32,0,0,1,242.4,251.3Zm14.4,0a1.3,1.3,0,1,1-1.3,1.3A1.32,1.32,0,0,1,256.8,251.3Zm14.4,0a1.3,1.3,0,1,1-1.3,1.3A1.32,1.32,0,0,1,271.2,251.3Zm14.4,0a1.3,1.3,0,1,1-1.3,1.3A1.32,1.32,0,0,1,285.6,251.3Zm14.4,0a1.3,1.3,0,1,1-1.3,1.3A1.32,1.32,0,0,1,300,251.3Zm14.4,0a1.3,1.3,0,1,1-1.3,1.3A1.32,1.32,0,0,1,314.4,251.3ZM4.8,236.9a1.3,1.3,0,1,1-1.3,1.3A1.32,1.32,0,0,1,4.8,236.9Z" fill="#c1dcf3"/><circle cx="19.2" cy="238.2" r="1.3" fill="#c1dcf3"/><path d="M33.6,236.9a1.3,1.3,0,1,1-1.3,1.3A1.32,1.32,0,0,1,33.6,236.9Zm14.4,0a1.3,1.3,0,1,1-1.3,1.3A1.32,1.32,0,0,1,48,236.9Zm14.4,0a1.3,1.3,0,1,1-1.3,1.3A1.32,1.32,0,0,1,62.4,236.9Zm14.4,0a1.3,1.3,0,1,1-1.3,1.3A1.32,1.32,0,0,1,76.8,236.9Z" fill="#c1dcf3"/><circle cx="91.2" cy="238.2" r="1.3" fill="#c1dcf3"/><path d="M105.6,236.9a1.3,1.3,0,1,1-1.3,1.3A1.32,1.32,0,0,1,105.6,236.9Zm14.4,0a1.3,1.3,0,1,1-1.3,1.3A1.32,1.32,0,0,1,120,236.9Zm14.4,0a1.3,1.3,0,1,1-1.3,1.3A1.32,1.32,0,0,1,134.4,236.9Zm14.4,0a1.3,1.3,0,1,1-1.3,1.3A1.32,1.32,0,0,1,148.8,236.9Z" fill="#c1dcf3"/><circle cx="163.2" cy="238.2" r="1.3" fill="#c1dcf3"/><path d="M177.6,236.9a1.3,1.3,0,1,1-1.3,1.3A1.32,1.32,0,0,1,177.6,236.9Zm14.4,0a1.3,1.3,0,1,1-1.3,1.3A1.32,1.32,0,0,1,192,236.9Zm14.4,0a1.3,1.3,0,1,1-1.3,1.3A1.32,1.32,0,0,1,206.4,236.9Zm14.4,0a1.3,1.3,0,1,1-1.3,1.3A1.32,1.32,0,0,1,220.8,236.9Z" fill="#c1dcf3"/><circle cx="235.2" cy="238.2" r="1.3" fill="#c1dcf3"/><path d="M249.6,236.9a1.3,1.3,0,1,1-1.3,1.3A1.32,1.32,0,0,1,249.6,236.9Zm14.4,0a1.3,1.3,0,1,1-1.3,1.3A1.32,1.32,0,0,1,264,236.9Zm14.4,0a1.3,1.3,0,1,1-1.3,1.3A1.32,1.32,0,0,1,278.4,236.9Zm14.4,0a1.3,1.3,0,1,1-1.3,1.3A1.32,1.32,0,0,1,292.8,236.9Z" fill="#c1dcf3"/><circle cx="307.2" cy="238.2" r="1.3" fill="#c1dcf3"/><path d="M12,222.5a1.3,1.3,0,1,1-1.3,1.3A1.32,1.32,0,0,1,12,222.5Zm14.4,0a1.3,1.3,0,1,1-1.3,1.3A1.32,1.32,0,0,1,26.4,222.5Zm14.4,0a1.3,1.3,0,1,1-1.3,1.3A1.32,1.32,0,0,1,40.8,222.5Z" fill="#c1dcf3"/><circle cx="55.2" cy="223.8" r="1.3" fill="#c1dcf3"/><path d="M69.6,222.5a1.3,1.3,0,1,1-1.3,1.3A1.32,1.32,0,0,1,69.6,222.5Zm14.4,0a1.3,1.3,0,1,1-1.3,1.3A1.32,1.32,0,0,1,84,222.5Zm14.4,0a1.3,1.3,0,1,1-1.3,1.3A1.32,1.32,0,0,1,98.4,222.5Zm14.4,0a1.3,1.3,0,1,1-1.3,1.3A1.32,1.32,0,0,1,112.8,222.5Z" fill="#c1dcf3"/><circle cx="127.2" cy="223.8" r="1.3" fill="#c1dcf3"/><path d="M141.6,222.5a1.3,1.3,0,1,1-1.3,1.3A1.32,1.32,0,0,1,141.6,222.5Zm14.4,0a1.3,1.3,0,1,1-1.3,1.3A1.32,1.32,0,0,1,156,222.5Zm14.4,0a1.3,1.3,0,1,1-1.3,1.3A1.32,1.32,0,0,1,170.4,222.5Zm14.4,0a1.3,1.3,0,1,1-1.3,1.3A1.32,1.32,0,0,1,184.8,222.5Z" fill="#c1dcf3"/><circle cx="199.2" cy="223.8" r="1.3" fill="#c1dcf3"/><path d="M213.6,222.5a1.3,1.3,0,1,1-1.3,1.3A1.32,1.32,0,0,1,213.6,222.5Zm14.4,0a1.3,1.3,0,1,1-1.3,1.3A1.32,1.32,0,0,1,228,222.5Zm14.4,0a1.3,1.3,0,1,1-1.3,1.3A1.32,1.32,0,0,1,242.4,222.5Zm14.4,0a1.3,1.3,0,1,1-1.3,1.3A1.32,1.32,0,0,1,256.8,222.5Z" fill="#c1dcf3"/><circle cx="271.2" cy="223.8" r="1.3" fill="#c1dcf3"/><path d="M285.6,222.5a1.3,1.3,0,1,1-1.3,1.3A1.32,1.32,0,0,1,285.6,222.5Zm14.4,0a1.3,1.3,0,1,1-1.3,1.3A1.32,1.32,0,0,1,300,222.5Zm14.4,0a1.3,1.3,0,1,1-1.3,1.3A1.32,1.32,0,0,1,314.4,222.5ZM4.8,208.1a1.3,1.3,0,1,1-1.3,1.3A1.32,1.32,0,0,1,4.8,208.1Zm14.4,0a1.3,1.3,0,1,1-1.3,1.3A1.32,1.32,0,0,1,19.2,208.1Zm14.4,0a1.3,1.3,0,1,1-1.3,1.3A1.32,1.32,0,0,1,33.6,208.1Zm14.4,0a1.3,1.3,0,1,1-1.3,1.3A1.32,1.32,0,0,1,48,208.1Zm14.4,0a1.3,1.3,0,1,1-1.3,1.3A1.32,1.32,0,0,1,62.4,208.1Zm14.4,0a1.3,1.3,0,1,1-1.3,1.3A1.32,1.32,0,0,1,76.8,208.1Zm14.4,0a1.3,1.3,0,1,1-1.3,1.3A1.32,1.32,0,0,1,91.2,208.1Zm14.4,0a1.3,1.3,0,1,1-1.3,1.3A1.32,1.32,0,0,1,105.6,208.1Zm14.4,0a1.3,1.3,0,1,1-1.3,1.3A1.32,1.32,0,0,1,120,208.1Zm14.4,0a1.3,1.3,0,1,1-1.3,1.3A1.32,1.32,0,0,1,134.4,208.1Zm14.4,0a1.3,1.3,0,1,1-1.3,1.3A1.32,1.32,0,0,1,148.8,208.1Zm14.4,0a1.3,1.3,0,1,1-1.3,1.3A1.32,1.32,0,0,1,163.2,208.1Zm14.4,0a1.3,1.3,0,1,1-1.3,1.3A1.32,1.32,0,0,1,177.6,208.1Zm14.4,0a1.3,1.3,0,1,1-1.3,1.3A1.32,1.32,0,0,1,192,208.1Zm14.4,0a1.3,1.3,0,1,1-1.3,1.3A1.32,1.32,0,0,1,206.4,208.1Zm14.4,0a1.3,1.3,0,1,1-1.3,1.3A1.32,1.32,0,0,1,220.8,208.1Zm14.4,0a1.3,1.3,0,1,1-1.3,1.3A1.32,1.32,0,0,1,235.2,208.1Zm14.4,0a1.3,1.3,0,1,1-1.3,1.3A1.32,1.32,0,0,1,249.6,208.1Zm14.4,0a1.3,1.3,0,1,1-1.3,1.3A1.32,1.32,0,0,1,264,208.1Zm14.4,0a1.3,1.3,0,1,1-1.3,1.3A1.32,1.32,0,0,1,278.4,208.1Zm14.4,0a1.3,1.3,0,1,1-1.3,1.3A1.32,1.32,0,0,1,292.8,208.1Zm14.4,0a1.3,1.3,0,1,1-1.3,1.3A1.32,1.32,0,0,1,307.2,208.1ZM12,193.7a1.3,1.3,0,1,1-1.3,1.3A1.32,1.32,0,0,1,12,193.7Zm14.4,0a1.3,1.3,0,1,1-1.3,1.3A1.32,1.32,0,0,1,26.4,193.7Zm14.4,0a1.3,1.3,0,1,1-1.3,1.3A1.32,1.32,0,0,1,40.8,193.7Zm14.4,0a1.3,1.3,0,1,1-1.3,1.3A1.32,1.32,0,0,1,55.2,193.7Zm14.4,0a1.3,1.3,0,1,1-1.3,1.3A1.32,1.32,0,0,1,69.6,193.7Zm14.4,0a1.3,1.3,0,1,1-1.3,1.3A1.32,1.32,0,0,1,84,193.7Zm14.4,0a1.3,1.3,0,1,1-1.3,1.3A1.32,1.32,0,0,1,98.4,193.7Zm14.4,0a1.3,1.3,0,1,1-1.3,1.3A1.32,1.32,0,0,1,112.8,193.7Zm14.4,0a1.3,1.3,0,1,1-1.3,1.3A1.32,1.32,0,0,1,127.2,193.7Zm14.4,0a1.3,1.3,0,1,1-1.3,1.3A1.32,1.32,0,0,1,141.6,193.7Zm14.4,0a1.3,1.3,0,1,1-1.3,1.3A1.32,1.32,0,0,1,156,193.7Zm14.4,0a1.3,1.3,0,1,1-1.3,1.3A1.32,1.32,0,0,1,170.4,193.7Zm14.4,0a1.3,1.3,0,1,1-1.3,1.3A1.32,1.32,0,0,1,184.8,193.7Zm14.4,0a1.3,1.3,0,1,1-1.3,1.3A1.32,1.32,0,0,1,199.2,193.7Zm14.4,0a1.3,1.3,0,1,1-1.3,1.3A1.32,1.32,0,0,1,213.6,193.7Zm14.4,0a1.3,1.3,0,1,1-1.3,1.3A1.32,1.32,0,0,1,228,193.7Zm14.4,0a1.3,1.3,0,1,1-1.3,1.3A1.32,1.32,0,0,1,242.4,193.7Zm14.4,0a1.3,1.3,0,1,1-1.3,1.3A1.32,1.32,0,0,1,256.8,193.7Zm14.4,0a1.3,1.3,0,1,1-1.3,1.3A1.32,1.32,0,0,1,271.2,193.7Zm14.4,0a1.3,1.3,0,1,1-1.3,1.3A1.32,1.32,0,0,1,285.6,193.7Zm14.4,0a1.3,1.3,0,1,1-1.3,1.3A1.32,1.32,0,0,1,300,193.7Zm14.4,0a1.3,1.3,0,1,1-1.3,1.3A1.32,1.32,0,0,1,314.4,193.7ZM4.8,179.3a1.3,1.3,0,1,1-1.3,1.3A1.32,1.32,0,0,1,4.8,179.3Zm14.4,0a1.3,1.3,0,1,1-1.3,1.3A1.32,1.32,0,0,1,19.2,179.3Zm14.4,0a1.3,1.3,0,1,1-1.3,1.3A1.32,1.32,0,0,1,33.6,179.3Zm14.4,0a1.3,1.3,0,1,1-1.3,1.3A1.32,1.32,0,0,1,48,179.3Zm14.4,0a1.3,1.3,0,1,1-1.3,1.3A1.32,1.32,0,0,1,62.4,179.3Zm14.4,0a1.3,1.3,0,1,1-1.3,1.3A1.32,1.32,0,0,1,76.8,179.3Zm14.4,0a1.3,1.3,0,1,1-1.3,1.3A1.32,1.32,0,0,1,91.2,179.3Zm14.4,0a1.3,1.3,0,1,1-1.3,1.3A1.32,1.32,0,0,1,105.6,179.3Zm14.4,0a1.3,1.3,0,1,1-1.3,1.3A1.32,1.32,0,0,1,120,179.3Zm14.4,0a1.3,1.3,0,1,1-1.3,1.3A1.32,1.32,0,0,1,134.4,179.3Zm14.4,0a1.3,1.3,0,1,1-1.3,1.3A1.32,1.32,0,0,1,148.8,179.3Zm14.4,0a1.3,1.3,0,1,1-1.3,1.3A1.32,1.32,0,0,1,163.2,179.3Zm14.4,0a1.3,1.3,0,1,1-1.3,1.3A1.32,1.32,0,0,1,177.6,179.3Zm14.4,0a1.3,1.3,0,1,1-1.3,1.3A1.32,1.32,0,0,1,192,179.3Zm14.4,0a1.3,1.3,0,1,1-1.3,1.3A1.32,1.32,0,0,1,206.4,179.3Zm14.4,0a1.3,1.3,0,1,1-1.3,1.3A1.32,1.32,0,0,1,220.8,179.3Zm14.4,0a1.3,1.3,0,1,1-1.3,1.3A1.32,1.32,0,0,1,235.2,179.3Zm14.4,0a1.3,1.3,0,1,1-1.3,1.3A1.32,1.32,0,0,1,249.6,179.3Zm14.4,0a1.3,1.3,0,1,1-1.3,1.3A1.32,1.32,0,0,1,264,179.3Zm14.4,0a1.3,1.3,0,1,1-1.3,1.3A1.32,1.32,0,0,1,278.4,179.3Zm14.4,0a1.3,1.3,0,1,1-1.3,1.3A1.32,1.32,0,0,1,292.8,179.3Zm14.4,0a1.3,1.3,0,1,1-1.3,1.3A1.32,1.32,0,0,1,307.2,179.3ZM12,164.9a1.3,1.3,0,1,1-1.3,1.3A1.32,1.32,0,0,1,12,164.9Zm14.4,0a1.3,1.3,0,1,1-1.3,1.3A1.32,1.32,0,0,1,26.4,164.9Zm14.4,0a1.3,1.3,0,1,1-1.3,1.3A1.32,1.32,0,0,1,40.8,164.9Z" fill="#c1dcf3"/><circle cx="55.2" cy="166.2" r="1.3" fill="#c1dcf3"/><path d="M69.6,164.9a1.3,1.3,0,1,1-1.3,1.3A1.32,1.32,0,0,1,69.6,164.9Zm14.4,0a1.3,1.3,0,1,1-1.3,1.3A1.32,1.32,0,0,1,84,164.9Zm14.4,0a1.3,1.3,0,1,1-1.3,1.3A1.32,1.32,0,0,1,98.4,164.9Zm14.4,0a1.3,1.3,0,1,1-1.3,1.3A1.32,1.32,0,0,1,112.8,164.9Z" fill="#c1dcf3"/><circle cx="127.2" cy="166.2" r="1.3" fill="#c1dcf3"/><path d="M141.6,164.9a1.3,1.3,0,1,1-1.3,1.3A1.32,1.32,0,0,1,141.6,164.9Zm14.4,0a1.3,1.3,0,1,1-1.3,1.3A1.32,1.32,0,0,1,156,164.9Zm14.4,0a1.3,1.3,0,1,1-1.3,1.3A1.32,1.32,0,0,1,170.4,164.9Zm14.4,0a1.3,1.3,0,1,1-1.3,1.3A1.32,1.32,0,0,1,184.8,164.9Z" fill="#c1dcf3"/><circle cx="199.2" cy="166.2" r="1.3" fill="#c1dcf3"/><path d="M213.6,164.9a1.3,1.3,0,1,1-1.3,1.3A1.32,1.32,0,0,1,213.6,164.9Zm14.4,0a1.3,1.3,0,1,1-1.3,1.3A1.32,1.32,0,0,1,228,164.9Zm14.4,0a1.3,1.3,0,1,1-1.3,1.3A1.32,1.32,0,0,1,242.4,164.9Zm14.4,0a1.3,1.3,0,1,1-1.3,1.3A1.32,1.32,0,0,1,256.8,164.9Z" fill="#c1dcf3"/><circle cx="271.2" cy="166.2" r="1.3" fill="#c1dcf3"/><path d="M285.6,164.9a1.3,1.3,0,1,1-1.3,1.3A1.32,1.32,0,0,1,285.6,164.9Zm14.4,0a1.3,1.3,0,1,1-1.3,1.3A1.32,1.32,0,0,1,300,164.9Zm14.4,0a1.3,1.3,0,1,1-1.3,1.3A1.32,1.32,0,0,1,314.4,164.9ZM4.8,150.5a1.3,1.3,0,1,1-1.3,1.3A1.32,1.32,0,0,1,4.8,150.5Z" fill="#c1dcf3"/><circle cx="19.2" cy="151.8" r="1.3" fill="#c1dcf3"/><path d="M33.6,150.5a1.3,1.3,0,1,1-1.3,1.3A1.32,1.32,0,0,1,33.6,150.5Zm14.4,0a1.3,1.3,0,1,1-1.3,1.3A1.32,1.32,0,0,1,48,150.5Zm14.4,0a1.3,1.3,0,1,1-1.3,1.3A1.32,1.32,0,0,1,62.4,150.5Zm14.4,0a1.3,1.3,0,1,1-1.3,1.3A1.32,1.32,0,0,1,76.8,150.5Z" fill="#c1dcf3"/><circle cx="91.2" cy="151.8" r="1.3" fill="#c1dcf3"/><path d="M105.6,150.5a1.3,1.3,0,1,1-1.3,1.3A1.32,1.32,0,0,1,105.6,150.5Zm14.4,0a1.3,1.3,0,1,1-1.3,1.3A1.32,1.32,0,0,1,120,150.5Zm14.4,0a1.3,1.3,0,1,1-1.3,1.3A1.32,1.32,0,0,1,134.4,150.5Zm14.4,0a1.3,1.3,0,1,1-1.3,1.3A1.32,1.32,0,0,1,148.8,150.5Z" fill="#c1dcf3"/><circle cx="163.2" cy="151.8" r="1.3" fill="#c1dcf3"/><path d="M177.6,150.5a1.3,1.3,0,1,1-1.3,1.3A1.32,1.32,0,0,1,177.6,150.5Zm14.4,0a1.3,1.3,0,1,1-1.3,1.3A1.32,1.32,0,0,1,192,150.5Zm14.4,0a1.3,1.3,0,1,1-1.3,1.3A1.32,1.32,0,0,1,206.4,150.5Zm14.4,0a1.3,1.3,0,1,1-1.3,1.3A1.32,1.32,0,0,1,220.8,150.5Z" fill="#c1dcf3"/><circle cx="235.2" cy="151.8" r="1.3" fill="#c1dcf3"/><path d="M249.6,150.5a1.3,1.3,0,1,1-1.3,1.3A1.32,1.32,0,0,1,249.6,150.5Zm14.4,0a1.3,1.3,0,1,1-1.3,1.3A1.32,1.32,0,0,1,264,150.5Zm14.4,0a1.3,1.3,0,1,1-1.3,1.3A1.32,1.32,0,0,1,278.4,150.5Zm14.4,0a1.3,1.3,0,1,1-1.3,1.3A1.32,1.32,0,0,1,292.8,150.5Z" fill="#c1dcf3"/><circle cx="307.2" cy="151.8" r="1.3" fill="#c1dcf3"/><path d="M12,136.1a1.3,1.3,0,1,1-1.3,1.3A1.32,1.32,0,0,1,12,136.1Zm14.4,0a1.3,1.3,0,1,1-1.3,1.3A1.32,1.32,0,0,1,26.4,136.1Zm14.4,0a1.3,1.3,0,1,1-1.3,1.3A1.32,1.32,0,0,1,40.8,136.1Zm14.4,0a1.3,1.3,0,1,1-1.3,1.3A1.32,1.32,0,0,1,55.2,136.1Zm14.4,0a1.3,1.3,0,1,1-1.3,1.3A1.32,1.32,0,0,1,69.6,136.1Zm14.4,0a1.3,1.3,0,1,1-1.3,1.3A1.32,1.32,0,0,1,84,136.1Zm14.4,0a1.3,1.3,0,1,1-1.3,1.3A1.32,1.32,0,0,1,98.4,136.1Zm14.4,0a1.3,1.3,0,1,1-1.3,1.3A1.32,1.32,0,0,1,112.8,136.1Zm14.4,0a1.3,1.3,0,1,1-1.3,1.3A1.32,1.32,0,0,1,127.2,136.1Zm14.4,0a1.3,1.3,0,1,1-1.3,1.3A1.32,1.32,0,0,1,141.6,136.1Zm14.4,0a1.3,1.3,0,1,1-1.3,1.3A1.32,1.32,0,0,1,156,136.1Zm14.4,0a1.3,1.3,0,1,1-1.3,1.3A1.32,1.32,0,0,1,170.4,136.1Zm14.4,0a1.3,1.3,0,1,1-1.3,1.3A1.32,1.32,0,0,1,184.8,136.1Zm14.4,0a1.3,1.3,0,1,1-1.3,1.3A1.32,1.32,0,0,1,199.2,136.1Zm14.4,0a1.3,1.3,0,1,1-1.3,1.3A1.32,1.32,0,0,1,213.6,136.1Zm14.4,0a1.3,1.3,0,1,1-1.3,1.3A1.32,1.32,0,0,1,228,136.1Zm14.4,0a1.3,1.3,0,1,1-1.3,1.3A1.32,1.32,0,0,1,242.4,136.1Zm14.4,0a1.3,1.3,0,1,1-1.3,1.3A1.32,1.32,0,0,1,256.8,136.1Zm14.4,0a1.3,1.3,0,1,1-1.3,1.3A1.32,1.32,0,0,1,271.2,136.1Zm14.4,0a1.3,1.3,0,1,1-1.3,1.3A1.32,1.32,0,0,1,285.6,136.1Zm14.4,0a1.3,1.3,0,1,1-1.3,1.3A1.32,1.32,0,0,1,300,136.1Zm14.4,0a1.3,1.3,0,1,1-1.3,1.3A1.32,1.32,0,0,1,314.4,136.1ZM4.8,121.7A1.3,1.3,0,1,1,3.5,123,1.32,1.32,0,0,1,4.8,121.7Zm14.4,0a1.3,1.3,0,1,1-1.3,1.3A1.32,1.32,0,0,1,19.2,121.7Zm14.4,0a1.3,1.3,0,1,1-1.3,1.3A1.32,1.32,0,0,1,33.6,121.7Zm14.4,0a1.3,1.3,0,1,1-1.3,1.3A1.32,1.32,0,0,1,48,121.7Zm14.4,0a1.3,1.3,0,1,1-1.3,1.3A1.32,1.32,0,0,1,62.4,121.7Zm14.4,0a1.3,1.3,0,1,1-1.3,1.3A1.32,1.32,0,0,1,76.8,121.7Zm14.4,0a1.3,1.3,0,1,1-1.3,1.3A1.32,1.32,0,0,1,91.2,121.7Zm14.4,0a1.3,1.3,0,1,1-1.3,1.3A1.32,1.32,0,0,1,105.6,121.7Zm14.4,0a1.3,1.3,0,1,1-1.3,1.3A1.32,1.32,0,0,1,120,121.7Zm14.4,0a1.3,1.3,0,1,1-1.3,1.3A1.32,1.32,0,0,1,134.4,121.7Zm14.4,0a1.3,1.3,0,1,1-1.3,1.3A1.32,1.32,0,0,1,148.8,121.7Zm14.4,0a1.3,1.3,0,1,1-1.3,1.3A1.32,1.32,0,0,1,163.2,121.7Zm14.4,0a1.3,1.3,0,1,1-1.3,1.3A1.32,1.32,0,0,1,177.6,121.7Zm14.4,0a1.3,1.3,0,1,1-1.3,1.3A1.32,1.32,0,0,1,192,121.7Zm14.4,0a1.3,1.3,0,1,1-1.3,1.3A1.32,1.32,0,0,1,206.4,121.7Zm14.4,0a1.3,1.3,0,1,1-1.3,1.3A1.32,1.32,0,0,1,220.8,121.7Zm14.4,0a1.3,1.3,0,1,1-1.3,1.3A1.32,1.32,0,0,1,235.2,121.7Zm14.4,0a1.3,1.3,0,1,1-1.3,1.3A1.32,1.32,0,0,1,249.6,121.7Zm14.4,0a1.3,1.3,0,1,1-1.3,1.3A1.32,1.32,0,0,1,264,121.7Zm14.4,0a1.3,1.3,0,1,1-1.3,1.3A1.32,1.32,0,0,1,278.4,121.7Zm14.4,0a1.3,1.3,0,1,1-1.3,1.3A1.32,1.32,0,0,1,292.8,121.7Zm14.4,0a1.3,1.3,0,1,1-1.3,1.3A1.32,1.32,0,0,1,307.2,121.7ZM12,107.3a1.3,1.3,0,1,1-1.3,1.3A1.32,1.32,0,0,1,12,107.3Zm14.4,0a1.3,1.3,0,1,1-1.3,1.3A1.32,1.32,0,0,1,26.4,107.3Zm14.4,0a1.3,1.3,0,1,1-1.3,1.3A1.32,1.32,0,0,1,40.8,107.3Zm14.4,0a1.3,1.3,0,1,1-1.3,1.3A1.32,1.32,0,0,1,55.2,107.3Zm14.4,0a1.3,1.3,0,1,1-1.3,1.3A1.32,1.32,0,0,1,69.6,107.3Zm14.4,0a1.3,1.3,0,1,1-1.3,1.3A1.32,1.32,0,0,1,84,107.3Zm14.4,0a1.3,1.3,0,1,1-1.3,1.3A1.32,1.32,0,0,1,98.4,107.3Zm14.4,0a1.3,1.3,0,1,1-1.3,1.3A1.32,1.32,0,0,1,112.8,107.3Zm14.4,0a1.3,1.3,0,1,1-1.3,1.3A1.32,1.32,0,0,1,127.2,107.3Zm14.4,0a1.3,1.3,0,1,1-1.3,1.3A1.32,1.32,0,0,1,141.6,107.3Zm14.4,0a1.3,1.3,0,1,1-1.3,1.3A1.32,1.32,0,0,1,156,107.3Zm14.4,0a1.3,1.3,0,1,1-1.3,1.3A1.32,1.32,0,0,1,170.4,107.3Zm14.4,0a1.3,1.3,0,1,1-1.3,1.3A1.32,1.32,0,0,1,184.8,107.3Zm14.4,0a1.3,1.3,0,1,1-1.3,1.3A1.32,1.32,0,0,1,199.2,107.3Zm14.4,0a1.3,1.3,0,1,1-1.3,1.3A1.32,1.32,0,0,1,213.6,107.3Zm14.4,0a1.3,1.3,0,1,1-1.3,1.3A1.32,1.32,0,0,1,228,107.3Zm14.4,0a1.3,1.3,0,1,1-1.3,1.3A1.32,1.32,0,0,1,242.4,107.3Zm14.4,0a1.3,1.3,0,1,1-1.3,1.3A1.32,1.32,0,0,1,256.8,107.3Zm14.4,0a1.3,1.3,0,1,1-1.3,1.3A1.32,1.32,0,0,1,271.2,107.3Zm14.4,0a1.3,1.3,0,1,1-1.3,1.3A1.32,1.32,0,0,1,285.6,107.3Zm14.4,0a1.3,1.3,0,1,1-1.3,1.3A1.32,1.32,0,0,1,300,107.3Zm14.4,0a1.3,1.3,0,1,1-1.3,1.3A1.32,1.32,0,0,1,314.4,107.3ZM4.8,92.9a1.3,1.3,0,1,1-1.3,1.3A1.32,1.32,0,0,1,4.8,92.9Z" fill="#c1dcf3"/><circle cx="19.2" cy="94.2" r="1.3" fill="#c1dcf3"/><path d="M33.6,92.9a1.3,1.3,0,1,1-1.3,1.3A1.32,1.32,0,0,1,33.6,92.9Zm14.4,0a1.3,1.3,0,1,1-1.3,1.3A1.32,1.32,0,0,1,48,92.9Zm14.4,0a1.3,1.3,0,1,1-1.3,1.3A1.32,1.32,0,0,1,62.4,92.9Zm14.4,0a1.3,1.3,0,1,1-1.3,1.3A1.32,1.32,0,0,1,76.8,92.9Z" fill="#c1dcf3"/><circle cx="91.2" cy="94.2" r="1.3" fill="#c1dcf3"/><path d="M105.6,92.9a1.3,1.3,0,1,1-1.3,1.3A1.32,1.32,0,0,1,105.6,92.9Zm14.4,0a1.3,1.3,0,1,1-1.3,1.3A1.32,1.32,0,0,1,120,92.9Zm14.4,0a1.3,1.3,0,1,1-1.3,1.3A1.32,1.32,0,0,1,134.4,92.9Zm14.4,0a1.3,1.3,0,1,1-1.3,1.3A1.32,1.32,0,0,1,148.8,92.9Z" fill="#c1dcf3"/><circle cx="163.2" cy="94.2" r="1.3" fill="#c1dcf3"/><path d="M177.6,92.9a1.3,1.3,0,1,1-1.3,1.3A1.32,1.32,0,0,1,177.6,92.9Zm14.4,0a1.3,1.3,0,1,1-1.3,1.3A1.32,1.32,0,0,1,192,92.9Zm14.4,0a1.3,1.3,0,1,1-1.3,1.3A1.32,1.32,0,0,1,206.4,92.9Zm14.4,0a1.3,1.3,0,1,1-1.3,1.3A1.32,1.32,0,0,1,220.8,92.9Z" fill="#c1dcf3"/><circle cx="235.2" cy="94.2" r="1.3" fill="#c1dcf3"/><path d="M249.6,92.9a1.3,1.3,0,1,1-1.3,1.3A1.32,1.32,0,0,1,249.6,92.9Zm14.4,0a1.3,1.3,0,1,1-1.3,1.3A1.32,1.32,0,0,1,264,92.9Zm14.4,0a1.3,1.3,0,1,1-1.3,1.3A1.32,1.32,0,0,1,278.4,92.9Zm14.4,0a1.3,1.3,0,1,1-1.3,1.3A1.32,1.32,0,0,1,292.8,92.9Z" fill="#c1dcf3"/><circle cx="307.2" cy="94.2" r="1.3" fill="#c1dcf3"/><path d="M12,78.5a1.3,1.3,0,1,1-1.3,1.3A1.32,1.32,0,0,1,12,78.5Zm14.4,0a1.3,1.3,0,1,1-1.3,1.3A1.32,1.32,0,0,1,26.4,78.5Zm14.4,0a1.3,1.3,0,1,1-1.3,1.3A1.32,1.32,0,0,1,40.8,78.5Z" fill="#c1dcf3"/><circle cx="55.2" cy="79.8" r="1.3" fill="#c1dcf3"/><path d="M69.6,78.5a1.3,1.3,0,1,1-1.3,1.3A1.32,1.32,0,0,1,69.6,78.5Zm14.4,0a1.3,1.3,0,1,1-1.3,1.3A1.32,1.32,0,0,1,84,78.5Zm14.4,0a1.3,1.3,0,1,1-1.3,1.3A1.32,1.32,0,0,1,98.4,78.5Zm14.4,0a1.3,1.3,0,1,1-1.3,1.3A1.32,1.32,0,0,1,112.8,78.5Z" fill="#c1dcf3"/><circle cx="127.2" cy="79.8" r="1.3" fill="#c1dcf3"/><path d="M141.6,78.5a1.3,1.3,0,1,1-1.3,1.3A1.32,1.32,0,0,1,141.6,78.5Zm14.4,0a1.3,1.3,0,1,1-1.3,1.3A1.32,1.32,0,0,1,156,78.5Zm14.4,0a1.3,1.3,0,1,1-1.3,1.3A1.32,1.32,0,0,1,170.4,78.5Zm14.4,0a1.3,1.3,0,1,1-1.3,1.3A1.32,1.32,0,0,1,184.8,78.5Z" fill="#c1dcf3"/><circle cx="199.2" cy="79.8" r="1.3" fill="#c1dcf3"/><path d="M213.6,78.5a1.3,1.3,0,1,1-1.3,1.3A1.32,1.32,0,0,1,213.6,78.5Zm14.4,0a1.3,1.3,0,1,1-1.3,1.3A1.32,1.32,0,0,1,228,78.5Zm14.4,0a1.3,1.3,0,1,1-1.3,1.3A1.32,1.32,0,0,1,242.4,78.5Zm14.4,0a1.3,1.3,0,1,1-1.3,1.3A1.32,1.32,0,0,1,256.8,78.5Z" fill="#c1dcf3"/><circle cx="271.2" cy="79.8" r="1.3" fill="#c1dcf3"/><path d="M285.6,78.5a1.3,1.3,0,1,1-1.3,1.3A1.32,1.32,0,0,1,285.6,78.5Zm14.4,0a1.3,1.3,0,1,1-1.3,1.3A1.32,1.32,0,0,1,300,78.5Zm14.4,0a1.3,1.3,0,1,1-1.3,1.3A1.32,1.32,0,0,1,314.4,78.5ZM4.8,64.1a1.3,1.3,0,1,1-1.3,1.3A1.32,1.32,0,0,1,4.8,64.1Zm14.4,0a1.3,1.3,0,1,1-1.3,1.3A1.32,1.32,0,0,1,19.2,64.1Zm14.4,0a1.3,1.3,0,1,1-1.3,1.3A1.32,1.32,0,0,1,33.6,64.1Zm14.4,0a1.3,1.3,0,1,1-1.3,1.3A1.32,1.32,0,0,1,48,64.1Zm14.4,0a1.3,1.3,0,1,1-1.3,1.3A1.32,1.32,0,0,1,62.4,64.1Zm14.4,0a1.3,1.3,0,1,1-1.3,1.3A1.32,1.32,0,0,1,76.8,64.1Zm14.4,0a1.3,1.3,0,1,1-1.3,1.3A1.32,1.32,0,0,1,91.2,64.1Zm14.4,0a1.3,1.3,0,1,1-1.3,1.3A1.32,1.32,0,0,1,105.6,64.1Zm14.4,0a1.3,1.3,0,1,1-1.3,1.3A1.32,1.32,0,0,1,120,64.1Zm14.4,0a1.3,1.3,0,1,1-1.3,1.3A1.32,1.32,0,0,1,134.4,64.1Zm14.4,0a1.3,1.3,0,1,1-1.3,1.3A1.32,1.32,0,0,1,148.8,64.1Zm14.4,0a1.3,1.3,0,1,1-1.3,1.3A1.32,1.32,0,0,1,163.2,64.1Zm14.4,0a1.3,1.3,0,1,1-1.3,1.3A1.32,1.32,0,0,1,177.6,64.1Zm14.4,0a1.3,1.3,0,1,1-1.3,1.3A1.32,1.32,0,0,1,192,64.1Zm14.4,0a1.3,1.3,0,1,1-1.3,1.3A1.32,1.32,0,0,1,206.4,64.1Zm14.4,0a1.3,1.3,0,1,1-1.3,1.3A1.32,1.32,0,0,1,220.8,64.1Zm14.4,0a1.3,1.3,0,1,1-1.3,1.3A1.32,1.32,0,0,1,235.2,64.1Zm14.4,0a1.3,1.3,0,1,1-1.3,1.3A1.32,1.32,0,0,1,249.6,64.1Zm14.4,0a1.3,1.3,0,1,1-1.3,1.3A1.32,1.32,0,0,1,264,64.1Zm14.4,0a1.3,1.3,0,1,1-1.3,1.3A1.32,1.32,0,0,1,278.4,64.1Zm14.4,0a1.3,1.3,0,1,1-1.3,1.3A1.32,1.32,0,0,1,292.8,64.1Zm14.4,0a1.3,1.3,0,1,1-1.3,1.3A1.32,1.32,0,0,1,307.2,64.1ZM12,49.7A1.3,1.3,0,1,1,10.7,51,1.32,1.32,0,0,1,12,49.7Zm14.4,0A1.3,1.3,0,1,1,25.1,51,1.32,1.32,0,0,1,26.4,49.7Zm14.4,0A1.3,1.3,0,1,1,39.5,51,1.32,1.32,0,0,1,40.8,49.7Zm14.4,0A1.3,1.3,0,1,1,53.9,51,1.32,1.32,0,0,1,55.2,49.7Zm14.4,0A1.3,1.3,0,1,1,68.3,51,1.32,1.32,0,0,1,69.6,49.7Zm14.4,0A1.3,1.3,0,1,1,82.7,51,1.32,1.32,0,0,1,84,49.7Zm14.4,0A1.3,1.3,0,1,1,97.1,51,1.32,1.32,0,0,1,98.4,49.7Zm14.4,0a1.3,1.3,0,1,1-1.3,1.3A1.32,1.32,0,0,1,112.8,49.7Zm14.4,0a1.3,1.3,0,1,1-1.3,1.3A1.32,1.32,0,0,1,127.2,49.7Zm14.4,0a1.3,1.3,0,1,1-1.3,1.3A1.32,1.32,0,0,1,141.6,49.7Zm14.4,0a1.3,1.3,0,1,1-1.3,1.3A1.32,1.32,0,0,1,156,49.7Zm14.4,0a1.3,1.3,0,1,1-1.3,1.3A1.32,1.32,0,0,1,170.4,49.7Zm14.4,0a1.3,1.3,0,1,1-1.3,1.3A1.32,1.32,0,0,1,184.8,49.7Zm14.4,0a1.3,1.3,0,1,1-1.3,1.3A1.32,1.32,0,0,1,199.2,49.7Zm14.4,0a1.3,1.3,0,1,1-1.3,1.3A1.32,1.32,0,0,1,213.6,49.7Zm14.4,0a1.3,1.3,0,1,1-1.3,1.3A1.32,1.32,0,0,1,228,49.7Zm14.4,0a1.3,1.3,0,1,1-1.3,1.3A1.32,1.32,0,0,1,242.4,49.7Zm14.4,0a1.3,1.3,0,1,1-1.3,1.3A1.32,1.32,0,0,1,256.8,49.7Zm14.4,0a1.3,1.3,0,1,1-1.3,1.3A1.32,1.32,0,0,1,271.2,49.7Zm14.4,0a1.3,1.3,0,1,1-1.3,1.3A1.32,1.32,0,0,1,285.6,49.7Zm14.4,0a1.3,1.3,0,1,1-1.3,1.3A1.32,1.32,0,0,1,300,49.7Zm14.4,0a1.3,1.3,0,1,1-1.3,1.3A1.32,1.32,0,0,1,314.4,49.7ZM4.8,35.3a1.3,1.3,0,1,1-1.3,1.3A1.32,1.32,0,0,1,4.8,35.3Zm14.4,0a1.3,1.3,0,1,1-1.3,1.3A1.32,1.32,0,0,1,19.2,35.3Zm14.4,0a1.3,1.3,0,1,1-1.3,1.3A1.32,1.32,0,0,1,33.6,35.3Zm14.4,0a1.3,1.3,0,1,1-1.3,1.3A1.32,1.32,0,0,1,48,35.3Zm14.4,0a1.3,1.3,0,1,1-1.3,1.3A1.32,1.32,0,0,1,62.4,35.3Zm14.4,0a1.3,1.3,0,1,1-1.3,1.3A1.32,1.32,0,0,1,76.8,35.3Zm14.4,0a1.3,1.3,0,1,1-1.3,1.3A1.32,1.32,0,0,1,91.2,35.3Zm14.4,0a1.3,1.3,0,1,1-1.3,1.3A1.32,1.32,0,0,1,105.6,35.3Zm14.4,0a1.3,1.3,0,1,1-1.3,1.3A1.32,1.32,0,0,1,120,35.3Zm14.4,0a1.3,1.3,0,1,1-1.3,1.3A1.32,1.32,0,0,1,134.4,35.3Zm14.4,0a1.3,1.3,0,1,1-1.3,1.3A1.32,1.32,0,0,1,148.8,35.3Zm14.4,0a1.3,1.3,0,1,1-1.3,1.3A1.32,1.32,0,0,1,163.2,35.3Zm14.4,0a1.3,1.3,0,1,1-1.3,1.3A1.32,1.32,0,0,1,177.6,35.3Zm14.4,0a1.3,1.3,0,1,1-1.3,1.3A1.32,1.32,0,0,1,192,35.3Zm14.4,0a1.3,1.3,0,1,1-1.3,1.3A1.32,1.32,0,0,1,206.4,35.3Zm14.4,0a1.3,1.3,0,1,1-1.3,1.3A1.32,1.32,0,0,1,220.8,35.3Zm14.4,0a1.3,1.3,0,1,1-1.3,1.3A1.32,1.32,0,0,1,235.2,35.3Zm14.4,0a1.3,1.3,0,1,1-1.3,1.3A1.32,1.32,0,0,1,249.6,35.3Zm14.4,0a1.3,1.3,0,1,1-1.3,1.3A1.32,1.32,0,0,1,264,35.3Zm14.4,0a1.3,1.3,0,1,1-1.3,1.3A1.32,1.32,0,0,1,278.4,35.3Zm14.4,0a1.3,1.3,0,1,1-1.3,1.3A1.32,1.32,0,0,1,292.8,35.3Zm14.4,0a1.3,1.3,0,1,1-1.3,1.3A1.32,1.32,0,0,1,307.2,35.3ZM12,20.9a1.3,1.3,0,1,1-1.3,1.3A1.32,1.32,0,0,1,12,20.9Zm14.4,0a1.3,1.3,0,1,1-1.3,1.3A1.32,1.32,0,0,1,26.4,20.9Zm14.4,0a1.3,1.3,0,1,1-1.3,1.3A1.32,1.32,0,0,1,40.8,20.9Z" fill="#c1dcf3"/><circle cx="55.2" cy="22.2" r="1.3" fill="#c1dcf3"/><path d="M69.6,20.9a1.3,1.3,0,1,1-1.3,1.3A1.32,1.32,0,0,1,69.6,20.9Zm14.4,0a1.3,1.3,0,1,1-1.3,1.3A1.32,1.32,0,0,1,84,20.9Zm14.4,0a1.3,1.3,0,1,1-1.3,1.3A1.32,1.32,0,0,1,98.4,20.9Zm14.4,0a1.3,1.3,0,1,1-1.3,1.3A1.32,1.32,0,0,1,112.8,20.9Z" fill="#c1dcf3"/><circle cx="127.2" cy="22.2" r="1.3" fill="#c1dcf3"/><path d="M141.6,20.9a1.3,1.3,0,1,1-1.3,1.3A1.32,1.32,0,0,1,141.6,20.9Zm14.4,0a1.3,1.3,0,1,1-1.3,1.3A1.32,1.32,0,0,1,156,20.9Zm14.4,0a1.3,1.3,0,1,1-1.3,1.3A1.32,1.32,0,0,1,170.4,20.9Zm14.4,0a1.3,1.3,0,1,1-1.3,1.3A1.32,1.32,0,0,1,184.8,20.9Z" fill="#c1dcf3"/><circle cx="199.2" cy="22.2" r="1.3" fill="#c1dcf3"/><path d="M213.6,20.9a1.3,1.3,0,1,1-1.3,1.3A1.32,1.32,0,0,1,213.6,20.9Zm14.4,0a1.3,1.3,0,1,1-1.3,1.3A1.32,1.32,0,0,1,228,20.9Zm14.4,0a1.3,1.3,0,1,1-1.3,1.3A1.32,1.32,0,0,1,242.4,20.9Zm14.4,0a1.3,1.3,0,1,1-1.3,1.3A1.32,1.32,0,0,1,256.8,20.9Z" fill="#c1dcf3"/><circle cx="271.2" cy="22.2" r="1.3" fill="#c1dcf3"/><path d="M285.6,20.9a1.3,1.3,0,1,1-1.3,1.3A1.32,1.32,0,0,1,285.6,20.9Zm14.4,0a1.3,1.3,0,1,1-1.3,1.3A1.32,1.32,0,0,1,300,20.9Zm14.4,0a1.3,1.3,0,1,1-1.3,1.3A1.32,1.32,0,0,1,314.4,20.9ZM4.8,6.5A1.3,1.3,0,1,1,3.5,7.8,1.32,1.32,0,0,1,4.8,6.5Z" fill="#c1dcf3"/><circle cx="19.2" cy="7.8" r="1.3" fill="#c1dcf3"/><path d="M33.6,6.5a1.3,1.3,0,1,1-1.3,1.3A1.32,1.32,0,0,1,33.6,6.5ZM48,6.5a1.3,1.3,0,1,1-1.3,1.3A1.32,1.32,0,0,1,48,6.5Zm14.4,0a1.3,1.3,0,1,1-1.3,1.3A1.32,1.32,0,0,1,62.4,6.5Zm14.4,0a1.3,1.3,0,1,1-1.3,1.3A1.32,1.32,0,0,1,76.8,6.5Z" fill="#c1dcf3"/><circle cx="91.2" cy="7.8" r="1.3" fill="#c1dcf3"/><path d="M105.6,6.5a1.3,1.3,0,1,1-1.3,1.3A1.32,1.32,0,0,1,105.6,6.5Zm14.4,0a1.3,1.3,0,1,1-1.3,1.3A1.32,1.32,0,0,1,120,6.5Zm14.4,0a1.3,1.3,0,1,1-1.3,1.3A1.32,1.32,0,0,1,134.4,6.5Zm14.4,0a1.3,1.3,0,1,1-1.3,1.3A1.32,1.32,0,0,1,148.8,6.5Z" fill="#c1dcf3"/><circle cx="163.2" cy="7.8" r="1.3" fill="#c1dcf3"/><path d="M177.6,6.5a1.3,1.3,0,1,1-1.3,1.3A1.32,1.32,0,0,1,177.6,6.5Zm14.4,0a1.3,1.3,0,1,1-1.3,1.3A1.32,1.32,0,0,1,192,6.5Zm14.4,0a1.3,1.3,0,1,1-1.3,1.3A1.32,1.32,0,0,1,206.4,6.5Zm14.4,0a1.3,1.3,0,1,1-1.3,1.3A1.32,1.32,0,0,1,220.8,6.5Z" fill="#c1dcf3"/><circle cx="235.2" cy="7.8" r="1.3" fill="#c1dcf3"/><path d="M249.6,6.5a1.3,1.3,0,1,1-1.3,1.3A1.32,1.32,0,0,1,249.6,6.5Zm14.4,0a1.3,1.3,0,1,1-1.3,1.3A1.32,1.32,0,0,1,264,6.5Zm14.4,0a1.3,1.3,0,1,1-1.3,1.3A1.32,1.32,0,0,1,278.4,6.5Zm14.4,0a1.3,1.3,0,1,1-1.3,1.3A1.32,1.32,0,0,1,292.8,6.5Z" fill="#c1dcf3"/><circle cx="307.2" cy="7.8" r="1.3" fill="#c1dcf3"/></pattern></defs><title>Tavola disegno 1 copia</title><path d="M326.56,123.47l24.75-14c9.23-11.54,11.2-5.91,10.86-3.88-.67,4.49-8.93,7.47-8.93,7.47L338,125.33Z" fill="#c1dcf3"/><path d="M359.13,107.13s4.48-2.66,4-.19c0,0-2.42,2.47-4.42,2.93" fill="#c1dcf3"/><path d="M361.56,103.63s4.42-2.93,2.6-3.44c0,0-7.4,3.51-8.92,5.08" fill="#c1dcf3" stroke="#222" stroke-miterlimit="10" stroke-width="0.64"/><path d="M312.63,134.67s8.73-.53,11.75-1.65c16-5.68,27.12-18.62,27.12-18.62l-5.65-.77s-8.7,7.2-19.32,9.78c-2.86.67-11.79-1.3-18.59.72" fill="#c1dcf3"/><path d="M307.63,134.62l10.53,1.92,1.94-13.37s-11.78-5.17-16.81,1.93" fill="#fff" stroke="#5fbffd" stroke-miterlimit="10" stroke-width="0.67"/><line x1="461.93" y1="102.96" x2="456.6" y2="3.71" fill="none" stroke="#75899d" stroke-linecap="round" stroke-linejoin="round" stroke-width="3.18"/><path d="M456.27,3.38s-14.65-8-42.63,5.33c-21.11,10.05-4.66,16-33.3,14.65-1.79-.65,4.66,4,15.32,4,35.46,0,39.3,11.32,61.28,11.32Z" fill="none" stroke="#75899d" stroke-linecap="round" stroke-linejoin="round" stroke-width="1.09"/><path d="M241.19,175.1s11.13-1.4,13.46,5.59l8.79,24.05s5.26,13,20.51,8.52l20.12-5.06" fill="none" stroke="#75899d" stroke-linecap="round" stroke-linejoin="round" stroke-width="3.18"/><path d="M315.73,253.69h-118m118-12.72h-118" fill="none" stroke="#c1dcf3" stroke-miterlimit="10" stroke-width="2.16"/><path d="M128,175.1s11.12-1.4,13.45,5.59l8.79,24.05s5.27,13,20.52,8.52l17.57-5" fill="none" stroke="#75899d" stroke-linecap="round" stroke-linejoin="round" stroke-width="3.18"/><path d="M193.17,253.69H84.53M193.17,241H84.53" fill="none" stroke="#c1dcf3" stroke-miterlimit="10" stroke-width="2.07"/><path d="M310,115l-7.19,10.43s7.12,6,12.68,4.7a82.87,82.87,0,0,1,.48-12.41Z" fill="#c1dcf3"/><path d="M303.49,108.35a12.12,12.12,0,0,0,13.94,10c6.61-1.09,7.8-7.58,6.71-14.19s-4.06-10.83-10.67-9.74A12.13,12.13,0,0,0,303.49,108.35Z" fill="#c1dcf3"/><circle cx="319.58" cy="108.82" r="3.09" fill="#a2c6e0"/><circle cx="321.85" cy="103.74" r="0.77" fill="#222"/><path d="M324.19,103.35s3.32,4.61,2.25,5.12a2.9,2.9,0,0,1-1.81.3" fill="none" stroke="#222" stroke-linecap="round" stroke-linejoin="round" stroke-width="0.74"/><path d="M320.58,112.81a2.64,2.64,0,0,1-3.28-.76" fill="none" stroke="#222" stroke-linecap="round" stroke-linejoin="round" stroke-width="0.74"/><path d="M324.59,91.41a4.78,4.78,0,0,1-.71,1.36c1.5.48-.52,6.15-1.69,5.48-.88-.51-1.86.23-2.14,1.18a2.2,2.2,0,0,1-1.49,1.63c-.48,1-1.82-.24-2.07,1-.2,1-.6,2.51-2.22,2.59-.57,0-.38-1.14-1.54-1.1-5,.17-1.7,5.93.43,6.55a8.2,8.2,0,0,1-2.2,5c-.3,1.38-.66.36-1.39,1.64s-.2,1.17-1.46,1.14c-2.25,0-4.7-1.58-7.06-2.15a3.56,3.56,0,0,1-2.75-1.75c-.27-.51-.17-1.34-.45-1.77s-1.11-.54-1.52-1.08c-.9-1.18,0-.75-.44-1.88,0-.09,0-.27-.05-.38-.4-1-1.64-1.09-2-2.31a12.56,12.56,0,0,1,2-11.2c.44-.65-.16-1.3.84-3.07.85-1.5,1-2.25,2.62-2.93.37-.16.57.1.9-.1.76-.47,1-1.68,2.05-2.13.65-.28,1.34-.07,1.93-.24.35-.1.58-.39,1-.51s1.66-.14,1.9-.28.35-.69.59-.91a4.34,4.34,0,0,1,3-1.26c4.36.74,3.33,2.85,4.56,2.74,1-.08,1.81-1.08,3-1.16,1.95-.12,2.33,1.34,3.65,2,1,.46,1.76-.26,2.58,1.08A3.52,3.52,0,0,1,324.59,91.41Z" fill="#222" stroke="#222" stroke-miterlimit="10" stroke-width="0.75" fill-rule="evenodd"/><circle cx="312.06" cy="246.7" r="8.26" fill="#c1dcf3"/><path d="M324.12,228.38s-6.26,11.13-6.39,12.92S315,236,315,236l-.2-1.33s2.94-.27,7.8-14.12l2.73,5.26Z" fill="#fff" stroke="#222" stroke-miterlimit="10" stroke-width="0.66"/><path d="M311.86,236.78a3.56,3.56,0,0,0,.2,2.19,55.55,55.55,0,0,0,2.8,5.13,61.18,61.18,0,0,0,2.93,5.46,1.2,1.2,0,0,0,2.2-.66v-.6c-.2-2.6-1.2-7.73-1.66-10.26-.27-1.26-.74-3.46-2.34-3.6s-3.46.67-4,2.2c-.14,0-.14.07-.14.14Z" fill="#222"/><path d="M338.37,201.81c-9.65,3-29.57-2.8-29.57-2.8-12.06-3.73-9.19-17.45-9.19-17.45s7.13-1.07,20.11,1c3.73.8,23,6.72,23,6.72s12.46,4.4,4.53,13.72l-25.71,30.84-4-3.39c.06.06,7-31.91,20.84-28.64" fill="#3e4b56"/><path d="M420.3,230.31s-6.26,11.13-6.39,12.93-2.73-5.27-2.73-5.27l-.2-1.33s2.93-.26,7.79-14.12l2.73,5.26-1.2,2.53Z" fill="#fff" stroke="#222" stroke-miterlimit="10" stroke-width="0.66"/><path d="M408,238.71a3.52,3.52,0,0,0,.2,2.2A54.34,54.34,0,0,0,411,246c.93,1.8,1.8,3.73,2.93,5.47a1.2,1.2,0,0,0,2.2-.67v-.6c-.2-2.6-1.2-7.73-1.67-10.26-.26-1.26-.73-3.46-2.33-3.59s-3.46.66-4,2.19c-.06-.06-.13,0-.13.14Z" fill="#222"/><path d="M434.56,203.74c-9.66,3-29.58-2.8-29.58-2.8-12.05-3.73-9.19-17.45-9.19-17.45s18.72-1.07,22.45-.27,20.65,8,20.65,8,12.45,4.4,4.53,13.73l-25.71,30.84-4-3.4c.07,0,7-32,20.85-28.64" fill="#5fbffd"/><path d="M463,189.68s-4.53,3.4-30.51,25.18c0,0-12.52,12.06-23.64,12.06H313.66m-9.79-24.51,12,32.83" fill="none" stroke="#498dc9" stroke-linecap="round" stroke-linejoin="round" stroke-width="3.82"/><path d="M292.48,192.68s18.12,1.4,24.58,0c0,0,3.26,9.73-17.19,9.73C299.87,202.47,292,201.54,292.48,192.68Z" fill="none" stroke="#222" stroke-linecap="round" stroke-linejoin="round" stroke-width="3.71"/><path d="M357.76,175.1s11.12-1.4,13.45,5.59L380,204.74s5.27,13,20.52,8.52" fill="none" stroke="#75899d" stroke-linecap="round" stroke-linejoin="round" stroke-width="3.18"/><circle cx="485.31" cy="246.1" r="4.86" fill="#c1dcf3"/><path d="M409.38,235.24H317.19" fill="none" stroke="#498dc9" stroke-linecap="round" stroke-linejoin="round" stroke-width="3.82"/><path d="M406.52,253.69H314.33M406.52,241H314.33" fill="none" stroke="#c1dcf3" stroke-miterlimit="10" stroke-width="1.91"/><path d="M396.86,202.41l12,31.57" fill="none" stroke="#75899d" stroke-linecap="round" stroke-linejoin="round" stroke-width="3.18"/><path d="M387.33,194.28s18.12,1.4,24.58,0c0,0,3.26,9.72-17.18,9.72,0,.07-7.86-.86-7.4-9.72Z" fill="none" stroke="#222" stroke-linecap="round" stroke-linejoin="round" stroke-width="3.71"/><circle cx="408.25" cy="248.7" r="8.86" transform="translate(97.37 611.84) rotate(-80.78)" fill="#75899d"/><path d="M485.31,285a38.24,38.24,0,1,1,38.24-38.23A38.28,38.28,0,0,1,485.31,285Zm0-72.67a34.44,34.44,0,1,0,34.44,34.44A34.48,34.48,0,0,0,485.31,212.33Z" fill="#222"/><path d="M505.23,233.05a24.18,24.18,0,1,1-44.1,13.72" fill="none" stroke="#75899d" stroke-miterlimit="10" stroke-width="0.64"/><path d="M428.3,138.53s-4.27-4.2-9.66,7.92a204.06,204.06,0,0,0-8.79,24.92s-1.4,4.19,7.06,5.66l12,.53,19.91,2.4s.8-7-13.39-5.33c0,0-17.65-5.2-18.18-4.73,0,0,4-4.13,9.72-19.32l1.2-5.86" fill="#c1dcf3"/><path d="M418.7,168.83s5.93-10.25,7.53-16.71" fill="none" stroke="#222" stroke-miterlimit="10" stroke-width="0.62"/><path d="M417.24,170c.53-.54,18.18,4.73,18.18,4.73C449.61,173,448.81,180,448.81,180l-19.91-2.39-12-.54c-8.46-1.53-7.06-5.66-7.06-5.66a196.85,196.85,0,0,1,8.79-24.91" fill="#c1dcf3"/><path d="M417.24,170c.53-.54,18.18,4.73,18.18,4.73,11.73.8,6.53,2.53,6.53,2.53l-13,.33L417,177c-8.46-1.53-7.06-5.66-7.06-5.66a197.43,197.43,0,0,1,8.79-24.92" fill="#c1dcf3"/><path d="M446.15,178.23s14.52-1.8,16.85,5.13L485.25,246" fill="none" stroke="#75899d" stroke-linecap="round" stroke-linejoin="round" stroke-width="3.18"/><path d="M446.15,178a35.62,35.62,0,0,1,9.06.13" fill="none" stroke="#222" stroke-linecap="round" stroke-linejoin="round" stroke-width="3.82"/><path d="M398.39,248l11.06,7" fill="none" stroke="#222" stroke-linecap="round" stroke-linejoin="round" stroke-width="1.91"/><circle cx="312.06" cy="246.77" r="8.86" fill="#75899d"/><path d="M302.27,246l11,7.06" fill="none" stroke="#222" stroke-linecap="round" stroke-linejoin="round" stroke-width="1.91"/><path d="M313.26,233.64s-2.13,5.07-1.8,7.4l1.2,4.19-5.86-5.59-1.06-1.47s3.93-1.93,3.39-8.92l4.13,4.39Z" fill="#fff" stroke="#222" stroke-miterlimit="10" stroke-width="0.66"/><path d="M332.65,200c-11.06,4.79-35.44.46-35.44.46C282.49,197.54,284.09,181,284.09,181l59.41,5.79s9.93,4.07-.13,13.52l-29.64,33-5.4-2.2s7.4-33.23,24.32-31.1" fill="#75899d" stroke="#3e4b56" stroke-miterlimit="10" stroke-width="0.66"/><path d="M303.27,241.57a3.78,3.78,0,0,0,1.27,1.93,54.29,54.29,0,0,0,5.13,3.4,57.71,57.71,0,0,0,5.32,3.6,1.23,1.23,0,0,0,1.67-1.67,2.56,2.56,0,0,0-.33-.53c-1.47-2.33-4.87-6.6-6.6-8.73-.86-1.06-2.33-2.86-3.93-2.2s-2.86,2.34-2.6,3.93a.39.39,0,0,1,.07.27Z" fill="#222"/><path d="M314.73,246s-2.73-.14-2.53-1.27c0,0,3.39-.93,1.06-2.2,0,0-3.59.8-3.93,0" fill="none" stroke="#5fbffd" stroke-linecap="round" stroke-linejoin="round" stroke-width="0.66"/><path d="M468.39,199.61S459.14,193,445,217.33c-.53.93-1.2,1.79-1.73,2.79-2,3.8-10.19,15.19-25.51,15.19H396.06" fill="none" stroke="#498dc9" stroke-linecap="round" stroke-linejoin="round" stroke-width="3.82"/><path d="M409.71,235.24s-2.13,5.07-1.8,7.4l1.2,4.19-5.86-5.59-1.06-1.47s3.93-1.93,3.39-8.92l4.13,4.39Z" fill="#fff" stroke="#222" stroke-miterlimit="10" stroke-width="0.66"/><path d="M428.76,201.94c-11.05,4.79-35.43.47-35.43.47-14.72-2.94-13.13-19.52-13.13-19.52l59.42,5.79s9.92,4.07-.13,13.53l-29.64,33-5.4-2.2s7.46-33.24,24.31-31" fill="#fff" stroke="#5fbffd" stroke-miterlimit="10" stroke-width="0.66"/><path d="M399.39,243.44a3.8,3.8,0,0,0,1.26,1.93,59.14,59.14,0,0,0,5.13,3.39,57.86,57.86,0,0,0,5.33,3.6,1.23,1.23,0,0,0,1.67-1.66,2.3,2.3,0,0,0-.34-.54c-1.46-2.33-4.86-6.59-6.59-8.72-.87-1.07-2.33-2.87-3.93-2.2s-2.87,2.33-2.6,3.93a.48.48,0,0,1,.07.27Z" fill="#222"/><path d="M410.84,247.83s-2.73-.13-2.53-1.26c0,0,3.4-.94,1.07-2.2,0,0-3.6.8-3.93,0" fill="none" stroke="#5fbffd" stroke-linecap="round" stroke-linejoin="round" stroke-width="0.66"/><path d="M388.66,199.47a74.93,74.93,0,0,0,13.73,2.6,140.9,140.9,0,0,0,16.58.34l6.33-3.14-20.72-3.19-22-3.4,6.06,6.79Z" stroke-miterlimit="10" stroke-width="0.32" fill="url(#a)" stroke="url(#b)"/><path d="M433.23,115c-.4-.27-.54-1-.8-1.4a17.21,17.21,0,0,0-.94-1.47,18.17,18.17,0,0,0-3.26-3.59,13.8,13.8,0,0,0-8.19-3.2,21,21,0,0,0-9.79,2.26c-3.27,1.54-5.87,3.8-8.6,6a20.51,20.51,0,0,1-8.92,4.4c-3.33.73-4.13-.07-7.4-.74a13.29,13.29,0,0,0-8.92.94,18.24,18.24,0,0,0-7.06,6.26,15.09,15.09,0,0,0-3.07,8.06c0,13.12,24.25,13.12,33.44,12.19,27-3.2,21-14,22.58-14.66,3.13-1.2-3.73-9.66-.93-11.46,2.26-1.46,4.73-3,7.53-3.46,1.13-.2,2.86-.33,3.66.6l.67-.73Z" fill="#5fbffd" stroke="#222" stroke-miterlimit="10" stroke-width="0.6" fill-rule="evenodd"/><path d="M420.5,124.61l-3.19,8.86s7.79,9.65,11.12,7.32a84.34,84.34,0,0,1-2.27-14.52l-5.66-1.66Z" fill="#c1dcf3"/><path d="M421.7,129.8s-15.25-.33-20.45,12.19c0,0-5.93,12.66-11.79,22.58-3.53,6-15.58,18.12-15.58,18.12-.07.4,20.31,2.8,28.57,1.26,10.53-1.93,16.25-.66,16.25-.66s.07-1.13,3.27-17.19c1.26-6.39,9.46-17.38,9.26-20.38,0,.07.13-13.92-9.53-15.92Z" fill="#fcf36a"/><path d="M436.16,128.9l19-21.14c5-13.9,8.72-9.19,9.05-7.16.8,4.47-6.08,9.93-6.08,9.93L447.56,127Z" fill="#c1dcf3"/><path d="M461.78,103s3.4-4,3.73-1.46c0,0-1.51,3.11-3.25,4.19" fill="#c1dcf3"/><path d="M426.55,144s8.11-3.29,10.6-5.32c13.33-10.5,19.74-26.33,19.74-26.33l-5.61,1.09s-5.93,9.61-15.16,15.45c-2.5,1.55-11.59,2.54-17.38,6.64" fill="#c1dcf3"/><path d="M421.8,145.53,432.39,144,430,130.69s-12.82-1.13-15.31,7.21" fill="#fcf36a" stroke="#222" stroke-miterlimit="10" stroke-width="0.67"/><path d="M433.49,120.61a11.06,11.06,0,0,1-14.72,4.93c-5.39-2.73-4.73-8.66-2-14.06s6.4-8.26,11.86-5.59a10.94,10.94,0,0,1,4.86,14.72Z" fill="#c1dcf3"/><circle cx="421.7" cy="118.21" r="2.8" fill="#a2c6e0"/><circle cx="421.37" cy="113.28" r="0.73" fill="#222"/><circle cx="416.64" cy="111.42" r="0.73" fill="#222"/><path d="M419.44,112.35s-4.13,3.13-3.33,3.86a2.54,2.54,0,0,0,1.46.74" fill="none" stroke="#222" stroke-linecap="round" stroke-linejoin="round" stroke-width="0.67"/><path d="M421.3,103.62s2.27-8.85,14.66,1.07a13.54,13.54,0,0,1,4.59,5.86c3.07,7.53-2.66,13.26-8.39,14.86-1.6.46-6.33,1.19-6.06.93a7.47,7.47,0,0,0,2.4-5.66,2.21,2.21,0,0,0,1.59-.6c1.87-1.2,1.87-4.47-.33-4.47,0,0-10-4.86-8.46-12Z" fill="#5fbffd" stroke="#222" stroke-miterlimit="10" stroke-width="0.6"/><path d="M421.3,121.28s1.6-.67,3.27-1.34c0,0,.86,2.33-.54,2.73A2.06,2.06,0,0,1,421.3,121.28Z" fill="none" stroke="#222" stroke-linecap="round" stroke-linejoin="round" stroke-width="0.6"/><path d="M296.54,37.35c-2.33-.27-4.59-.73-6.92-.93a20.54,20.54,0,0,0-7.06.2c-2.14.53-3.53,1.79-2.6,2.79s3.53,1.47,5.93,1.4,4.59-.46,6.92-.6a73.6,73.6,0,0,1,10.06.4,20.18,20.18,0,0,0,4.53,0c1.47-.2,2.8-.73,2.93-1.46C311,36,299.74,37.68,296.54,37.35Zm30.31-8.19c-1.6-.2-3.13-.47-4.66-.67a14.51,14.51,0,0,0-4.8.13c-1.46.34-2.4,1.2-1.73,1.93s2.4,1,4,.94,3.13-.34,4.66-.4a45.36,45.36,0,0,1,6.79.26,15,15,0,0,0,3.07,0c1-.13,1.93-.53,2-1C336.64,28.29,329.05,29.42,326.85,29.16Zm71,19.45c-3.27-.34-6.33-1-9.6-1.34a29.36,29.36,0,0,0-9.72.34c-2.93.73-4.86,2.46-3.6,3.86s4.93,2,8.13,1.93,6.33-.6,9.59-.8a110.25,110.25,0,0,1,13.92.53,31.93,31.93,0,0,0,6.26,0c2-.26,3.87-1.06,4.07-2C417.84,46.74,402.32,49.07,397.86,48.61Zm23.78,10.72c-2.2-.2-4.27-.67-6.47-.87a20.1,20.1,0,0,0-6.59.2c-2,.47-3.33,1.67-2.46,2.67s3.33,1.33,5.52,1.26,4.27-.4,6.47-.53a73.69,73.69,0,0,1,9.39.33,22.46,22.46,0,0,0,4.26,0c1.4-.2,2.6-.73,2.73-1.4C435.16,58.06,424.63,59.6,421.64,59.33Z" fill="none" stroke="#c1dcf3" stroke-miterlimit="10" stroke-width="0.64"/><path d="M357.62,175.36a35.37,35.37,0,0,1,9.06.14" fill="none" stroke="#222" stroke-linecap="round" stroke-linejoin="round" stroke-width="3.82"/><path d="M520,182.16,515.42,193l-7.13-9.33Z" fill="#fff" stroke="#fcf36a" stroke-linecap="round" stroke-miterlimit="10" stroke-width="1.02"/><circle cx="410.84" cy="276.81" r="2.93" fill="none" stroke="#5fbffd" stroke-linecap="round" stroke-miterlimit="10" stroke-width="0.67"/><circle cx="495.9" cy="171.9" r="4.06" fill="none" stroke="#5fbffd" stroke-linecap="round" stroke-miterlimit="10" stroke-width="0.67"/><path d="M261,144.46l-3,7.12-4.66-6.13Z" fill="none" stroke="#5fbffd" stroke-linecap="round" stroke-miterlimit="10" stroke-width="0.67"/><path d="M276.47,170.39l-4.23,8.6-8.61-4.23,4.24-8.61Z" fill="#fff" stroke="#fcf36a" stroke-linecap="round" stroke-miterlimit="10" stroke-width="1.02"/><circle cx="195.5" cy="246.7" r="8.26" fill="#c1dcf3"/><path d="M207.55,228.38s-6.26,11.13-6.39,12.92-2.73-5.26-2.73-5.26l-.2-1.33s2.93-.27,7.79-14.12l2.73,5.26Z" fill="#fff" stroke="#222" stroke-miterlimit="10" stroke-width="0.66"/><path d="M195.3,236.78a3.49,3.49,0,0,0,.2,2.19,51.18,51.18,0,0,0,2.8,5.13,58.71,58.71,0,0,0,2.93,5.46,1.19,1.19,0,0,0,2.19-.66v-.6c-.19-2.6-1.19-7.73-1.66-10.26-.27-1.26-.73-3.46-2.33-3.6s-3.47.67-4,2.2c-.13,0-.13.07-.13.14Z" fill="#222"/><path d="M221.81,201.81c-9.66,3-29.58-2.8-29.58-2.8-12-3.73-9.19-17.45-9.19-17.45s18.72-1.07,22.45-.27,20.65,8,20.65,8,12.45,4.4,4.53,13.72L205,233.84l-4-3.39c.07.06,7-31.91,20.85-28.64" fill="#75899d"/><path d="M307.93,215.53s-4.86,11.65-23.64,12.05l-87.19-.66m-9.79-24.51,12,32.83" fill="none" stroke="#498dc9" stroke-linecap="round" stroke-linejoin="round" stroke-width="3.82"/><path d="M175.92,192.68s18.11,1.4,24.57,0c0,0,3.27,9.73-17.18,9.73C183.31,202.47,175.45,201.54,175.92,192.68Z" fill="none" stroke="#222" stroke-linecap="round" stroke-linejoin="round" stroke-width="3.71"/><path d="M305.74,235.24H200.63" fill="none" stroke="#498dc9" stroke-linecap="round" stroke-linejoin="round" stroke-width="3.82"/><circle cx="195.5" cy="246.77" r="8.86" fill="#75899d"/><path d="M185.71,246l11,7.06" fill="none" stroke="#222" stroke-linecap="round" stroke-linejoin="round" stroke-width="1.91"/><path d="M196.7,233.64s-2.13,5.07-1.8,7.4l1.2,4.19-5.86-5.59-1.07-1.47s3.93-1.93,3.4-8.92l4.13,4.39Z" fill="#fff" stroke="#222" stroke-miterlimit="10" stroke-width="0.66"/><path d="M216.08,200c-11.06,4.79-35.44.46-35.44.46C165.92,197.54,167.52,181,167.52,181l59.42,5.79s9.92,4.07-.14,13.52l-29.64,33-5.39-2.2s7.39-33.23,24.31-31.1" fill="#fff" stroke="#75899d" stroke-miterlimit="10" stroke-width="0.66"/><path d="M186.71,241.57A3.76,3.76,0,0,0,188,243.5a57,57,0,0,0,5.13,3.4,56.54,56.54,0,0,0,5.33,3.6,1.23,1.23,0,0,0,1.66-1.67,2.19,2.19,0,0,0-.33-.53c-1.46-2.33-4.86-6.6-6.59-8.73-.87-1.06-2.33-2.86-3.93-2.2s-2.87,2.34-2.6,3.93a.39.39,0,0,1,.07.27Z" fill="#222"/><path d="M198.16,246s-2.73-.14-2.53-1.27c0,0,3.4-.93,1.07-2.2,0,0-3.6.8-3.93,0" fill="none" stroke="#5fbffd" stroke-linecap="round" stroke-linejoin="round" stroke-width="0.66"/><path d="M225.87,169.17l-3.93,6" fill="#75899d"/><path d="M241.06,175.36a35.35,35.35,0,0,1,9.06.14" fill="none" stroke="#222" stroke-linecap="round" stroke-linejoin="round" stroke-width="3.82"/><path d="M212.48,122.61l-5.79,4.86s4.53,10.19,8,8.93c0,0,2.4-6.86,3.8-12.46Z" fill="#c1dcf3"/><path d="M221.94,172.16s-9.32-13.65-11.19-18.51l-.8-11.93,4.2-3.79s-2.33,1.4,7.06,19.65a85.66,85.66,0,0,0,6.06,9.26l2.67.6,15.71,3.46-20.11,1.6-1.6-1.6" fill="#c1dcf3"/><path d="M208.82,127.47s-15-.33-20,12c0,0-5.86,12.39-11.59,22.25-3.46,5.93-15.32,18.45-15.32,18.45s19.32,2.4,26.64,2.6c11.79.33,16.86-1.6,16.86-1.6s.6-2.07,3.73-17.85c0,0,8.66-13.06,8.46-16C217.55,147.25,216.48,131.93,208.82,127.47Z" fill="#fcf36a"/><path d="M201.83,131.33s-6-1-3.47,12.19c0,0,2.33,16.72,9.66,29.44,0,0,1,4.13,21.25,1.07l14.59,2.2a13.81,13.81,0,0,0,7.32-.87s4.47-6.66-14.52-5.66c0,0-21.58-3.8-22.11-3.13,0,0-2.6-25-7.13-28.24" fill="#fff" stroke="#222" stroke-miterlimit="10" stroke-width="0.64"/><path d="M211.22,139.33l1.6,4.73L198,142.79s-3.13-12,4.27-11.66" fill="#fcf36a" stroke="#222" stroke-miterlimit="10" stroke-width="0.66"/><path d="M212.82,144.06l-8.33-.74" fill="none" stroke="#222" stroke-linecap="round" stroke-linejoin="round" stroke-width="0.66"/><path d="M144.48,144.46l-3,7.12-4.66-6.13Z" fill="none" stroke="#5fbffd" stroke-linecap="round" stroke-miterlimit="10" stroke-width="0.67"/><path d="M159.91,170.39l-4.24,8.6-8.6-4.23,4.23-8.61Z" fill="#fff" stroke="#fcf36a" stroke-linecap="round" stroke-miterlimit="10" stroke-width="1.02"/><path d="M39.9,250.23l39.7,4.93c11,.2,10.12-8.53,10.12-8.53-.06-3.46-1.13-5.46-2.39-6.59a6.11,6.11,0,0,0-4.8-1.47c-4.73-.66-42.63,4.73-42.63,4.73S48.83,245.5,39.9,250.23Z" fill="#c1dcf3"/><circle cx="82.26" cy="246.7" r="8.26" fill="#c1dcf3"/><path d="M94.32,228.38s-6.26,11.13-6.39,12.92S85.19,236,85.19,236l-.2-1.33s2.94-.27,7.8-14.12l2.73,5.26Z" fill="#fff" stroke="#222" stroke-miterlimit="10" stroke-width="0.66"/><path d="M82.06,236.78a3.56,3.56,0,0,0,.2,2.19,55.55,55.55,0,0,0,2.8,5.13A61.18,61.18,0,0,0,88,249.56a1.2,1.2,0,0,0,2.2-.66v-.6c-.2-2.6-1.2-7.73-1.67-10.26-.26-1.26-.73-3.46-2.33-3.6s-3.46.67-4,2.2c-.14,0-.14.07-.14.14Z" fill="#222"/><path d="M108.57,201.81C98.92,204.8,79,199,79,199c-12.06-3.73-9.19-17.45-9.19-17.45s18.71-1.07,22.44-.27,20.65,8,20.65,8,12.46,4.4,4.53,13.72L91.72,233.84l-4-3.39c.06.06,7-31.91,20.84-28.64" fill="#3e4b56"/><path d="M191.37,214.86s-6.86,12.32-23.65,12.06H83.86m-9.79-24.51,12,32.83" fill="none" stroke="#498dc9" stroke-linecap="round" stroke-linejoin="round" stroke-width="3.82"/><path d="M62.68,192.68s18.12,1.4,24.58,0c0,0,3.26,9.73-17.19,9.73C70.07,202.47,62.21,201.54,62.68,192.68Z" fill="none" stroke="#222" stroke-linecap="round" stroke-linejoin="round" stroke-width="3.71"/><path d="M189.17,235.24H87.39" fill="none" stroke="#498dc9" stroke-linecap="round" stroke-linejoin="round" stroke-width="3.82"/><path d="M40.23,285a38.24,38.24,0,1,1,38.24-38.23A38.32,38.32,0,0,1,40.23,285Zm0-72.67a34.44,34.44,0,1,0,34.44,34.44A34.48,34.48,0,0,0,40.23,212.33Z" fill="#222"/><path d="M15.79,246.77A24.53,24.53,0,0,1,40.3,222.25a25.34,25.34,0,0,1,11.19,2.67" fill="none" stroke="#75899d" stroke-miterlimit="10" stroke-width="0.64"/><circle cx="82.26" cy="246.77" r="8.86" fill="#75899d"/><path d="M72.47,246l11,7.06" fill="none" stroke="#222" stroke-linecap="round" stroke-linejoin="round" stroke-width="1.91"/><path d="M83.46,233.64s-2.13,5.07-1.8,7.4l1.2,4.19L77,239.64l-1.06-1.47s3.93-1.93,3.39-8.92l4.13,4.39Z" fill="#fff" stroke="#222" stroke-miterlimit="10" stroke-width="0.66"/><path d="M102.85,200c-11.06,4.79-35.44.46-35.44.46C52.69,197.54,54.29,181,54.29,181l59.41,5.79s9.93,4.07-.13,13.52l-29.64,33-5.4-2.2s7.4-33.23,24.32-31.1" fill="#75899d" stroke="#3e4b56" stroke-miterlimit="10" stroke-width="0.66"/><path d="M73.47,241.57a3.78,3.78,0,0,0,1.27,1.93,54.29,54.29,0,0,0,5.13,3.4,57.71,57.71,0,0,0,5.32,3.6,1.23,1.23,0,0,0,1.67-1.67,2.56,2.56,0,0,0-.33-.53c-1.47-2.33-4.87-6.6-6.6-8.73-.86-1.06-2.33-2.86-3.93-2.2s-2.86,2.34-2.6,3.93a.39.39,0,0,1,.07.27Z" fill="#222"/><path d="M84.93,246s-2.73-.14-2.53-1.27c0,0,3.39-.93,1.06-2.2,0,0-3.59.8-3.93,0" fill="none" stroke="#5fbffd" stroke-linecap="round" stroke-linejoin="round" stroke-width="0.66"/><path d="M112.64,169.17l-3.93,6" fill="#75899d"/><circle cx="39.97" cy="246.1" r="4.86" fill="#75899d"/><path d="M75.27,208.53l-33.77,36" fill="none" stroke="#498dc9" stroke-linecap="round" stroke-linejoin="round" stroke-width="3.18"/><path d="M127.82,175.36a35.37,35.37,0,0,1,9.06.14" fill="none" stroke="#222" stroke-linecap="round" stroke-linejoin="round" stroke-width="3.82"/><ellipse cx="110.7" cy="104.31" rx="5.6" ry="3.06" transform="translate(-41.23 96.93) rotate(-40.52)" stroke-width="0.6" stroke="#222" stroke-linecap="round" stroke-linejoin="round" fill="none"/><path d="M99.12,123.61l-5.67,3.86s4.53,10.19,8,8.93c0,0,.86-4.33,2.26-9.93Z" fill="#c1dcf3"/><path d="M94.05,117a10.77,10.77,0,0,0,11.66,9.85c5.93-.46,7.46-6.19,7-12.12s-2.79-9.86-8.79-9.39A10.86,10.86,0,0,0,94.05,117Z" fill="#c1dcf3"/><circle cx="108.31" cy="118.54" r="2.73" fill="#a2c6e0"/><circle cx="110.71" cy="114.22" r="0.67" fill="#222"/><path d="M112.84,114s2.59,4.32,1.6,4.72a2.55,2.55,0,0,1-1.6.14" fill="none" stroke="#222" stroke-linecap="round" stroke-linejoin="round" stroke-width="0.6"/><path d="M112.64,104c.13-3.79-2.93-7.72-1.2-6.46,2.13,1.6.4,2.73-5.26,2.67-3.6-.07-9.46-3.67-14.46.53,0,0-15.32,14.12,5.73,25,0,0,5.66-4.2,5.06-6.66a6.78,6.78,0,0,1-2-1.73c-1.26-1.8-.06-4.8,1.94-4,.06,0,10-2.33,10.19-9.33Z" fill="#fcf36a" stroke="#222" stroke-miterlimit="10" stroke-width="0.56"/><path d="M105.64,107.75c.8,1.54,3.47,1.27,5.93-.53" fill="none" stroke="#222" stroke-miterlimit="10" stroke-width="0.6"/><path d="M107.57,122.27a2.36,2.36,0,0,1-2.46-1.73M111,107.22c3.26-3.4,4.39-7.66,2.46-9.52" fill="none" stroke="#222" stroke-linecap="round" stroke-linejoin="round" stroke-width="0.6"/><path d="M108.71,172.16s-9.33-13.65-11.19-18.51l-.8-11.93,4.19-3.79s-2.33,1.4,7.06,19.65c.74,1.4,4.93,8.12,6.07,9.26l2.66.6,15.72,3.46-20.12,1.6-1.59-1.6" fill="#c1dcf3"/><path d="M95.59,127.47s-15-.33-20,12c0,0-5.87,12.39-11.59,22.25-3.47,5.93-15.32,18.45-15.32,18.45s19.31,2.4,26.64,2.6c11.79.33,16.85-1.6,16.85-1.6s.6-2.07,3.73-17.85c0,0,8.66-13.06,8.46-16C104.31,147.25,105,129.54,95.59,127.47Z" fill="#5fbffd"/><path d="M88.59,131.33s-6-1-3.46,12.19c0,0,2.33,16.72,9.66,29.44,0,0,1,4.13,21.24,1.07l14.59,2.2a13.83,13.83,0,0,0,7.33-.87s4.46-6.66-14.52-5.66c0,0-21.58-3.8-22.12-3.13,0,0-2.59-25-7.12-28.24" fill="#fff" stroke="#222" stroke-miterlimit="10" stroke-width="0.64"/><path d="M98,139.33l1.6,4.73-14.85-1.27s-3.13-12,4.26-11.66" fill="#5fbffd" stroke="#fff" stroke-miterlimit="10" stroke-width="0.66"/><path d="M99.58,144.06l-8.32-.74" fill="none" stroke="#222" stroke-linecap="round" stroke-linejoin="round" stroke-width="0.66"/><circle cx="11.72" cy="197.54" r="2.93" fill="none" stroke="#5fbffd" stroke-linecap="round" stroke-miterlimit="10" stroke-width="0.67"/><path d="M19.92,144.46l-3,7.12-4.66-6.13Z" fill="none" stroke="#5fbffd" stroke-linecap="round" stroke-miterlimit="10" stroke-width="0.67"/><path d="M35.35,170.39,31.11,179l-8.6-4.23,4.23-8.61Z" fill="#fff" stroke="#fcf36a" stroke-linecap="round" stroke-miterlimit="10" stroke-width="1.02"/><path d="M438.35,274.47l-4.24,8.61-8.6-4.24,4.23-8.6Z" fill="#fff" stroke="#fcf36a" stroke-linecap="round" stroke-miterlimit="10" stroke-width="1.02"/><path d="M516.34,153.17l-4.24,8.6-8.6-4.23,4.23-8.61Z" fill="#fff" stroke="#fcf36a" stroke-linecap="round" stroke-miterlimit="10" stroke-width="1.02"/><path d="M306.35,121.28s-11.56,3.91-15.7,18.44a114.91,114.91,0,0,0-5,19.77c-1.13,6.94-1.92,13.07-6.59,23.07,0,0,38.77,3.84,36-3.33-.16-.41,3.17-39.46,1.88-46C316.94,133.25,317.31,122.3,306.35,121.28Z" fill="#fff" stroke="#5fbffd" stroke-miterlimit="10" stroke-width="0.67"/><path d="M319.21,148.61l23.12,16.53c14.36,3.47,10.09,7.65,8.11,8.2-4.36,1.29-10.55-4.94-10.55-4.94l-17.54-8.67Z" fill="#c1dcf3"/><path d="M347.79,171.21s4.31,2.94,1.86,3.54c0,0-3.25-1.15-4.52-2.77" fill="#c1dcf3"/><path d="M303.17,140.73s4.17,7.68,6.46,9.94C321.54,162.76,338,167.38,338,167.38l-1.7-5.45s-10.2-4.84-17-13.37c-1.83-2.31-3.81-11.24-8.53-16.54" fill="#c1dcf3"/><path d="M301.1,136.17l2.72,10.36,12.93-3.9s-.29-12.86-8.86-14.42" fill="#fff" stroke="#5fbffd" stroke-miterlimit="10" stroke-width="0.67"/><path d="M443.07,5a7.88,7.88,0,1,0,7.87,7.88h0A7.87,7.87,0,0,0,443.07,5Zm-4.13,12,.94-3.51,1.7.86.87,1.7Zm5.39-.1-1.76-3.47h0l-3.47-1.76,8.09-2.86h0Z" fill="#75899d"/><path d="M208.24,113.4a11.47,11.47,0,0,0,11.06,11.87c6.34.22,8.65-5.57,8.88-11.91s-1.74-10.81-8.07-11A11.47,11.47,0,0,0,208.24,113.4Z" fill="#c1dcf3"/><circle cx="223.08" cy="116.85" r="2.93" fill="#a2c6e0"/><circle cx="226.13" cy="112.56" r="0.73" fill="#222"/><path d="M228.38,112.64s2.21,4.9,1.12,5.17a2.69,2.69,0,0,1-1.73-.06" fill="none" stroke="#222" stroke-linecap="round" stroke-linejoin="round" stroke-width="0.7"/><ellipse cx="203.44" cy="95.78" rx="9.12" ry="7.54" transform="translate(-10.68 164.46) rotate(-42.99)" fill="none" stroke="#222" stroke-miterlimit="10" stroke-width="0.7"/><ellipse cx="205.29" cy="91.96" rx="9.12" ry="5.11" transform="translate(-7.57 164.69) rotate(-42.99)" fill="none" stroke="#222" stroke-miterlimit="10" stroke-width="0.7"/><path d="M227.9,103.88s-3.2-11-23.13-7.37c0,0-12.88,14.4,6.29,26.62,0,0,6.19-3.74,5.87-6.43a7.57,7.57,0,0,1-1.9-2.09c-1.08-2.06.5-5.07,2.53-4C217.56,110.65,225.63,109.9,227.9,103.88Z" fill="#498dc9" stroke="#3e4b56" stroke-miterlimit="10" stroke-width="0.69"/><ellipse cx="196.98" cy="91.67" rx="8.08" ry="9.12" transform="translate(-9.61 158.95) rotate(-42.99)" fill="#498dc9" stroke="#3e4b56" stroke-miterlimit="10" stroke-width="0.69"/><path d="M208.77,95.7c-3.68,3.43-8.22,4.54-10.15,2.48" fill="none" stroke="#fff" stroke-miterlimit="10" stroke-width="0.7"/><path d="M211.79,95.28a10.16,10.16,0,0,1-3.21,6,9.74,9.74,0,0,1-7.94,2.7" fill="none" stroke="#fff" stroke-miterlimit="10" stroke-width="0.7"/><path d="M222.78,121.53,220.27,119s-1.81,1.81-.62,2.82A2.15,2.15,0,0,0,222.78,121.53Z" fill="none" stroke="#222" stroke-linecap="round" stroke-linejoin="round" stroke-width="0.7"/></svg>