<svg width="385" height="347" viewBox="0 0 385 347" xmlns="http://www.w3.org/2000/svg"><g fill-rule="nonzero" fill="none"><ellipse fill="#FCF36A" transform="rotate(-38.573 71.496 189.00215)" cx="71.496" cy="189.00215" rx="9.59982475" ry="16.2997024"/><path fill="#FCF36A" d="M307.5 180.3l35.7-12.5.1 30.9-35.4 13.3z"/><path d="M310 209.1l-.4-33.6 37.5-13 .1 32.7-37.2 13.9zm1.4-32.4l.4 29.8 33.6-12.6-.1-29-33.9 11.8z" fill="#5FBFFD"/><path d="M308.9 232.3l-.5-15.1 37.5-14.3.1 15.5-37.1 13.9zm1.3-13.9l.4 11.3 33.6-12.6-.1-11.6-33.9 12.9z" fill="#C1DCF3"/><path d="M146 138.9s-39.5 59.2-39.4 69c.1 9.8 28.7 42.5 28.7 42.5l10.7-6-12.6-35.9 30.5-45.8-17.9-23.8z" fill="#FFF"/><path d="M135.3 251.3c-.3 0-.5-.1-.7-.3-1.2-1.3-28.8-33.2-28.9-43.1-.1-9.9 38-67 39.6-69.5.2-.2.4-.4.7-.4.3 0 .6.1.7.4l17.9 23.9c.2.3.2.7 0 1l-30.2 45.4 12.4 35.5c.1.4 0 .9-.4 1.1l-10.7 6h-.4zm10.8-110.8c-13.8 20.7-38.7 60-38.6 67.4.1 8.6 24.3 37.1 28 41.4l9.4-5.2-12.3-35.2c-.1-.3-.1-.6.1-.8l30.1-45.3-16.7-22.3z" fill="#222"/><path d="M240.2 138.9s39.5 59.2 39.4 69c-.1 9.8-28.7 42.5-28.7 42.5l-10.7-6 12.6-35.9-30.5-45.8 17.9-23.8z" fill="#FFF"/><path d="M250.9 251.3c-.1 0-.3 0-.4-.1l-10.7-6c-.4-.2-.6-.7-.4-1.1l12.4-35.5-30.2-45.4c-.2-.3-.2-.7 0-1l17.9-23.9c.2-.2.4-.4.7-.4.3 0 .6.2.7.4 1.6 2.4 39.7 59.5 39.6 69.5-.1 10-27.8 41.8-28.9 43.1-.2.3-.4.4-.7.4zm-9.6-7.3l9.4 5.2c3.7-4.3 27.9-32.8 28-41.4.1-7.4-24.8-46.7-38.6-67.4l-16.7 22.3 30.1 45.3c.2.2.2.5.1.8L241.3 244z" fill="#222"/><path d="M131.6 147.9s11.2-22.9 55.2-25.2c0 0 47-6 65.9 26.2l13.5 19-31 10.1s2 65.4-1.7 93.3l-68.7 8-16.2-24.1-1.8-65.5-33.8-23 18.6-18.8z" fill="#FCF36A"/><g transform="translate(175 20)"><circle fill="#5FBFFD" cx="16.7" cy="15.8" r="14.9"/><path d="M16.7 31.6C8 31.6.9 24.5.9 15.8.9 7.1 8 0 16.7 0c8.7 0 15.8 7.1 15.8 15.8 0 8.7-7.1 15.8-15.8 15.8zm0-29.9c-7.7 0-14 6.3-14 14s6.3 14 14 14 14-6.3 14-14-6.3-14-14-14z" fill="#222"/></g><path d="M222.8 72c.2-14.3-8.8-24.9-8.8-24.9-9.8-13.8-53.4-11.4-54.6 11.9-.1 1.4 0 2.6.1 3.8-2.9 7.4-4.7 17.4-4.2 30.8v25.7h69.9V91.4c-.1 0 .3-9-2.4-19.4z" fill="#5FBFFD"/><path d="M226 120.4h-71.7V93.8c-.4-12.2 1-22.6 4.2-31-.1-1.2-.1-2.5 0-3.8.5-9 7.2-16.1 18.6-19.4 13.1-3.8 31.3-1.9 37.6 7 .3.4 9 10.9 8.9 25.3 2.7 10.3 2.4 19.1 2.4 19.5v29zm-69.9-1.8h68.2V91.4c0-.1.3-9-2.3-19.1v-.2c.1-13.8-8.5-24.2-8.6-24.3-5.3-7.4-21.9-10.3-35.7-6.3-14.5 4.2-17.1 12.9-17.3 17.7-.1 1.3 0 2.5.1 3.7v.2l-.1.2c-3.2 8.1-4.6 18.4-4.2 30.5v24.8h-.1z" fill="#222"/><path d="M199.7 108l6.7 20.2s-14.9 6-29.8 1.9c0 0 2.1-2.2 4.3-21.1l18.8-1z" fill="#FFF"/><path d="M215.1 86.4c0 12.9-9.9 25.6-27 25.6-13.9 0-22.7-14-24.5-23.8-5.2-28.1 7.4-33.5 24.5-33.5 10.7 0 21.2-1.5 22.9 8.1 2.4 13.5 4.1 16.8 4.1 23.6z" fill="#FFF"/><circle fill="#A2C6E0" cx="197" cy="87.2" r="7.5"/><path d="M180.1 88.2c-.6 4.1-3.8 6.9-7.9 6.4-4.1-.6-6.9-4.4-6.4-8.5.6-4.1 4.4-6.9 8.5-6.4 4.1.6 6.4 4.4 5.8 8.5z" fill="#A2C6E0"/><circle fill="#FFF" cx="212" cy="78.7" r="6"/><path d="M186.1 87.7c-1.8 0-3.5-.8-3.6-.9-.5-.2-.8-.6-.9-1.1-.8-2.9 4.7-11.1 5.8-12.7.3-.4.8-.5 1.2-.2.4.3.5.8.2 1.2-3.5 5.1-6.1 10.3-5.5 11.2.6.3 2.4 1 3.7.6.5-.1 1 .1 1.1.6.1.5-.1 1-.6 1.1-.4.2-.9.2-1.4.2z" fill="#222"/><path d="M175.2 86.1c-5.4 0-9.8-4.4-9.8-9.8s4.4-9.8 9.8-9.8 9.8 4.4 9.8 9.8-4.4 9.8-9.8 9.8zm0-17.8c-4.4 0-8 3.6-8 8s3.6 8 8 8 8-3.6 8-8-3.6-8-8-8zM200 86.1c-5.4 0-9.8-4.4-9.8-9.8s4.4-9.8 9.8-9.8 9.8 4.4 9.8 9.8-4.4 9.8-9.8 9.8zm0-17.8c-4.4 0-8 3.6-8 8s3.6 8 8 8 8-3.6 8-8-3.6-8-8-8z" fill="#222"/><path d="M192.8 78.4c-.2 0-.5-.1-.7-.3-1.2-1.3-2.5-2-3.9-2-2.5 0-4.5 2-4.5 2-.3.4-.9.4-1.3 0-.4-.3-.4-.9 0-1.3.1-.1 2.5-2.6 5.8-2.6h.1c1.9 0 3.7.9 5.2 2.6.3.4.3.9-.1 1.3-.2.2-.4.3-.6.3z" fill="#222"/><path d="M168 60c-2.5-3 42.2-8.1 43.6 7.2 0 0 2-8.5 2.5-13.6 0 0-9 1.7-26 .2.1-.1-21.9.2-20.1 6.2z" fill="#5FBFFD"/><path d="M189.9 124.9c2.4-2.4-27.8-12.9-26.9-37.7 0 0 9.3 14.6 17.6 13.5 0 0 3.5-10.8 7.2-7.3 3.7-3.5 9.6 7.3 9.6 7.3 8.4 1.2 17.9-13.7 17.9-13.7 0 25.1-28.4 32.3-27.8 36.8.9 6.7 2.1 1.4 2.4 1.1z" fill="#498DC9"/><path d="M163 68.6c-.1 0-.2 0-.3-.1-.5-.2-.7-.7-.5-1.2 1.8-4.6 3.7-5.9 3.9-6.1.4-.3 1-.2 1.2.2.3.4.2 1-.2 1.2 0 0-1.6 1.2-3.3 5.3-.2.5-.5.7-.8.7zM211 63.7c-.2 0-.3 0-.5-.1-18.8-11.7-39.3-3.7-39.5-3.7-.5.2-1 0-1.2-.5-.2-.5 0-1 .5-1.2.2-.1 21.6-8.4 41.1 3.8.4.3.5.8.3 1.2-.1.4-.4.5-.7.5z" fill="#222"/><circle fill="#222" cx="175.7" cy="79.2" r="1.9"/><circle fill="#222" cx="197.1" cy="79.2" r="1.9"/><path d="M187 103h-.5c-.5 0-.9-.5-.8-1 0-.5.5-.8 1-.8 3.7.3 5.4-3.6 5.4-3.7.2-.5.7-.7 1.2-.5.5.2.7.7.5 1.2-.3.2-2.2 4.8-6.8 4.8z" fill="#222"/><g fill="#C1DCF3"><path d="M197.2 346.3c-36.4 0-70.6-1.2-96.3-3.3-40.7-3.4-40.7-7.4-40.7-8.9 0-.5.4-.9.9-.9s.9.4.9.9c0 .2.4 3.9 39 7.1 25.7 2.1 59.8 3.3 96.1 3.3s70.5-1.2 96.1-3.3c38.6-3.2 39-7 39-7.1 0-.5.4-.9.9-.9s.9.4.9.9c0 1.5 0 5.5-40.7 8.9-25.5 2.1-59.7 3.3-96.1 3.3zM334 333.1c-.5 0-.9-.4-.9-.9 0 0-.6-4.7-52.3-7.8-.5 0-.9-.5-.8-1 0-.5.5-.9 1-.8 16.1 1 29.5 2.3 38.7 3.7 13.4 2.1 15.2 4.2 15.2 5.8 0 .6-.4 1-.9 1z"/></g><path d="M133.2 322.6c-1.5 1.5-3.6 2.3-5.7 2.6-5.2.8-11.1.1-16.4.3-5.7.2-11.6.8-17.3.5-3.3-.2-4.3-4.6-1.4-6.2.5-.3 1-.5 1.5-.7 6.6-3.1 20.6-7.8 27.5-10.2 3.5-1.2 9.4-3.1 12.1.6 2.4 3.4 3.1 9.4.2 12.7-.2.1-.3.3-.5.4z" fill="#222"/><path d="M103.3 320.2c-2.2 0-4.7-.9-5.1-1-.5-.2-.7-.7-.5-1.1.2-.5.7-.7 1.1-.5 1.7.6 4.8 1.3 6 .6.1 0 .1-.1.2-.1-1.3-1.1-3.8-3.5-3.2-5.5.3-1.2 1.6-1.9 3.8-2.2.2 0 .4 0 .6.1 3.8 2.6 7.9 4.5 8.6 4 .4-.3.9-.3 1.2 0 .3.4.3.9 0 1.3-1.8 1.8-7.3-1.5-10.6-3.7-1.6.2-1.9.7-1.9.8-.3.9 1.7 2.9 3.1 4.1.3.2.4.6.3.9-.2.8-.6 1.4-1.3 1.8-.6.4-1.5.5-2.3.5z" fill="#5FBFFD"/><path d="M250.7 324.5c1.5 1.4 3.6 2.2 5.7 2.5 5.3.7 11.1-.1 16.4 0 5.7.1 11.6.5 17.3.2 3.3-.2 4.3-4.7 1.3-6.2-.5-.3-1-.5-1.5-.7-6.6-3-20.7-7.4-27.6-9.7-3.5-1.1-9.5-2.9-12 .8-2.4 3.5-3 9.4 0 12.7.1.2.3.3.4.4z" fill="#222"/><path d="M232.9 302.9s19.2 3.8 29.8 10.3c10.7 6.6-.5 6.8-.5 6.8l-33.1-2.7 3.8-14.4zM153.9 301.1s-19.2 4.1-29.7 10.8c-10.6 6.8.6 6.7.6 6.7l33-3.2-3.9-14.3z" fill="#C1DCF3"/><path d="M87.4 254.9s-15 36.5 103.7 58.8l42.2 6.3s12.7-10.7 6.1-20.6c0 0-47.2-25.1-68.9-36.6.1-.1-68.9-35.9-83.1-7.9z" fill="#5FBFFD"/><path d="M148.1 197.4h-1.8c.2-11.1.6-31.4.6-31.4h1.8c0-.1-.4 20.3-.6 31.4zM236 189.8c-.2-10.9-3.1-30.5-3.2-30.7l1.8-.3c0 .2 3 19.9 3.2 31H236z" fill="#222"/><path d="M300.7 261.4s12.5 37.4-107.4 51.5l-42.6 3.4s-11.9-11.6-4.7-20.9c0 0 48.8-21.8 71.2-31.8 0 0 71.3-31.1 83.5-2.2z" fill="#FFF"/><path d="M150.4 317.1l-.2-.2c-.1-.1-12.3-12.2-4.7-21.9l.1-.2.2-.1s48.8-21.8 71.2-31.8c.1-.1 12.6-5.4 27.7-9.6 20.5-5.6 35.9-6.4 45.8-2.5 5.3 2.1 8.9 5.6 10.9 10.3v.1c.1.3 2 6.3-3.2 14.4-8.1 12.7-32.8 29.6-104.9 38.1l-42.9 3.4zm-3.9-21.1c-6 8 2.9 17.9 4.5 19.5l42.2-3.4c71.3-8.4 95.8-24.9 103.7-37.3 4.7-7.3 3.2-12.8 3.1-13.2-1.8-4.3-5.2-7.5-10.1-9.5-23-9.2-71.9 11.8-72.4 12.1-21.6 9.7-67.8 30.4-71 31.8z" fill="#5FBFFD"/><g fill="#C1DCF3"><path d="M251.8 281.5c-.2-.6-.7-1-1.1-.9-.4.1-.6.8-.4 1.4.2.6.7 1 1.1.9.4-.1.6-.8.4-1.4zM242.4 285.7c.4-.1.6-.8.4-1.4-.2-.6-.7-1-1.1-.9-.4.1-.6.8-.4 1.4.2.7.7 1.1 1.1.9zM233.5 288.6c.4-.1.6-.8.4-1.4-.2-.6-.7-1-1.1-.9-.4.1-.6.8-.4 1.4.2.6.7 1 1.1.9zM223.9 289.2c-.4.1-.6.8-.4 1.4.2.6.7 1 1.1.9.4-.1.6-.8.4-1.4-.2-.7-.7-1.1-1.1-.9zM215.6 294.2c.4-.1.6-.8.4-1.4-.2-.6-.7-1-1.1-.9-.4.1-.6.8-.4 1.4.2.7.7 1.1 1.1.9zM206.7 297.1c.4-.1.6-.8.4-1.4-.2-.6-.7-1-1.1-.9-.4.1-.6.8-.4 1.4.2.6.7 1 1.1.9zM197.8 299.9c.4-.1.6-.8.4-1.4-.2-.6-.7-1-1.1-.9-.4.1-.6.8-.4 1.4.1.7.6 1.1 1.1.9zM188.1 300.5c-.4.1-.6.8-.4 1.4.2.6.7 1 1.1.9.4-.1.6-.8.4-1.4-.1-.6-.6-1-1.1-.9zM179.2 303.4c-.4.1-.6.8-.4 1.4.2.6.7 1 1.1.9.4-.1.6-.8.4-1.4-.1-.7-.7-1.1-1.1-.9zM170.3 306.2c-.4.1-.6.8-.4 1.4.2.6.7 1 1.1.9.4-.1.6-.8.4-1.4-.2-.7-.7-1-1.1-.9zM161.3 309c-.4.1-.6.8-.4 1.4.2.6.7 1 1.1.9.4-.1.6-.8.4-1.4-.1-.6-.6-1-1.1-.9zM152.4 311.9c-.4.1-.6.7-.4 1.3.4-.1 1-.1 1.6-.2v-.3c-.2-.6-.8-1-1.2-.8zM259.9 294.1c.4-.1.6-.8.4-1.4-.2-.6-.7-1-1.1-.9-.4.1-.6.8-.4 1.4.1.7.6 1.1 1.1.9zM250.9 297c.4-.1.6-.8.4-1.4-.2-.6-.7-1-1.1-.9-.4.1-.6.8-.4 1.4.2.6.7 1 1.1.9zM240.8 298.9c.2.6.7 1 1.1.9.4-.1.6-.8.4-1.4-.2-.6-.7-1-1.1-.9-.4.2-.6.8-.4 1.4zM231.9 301.8c.2.6.7 1 1.1.9.4-.1.6-.8.4-1.4-.2-.6-.7-1-1.1-.9-.4.1-.6.7-.4 1.4zM223 304.6c.2.6.7 1 1.1.9.4-.1.6-.8.4-1.4-.2-.6-.7-1-1.1-.9-.4.2-.6.8-.4 1.4zM215.2 308.3c.4-.1.6-.8.4-1.4-.2-.6-.7-1-1.1-.9-.4.1-.6.8-.4 1.4.1.7.7 1 1.1.9zM205.6 308.9c-.1 0-.1 0 0 0 .1.1.3.1.5 0h-.5zM296.8 266c-.4.1-.6.8-.4 1.4.1.4.3.6.6.8l.7-1.8c-.3-.3-.6-.5-.9-.4zM288.6 271.1c.4-.1.6-.8.4-1.4-.2-.6-.7-1-1.1-.9-.4.1-.6.8-.4 1.4.1.6.6 1 1.1.9zM278.9 271.7c-.4.1-.6.8-.4 1.4.2.6.7 1 1.1.9.4-.1.6-.8.4-1.4-.1-.7-.6-1.1-1.1-.9zM270.7 276.8c.4-.1.6-.8.4-1.4-.2-.6-.7-1-1.1-.9-.4.1-.6.8-.4 1.4.2.6.7 1 1.1.9zM261.8 279.6c.4-.1.6-.8.4-1.4-.2-.6-.7-1-1.1-.9-.4.1-.6.8-.4 1.4.1.6.6 1 1.1.9zM287.4 282.9c-.4.1-.6.6-.5 1.2.5-.3.9-.6 1.3-.8-.2-.3-.5-.5-.8-.4zM279.2 288c.4-.1.6-.8.4-1.4-.2-.6-.7-1-1.1-.9-.4.1-.6.8-.4 1.4.1.6.6 1 1.1.9zM269.1 289.9c.2.6.7 1 1.1.9.4-.1.6-.8.4-1.4-.2-.6-.7-1-1.1-.9-.4.1-.6.8-.4 1.4zM179.2 310l-3.3.3c.3.2.6.4 1 .5.5 0 1-.1 1.5-.1.2-.2.5-.4.8-.7z"/></g><path d="M175.9 130.1s17.8 9.4 29.8-1.9" fill="#FFF"/><path d="M191 134.6c-8.3 0-15.4-3.7-15.5-3.7-.4-.2-.6-.8-.4-1.2.2-.4.8-.6 1.2-.4.2.1 17.3 9 28.8-1.8.4-.3.9-.3 1.3 0 .3.4.3.9 0 1.3-4.7 4.4-10.3 5.8-15.4 5.8z" fill="#222"/><path d="M155.1 21.6c-1 0-2-.1-2.9-.4-2.8-.8-5.1-2.6-6.5-5.1-1.4-2.5-1.8-5.4-1-8.2 1.6-5.7 7.6-9.1 13.3-7.5 5.7 1.6 9.1 7.6 7.5 13.3-1.3 4.8-5.7 7.9-10.4 7.9zm0-19.8c-3.9 0-7.6 2.6-8.7 6.6-.7 2.3-.4 4.8.8 6.9 1.2 2.1 3.1 3.6 5.4 4.3 2.3.7 4.8.4 6.9-.8 2.1-1.2 3.6-3.1 4.3-5.4 1.3-4.8-1.5-9.8-6.2-11.1-.9-.4-1.7-.5-2.5-.5z" fill="#C1DCF3"/><path d="M270.9 90c-.9 0-1.8-.1-2.8-.2-8.4-1.5-14.1-9.6-12.6-18s9.6-14.1 18-12.6 14.1 9.6 12.6 18c-.7 4.1-3 7.6-6.4 10-2.5 1.9-5.6 2.8-8.8 2.8zm0-29.2c-2.8 0-5.5.8-7.8 2.5-3 2.1-5 5.2-5.7 8.9-.6 3.6.2 7.3 2.3 10.3 2.1 3 5.2 5 8.9 5.7 7.5 1.3 14.6-3.7 15.9-11.1 1.3-7.5-3.7-14.6-11.1-15.9-.9-.3-1.7-.4-2.5-.4zM299.5 138.2l1.1-26.3 22.2 14.1-23.3 12.2zm2.8-23.1l-.9 20.1 17.8-9.3-16.9-10.8z" fill="#5FBFFD"/><path d="M102.6 84.7l9.6-24.5 16.4 20.6-26 3.9zm10.1-20.9l-7.3 18.7 19.9-3-12.6-15.7z" fill="#FCF36A"/><path d="M49.6 308.8l3.1-15.7 12.1 10.5-15.2 5.2zm4.2-12.3l-1.9 9.6 9.2-3.2-7.3-6.4z" fill="#FFF"/><g opacity=".99"><path d="M127.7 185.6h137.1c3.2 0 5.6 2.9 5 6.1L257.2 256c-.5 2.4-2.6 4.1-5 4.1H140.4c-2.4 0-4.5-1.7-5-4.1l-12.6-64.3c-.7-3.2 1.7-6.1 4.9-6.1z" fill="#222"/><path d="M252.2 260.9H140.4c-2.8 0-5.3-2-5.8-4.8L122 191.8c-.3-1.7.1-3.5 1.2-4.9 1.1-1.4 2.8-2.2 4.6-2.2h137.1c1.8 0 3.4.8 4.6 2.2 1.1 1.4 1.6 3.2 1.2 4.9L258 256.1c-.6 2.8-3 4.8-5.8 4.8zm-124.5-74.5c-1.3 0-2.5.6-3.3 1.6-.8 1-1.1 2.3-.9 3.5l12.6 64.3c.4 2 2.2 3.5 4.2 3.5h111.8c2 0 3.8-1.5 4.2-3.5l12.6-64.3c.2-1.3-.1-2.6-.9-3.5-.8-.9-2-1.6-3.3-1.6h-137z" fill="#3E4B56"/></g><path d="M196.3 221.3c-5.1 0-9.2-4.1-9.2-9.2s4.1-9.2 9.2-9.2 9.2 4.1 9.2 9.2c0 5-4.2 9.2-9.2 9.2zm0-16.8c-4.2 0-7.6 3.4-7.6 7.6 0 4.2 3.4 7.6 7.6 7.6 4.2 0 7.6-3.4 7.6-7.6-.1-4.2-3.5-7.6-7.6-7.6z" fill="#FFF"/><path fill="#C1DCF3" d="M358.7 200.3h1.8V223h-1.8z"/><path d="M360.1 200.5c-3.1 0-5.7-2.5-5.7-5.7 0-3.1 2.5-5.7 5.7-5.7 3.1 0 5.7 2.5 5.7 5.7-.1 3.2-2.6 5.7-5.7 5.7zm0-9.5c-2.1 0-3.9 1.7-3.9 3.9 0 2.1 1.7 3.9 3.9 3.9 2.1 0 3.9-1.7 3.9-3.9s-1.8-3.9-3.9-3.9zM360.1 214.8l-1.1-1.4 11.7-9.3v-18.7h1.8v19.5zM74.5 244.5L.9 218.1l.3-73.4 88.2 30.7-.2 42.8" fill="#C1DCF3"/><path d="M74.5 245.4c-.1 0-.2 0-.3-.1L.6 218.9c-.4-.1-.6-.5-.6-.9l.3-73.4c0-.3.1-.6.4-.7.2-.2.5-.2.8-.1l88.2 30.7c.4.1.6.5.6.9l-.2 42.8c0 .5-.4.9-.9.9s-.9-.4-.9-.9l.1-42.1L2.1 146l-.3 71.5 73 26.2c.5.2.7.7.5 1.2-.1.2-.4.5-.8.5z" fill="#498DC9"/><path d="M309.8 243.6c-.4 0-.7-.2-.9-.6-.2-.5.1-1 .5-1.2l73-26.2-.3-71.5-86.4 30.1.1 42.1c0 .5-.4.9-.9.9s-.9-.4-.9-.9l-.2-42.8c0-.4.2-.7.6-.9l88.2-30.7c.3-.1.6-.1.8.1.2.2.4.4.4.7l.3 73.4c0 .4-.2.7-.6.9l-73.6 26.4c.1.2 0 .2-.1.2zM41.5 175.4c-.1 0-.2 0-.3-.1l-30.3-10.8c-.5-.2-.7-.7-.5-1.1.2-.5.7-.7 1.1-.5l30.3 10.8c.5.2.7.7.5 1.1-.1.4-.5.6-.8.6zM40.3 185.6c-.1 0-.2 0-.3-.1l-28.8-10.6c-.5-.2-.7-.7-.5-1.1.2-.5.7-.7 1.1-.5l28.8 10.6c.5.2.7.7.5 1.1-.1.3-.4.6-.8.6zM49 199c-.1 0-.2 0-.3-.1l-37.5-13.4c-.5-.2-.7-.7-.5-1.1.2-.5.7-.7 1.1-.5l37.5 13.4c.5.2.7.7.5 1.1-.1.3-.4.6-.8.6z" fill="#5FBFFD"/><path d="M58.7 213.1c-.1 0-.2 0-.3-.1l-47.6-17.6c-.5-.2-.7-.7-.5-1.1.2-.5.7-.7 1.1-.5L59 211.4c.5.2.7.7.5 1.1-.1.4-.5.6-.8.6zM40.2 216.5c-.1 0-.2 0-.3-.1l-28.8-10.6c-.5-.2-.7-.7-.5-1.1.2-.5.7-.7 1.1-.5l28.8 10.6c.5.2.7.7.5 1.1-.1.3-.4.6-.8.6z" fill="#FCF36A"/><path d="M372.1 185.8c-3.1 0-5.7-2.5-5.7-5.7s2.5-5.7 5.7-5.7 5.7 2.5 5.7 5.7-2.6 5.7-5.7 5.7zm0-9.5c-2.1 0-3.9 1.7-3.9 3.9s1.7 3.9 3.9 3.9 3.9-1.7 3.9-3.9-1.7-3.9-3.9-3.9z" fill="#C1DCF3"/><g fill="#5FBFFD"><path d="M60.7 194.5l-6.7-9.4 7.8-5.2 1 1.4-6.2 4.3 5.6 7.8zM74.4 198.3l-1.1-1.4 5.7-4.4-6.2-8 1.5-1.1 7.2 9.5zM64.63786 197.76223l5.34192-17.81693998 1.72422.51696L66.36208 198.27919z"/></g><path d="M98.6 140.2L82 138.8l1.4-16.6 16.6 1.4-1.4 16.6zm-14.7-3.1l13.1 1.1 1.1-13.1-13.1-1-1.1 13z" fill="#5FBFFD"/></g></svg>