<svg width="729" height="394" viewBox="0 0 729 394" fill="none" xmlns="http://www.w3.org/2000/svg">
<path d="M579.5 300C662.067 300 729 232.843 729 150C729 67.1573 662.067 0 579.5 0C496.933 0 430 67.1573 430 150C430 232.843 496.933 300 579.5 300Z" fill="#F0F7FD"/>
<path d="M358.655 85.8147C370.062 85.8147 379.31 76.5561 379.31 65.1351C379.31 53.7141 370.062 44.4555 358.655 44.4555C347.247 44.4555 338 53.7141 338 65.1351C338 76.5561 347.247 85.8147 358.655 85.8147Z" fill="#FCF36A"/>
<path d="M396.336 109.289C402.04 109.289 406.663 104.66 406.663 98.949C406.663 93.2385 402.04 88.6092 396.336 88.6092C390.632 88.6092 386.009 93.2385 386.009 98.949C386.009 104.66 390.632 109.289 396.336 109.289Z" fill="#F0F7FD"/>
<path d="M544.827 181.388C546.831 181.388 548.456 179.761 548.456 177.755C548.456 175.749 546.831 174.122 544.827 174.122C542.823 174.122 541.199 175.749 541.199 177.755C541.199 179.761 542.823 181.388 544.827 181.388Z" fill="white"/>
<path d="M574.908 158.567L564.417 162.39L568.235 172.894L578.727 169.071L574.908 158.567Z" stroke="#5FBFFD" stroke-width="2"/>
<path d="M497.185 279.197L489.841 281.873L492.514 289.226L499.858 286.55L497.185 279.197Z" fill="#FCF36A"/>
<path fill-rule="evenodd" clip-rule="evenodd" d="M594.428 133.506L596.68 144.525L586.975 141.922L594.428 133.506Z" fill="#FCF36A"/>
<path fill-rule="evenodd" clip-rule="evenodd" d="M633.763 123.074L650.934 128.805L639.487 140.266L633.763 123.074Z" stroke="#5FBFFD" stroke-width="2"/>
<path fill-rule="evenodd" clip-rule="evenodd" d="M463.914 295.716L489.967 304.411L472.598 321.8L463.914 295.716Z" fill="#F0F7FD"/>
<path d="M554.597 215.481C560.763 215.481 565.761 210.477 565.761 204.303C565.761 198.13 560.763 193.125 554.597 193.125C548.43 193.125 543.432 198.13 543.432 204.303C543.432 210.477 548.43 215.481 554.597 215.481Z" stroke="#5FBFFD" stroke-width="2"/>
<path fill-rule="evenodd" clip-rule="evenodd" d="M570.227 347.759C570.227 347.759 574.051 359.394 573.558 362.101L572.011 366.945L579.139 360.611L579.717 358.154C579.717 358.154 575.072 350.475 575.874 342.353L570.227 347.759Z" fill="white"/>
<path fill-rule="evenodd" clip-rule="evenodd" d="M570.49 347.726C571.015 349.393 574.142 359.491 573.682 362.093L573.67 362.138L572.558 365.727L578.448 360.336L578.952 358.121C578.391 357.108 574.822 350.368 575.161 343.12L570.49 347.726ZM571.081 368.063L572.979 361.941C573.414 359.3 569.776 347.851 569.738 347.735L569.669 347.518L576.039 341.236L575.944 342.226C575.183 350.165 579.598 357.8 579.643 357.876L579.717 358.003L579.096 360.727L571.081 368.063Z" fill="#222222"/>
<path fill-rule="evenodd" clip-rule="evenodd" d="M582.988 362.446C582.785 363.386 582.218 364.195 581.532 364.8C579.814 366.316 577.563 367.419 575.678 368.712C573.656 370.098 571.671 371.707 569.552 372.917C568.308 373.626 566.925 372.058 567.624 370.734C567.739 370.517 567.86 370.305 567.981 370.101C569.634 367.31 573.6 362.192 575.545 359.639C576.532 358.344 578.227 356.208 580.031 357.095C581.698 357.914 583.31 360.147 583.036 362.17C583.024 362.263 583.007 362.355 582.988 362.446Z" fill="#222222"/>
<path fill-rule="evenodd" clip-rule="evenodd" d="M572.479 306.578C576.403 315.034 576.964 347.171 576.964 347.171L568.742 350.178C559.514 324.372 557.64 309.916 557.394 303.264C557.289 300.443 558.544 297.75 560.743 295.997C585.69 276.105 608.545 280.08 608.545 280.08L612.095 295.302C612.095 295.302 610.039 303.759 572.479 306.578Z" fill="#5FBFFD"/>
<path fill-rule="evenodd" clip-rule="evenodd" d="M594.232 364.649C594.232 364.649 598.056 376.548 597.563 379.316L596.016 384.272L603.144 377.792L603.722 375.28C603.722 375.28 599.076 367.426 599.878 359.121L594.232 364.649Z" fill="white"/>
<path fill-rule="evenodd" clip-rule="evenodd" d="M594.541 364.629C595.094 366.33 598.394 376.639 597.909 379.295L597.897 379.341L596.723 383.005L602.939 377.502L603.473 375.24C602.879 374.206 599.112 367.326 599.47 359.927L594.541 364.629ZM595.163 385.389L597.167 379.14C597.534 376.983 595.093 368.72 593.747 364.639L593.673 364.417L600.397 358.003L600.297 359.015C599.493 367.127 604.154 374.912 604.201 374.99L604.28 375.119L603.623 377.9L595.163 385.389Z" fill="#222222"/>
<path fill-rule="evenodd" clip-rule="evenodd" d="M604.754 376.388C604.961 377.332 604.767 378.343 604.372 379.231C603.383 381.458 601.714 383.584 600.472 385.697C599.14 387.961 597.938 390.405 596.438 392.56C595.557 393.825 593.576 393.123 593.677 391.585C593.694 391.332 593.718 391.082 593.746 390.838C594.129 387.505 595.723 380.917 596.485 377.649C596.872 375.991 597.575 373.221 599.667 373.101C601.601 372.988 604.082 374.169 604.683 376.116C604.711 376.206 604.735 376.297 604.754 376.388Z" fill="#222222"/>
<path fill-rule="evenodd" clip-rule="evenodd" d="M594.847 388.184C594.726 388.184 594.607 388.132 594.527 388.033C594.389 387.862 594.421 387.617 594.597 387.484C595.24 387.002 596.272 386.008 596.305 385.395C596.307 385.356 596.305 385.32 596.298 385.288C595.579 385.512 594.033 385.882 593.387 385.196C593 384.786 593.026 384.142 593.465 383.283C593.507 383.199 593.579 383.133 593.667 383.096C595.585 382.293 597.331 381.212 597.329 380.829C597.283 380.617 597.423 380.413 597.643 380.368C597.861 380.323 598.077 380.46 598.124 380.672C598.363 381.766 595.79 383.049 594.13 383.754C593.822 384.413 593.941 384.621 593.987 384.671C594.275 384.976 595.53 384.738 596.325 384.452C596.47 384.398 596.637 384.431 596.75 384.536C597.008 384.777 597.135 385.089 597.116 385.437C597.051 386.604 595.296 387.952 595.096 388.101C595.022 388.157 594.934 388.184 594.847 388.184Z" fill="#5FBFFD"/>
<path fill-rule="evenodd" clip-rule="evenodd" d="M603.451 283.273C603.451 283.273 574.826 308.41 579.723 322.292L594.035 368.063L601.568 365.062C601.568 365.062 601.945 324.168 594.788 320.791C594.788 320.791 607.971 311.411 620.024 298.656C620.024 298.656 636.973 280.272 625.296 273.143C625.296 273.143 617.387 268.641 603.451 283.273Z" fill="white"/>
<path fill-rule="evenodd" clip-rule="evenodd" d="M622.208 273.29C618.76 273.29 612.529 274.956 604.01 283.958L603.986 283.981C603.702 284.231 575.721 309.166 580.458 322.681L594.597 368.181L601.488 365.418C601.496 363.777 601.503 354.394 600.784 344.78C599.48 327.326 596.891 322.564 594.949 321.641L594.372 321.367L594.892 320.995C595.022 320.902 608.131 311.467 619.97 298.858C620.07 298.749 630.246 287.529 629.12 279.462C628.79 277.104 627.505 275.222 625.299 273.866C625.275 273.853 624.212 273.29 622.208 273.29ZM594.122 369.181L594.001 368.793L579.746 322.917C577.682 317.029 581.064 308.573 589.801 297.797C596.134 289.988 603.131 283.735 603.477 283.428C617.392 268.731 625.349 273.028 625.681 273.219C628.097 274.704 629.501 276.767 629.863 279.359C630.358 282.908 628.931 287.36 625.621 292.592C623.173 296.459 620.546 299.342 620.519 299.37C609.876 310.706 598.216 319.484 595.785 321.273C598.593 323.353 600.524 331.234 601.533 344.728C602.322 355.291 602.238 365.573 602.237 365.676L602.235 365.929L594.122 369.181Z" fill="#5FBFFD"/>
<path fill-rule="evenodd" clip-rule="evenodd" d="M588.401 236.924C597.457 226.87 602.645 225.995 601.985 226.126C600.098 226.498 600.843 227.628 600.853 227.615C604.955 221.909 607.787 228.055 610.009 228.391C610.345 228.442 610.525 228.808 610.356 229.099C610.356 229.099 590.665 248.838 586.514 246.604C582.363 244.37 565.761 223.892 565.761 223.892C565.761 223.892 566.111 219.524 569.157 221.657C580.854 229.849 588.401 236.924 588.401 236.924Z" fill="#C1DCF3"/>
<path fill-rule="evenodd" clip-rule="evenodd" d="M569.111 221.316C568.012 218.598 565.245 214.291 565.245 214.291C562.044 211.939 559.945 211.629 559.152 212.765C558.672 213.45 557.511 213.442 558.118 214.022C559.358 215.206 560.086 215.979 563.255 219.337C560.706 218.74 558.706 218.859 558.265 219.125C557.955 219.311 557.992 219.764 558.327 219.901L561.906 221.803C564.545 223.293 566.577 224.424 566.577 224.424" fill="#C1DCF3"/>
<path fill-rule="evenodd" clip-rule="evenodd" d="M630.517 194.447C630.988 194.099 631.174 193.279 631.466 192.778C631.804 192.196 632.181 191.639 632.56 191.083C633.64 189.503 634.902 188.09 636.379 186.874C639.152 184.593 642.46 183.238 646.047 183.082C650.009 182.91 653.991 184.04 657.542 185.731C661.343 187.54 664.401 190.187 667.641 192.815C670.728 195.319 674.249 197.183 678.154 198.018C682.088 198.859 682.994 197.908 686.855 197.184C690.809 196.443 693.629 196.556 697.312 198.294C700.75 199.916 703.46 202.623 705.648 205.694C707.694 208.569 709.121 211.632 709.223 215.219C709.333 219.078 707.944 222.74 704.569 224.83C699.677 227.859 697.181 226.653 692.167 224.621C689.267 223.445 686.597 221.818 684.205 219.795C681.014 217.097 678.665 213.687 675.896 210.593C674.596 209.141 673.186 207.817 671.622 206.656C670.105 205.529 668.514 204.672 666.585 205.115C664.545 205.585 662.681 206.099 660.561 206.071C658.526 206.046 656.496 205.692 654.597 204.954C650.905 203.516 647.692 200.972 644.388 198.829C641.694 197.083 638.794 195.26 635.574 194.73C634.23 194.508 632.208 194.338 631.266 195.466L630.517 194.447Z" fill="#5FBFFD"/>
<path fill-rule="evenodd" clip-rule="evenodd" d="M667.667 204.641C669.319 204.641 670.722 205.497 671.909 206.384C673.439 207.526 674.859 208.841 676.251 210.405C677.151 211.418 678.019 212.477 678.858 213.502C680.603 215.632 682.407 217.833 684.552 219.657C686.94 221.689 689.596 223.307 692.447 224.469L692.989 224.691C697.654 226.599 699.995 227.557 704.572 224.708C707.593 222.826 709.192 219.493 709.074 215.322C708.985 212.166 707.866 209.174 705.552 205.906C703.076 202.411 700.386 200.005 697.325 198.553C693.506 196.739 690.664 196.781 687.049 197.462C685.983 197.663 685.142 197.882 684.399 198.076C682.418 198.59 681.109 198.93 678.178 198.301C674.417 197.491 670.817 195.701 667.48 192.979C667.144 192.704 666.808 192.429 666.475 192.155C663.556 189.757 660.799 187.493 657.418 185.874C653.438 183.968 649.612 183.08 646.052 183.236C642.622 183.386 639.339 184.681 636.559 186.981C635.151 188.148 633.884 189.551 632.795 191.155C632.376 191.773 632.031 192.289 631.71 192.843C631.625 192.991 631.545 193.181 631.461 193.382C631.317 193.723 631.16 194.099 630.92 194.387L631.247 194.836C632.108 194.124 633.534 193.943 635.584 194.282C638.75 194.807 641.524 196.49 644.564 198.473C645.378 199.003 646.199 199.568 646.995 200.114C649.447 201.797 651.982 203.539 654.744 204.62C656.55 205.326 658.521 205.698 660.604 205.724C662.407 205.751 664.06 205.359 665.796 204.948C666.05 204.888 666.306 204.828 666.565 204.767C666.944 204.679 667.311 204.641 667.667 204.641ZM699.334 227.218C697.286 227.218 695.326 226.416 692.724 225.351L692.181 225.13C689.262 223.94 686.541 222.282 684.096 220.202C681.902 218.337 680.077 216.11 678.313 213.955C677.478 212.936 676.615 211.883 675.723 210.88C674.364 209.354 672.979 208.07 671.488 206.956C670.109 205.926 668.579 205.033 666.724 205.462C666.466 205.522 666.211 205.582 665.958 205.642C664.177 206.063 662.483 206.461 660.595 206.437C658.427 206.409 656.372 206.021 654.488 205.284C651.651 204.173 649.081 202.409 646.596 200.703C645.805 200.159 644.987 199.597 644.179 199.071C641.207 197.133 638.501 195.488 635.469 194.986C633.441 194.65 632.097 194.858 631.476 195.606L631.187 195.954L629.959 194.274L630.243 194.062C630.482 193.884 630.649 193.488 630.809 193.104C630.899 192.891 630.991 192.672 631.099 192.485C631.431 191.91 631.784 191.383 632.211 190.753C633.339 189.094 634.65 187.639 636.111 186.431C639.01 184.032 642.437 182.68 646.021 182.524C649.703 182.364 653.635 183.275 657.722 185.231C661.179 186.886 663.968 189.177 666.922 191.602C667.255 191.877 667.589 192.151 667.926 192.425C671.174 195.076 674.674 196.818 678.326 197.604C681.094 198.2 682.271 197.893 684.222 197.385C684.975 197.189 685.829 196.966 686.919 196.76C690.676 196.053 693.635 196.012 697.627 197.908C700.799 199.414 703.579 201.895 706.128 205.492C708.526 208.88 709.687 211.997 709.781 215.302C709.906 219.737 708.188 223.293 704.943 225.314C702.747 226.682 701.011 227.218 699.334 227.218Z" fill="#222222"/>
<path fill-rule="evenodd" clip-rule="evenodd" d="M605.932 237.075L603.375 241.191L589.766 233.687C589.766 233.687 602.204 219.489 606.513 225.234" fill="#FCF36A"/>
<path fill-rule="evenodd" clip-rule="evenodd" d="M612.435 221.211C612.435 221.211 623.033 217.914 622.931 243.205L625.183 263.838L632.75 285.345L588.649 282.331L594.255 242.777C594.255 242.777 596.374 221.39 612.435 221.211Z" fill="#FCF36A"/>
<path fill-rule="evenodd" clip-rule="evenodd" d="M614.381 211.01L618.236 222.489C618.236 222.489 610.156 226.085 605.396 223.472C605.396 223.472 607.115 218.489 608.204 211.935L614.381 211.01Z" fill="#C1DCF3"/>
<path fill-rule="evenodd" clip-rule="evenodd" d="M622.103 206.718C619.306 212.448 612.319 214.861 606.498 212.107C600.677 209.353 601.328 203.127 604.125 197.396C606.923 191.666 610.809 188.6 616.63 191.354C622.45 194.109 624.901 200.988 622.103 206.718Z" fill="#C1DCF3"/>
<path fill-rule="evenodd" clip-rule="evenodd" d="M610.117 204.237C609.382 205.767 607.548 206.411 606.021 205.676C604.492 204.941 603.849 203.105 604.584 201.575C605.318 200.044 607.152 199.401 608.679 200.136C610.208 200.871 610.851 202.708 610.117 204.237Z" fill="#A2C6E0"/>
<path fill-rule="evenodd" clip-rule="evenodd" d="M606.988 197.68C606.788 198.097 606.288 198.273 605.871 198.072C605.454 197.872 605.279 197.371 605.479 196.954C605.68 196.536 606.18 196.361 606.597 196.561C607.013 196.762 607.188 197.263 606.988 197.68Z" fill="#222222"/>
<path fill-rule="evenodd" clip-rule="evenodd" d="M606.88 207.098C606.003 207.098 605.293 206.753 604.943 206.473C604.804 206.361 604.803 206.179 604.939 206.066C605.076 205.953 605.298 205.951 605.437 206.062C605.49 206.104 606.676 207.01 608.195 206.164C608.356 206.073 608.574 206.108 608.684 206.239C608.794 206.37 608.753 206.549 608.592 206.639C607.99 206.974 607.405 207.098 606.88 207.098Z" fill="#222222"/>
<path fill-rule="evenodd" clip-rule="evenodd" d="M602.521 201.509H602.519C601.532 201.501 600.639 200.681 600.602 200.646C600.448 200.517 600.365 200.324 600.373 200.1C600.411 198.909 603.6 196.471 604.239 195.995C604.401 195.874 604.634 195.902 604.76 196.055C604.885 196.21 604.857 196.432 604.696 196.552C602.68 198.057 601.007 199.734 601.114 200.14C601.316 200.321 601.955 200.796 602.524 200.801C602.729 200.802 602.894 200.962 602.892 201.157C602.891 201.352 602.725 201.509 602.521 201.509Z" fill="#222222"/>
<path fill-rule="evenodd" clip-rule="evenodd" d="M610.006 224.983C607.648 224.983 605.573 224.354 603.886 223.111C603.715 222.986 603.671 222.734 603.785 222.549C603.9 222.364 604.131 222.315 604.301 222.439C610.095 226.71 618.718 221.729 618.805 221.678C618.985 221.572 619.21 221.645 619.307 221.843C619.405 222.04 619.338 222.285 619.157 222.391C619.066 222.446 616.87 223.726 613.891 224.473C612.53 224.813 611.23 224.983 610.006 224.983Z" fill="#222222"/>
<path fill-rule="evenodd" clip-rule="evenodd" d="M632.301 186.012C631.56 186.012 630.823 186.139 630.11 186.405C626.275 187.836 624.591 192.766 626.354 197.394C627.214 199.647 628.751 201.491 630.683 202.585C632.594 203.665 634.661 203.881 636.507 203.194C640.341 201.763 642.025 196.833 640.262 192.204C638.826 188.437 635.541 186.012 632.301 186.012ZM634.304 204.303C632.973 204.303 631.614 203.933 630.325 203.204C628.247 202.028 626.598 200.054 625.679 197.646C623.776 192.65 625.649 187.308 629.855 185.738C634.062 184.168 639.033 186.957 640.937 191.952H640.937C642.841 196.949 640.968 202.292 636.761 203.861C635.969 204.157 635.142 204.303 634.304 204.303Z" fill="#222222"/>
<mask id="mask0_1_130" style="mask-type:alpha" maskUnits="userSpaceOnUse" x="627" y="181" width="13" height="19">
<path d="M627.052 181.534H639.633V199.775H627.052V181.534Z" fill="white"/>
</mask>
<g mask="url(#mask0_1_130)">
<path fill-rule="evenodd" clip-rule="evenodd" d="M631.13 182.236C630.791 182.236 630.466 182.292 630.158 182.405C628.971 182.843 628.162 184.092 627.878 185.924C627.584 187.828 627.897 190.109 628.76 192.345C630.517 196.896 633.999 199.842 636.528 198.909C637.715 198.472 638.525 197.222 638.807 195.391C639.102 193.486 638.788 191.206 637.925 188.969H637.925C637.062 186.733 635.756 184.818 634.248 183.577C633.173 182.694 632.097 182.236 631.13 182.236ZM635.586 199.775C632.887 199.775 629.733 196.856 628.088 192.593C627.182 190.246 626.855 187.84 627.168 185.819C627.492 183.725 628.464 182.279 629.904 181.749C631.347 181.218 633.052 181.677 634.711 183.041C636.312 184.357 637.692 186.374 638.598 188.721C639.503 191.069 639.83 193.475 639.517 195.496C639.194 197.59 638.222 199.035 636.781 199.566C636.398 199.707 635.997 199.775 635.586 199.775Z" fill="#222222"/>
</g>
<path fill-rule="evenodd" clip-rule="evenodd" d="M608.229 188.81C608.229 188.81 610.516 183.181 618.909 185.165C622.308 185.969 627.918 188.677 632.702 192.267C632.702 192.267 638.336 211.845 615.246 214.364C615.246 214.364 610.948 207.98 612.46 205.642C612.46 205.642 614.08 205.355 615.147 204.577C617.067 203.179 616.986 199.68 614.634 199.772C614.634 199.772 607.584 195.394 608.229 188.81Z" fill="#5FBFFD"/>
<path fill-rule="evenodd" clip-rule="evenodd" d="M612.452 206.191C611.549 207.968 613.99 212.367 615.17 214.169C622.264 213.356 627.277 210.813 630.071 206.609C633.898 200.853 632.281 193.762 632.032 192.787C626.998 189.028 621.526 186.563 618.555 185.86C610.929 184.057 608.615 188.679 608.369 189.228C607.837 195.063 613.71 199.165 614.488 199.68C615.422 199.685 616.129 200.197 616.438 201.098C616.846 202.292 616.459 204.115 615.104 205.103C614.182 205.775 612.903 206.095 612.452 206.191ZM614.824 214.922L614.705 214.746C614.254 214.076 610.348 208.132 611.932 205.68L612.015 205.551L612.166 205.524C612.182 205.522 613.711 205.242 614.691 204.528C615.767 203.744 616.09 202.257 615.771 201.33C615.619 200.883 615.269 200.357 614.4 200.392L614.293 200.397L614.202 200.34C613.909 200.157 607.018 195.795 607.673 189.103L607.698 189.004C607.722 188.945 610.183 183.149 618.716 185.168C622.455 186.053 628.144 188.982 632.551 192.291L632.646 192.362L632.679 192.478C632.774 192.804 634.935 200.568 630.656 207.005C627.713 211.433 622.457 214.089 615.035 214.899L614.824 214.922Z" fill="#222222"/>
<path fill-rule="evenodd" clip-rule="evenodd" d="M631.959 204.303C629.192 203.399 626.849 201.078 625.692 198.096C624.288 194.481 624.868 190.555 627.168 188.095L627.708 188.571C625.59 190.837 625.067 194.477 626.375 197.846C627.456 200.631 629.63 202.795 632.192 203.632L631.959 204.303Z" fill="white"/>
<path fill-rule="evenodd" clip-rule="evenodd" d="M632.914 199.273C630.969 198.028 629.235 195.696 628.156 192.874C627.625 191.485 627.293 190.086 627.168 188.718L627.888 188.654C628.008 189.958 628.326 191.292 628.834 192.622C629.843 195.265 631.516 197.527 633.308 198.674L632.914 199.273Z" fill="white"/>
<path fill-rule="evenodd" clip-rule="evenodd" d="M620.89 228.336C620.89 228.336 628.112 229.62 619.873 243.595C619.873 243.595 613.336 254.963 601.391 270.074C601.391 270.074 598.244 274.466 590.772 267.095L581.74 255.48L569.111 241.353C569.111 241.353 570.981 233.439 580.004 246.912C580.004 246.912 597.648 260.812 597.506 261.709C597.506 261.709 598.768 254.734 609.773 238.283L614.737 232.911" fill="#C1DCF3"/>
<path fill-rule="evenodd" clip-rule="evenodd" d="M598.256 259.635L597.581 259.324C597.64 259.194 603.564 246.168 608.741 240.073L609.304 240.561C604.194 246.576 598.315 259.505 598.256 259.635Z" fill="#222222"/>
<path fill-rule="evenodd" clip-rule="evenodd" d="M597.528 261.687C597.669 260.788 580.012 246.855 580.012 246.855C572.105 232.974 569.111 238.674 569.111 240.906C569.111 245.817 577.346 250.348 577.346 250.348L590.788 267.085C598.266 274.473 601.415 270.071 601.415 270.071C613.369 254.926 619.911 243.531 619.911 243.531" fill="#C1DCF3"/>
<path fill-rule="evenodd" clip-rule="evenodd" d="M572.46 243.105C572.46 243.105 567.868 239.437 567.997 242.257C567.997 242.257 570.283 245.342 572.441 246.221" fill="#C1DCF3"/>
<path fill-rule="evenodd" clip-rule="evenodd" d="M570.274 239.045C570.274 239.045 565.912 235.286 568.004 235.043C568.004 235.043 575.489 239.876 576.926 241.75" fill="#C1DCF3"/>
<path fill-rule="evenodd" clip-rule="evenodd" d="M576.31 241.75C575.047 240.092 568.717 235.906 567.725 235.255C567.668 235.272 567.64 235.292 567.636 235.304C567.507 235.697 568.754 237.224 570.306 238.571L569.795 239.118C566.752 236.477 566.815 235.361 566.907 235.082C566.982 234.853 567.192 234.567 567.764 234.501L567.905 234.484L568.023 234.56C568.327 234.758 575.485 239.423 576.926 241.316L576.31 241.75Z" fill="#222222"/>
<path fill-rule="evenodd" clip-rule="evenodd" d="M560.04 214.922C560.04 214.922 555.898 211.169 557.966 211.01C557.966 211.01 560.833 212.544 562.97 214.093" fill="#C1DCF3"/>
<mask id="mask1_1_130" style="mask-type:alpha" maskUnits="userSpaceOnUse" x="556" y="210" width="8" height="6">
<path d="M556.83 210.35H563.029V215.33H556.83V210.35Z" fill="white"/>
</mask>
<g mask="url(#mask1_1_130)">
<path fill-rule="evenodd" clip-rule="evenodd" d="M559.59 215.33C556.657 212.415 556.764 211.235 556.868 210.943C556.952 210.704 557.173 210.409 557.746 210.36L557.865 210.35L557.968 210.411C557.997 210.428 560.89 212.132 563.029 213.832L562.559 214.447C560.699 212.967 558.249 211.482 557.699 211.153C557.627 211.17 557.592 211.192 557.587 211.206C557.442 211.617 558.627 213.285 560.123 214.773L559.59 215.33Z" fill="#222222"/>
</g>
<path fill-rule="evenodd" clip-rule="evenodd" d="M597.971 261.789C598.113 260.9 580.366 247.115 580.366 247.115C571.217 236.069 573.2 242.485 573.2 242.485L582.113 255.612L591.197 267.13C598.713 274.44 601.879 270.084 601.879 270.084C613.894 255.1 620.469 243.826 620.469 243.826" fill="#C1DCF3"/>
<path fill-rule="evenodd" clip-rule="evenodd" d="M618.642 224.424C630.414 226.305 622.059 242.868 622.059 242.868L607.629 238.727L609.528 235.339" fill="#FCF36A"/>
<path fill-rule="evenodd" clip-rule="evenodd" d="M621.712 243.427C621.678 243.427 621.643 243.421 621.609 243.412L607.341 239.312C607.232 239.281 607.143 239.202 607.099 239.097C607.056 238.993 607.063 238.875 607.118 238.776L608.996 235.422C609.096 235.244 609.323 235.179 609.504 235.278C609.684 235.377 609.749 235.603 609.649 235.782L607.999 238.73L621.512 242.611C622.253 241.027 625.748 233.066 623.352 228.43C622.435 226.653 620.726 225.554 618.274 225.161C618.07 225.129 617.932 224.938 617.964 224.736C617.997 224.533 618.189 224.395 618.392 224.429C621.094 224.861 622.986 226.093 624.018 228.092C625.213 230.405 625.239 233.661 624.099 237.771C623.259 240.799 622.096 243.124 622.047 243.221C621.982 243.35 621.851 243.426 621.712 243.427Z" fill="#222222"/>
<path fill-rule="evenodd" clip-rule="evenodd" d="M568.815 350.737L568.553 350.026L576.706 347.106C576.721 345.497 576.764 336.705 576.036 327.602C574.983 314.45 572.84 306.639 569.836 305.011L570.206 304.348C577.959 308.547 577.495 345.795 577.472 347.378L577.468 347.639L568.815 350.737Z" fill="#222222"/>
<path fill-rule="evenodd" clip-rule="evenodd" d="M594.79 321.115C594.79 321.115 593.673 321.769 592.557 322.233Z" fill="white"/>
<path fill-rule="evenodd" clip-rule="evenodd" d="M592.928 322.792L592.557 322.034C593.699 321.428 594.858 320.565 594.87 320.556L595.348 321.248C595.297 321.285 594.125 322.157 592.928 322.792Z" fill="#5FBFFD"/>
<path fill-rule="evenodd" clip-rule="evenodd" d="M595.471 237.279C595.394 237.279 595.318 237.258 595.253 237.218L593.288 236.008C593.108 235.898 593.061 235.677 593.182 235.514C593.302 235.35 593.543 235.307 593.722 235.417L595.258 236.363C595.441 235.874 595.78 235.046 596.285 234.122C596.381 233.946 596.615 233.875 596.807 233.963C597 234.051 597.078 234.265 596.981 234.441C596.226 235.823 595.849 237.01 595.845 237.022C595.811 237.131 595.721 237.218 595.605 237.258C595.561 237.272 595.515 237.279 595.471 237.279Z" fill="#222222"/>
<path fill-rule="evenodd" clip-rule="evenodd" d="M531.151 62.8994H563.528V53.9569H531.151V62.8994Z" fill="white"/>
<path fill-rule="evenodd" clip-rule="evenodd" d="M547.506 77.2234C544.4 79.5781 539.987 78.9502 537.648 75.8203C535.311 72.6911 535.934 68.2444 539.04 65.8891C542.147 63.5344 546.56 64.1623 548.898 67.2916C551.236 70.4214 550.612 74.8681 547.506 77.2234Z" fill="#FCF36A"/>
<mask id="mask2_1_130" style="mask-type:alpha" maskUnits="userSpaceOnUse" x="531" y="81" width="74" height="18">
<path d="M531.151 81.9172H604.253V98.6694H531.151V81.9172Z" fill="white"/>
</mask>
<g mask="url(#mask2_1_130)">
<path fill-rule="evenodd" clip-rule="evenodd" d="M531.151 82.1213L548.183 98.6694H604.253L587.381 81.9172L531.151 82.1213Z" fill="white"/>
</g>
<mask id="mask3_1_130" style="mask-type:alpha" maskUnits="userSpaceOnUse" x="531" y="54" width="74" height="45">
<path d="M531.151 98.6696H604.253V54.234H531.151V98.6696Z" fill="white"/>
</mask>
<g mask="url(#mask3_1_130)">
<path fill-rule="evenodd" clip-rule="evenodd" d="M531.151 82.1215H565.419V73.1324H531.151V82.1215Z" fill="#E4F0F9"/>
<path fill-rule="evenodd" clip-rule="evenodd" d="M604.148 98.6696L581.048 76.1205L588.088 70.5176L604.148 86.8201V98.6696Z" fill="#E4F0F9"/>
<path fill-rule="evenodd" clip-rule="evenodd" d="M561.176 67.0624L574.715 77.7337L577.118 60.5842L561.176 67.0624ZM575.17 78.8704L559.971 66.8912L577.868 59.6194L575.17 78.8704Z" fill="#5FBFFD" stroke="#5FBFFD"/>
<path fill-rule="evenodd" clip-rule="evenodd" d="M551.357 59.5306L553.608 64.1379L558.18 61.8708L555.93 57.2635L551.357 59.5306ZM553.331 64.9585L550.543 59.2517L556.207 56.4436L558.995 62.1498L553.331 64.9585Z" fill="#FCF36A" stroke="#FCF36A"/>
<path fill-rule="evenodd" clip-rule="evenodd" d="M543.722 83.1429H587.926V70.6807H543.722V83.1429Z" fill="#F0F7FD"/>
<path fill-rule="evenodd" clip-rule="evenodd" d="M544.027 82.8356H587.622V70.9868H544.027V82.8356ZM543.418 83.449H588.23V70.3734H543.418V83.449Z" fill="white" stroke="white"/>
<path fill-rule="evenodd" clip-rule="evenodd" d="M565.737 78.0242C565.019 78.5683 563.998 78.4234 563.457 77.6992C562.916 76.9756 563.061 75.9472 563.779 75.4025C564.498 74.8578 565.518 75.0026 566.06 75.7268C566.6 76.4504 566.455 77.4794 565.737 78.0242Z" fill="#C1DCF3"/>
</g>
<path fill-rule="evenodd" clip-rule="evenodd" d="M472.089 264.523C472.089 264.523 471.534 275.964 472.639 278.289L475.212 282.288L467.289 278.302L466.169 276.224C466.169 276.224 468.43 268.156 465.718 261.015L472.089 264.523Z" fill="white"/>
<path fill-rule="evenodd" clip-rule="evenodd" d="M467.538 278.046L474.249 281.422L472.332 278.435C471.273 276.211 471.666 266.349 471.738 264.719L466.336 261.744C468.419 268.177 466.801 275.129 466.533 276.18L467.538 278.046ZM476.174 283.155L467.04 278.559L465.805 276.264L465.842 276.132C465.864 276.052 468.038 268.085 465.399 261.136L465.07 260.269L472.439 264.326L472.429 264.539C472.24 268.453 472.103 276.31 472.938 278.124L476.174 283.155Z" fill="#222222"/>
<mask id="mask4_1_130" style="mask-type:alpha" maskUnits="userSpaceOnUse" x="463" y="276" width="19" height="11">
<path d="M463.932 276.252H481.645V286.993H463.932V276.252Z" fill="white"/>
</mask>
<g mask="url(#mask4_1_130)">
<path fill-rule="evenodd" clip-rule="evenodd" d="M464.426 282.13C464.902 282.858 465.673 283.369 466.493 283.676C468.545 284.444 470.962 284.709 473.101 285.241C475.394 285.812 477.72 286.579 480.049 286.972C481.416 287.203 482.214 285.486 481.162 284.582C480.989 284.433 480.813 284.291 480.639 284.156C478.256 282.302 473.022 279.175 470.444 277.605C469.135 276.809 466.914 275.516 465.518 276.785C464.229 277.959 463.424 280.299 464.297 281.913C464.337 281.987 464.38 282.06 464.426 282.13Z" fill="#222222"/>
</g>
<path fill-rule="evenodd" clip-rule="evenodd" d="M477.421 283.553C476.728 283.553 475.864 283.458 475.391 283.042C475.146 282.825 475.017 282.539 475.02 282.213C475.021 282.072 475.103 281.944 475.231 281.884C475.927 281.558 476.878 280.902 476.855 280.518C476.851 280.456 476.788 280.242 476.152 280.009C474.631 280.617 472.145 281.434 471.564 280.561C471.452 280.393 471.498 280.165 471.666 280.053C471.835 279.94 472.062 279.986 472.174 280.155C472.428 280.405 474.255 279.988 476.004 279.278C476.084 279.245 476.175 279.242 476.257 279.269C477.109 279.551 477.557 279.957 477.587 280.476C477.638 281.343 476.412 282.098 475.807 282.416C475.826 282.442 475.849 282.467 475.875 282.491C476.309 282.872 477.626 282.86 478.353 282.761C478.555 282.735 478.738 282.874 478.766 283.075C478.793 283.276 478.653 283.461 478.452 283.488C478.356 283.501 477.935 283.553 477.421 283.553Z" fill="#5FBFFD"/>
<path fill-rule="evenodd" clip-rule="evenodd" d="M475.677 164.659C479.374 177.52 482.665 201.878 481.008 215.089C478.924 231.71 477.504 241.241 472.726 266.437C472.313 268.614 465.795 268.583 465.4 266.437C460.94 242.198 467.084 227.08 466.036 217.641C464.444 203.289 458.825 187.017 461.892 177.677C466.542 173.386 470.985 168.965 475.677 164.659Z" fill="#3E4B56"/>
<path fill-rule="evenodd" clip-rule="evenodd" d="M500.958 239.328C500.958 239.328 489.991 254.525 489.809 257.061L490.073 261.751L485.208 254.463L485.257 252.131C485.257 252.131 488.42 251.859 489.566 244.402L500.958 239.328Z" fill="white"/>
<path fill-rule="evenodd" clip-rule="evenodd" d="M485.551 254.363L489.663 260.522L489.468 257.058L489.47 257.037C489.632 254.779 497.356 243.784 499.948 240.151L489.874 244.639C488.877 250.849 486.454 252.139 485.592 252.404L485.551 254.363ZM490.483 262.98L484.864 254.563L484.924 251.818L485.228 251.792C485.253 251.789 488.148 251.385 489.229 244.35L489.257 244.167L501.975 238.501L501.235 239.528C498.21 243.719 490.345 255.009 490.151 257.066L490.483 262.98Z" fill="#222222"/>
<path fill-rule="evenodd" clip-rule="evenodd" d="M481.48 255.776C481.535 256.62 481.942 257.424 482.488 258.076C483.856 259.712 485.773 261.098 487.327 262.575C488.994 264.159 490.594 265.925 492.375 267.377C493.421 268.228 494.918 267.159 494.462 265.89C494.386 265.681 494.306 265.476 494.223 265.277C493.097 262.565 490.168 257.406 488.739 254.84C488.013 253.537 486.754 251.377 484.966 251.781C483.313 252.154 481.511 253.746 481.475 255.53C481.473 255.613 481.475 255.695 481.48 255.776Z" fill="#222222"/>
<path fill-rule="evenodd" clip-rule="evenodd" d="M508.444 206.319C496.658 204.724 487.816 202.711 478.5 196.432C469.186 190.153 469.124 182.494 472.519 173.405C481.084 175.233 490.662 175.792 498.379 179.748C506.096 183.704 512.267 185.588 519.713 192.6C526.277 198.781 529.468 199.94 523.108 209.281C512.585 225.454 503.029 238.849 497.295 245.866C497.295 245.866 491.143 245.709 489.65 244.271C493.731 231.432 495.702 214.292 509.081 206" fill="#75899D"/>
<path fill-rule="evenodd" clip-rule="evenodd" d="M490.052 244.154C491.368 245.118 495.416 245.454 497.134 245.513C503.218 238.045 513.041 224.115 522.815 209.091C528.351 200.961 526.6 199.365 521.401 194.63C520.8 194.082 520.155 193.495 519.474 192.853C513.77 187.482 508.924 185.19 503.312 182.536C501.678 181.763 499.989 180.964 498.22 180.058C492.708 177.233 486.155 176.142 479.818 175.086C477.474 174.696 475.054 174.293 472.741 173.808C468.971 184.105 470.761 190.795 478.695 196.143C487.74 202.24 496.141 204.302 508.474 205.972C508.614 205.88 508.756 205.791 508.898 205.703L509.264 206.296C498.564 212.927 495.18 225.506 492.193 236.603C491.482 239.251 490.808 241.755 490.052 244.154ZM497.456 246.218L497.286 246.215C497.029 246.207 490.981 246.036 489.409 244.522L489.252 244.372L489.318 244.166C490.097 241.714 490.789 239.143 491.521 236.422C494.419 225.654 497.689 213.508 507.605 206.556C502.898 205.904 497.504 205.018 492.443 203.465C487.27 201.877 482.777 199.734 478.306 196.721C467.84 189.667 469.342 180.915 472.193 173.283L472.298 173.001L472.592 173.065C474.978 173.573 477.497 173.993 479.932 174.398C486.322 175.462 492.929 176.562 498.537 179.438C500.296 180.339 501.98 181.135 503.609 181.906C509.039 184.474 514.166 186.899 519.952 192.346C520.629 192.984 521.271 193.569 521.87 194.114C527.102 198.88 529.267 200.853 523.395 209.477C513.554 224.604 503.654 238.634 497.564 246.086L497.456 246.218Z" fill="#3E4B56"/>
<path fill-rule="evenodd" clip-rule="evenodd" d="M465.979 126.979C466.131 127.005 466.291 127.003 466.431 127.06C469.831 128.466 474.768 128.055 473.76 131.604C471.915 138.087 466.993 145.337 464.839 151.704C463.93 154.389 463.444 157.439 461.991 159.812C461.886 159.694 461.991 159.812 458.689 158.399C454.588 156.31 454.611 156.322 456.302 151.917C459.305 144.092 462.273 136.253 465.268 128.425C465.459 127.923 465.74 127.46 465.979 126.979Z" fill="#C1DCF3"/>
<path fill-rule="evenodd" clip-rule="evenodd" d="M486.895 119.292C488.125 125.499 478.283 135.088 478.283 135.088L465.878 128.743C465.878 128.743 468.236 122.206 472.183 117.736" fill="white"/>
<path fill-rule="evenodd" clip-rule="evenodd" d="M478.758 113.787C469.931 116.971 463.765 127.983 463.765 127.983L467.55 129.954" fill="white"/>
<path fill-rule="evenodd" clip-rule="evenodd" d="M467.549 130.303C467.495 130.303 467.441 130.29 467.389 130.264L463.604 128.293C463.521 128.25 463.458 128.174 463.431 128.083C463.405 127.993 463.415 127.895 463.462 127.813C463.477 127.785 465.049 124.995 467.685 121.855C470.126 118.948 474.007 115.131 478.64 113.459C478.821 113.395 479.021 113.488 479.086 113.669C479.15 113.85 479.057 114.05 478.876 114.115C471.096 116.921 465.329 126.041 464.25 127.844L467.71 129.645C467.881 129.734 467.947 129.944 467.858 130.115C467.796 130.234 467.675 130.303 467.549 130.303Z" fill="#5FBFFD"/>
<path fill-rule="evenodd" clip-rule="evenodd" d="M497.698 128.551C496.707 124.49 495.715 120.429 494.725 116.369C498.928 116.341 500.374 114.375 504.383 113.486C504.383 113.486 518.649 110.002 525.635 108.58C526.422 108.365 533.961 103.035 542.313 95.7181C542.879 95.0804 546.719 98.255 544.749 100.944C539.4 108.243 538.137 110.351 531.085 115.351C525.957 119.061 511.581 123.223 503.511 126.54C501.619 127.318 499.638 127.887 497.698 128.551Z" fill="#C1DCF3"/>
<path fill-rule="evenodd" clip-rule="evenodd" d="M541.735 103.693C548.284 98.8806 549.691 91.6148 549.691 91.6148C550.146 87.9668 549.443 86.1459 548.161 86.0375C547.386 85.9721 546.864 85.0398 546.669 85.7938C546.272 87.333 545.975 88.2726 544.69 92.3604C544.014 90.0465 543.009 88.5028 542.593 88.2737C542.3 88.1127 541.95 88.3519 541.991 88.6834L542.074 92.4247C542.064 95.2242 542.07 97.3716 542.07 97.3716C542.07 97.3716 539.909 100.167 537.225 101.736" fill="#C1DCF3"/>
<path fill-rule="evenodd" clip-rule="evenodd" d="M546.497 87.4933C546.497 87.4933 547.837 82.3435 548.914 83.919C548.914 83.919 548.9 86.9617 548.542 89.4299" fill="#C1DCF3"/>
<path fill-rule="evenodd" clip-rule="evenodd" d="M548.886 89.4799L548.198 89.3793C548.509 87.2365 548.558 84.6191 548.565 84.0362C548.519 83.9853 548.484 83.9674 548.47 83.9686C548.082 84.0362 547.317 85.7241 546.833 87.5813L546.16 87.4053C547.106 83.7685 548.076 83.3297 548.35 83.2817C548.572 83.2431 548.904 83.2872 549.201 83.7221L549.262 83.8121V83.921C549.262 83.9512 549.244 87.0163 548.886 89.4799Z" fill="#C1DCF3"/>
<path fill-rule="evenodd" clip-rule="evenodd" d="M482.68 104.128L480.21 112.457C480.21 112.457 487.61 116.049 492.379 113.44C492.379 113.44 490.114 109.306 488.869 105.052L482.68 104.128Z" fill="#C1DCF3"/>
<path fill-rule="evenodd" clip-rule="evenodd" d="M485.033 79.2002L484.472 78.8191C485.113 77.8723 485.871 77.0747 486.663 76.5125L487.055 77.0669C486.328 77.5822 485.629 78.32 485.033 79.2002Z" fill="#222222"/>
<path fill-rule="evenodd" clip-rule="evenodd" d="M474.985 99.692C477.724 105.472 484.625 107.934 490.397 105.191C496.17 102.449 495.558 96.181 492.819 90.4013C490.08 84.6216 486.25 81.518 480.477 84.2611C474.704 87.0037 472.246 93.9124 474.985 99.692Z" fill="#C1DCF3"/>
<path fill-rule="evenodd" clip-rule="evenodd" d="M487.203 97.1573C487.902 98.6317 489.662 99.26 491.135 98.5602C492.607 97.8605 493.234 96.0982 492.536 94.6244C491.837 93.15 490.076 92.5218 488.604 93.2215C487.131 93.9213 486.504 95.6829 487.203 97.1573Z" fill="#A2C6E0"/>
<path fill-rule="evenodd" clip-rule="evenodd" d="M489.951 90.946C490.125 91.3149 490.566 91.4714 490.934 91.297C491.302 91.1215 491.459 90.6811 491.284 90.3128C491.109 89.9445 490.669 89.7874 490.301 89.9618C489.933 90.1373 489.776 90.5777 489.951 90.946Z" fill="#222222"/>
<path fill-rule="evenodd" clip-rule="evenodd" d="M494.486 94.8758C494.292 94.8758 494.135 94.7188 494.134 94.5243C494.134 94.3298 494.291 94.1716 494.486 94.171C495.026 94.1699 495.634 93.6999 495.823 93.5188C495.931 93.1164 494.351 91.4402 492.446 89.9334C492.293 89.8127 492.267 89.5919 492.387 89.4388C492.507 89.2867 492.729 89.2599 492.881 89.3806C493.485 89.8579 496.499 92.2998 496.53 93.4847C496.537 93.7071 496.456 93.8983 496.299 94.0375C496.275 94.0609 495.423 94.8736 494.487 94.8758H494.486Z" fill="#222222"/>
<path fill-rule="evenodd" clip-rule="evenodd" d="M490.139 100.313C489.612 100.313 489.027 100.161 488.423 99.7476C488.262 99.6375 488.22 99.4173 488.33 99.2558C488.44 99.0942 488.66 99.0529 488.822 99.163C490.346 100.206 491.536 99.0864 491.585 99.0378C491.725 98.9025 491.949 98.9053 492.085 99.0445C492.22 99.1837 492.219 99.4067 492.08 99.543C491.73 99.8884 491.017 100.313 490.139 100.313Z" fill="#222222"/>
<path fill-rule="evenodd" clip-rule="evenodd" d="M487.164 114.921C485.961 114.921 484.688 114.775 483.358 114.482C480.349 113.82 478.134 112.66 478.041 112.611C477.832 112.501 477.751 112.24 477.862 112.029C477.973 111.819 478.232 111.74 478.443 111.849C478.529 111.895 487.174 116.376 493.006 112.433C493.202 112.301 493.47 112.351 493.603 112.549C493.736 112.745 493.684 113.014 493.487 113.147C491.746 114.324 489.599 114.921 487.164 114.921Z" fill="#5FBFFD"/>
<path fill-rule="evenodd" clip-rule="evenodd" d="M489.895 78.5911C489.873 79.0829 489.774 79.5586 489.6 80.0197C491.101 80.0649 490.739 85.8105 489.488 85.4975C488.546 85.2617 487.839 86.2051 487.839 87.1485C487.839 88.5234 486.897 89.0354 486.897 89.0354C486.721 90.0945 485.164 89.2964 485.248 90.4506C485.318 91.4068 485.355 92.9153 483.889 93.4184C483.371 93.5961 483.239 92.4677 482.185 92.8086C477.645 94.2802 482.185 98.7051 484.305 98.7051C484.64 99.5429 484.541 102.479 483.599 103.894C483.693 105.237 483.087 104.392 482.759 105.765C482.436 107.117 482.882 106.886 481.714 107.197C479.641 107.747 476.988 106.98 474.679 107.075C473.516 107.122 472.557 107.108 471.69 106.189C471.319 105.796 471.19 105.002 470.815 104.685C470.439 104.367 469.654 104.476 469.138 104.088C468.006 103.239 468.924 103.412 468.24 102.48C468.183 102.404 468.16 102.232 468.095 102.149C467.473 101.358 466.302 101.574 465.661 100.544C463.339 96.8187 463.349 93.2501 464.517 89.743C464.753 89.0354 464.036 88.5933 464.485 86.7059C464.867 85.1024 464.808 84.3769 466.122 83.3222C466.419 83.0836 466.668 83.2675 466.914 82.9986C467.491 82.3682 467.388 81.1984 468.24 80.4992C468.763 80.07 469.449 80.089 469.95 79.7726C470.244 79.5871 470.371 79.2618 470.686 79.06C471.007 78.8543 472.17 78.4894 472.353 78.3027C472.544 78.1076 472.491 77.5739 472.655 77.3106C473.152 76.5187 474.145 75.4651 475.118 75.3556C479.307 74.8844 478.912 77.0943 480.016 76.6729C480.873 76.346 481.39 75.2052 482.489 74.8123C484.248 74.1835 484.979 75.4277 486.349 75.6389C487.393 75.7999 487.897 74.9397 489.002 75.9502C489.705 76.5935 489.942 77.6795 489.895 78.5911Z" fill="#222222"/>
<path fill-rule="evenodd" clip-rule="evenodd" d="M469.825 130.672C465.759 140.716 461.928 159.825 457.751 181.774L499.163 178.638L498.815 150.766C498.815 150.766 503.044 137.725 501.598 128.468" fill="white"/>
<path fill-rule="evenodd" clip-rule="evenodd" d="M491.359 117.959C494.348 112.382 504.295 112.738 504.295 112.738L508.906 126.378L501.732 128.519" fill="white"/>
<path fill-rule="evenodd" clip-rule="evenodd" d="M501.832 128.853L501.633 128.186L508.461 126.147L504.044 113.083C502.524 113.086 494.265 113.275 491.666 118.124L491.053 117.794C492.325 115.421 495.03 113.735 498.876 112.917C501.744 112.307 504.205 112.388 504.307 112.39L504.547 112.399L509.352 126.608L501.832 128.853Z" fill="#5FBFFD"/>
<path fill-rule="evenodd" clip-rule="evenodd" d="M498.466 129.513C498.305 129.513 498.16 129.401 498.126 129.237C498.086 129.048 498.207 128.863 498.395 128.824C504.902 127.452 508.749 126.064 508.787 126.05C508.969 125.985 509.167 126.078 509.233 126.259C509.299 126.439 509.205 126.639 509.025 126.705C508.987 126.719 505.098 128.123 498.538 129.506C498.514 129.511 498.49 129.513 498.466 129.513Z" fill="#5FBFFD"/>
<path fill-rule="evenodd" clip-rule="evenodd" d="M494.987 120.803L503.338 127.074C503.338 127.074 494.639 129.862 494.987 129.165C495.334 128.468 494.987 120.803 494.987 120.803Z" fill="white"/>
<path fill-rule="evenodd" clip-rule="evenodd" d="M457.306 182.157L457.413 181.696C460.085 170.191 461.879 161.502 463.319 154.519C465.606 143.442 466.986 136.757 469.502 130.541L470.147 130.803C467.655 136.959 466.28 143.622 464.002 154.66C462.579 161.552 460.813 170.107 458.198 181.391L498.811 178.316L498.466 150.771C498.478 150.6 499.533 136.686 501.258 128.397L501.939 128.539C500.224 136.782 499.172 150.653 499.162 150.792L499.515 178.961L499.188 178.986L457.306 182.157Z" fill="#5FBFFD"/>
<path fill-rule="evenodd" clip-rule="evenodd" d="M476.174 119.349L477.812 114.921C487.597 115.274 492.687 115.274 493.083 114.921C493.479 114.567 494.628 116.043 496.531 119.349L499.157 126.412L494.976 130.303C491.314 132.475 488.628 133.561 486.917 133.561C484.351 133.561 477.812 130.303 477.812 130.303C477.812 130.303 477.812 127.121 477.812 126.029C477.812 125.302 477.266 123.075 476.174 119.349Z" fill="white"/>
<path d="M1.33169 133.384V124.6H41.6517V133.384H26.2437V175H16.7397V133.384H1.33169ZM81.4531 150.88V175H72.3811V154.408C72.3811 152.008 71.7571 150.136 70.5091 148.792C69.3091 147.448 67.5331 146.776 65.1811 146.776C62.5891 146.776 60.4771 147.712 58.8451 149.584C57.2131 151.408 56.3971 153.832 56.3971 156.856V175H47.3251V124.6H56.3971V144.904C59.1811 140.488 63.3091 138.28 68.7811 138.28C72.6691 138.28 75.7411 139.432 77.9971 141.736C80.3011 143.992 81.4531 147.04 81.4531 150.88ZM124.205 159.304H96.7008C96.9888 162.04 98.0208 164.224 99.7968 165.856C101.573 167.44 103.805 168.232 106.493 168.232C110.909 168.232 114.197 166.048 116.357 161.68L123.125 165.568C119.765 172.528 114.173 176.008 106.349 176.008C101.261 176.008 96.9168 174.256 93.3168 170.752C89.7648 167.2 87.9888 162.664 87.9888 157.144C87.9888 151.624 89.7888 147.112 93.3888 143.608C97.0368 140.056 101.501 138.28 106.781 138.28C111.869 138.28 116.045 139.96 119.309 143.32C122.573 146.68 124.205 150.952 124.205 156.136V159.304ZM106.493 145.192C104.141 145.192 102.101 145.888 100.373 147.28C98.6448 148.672 97.4208 150.472 96.7008 152.68H115.853C115.421 150.328 114.389 148.504 112.757 147.208C111.125 145.864 109.037 145.192 106.493 145.192ZM152.037 175V124.6H161.685L182.709 156.64C182.805 156.784 183.117 157.312 183.645 158.224C184.173 159.088 184.581 159.88 184.869 160.6V124.6H194.085V175H184.437L163.413 142.744C163.317 142.6 163.005 142.072 162.477 141.16C161.853 140.104 161.445 139.312 161.253 138.784V175H152.037ZM237.549 159.304H210.045C210.333 162.04 211.365 164.224 213.141 165.856C214.917 167.44 217.149 168.232 219.837 168.232C224.253 168.232 227.541 166.048 229.701 161.68L236.469 165.568C233.109 172.528 227.517 176.008 219.693 176.008C214.605 176.008 210.261 174.256 206.661 170.752C203.109 167.2 201.333 162.664 201.333 157.144C201.333 151.624 203.133 147.112 206.733 143.608C210.381 140.056 214.845 138.28 220.125 138.28C225.213 138.28 229.389 139.96 232.653 143.32C235.917 146.68 237.549 150.952 237.549 156.136V159.304ZM219.837 145.192C217.485 145.192 215.445 145.888 213.717 147.28C211.989 148.672 210.765 150.472 210.045 152.68H229.197C228.765 150.328 227.733 148.504 226.101 147.208C224.469 145.864 222.381 145.192 219.837 145.192ZM244.763 175V124.6H253.835V143.68C256.667 140.08 260.579 138.28 265.571 138.28C270.467 138.28 274.523 139.984 277.739 143.392C281.003 146.8 282.635 151.384 282.635 157.144C282.635 162.904 280.979 167.488 277.667 170.896C274.403 174.304 270.323 176.008 265.427 176.008C260.435 176.008 256.571 174.208 253.835 170.608V175H244.763ZM256.067 164.632C257.987 166.552 260.411 167.512 263.339 167.512C266.267 167.512 268.667 166.552 270.539 164.632C272.459 162.664 273.419 160.168 273.419 157.144C273.419 154.12 272.459 151.648 270.539 149.728C268.667 147.76 266.267 146.776 263.339 146.776C260.411 146.776 257.987 147.76 256.067 149.728C254.195 151.648 253.259 154.12 253.259 157.144C253.259 160.168 254.195 162.664 256.067 164.632ZM289.552 161.464V139.288H298.624V159.376C298.624 164.8 301.048 167.512 305.896 167.512C308.44 167.512 310.456 166.624 311.944 164.848C313.432 163.024 314.176 160.648 314.176 157.72V139.288H323.248V175H314.176V169.384C311.824 173.8 308.032 176.008 302.8 176.008C298.912 176.008 295.72 174.736 293.224 172.192C290.776 169.648 289.552 166.072 289.552 161.464ZM332.302 175V124.6H341.374V175H332.302ZM383.289 175H374.073C372.921 173.416 372.345 171.52 372.345 169.312C369.849 173.776 365.865 176.008 360.393 176.008C356.841 176.008 353.937 175 351.681 172.984C349.473 170.92 348.369 168.208 348.369 164.848C348.369 161.44 349.569 158.752 351.969 156.784C354.369 154.816 357.417 153.568 361.113 153.04L371.841 151.384V150.016C371.841 146.416 369.657 144.616 365.289 144.616C363.225 144.616 361.641 145 360.537 145.768C359.433 146.536 358.881 147.496 358.881 148.648C358.881 148.984 358.929 149.272 359.025 149.512L350.889 152.248C350.457 151.288 350.241 150.28 350.241 149.224C350.241 146.296 351.609 143.752 354.345 141.592C357.081 139.384 360.729 138.28 365.289 138.28C375.705 138.28 380.913 142.6 380.913 151.24V166.144C380.913 169.744 381.705 172.696 383.289 175ZM362.553 168.664C365.289 168.664 367.521 167.776 369.249 166C370.977 164.176 371.841 161.608 371.841 158.296V157.648L363.201 159.088C359.217 159.76 357.225 161.512 357.225 164.344C357.225 165.736 357.705 166.816 358.665 167.584C359.625 168.304 360.921 168.664 362.553 168.664ZM389.606 175V124.6H398.678V143.68C401.51 140.08 405.422 138.28 410.414 138.28C415.31 138.28 419.366 139.984 422.582 143.392C425.846 146.8 427.478 151.384 427.478 157.144C427.478 162.904 425.822 167.488 422.51 170.896C419.246 174.304 415.166 176.008 410.27 176.008C405.278 176.008 401.414 174.208 398.678 170.608V175H389.606ZM400.91 164.632C402.83 166.552 405.254 167.512 408.182 167.512C411.11 167.512 413.51 166.552 415.382 164.632C417.302 162.664 418.262 160.168 418.262 157.144C418.262 154.12 417.302 151.648 415.382 149.728C413.51 147.76 411.11 146.776 408.182 146.776C405.254 146.776 402.83 147.76 400.91 149.728C399.038 151.648 398.102 154.12 398.102 157.144C398.102 160.168 399.038 162.664 400.91 164.632ZM118.287 245V194.6H141.183C146.991 194.6 151.575 196.04 154.935 198.92C158.343 201.752 160.047 205.784 160.047 211.016C160.047 216.248 158.343 220.304 154.935 223.184C151.575 226.016 146.991 227.432 141.183 227.432H127.791V245H118.287ZM127.791 203.096V218.936H140.895C144.111 218.936 146.511 218.24 148.095 216.848C149.727 215.456 150.543 213.512 150.543 211.016C150.543 208.52 149.727 206.576 148.095 205.184C146.511 203.792 144.111 203.096 140.895 203.096H127.791ZM166.575 245V194.6H175.647V245H166.575ZM217.563 245H208.347C207.195 243.416 206.619 241.52 206.619 239.312C204.123 243.776 200.139 246.008 194.667 246.008C191.115 246.008 188.211 245 185.955 242.984C183.747 240.92 182.643 238.208 182.643 234.848C182.643 231.44 183.843 228.752 186.243 226.784C188.643 224.816 191.691 223.568 195.387 223.04L206.115 221.384V220.016C206.115 216.416 203.931 214.616 199.563 214.616C197.499 214.616 195.915 215 194.811 215.768C193.707 216.536 193.155 217.496 193.155 218.648C193.155 218.984 193.203 219.272 193.299 219.512L185.163 222.248C184.731 221.288 184.515 220.28 184.515 219.224C184.515 216.296 185.883 213.752 188.619 211.592C191.355 209.384 195.003 208.28 199.563 208.28C209.979 208.28 215.187 212.6 215.187 221.24V236.144C215.187 239.744 215.979 242.696 217.563 245ZM196.827 238.664C199.563 238.664 201.795 237.776 203.523 236C205.251 234.176 206.115 231.608 206.115 228.296V227.648L197.475 229.088C193.491 229.76 191.499 231.512 191.499 234.344C191.499 235.736 191.979 236.816 192.939 237.584C193.899 238.304 195.195 238.664 196.827 238.664ZM223.825 259.4L225.265 250.976C226.321 251.552 227.401 251.84 228.505 251.84C230.377 251.84 231.721 250.712 232.537 248.456L233.689 245.288L219.001 209.288H229.297L238.513 232.472L247.297 209.288H257.593L240.601 251.48C239.353 254.6 237.769 256.832 235.849 258.176C233.977 259.52 231.625 260.192 228.793 260.192C226.921 260.192 225.265 259.928 223.825 259.4ZM262.481 245V194.6H271.553V213.68C274.385 210.08 278.297 208.28 283.289 208.28C288.185 208.28 292.241 209.984 295.457 213.392C298.721 216.8 300.353 221.384 300.353 227.144C300.353 232.904 298.697 237.488 295.385 240.896C292.121 244.304 288.041 246.008 283.145 246.008C278.153 246.008 274.289 244.208 271.553 240.608V245H262.481ZM273.785 234.632C275.705 236.552 278.129 237.512 281.057 237.512C283.985 237.512 286.385 236.552 288.257 234.632C290.177 232.664 291.137 230.168 291.137 227.144C291.137 224.12 290.177 221.648 288.257 219.728C286.385 217.76 283.985 216.776 281.057 216.776C278.129 216.776 275.705 217.76 273.785 219.728C271.913 221.648 270.977 224.12 270.977 227.144C270.977 230.168 271.913 232.664 273.785 234.632ZM338.587 213.32C342.475 216.632 344.419 221.24 344.419 227.144C344.419 233.048 342.475 237.68 338.587 241.04C334.747 244.352 330.187 246.008 324.907 246.008C319.627 246.008 315.043 244.352 311.155 241.04C307.315 237.68 305.395 233.048 305.395 227.144C305.395 221.24 307.315 216.632 311.155 213.32C315.043 209.96 319.627 208.28 324.907 208.28C330.187 208.28 334.747 209.96 338.587 213.32ZM317.635 234.704C319.651 236.576 322.075 237.512 324.907 237.512C327.739 237.512 330.163 236.576 332.179 234.704C334.195 232.832 335.203 230.312 335.203 227.144C335.203 223.976 334.195 221.456 332.179 219.584C330.163 217.712 327.739 216.776 324.907 216.776C322.075 216.776 319.651 217.712 317.635 219.584C315.619 221.456 314.611 223.976 314.611 227.144C314.611 230.312 315.619 232.832 317.635 234.704ZM382.673 213.32C386.561 216.632 388.505 221.24 388.505 227.144C388.505 233.048 386.561 237.68 382.673 241.04C378.833 244.352 374.273 246.008 368.993 246.008C363.713 246.008 359.129 244.352 355.241 241.04C351.401 237.68 349.481 233.048 349.481 227.144C349.481 221.24 351.401 216.632 355.241 213.32C359.129 209.96 363.713 208.28 368.993 208.28C374.273 208.28 378.833 209.96 382.673 213.32ZM361.721 234.704C363.737 236.576 366.161 237.512 368.993 237.512C371.825 237.512 374.249 236.576 376.265 234.704C378.281 232.832 379.289 230.312 379.289 227.144C379.289 223.976 378.281 221.456 376.265 219.584C374.249 217.712 371.825 216.776 368.993 216.776C366.161 216.776 363.737 217.712 361.721 219.584C359.705 221.456 358.697 223.976 358.697 227.144C358.697 230.312 359.705 232.832 361.721 234.704ZM404.655 194.6V220.088L415.527 209.288H426.759L413.727 222.032L428.487 245H418.047L407.391 228.296L404.655 230.96V245H395.583V194.6H404.655Z" fill="#151515"/>
</svg>
