<svg width="150" height="46" viewBox="0 0 150 46" fill="none" xmlns="http://www.w3.org/2000/svg">
<path d="M56.8954 31.5173V19.3173H60.0805V20.3118C61.0192 19.5493 62.1927 19.0852 63.5673 19.0852C65.2772 19.0852 66.8194 19.8477 67.8252 21.0412C68.6299 22.0026 69.0993 23.2292 69.0993 25.3178V31.5173H65.7801V25.0526C65.7801 23.8591 65.5119 23.2292 65.0425 22.7651C64.6066 22.3341 63.9361 22.1021 63.1985 22.1021C61.7904 22.1021 60.6504 22.9972 60.1811 23.6271V31.5173H56.8954Z" fill="#151515"/>
<path d="M82.6442 29.5611C81.4372 30.9534 79.4926 31.7491 77.5816 31.7491C73.8936 31.7491 71.1109 29.2295 71.1109 25.4171C71.1109 22.0355 73.4578 19.0519 77.1122 19.0519C80.532 19.0519 82.9459 21.9029 82.9459 25.2844C82.9459 25.616 82.9124 25.9475 82.8789 26.2127H74.3295C74.4971 27.9366 75.9052 29.0969 77.6487 29.0969C79.0568 29.0969 80.1632 28.3013 80.7667 27.7045L82.6442 29.5611ZM79.5597 23.8258C79.4591 22.7317 78.4533 21.704 77.1122 21.704C75.7376 21.704 74.6312 22.7317 74.4636 23.8258H79.5597Z" fill="#151515"/>
<path d="M85.2258 31.4943V13.6255H88.545V20.1564C89.5172 19.3939 90.6907 19.0292 92.0318 19.0292C95.3845 19.0292 98.1002 21.7808 98.1002 25.3944C98.1002 27.052 97.4967 28.5769 96.5244 29.671C95.418 30.9307 93.7081 31.7264 91.8641 31.7264C90.6236 31.7264 89.4502 31.3617 88.4444 30.4998V31.4943H85.2258ZM88.545 27.2177C89.182 28.1128 90.2884 28.7427 91.5289 28.7427C93.3728 28.7427 94.781 27.3503 94.781 25.4275C94.781 23.6705 93.5405 22.0792 91.5959 22.0792C90.3219 22.0792 89.2155 22.6759 88.545 23.6042V27.2177V27.2177Z" fill="#151515"/>
<path d="M112.081 19.3183V31.5183H108.896V30.5237C107.924 31.3857 106.75 31.7503 105.577 31.7503C103.867 31.7503 102.358 30.9547 101.386 29.7944C100.581 28.833 100.145 27.5732 100.145 25.783V19.3183H103.464V25.9156C103.464 27.0096 103.699 27.5732 104.068 28.0042C104.571 28.5677 105.275 28.7667 105.912 28.7667C107.32 28.7667 108.326 27.8384 108.795 27.2417V19.3183H112.081Z" fill="#151515"/>
<path d="M118.686 31.4943H115.367V13.6255H118.686V31.4943Z" fill="#151515"/>
<path d="M133.84 31.517H130.655V30.5225C129.649 31.3844 128.476 31.7491 127.235 31.7491C125.391 31.7491 123.681 30.9534 122.575 29.6937C121.603 28.5996 120.999 27.0747 120.999 25.4171C120.999 21.8366 123.681 19.0519 127.067 19.0519C128.476 19.0519 129.716 19.516 130.688 20.2785V19.2839H133.873V31.517H133.84ZM130.521 23.5937C129.85 22.6986 128.744 22.0687 127.47 22.0687C125.525 22.0687 124.285 23.66 124.285 25.4171C124.285 27.3399 125.693 28.7323 127.537 28.7323C128.777 28.7323 129.884 28.1355 130.521 27.2073V23.5937V23.5937Z" fill="#151515"/>
<path d="M137.126 31.4943V13.6255H140.445V20.1564C141.417 19.3939 142.59 19.0292 143.932 19.0292C147.284 19.0292 150 21.7808 150 25.3944C150 27.052 149.396 28.5769 148.424 29.671C147.318 30.9307 145.608 31.7264 143.764 31.7264C142.523 31.7264 141.35 31.3617 140.344 30.4998V31.4943H137.126ZM140.445 27.2177C141.082 28.1128 142.188 28.7427 143.429 28.7427C145.273 28.7427 146.681 27.3503 146.681 25.4275C146.681 23.6705 145.44 22.0792 143.496 22.0792C142.222 22.0792 141.115 22.6759 140.445 23.6042V27.2177V27.2177Z" fill="#151515"/>
<path d="M22.9325 0C10.2593 0 0 10.1445 0 22.676C0 35.2075 10.2593 45.352 22.9325 45.352C35.6057 45.352 45.865 35.2075 45.865 22.676C45.865 10.1445 35.6057 0 22.9325 0ZM10.9298 34.4781L13.679 24.3667L18.641 26.8531L21.1556 31.7596L10.9298 34.4781ZM26.5869 34.1797L21.4573 24.201L11.3657 19.1287L34.9352 10.907L26.5869 34.1797Z" fill="#5DBEFD"/>
</svg>
